<svg xmlns="http://www.w3.org/2000/svg" width="972" height="246" viewBox="0 0 972 246" fill="none">
  <foreignObject x="-20" y="-20" width="1012" height="286"><div xmlns="http://www.w3.org/1999/xhtml" style="backdrop-filter:blur(10px);clip-path:url(#bgblur_0_0_52617_clip_path);height:100%;width:100%"></div></foreignObject><path data-figma-bg-blur-radius="20" d="M952 0.5C962.77 0.5 971.5 9.23045 971.5 20V226C971.5 236.77 962.77 245.5 952 245.5H20C9.23045 245.5 0.5 236.77 0.5 226V0.5H952Z" fill="white" fill-opacity="0.06" stroke="url(#paint0_linear_0_52617)"/>
  <defs>
    <clipPath id="bgblur_0_0_52617_clip_path" transform="translate(20 20)"><path d="M952 0.5C962.77 0.5 971.5 9.23045 971.5 20V226C971.5 236.77 962.77 245.5 952 245.5H20C9.23045 245.5 0.5 236.77 0.5 226V0.5H952Z"/>
  </clipPath><linearGradient id="paint0_linear_0_52617" x1="972" y1="245.96" x2="422.954" y2="620.318" gradientUnits="userSpaceOnUse">
  <stop stop-color="white" stop-opacity="0"/>
  <stop offset="1" stop-color="white" stop-opacity="0.3"/>
</linearGradient>
</defs>
</svg>