<svg width="80" height="72" viewBox="0 0 80 72" fill="none" xmlns="http://www.w3.org/2000/svg">
<g clip-path="url(#clip0_5994_36950)">
<path d="M39.9375 32.1613L74.8569 49.5288L39.9375 67.7277L5.0181 49.5288L39.9375 32.1613Z" fill="url(#paint0_linear_5994_36950)"/>
<path d="M48.6034 63.2553L40.2891 64.5024L68.142 46.2109L74.7935 49.5367L48.6034 63.2553Z" fill="url(#paint1_linear_5994_36950)"/>
<path d="M79.4298 49.3718L79.309 49.436L79.3552 49.5237L79.3028 49.6301L79.4471 49.7012L79.4485 49.7026L78.7842 50.0492L78.6447 49.7813L77.9804 50.1279L78.1199 50.3959L77.4563 50.7418L77.3168 50.4739L76.6525 50.8205L76.7927 51.0878L76.1277 51.4337L75.9882 51.1658L75.3246 51.5118L75.4641 51.7797L74.7998 52.1263L74.6603 51.8584L73.9967 52.2044L74.1362 52.4723L73.4719 52.8176L73.3324 52.551L72.6681 52.8963L72.8076 53.1642L72.144 53.5102L72.0045 53.2422L71.3402 53.5889L71.4797 53.8554L70.8154 54.2021L70.6766 53.9348L70.0116 54.2808L70.1518 54.548L69.4875 54.8947L69.348 54.6268L68.6844 54.9727L68.8239 55.2406L68.1596 55.5859L68.0201 55.3194L67.3558 55.6646L67.4953 55.9326L66.831 56.2792L66.6915 56.0113L66.0279 56.3572L66.1674 56.6252L65.5038 56.9711L65.3637 56.7039L64.7 57.0498L64.8388 57.3171L64.1752 57.663L64.0358 57.3951L63.3715 57.7418L63.5109 58.0097L62.8473 58.3556L62.7079 58.0877L62.0436 58.4344L62.1831 58.7009L61.5188 59.0476L61.3793 58.7796L60.7157 59.1256L60.8552 59.3935L60.1909 59.7402L60.0514 59.4722L59.3878 59.8182L59.5273 60.0847L58.863 60.4314L58.7228 60.1642L58.0592 60.5101L58.1987 60.778L57.5351 61.124L57.3956 60.8561L56.7313 61.2027L56.8708 61.4693L56.2065 61.8159L56.0677 61.5487L55.4027 61.8946L55.5422 62.1626L54.8786 62.5085L54.7391 62.2406L54.0748 62.5872L54.215 62.8545L53.55 63.2004L53.4112 62.9332L52.7469 63.2785L52.8864 63.5464L52.2221 63.893L52.0826 63.6251L51.419 63.9711L51.5585 64.239L50.8949 64.5849L50.7547 64.3177L50.0904 64.663L50.2299 64.9309L49.5663 65.2769L49.4268 65.0089L48.7625 65.3556L48.902 65.6235L48.2384 65.9695L48.0989 65.7015L47.4339 66.0475L47.5741 66.3147L46.9098 66.6614L46.7703 66.3935L46.1067 66.7394L46.2462 67.0073L45.5819 67.3526L45.4424 67.0861L44.7788 67.432L44.9176 67.6993L44.254 68.0452L44.1138 67.778L43.4502 68.1239L43.5897 68.3919L42.9261 68.7378L42.786 68.4706L42.1223 68.8165L42.2611 69.0838L41.5975 69.4297L41.4581 69.1618L40.7938 69.5085L40.9332 69.7764L40.2696 70.1223L40.1302 69.8544L39.9375 69.9545L39.7448 69.8544L39.6054 70.1223L38.9418 69.7764L39.0812 69.5085L38.4169 69.1618L38.2775 69.4297L37.6139 69.0838L37.7527 68.8165L37.089 68.4706L36.9489 68.7378L36.2853 68.3919L36.4248 68.1239L35.7612 67.778L35.6217 68.0459L34.9574 67.6993L35.0962 67.432L34.4326 67.0861L34.2931 67.3526L33.6288 67.0073L33.7683 66.7394L33.1047 66.3935L32.9652 66.6614L32.3009 66.3147L32.4411 66.0475L31.7761 65.7015L31.6366 65.9695L30.973 65.6235L31.1125 65.3556L30.4482 65.0089L30.3087 65.2769L29.6451 64.9309L29.7846 64.663L29.1203 64.3177L28.9801 64.5849L28.3165 64.239L28.456 63.9711L27.7924 63.6251L27.6529 63.893L26.9886 63.5464L27.1281 63.2785L26.4638 62.9332L26.325 63.2004L25.66 62.8545L25.8002 62.5872L25.1359 62.2406L24.9964 62.5085L24.3328 62.1626L24.4723 61.8946L23.8073 61.5487L23.6685 61.8159L23.0042 61.4693L23.1437 61.2027L22.4794 60.8561L22.3399 61.124L21.6763 60.778L21.8158 60.5101L21.1522 60.1642L21.012 60.4314L20.3477 60.0847L20.4872 59.8182L19.8236 59.4722L19.6841 59.7402L19.0198 59.3935L19.1593 59.1256L18.4957 58.7796L18.3562 59.0476L17.6919 58.7009L17.8314 58.4344L17.1671 58.0877L17.0277 58.3556L16.3641 58.0097L16.5035 57.7418L15.8392 57.3951L15.6998 57.663L15.0362 57.3171L15.175 57.0498L14.5113 56.7039L14.3712 56.9711L13.7076 56.6252L13.8471 56.3572L13.1835 56.0113L13.044 56.2792L12.3797 55.9326L12.5192 55.6646L11.8549 55.3194L11.7154 55.5859L11.0511 55.2406L11.1906 54.9727L10.527 54.6268L10.3875 54.8947L9.72319 54.548L9.86337 54.2808L9.19838 53.9348L9.05958 54.2021L8.39529 53.8554L8.53478 53.5889L7.87048 53.2422L7.731 53.5102L7.06739 53.1642L7.20688 52.8963L6.54259 52.551L6.4031 52.8176L5.73881 52.4723L5.87829 52.2044L5.21469 51.8584L5.0752 52.1263L4.41091 51.7797L4.5504 51.5118L3.88679 51.1658L3.74731 51.4337L3.08232 51.0878L3.2225 50.8205L2.55821 50.4739L2.41872 50.7418L1.75512 50.3959L1.8946 50.1279L1.23031 49.7813L1.09082 50.0492L0.426528 49.7026L0.427909 49.7012L0.572231 49.6301L0.51975 49.5237L0.566016 49.436L0.445173 49.3718L0.438267 49.3594L1.12535 49.0176L1.25931 49.2882L1.94639 48.9464L1.81174 48.6764L2.49882 48.3346L2.63347 48.6046L3.32056 48.2628L3.1859 47.9928L3.87298 47.651L4.00695 47.9217L4.69403 47.5799L4.55937 47.3099L5.24646 46.968L5.38111 47.238L6.06819 46.8962L5.93354 46.6262L6.62062 46.2844L6.75458 46.5551L7.44166 46.2133L7.3077 45.9426L7.99409 45.6015L8.12874 45.8715L8.81583 45.5297L8.68117 45.2597L9.36825 44.9179L9.50291 45.1879L10.1893 44.8467L10.0553 44.576L10.7424 44.2342L10.8764 44.5049L11.5635 44.1631L11.4288 43.8931L12.1159 43.5513L12.2505 43.8213L12.9376 43.4795L12.803 43.2095L13.49 42.8677L13.624 43.1383L14.3111 42.7965L14.1771 42.5258L14.8635 42.1847L14.9982 42.4547L15.6853 42.1129L15.5506 41.8429L16.2377 41.5011L16.3723 41.7711L17.0587 41.43L16.9248 41.1593L17.6112 40.8182L17.7458 41.0882L18.4329 40.7463L18.2982 40.4763L18.9853 40.1345L19.12 40.4045L19.8064 40.0634L19.6724 39.7927L20.3595 39.4509L20.4934 39.7216L21.1812 39.3805L21.0459 39.1098L21.733 38.768L21.8683 39.0386L22.5554 38.6968L22.42 38.4261L23.1071 38.0843L23.2418 38.3557L23.9289 38.0139L23.7949 37.7432V37.7418L24.4813 37.4007V37.4021L24.6159 37.6721L25.303 37.3303L25.1684 37.0603V37.0589L25.8554 36.7171V36.7185L25.9901 36.9885L26.6765 36.6473L26.5425 36.3766V36.3753L27.2296 36.0334V36.0348L27.3636 36.3055L28.0506 35.9637L27.916 35.6937V35.6923L28.6031 35.3505V35.3519L28.7377 35.6219L29.4248 35.2801L29.2902 35.0101V35.0087L29.9772 34.6669V34.6683L30.1112 34.9389L30.7983 34.5971L30.6636 34.3271V34.3258L31.3507 33.9839V33.9853L31.4854 34.2553L32.1724 33.9135L32.0378 33.6435V33.6421L32.7249 33.3003V33.3017L32.8588 33.5724L33.5459 33.2306L33.412 32.9599L34.0983 32.6174V32.6188L34.233 32.8888L34.9201 32.5469L34.7854 32.2769V32.2756L35.4725 31.9337V31.9351L35.6072 32.2051L36.2936 31.864L36.1596 31.5933L36.8467 31.2515L36.9806 31.5222L37.6677 31.1804L37.5331 30.9104V30.909L38.2201 30.5672V30.5686L38.3548 30.8386L39.0419 30.4967L38.9072 30.2267L39.5943 29.8849L39.7283 30.1556L39.9375 30.0513L40.1467 30.1556L40.2807 29.8849L40.9678 30.2267L40.8331 30.4967L41.5202 30.8386L41.6549 30.5686V30.5672L42.3419 30.909V30.9104L42.2073 31.1804L42.8944 31.5222L43.0283 31.2515L43.7154 31.5933L43.5814 31.864L44.2678 32.2051L44.4025 31.9351V31.9337L45.0896 32.2756V32.2769L44.9549 32.5469L45.642 32.8888L45.7767 32.6188V32.6174L46.463 32.9599L46.3291 33.2306L47.0162 33.5724L47.1501 33.3017V33.3003L47.8372 33.6421V33.6435L47.7026 33.9135L48.3896 34.2553L48.5243 33.9853V33.9839L49.2114 34.3258V34.3271L49.0767 34.5971L49.7638 34.9389L49.8978 34.6683V34.6669L50.5848 35.0087V35.0101L50.4502 35.2801L51.1373 35.6219L51.2719 35.3519V35.3505L51.959 35.6923V35.6937L51.8244 35.9637L52.5114 36.3055L52.6454 36.0348V36.0334L53.3325 36.3753V36.3766L53.1985 36.6473L53.8849 36.9885L54.0196 36.7185V36.7171L54.7066 37.0589V37.0603L54.572 37.3303L55.2591 37.6721L55.3937 37.4021V37.4007L56.0801 37.7418V37.7432L55.9461 38.0139L56.6332 38.3557L56.7679 38.0843L57.455 38.4261L57.3196 38.6968L58.0067 39.0386L58.142 38.768L58.8291 39.1098L58.6938 39.3805L59.3816 39.7216L59.5155 39.4509L60.2026 39.7927L60.0686 40.0634L60.755 40.4045L60.8897 40.1345L61.5768 40.4763L61.4421 40.7463L62.1292 41.0882L62.2638 40.8182L62.9502 41.1593L62.8163 41.43L63.5027 41.7711L63.6373 41.5011L64.3244 41.8429L64.1897 42.1129L64.8768 42.4547L65.0115 42.1847L65.6979 42.5258L65.5639 42.7965L66.251 43.1383L66.385 42.8677L67.072 43.2095L66.9374 43.4795L67.6245 43.8213L67.7591 43.5513L68.4462 43.8931L68.3115 44.1631L68.9986 44.5049L69.1326 44.2342L69.8197 44.576L69.6857 44.8467L70.3721 45.1879L70.5067 44.9179L71.1938 45.2597L71.0592 45.5297L71.7463 45.8715L71.8809 45.6015L72.5673 45.9426L72.4333 46.2133L73.1204 46.5551L73.2544 46.2844L73.9415 46.6262L73.8068 46.8962L74.4939 47.238L74.6285 46.968L75.3156 47.3099L75.181 47.5799L75.8681 47.9217L76.002 47.651L76.6891 47.9928L76.5544 48.2628L77.2415 48.6046L77.3762 48.3346L78.0633 48.6764L77.9286 48.9464L78.6157 49.2882L78.7497 49.0176L79.4367 49.3594L79.4298 49.3718Z" stroke="url(#paint2_linear_5994_36950)" stroke-width="0.603774" stroke-dasharray="0.75 0.75"/>
<path d="M40.2898 51.0899L11.8087 36.2303L40.2904 21.3879L68.7701 36.231L40.2898 51.0899Z" fill="url(#paint3_linear_5994_36950)" stroke="url(#paint4_linear_5994_36950)" stroke-width="0.188679"/>
<path d="M40.1914 51.249V64.3379L11.6963 49.4727V36.3828L40.1914 51.249Z" fill="url(#paint5_linear_5994_36950)" stroke="url(#paint6_linear_5994_36950)" stroke-width="0.188679"/>
<path d="M40.3828 51.249V64.3379L68.8779 49.4727V36.3828L40.3828 51.249Z" fill="url(#paint7_linear_5994_36950)" stroke="url(#paint8_linear_5994_36950)" stroke-width="0.188679"/>
<path d="M68.9703 39.5547L40.286 54.7976V57.0147L68.9703 41.7718V39.5547Z" fill="url(#paint9_linear_5994_36950)"/>
<path d="M11.6016 39.5547L40.286 54.7976V57.0147L11.6016 41.7718V39.5547Z" fill="url(#paint10_linear_5994_36950)"/>
</g>
<g filter="url(#filter0_f_5994_36950)">
<ellipse cx="40.75" cy="32.625" rx="9.75" ry="4.875" fill="#4E8CFF" fill-opacity="0.4"/>
</g>
<rect x="38.5" y="28.5" width="3" height="3.75" fill="url(#paint11_linear_5994_36950)"/>
<rect x="47.5" y="30.75" width="2.25" height="15" rx="0.75" transform="rotate(90 47.5 30.75)" fill="url(#paint12_linear_5994_36950)"/>
<rect x="26.5" y="9" width="27" height="19.5" rx="2.25" fill="url(#paint13_linear_5994_36950)"/>
<rect x="26.5" y="9.75" width="27" height="18.75" rx="2.25" fill="url(#paint14_linear_5994_36950)"/>
<foreignObject x="42.8116" y="16.3203" width="18.7427" height="19.4375"><div xmlns="http://www.w3.org/1999/xhtml" style="backdrop-filter:blur(1.88px);clip-path:url(#bgblur_1_5994_36950_clip_path);height:100%;width:100%"></div></foreignObject><rect data-figma-bg-blur-radius="3.75" x="49.2401" y="20.1292" width="8.82603" height="9.82318" rx="0.5625" transform="rotate(15.471 49.2401 20.1292)" fill="url(#paint15_linear_5994_36950)" fill-opacity="0.2" stroke="url(#paint16_linear_5994_36950)" stroke-width="0.375"/>
<rect x="50.457" y="22.2227" width="3.28608" height="1.07981" rx="0.15" transform="rotate(15.471 50.457 22.2227)" fill="white"/>
<rect x="49.9727" y="23.957" width="3.28608" height="1.07981" rx="0.15" transform="rotate(15.471 49.9727 23.957)" fill="white"/>
<path d="M42.9805 13.3125L42.8887 13.5645L38.7939 24.8145L38.749 24.9375H37.0195L37.1113 24.6855L41.2061 13.4355L41.251 13.3125H42.9805ZM37.1846 16.4736L37.0518 16.6055L34.5322 19.124L37.1846 21.7764L36.0352 22.9258L35.9033 22.793L32.3672 19.2578L32.2344 19.125L32.3672 18.9922L35.9033 15.457L36.0352 15.3242L37.1846 16.4736ZM44.0967 15.457L47.6328 18.9922L47.7656 19.125L47.6328 19.2578L44.0967 22.793L43.9648 22.9258L42.8154 21.7764L42.9482 21.6436L45.4668 19.124L42.9482 16.6055L42.8154 16.4736L43.9648 15.3242L44.0967 15.457Z" fill="url(#paint17_linear_5994_36950)" stroke="url(#paint18_linear_5994_36950)" stroke-width="0.375"/>
<defs>
<filter id="filter0_f_5994_36950" x="22" y="18.75" width="37.5" height="27.75" filterUnits="userSpaceOnUse" color-interpolation-filters="sRGB">
<feFlood flood-opacity="0" result="BackgroundImageFix"/>
<feBlend mode="normal" in="SourceGraphic" in2="BackgroundImageFix" result="shape"/>
<feGaussianBlur stdDeviation="4.5" result="effect1_foregroundBlur_5994_36950"/>
</filter>
<clipPath id="bgblur_1_5994_36950_clip_path" transform="translate(-42.8116 -16.3203)"><rect x="49.2401" y="20.1292" width="8.82603" height="9.82318" rx="0.5625" transform="rotate(15.471 49.2401 20.1292)"/>
</clipPath><linearGradient id="paint0_linear_5994_36950" x1="39.9375" y1="-1.60354" x2="39.9375" y2="67.6102" gradientUnits="userSpaceOnUse">
<stop stop-color="#F1F8FF"/>
<stop offset="1" stop-color="#C1D9F4"/>
</linearGradient>
<linearGradient id="paint1_linear_5994_36950" x1="76.0406" y1="50.3681" x2="43.1991" y2="62.0081" gradientUnits="userSpaceOnUse">
<stop stop-color="#B2CFF1"/>
<stop offset="1" stop-color="#94BFE9"/>
</linearGradient>
<linearGradient id="paint2_linear_5994_36950" x1="39.4552" y1="35.8126" x2="39.4552" y2="69.9013" gradientUnits="userSpaceOnUse">
<stop stop-color="#DFECFB"/>
<stop offset="1" stop-color="#C2DAF4"/>
</linearGradient>
<linearGradient id="paint3_linear_5994_36950" x1="38.2403" y1="16.2544" x2="41.825" y2="71.9739" gradientUnits="userSpaceOnUse">
<stop offset="0.14795" stop-color="white"/>
<stop offset="1" stop-color="#F2F8FF"/>
</linearGradient>
<linearGradient id="paint4_linear_5994_36950" x1="40.2897" y1="50.5726" x2="36.1923" y2="22.913" gradientUnits="userSpaceOnUse">
<stop stop-color="white"/>
<stop offset="1" stop-color="white" stop-opacity="0"/>
</linearGradient>
<linearGradient id="paint5_linear_5994_36950" x1="52.3417" y1="51.608" x2="40.4194" y2="70.2949" gradientUnits="userSpaceOnUse">
<stop stop-color="#D5E8FD"/>
<stop offset="1" stop-color="#E8F7FF"/>
</linearGradient>
<linearGradient id="paint6_linear_5994_36950" x1="39.5162" y1="51.7371" x2="30.2413" y2="61.1168" gradientUnits="userSpaceOnUse">
<stop stop-color="white"/>
<stop offset="0.849412" stop-color="white" stop-opacity="0"/>
</linearGradient>
<linearGradient id="paint7_linear_5994_36950" x1="39.8725" y1="50.7766" x2="50.6099" y2="65.4261" gradientUnits="userSpaceOnUse">
<stop stop-color="#B6D4F4"/>
<stop offset="0.930421" stop-color="#E3EFFF"/>
</linearGradient>
<linearGradient id="paint8_linear_5994_36950" x1="41.1197" y1="49.5295" x2="52.4534" y2="59.1568" gradientUnits="userSpaceOnUse">
<stop stop-color="white"/>
<stop offset="1" stop-color="white" stop-opacity="0"/>
</linearGradient>
<linearGradient id="paint9_linear_5994_36950" x1="53.5889" y1="66.9919" x2="28.5226" y2="67.1935" gradientUnits="userSpaceOnUse">
<stop stop-color="#5381ED"/>
<stop offset="0.216291" stop-color="#3261CE"/>
<stop offset="0.511015" stop-color="#3261CE"/>
<stop offset="0.55182" stop-color="#8FD3FA"/>
<stop offset="0.911211" stop-color="#7CCCFA"/>
<stop offset="1" stop-color="#6BC2F4"/>
</linearGradient>
<linearGradient id="paint10_linear_5994_36950" x1="53.5889" y1="66.9919" x2="28.5226" y2="67.1935" gradientUnits="userSpaceOnUse">
<stop stop-color="#5381ED"/>
<stop offset="0.216291" stop-color="#3261CE"/>
<stop offset="0.511015" stop-color="#3261CE"/>
<stop offset="0.55182" stop-color="#8FD3FA"/>
<stop offset="0.911211" stop-color="#7CCCFA"/>
<stop offset="1" stop-color="#6BC2F4"/>
</linearGradient>
<linearGradient id="paint11_linear_5994_36950" x1="41.875" y1="26.25" x2="42.725" y2="33.9198" gradientUnits="userSpaceOnUse">
<stop stop-color="#6EC2FF"/>
<stop offset="1" stop-color="#2F81FF"/>
</linearGradient>
<linearGradient id="paint12_linear_5994_36950" x1="39.625" y1="55.875" x2="29.7993" y2="41.9991" gradientUnits="userSpaceOnUse">
<stop stop-color="#6EC2FF"/>
<stop offset="1" stop-color="#3267E1"/>
</linearGradient>
<linearGradient id="paint13_linear_5994_36950" x1="36.8846" y1="7.22727" x2="36.8846" y2="30.2727" gradientUnits="userSpaceOnUse">
<stop offset="0.0615831" stop-color="#BEDCFF"/>
<stop offset="1" stop-color="#5BB0FF"/>
</linearGradient>
<linearGradient id="paint14_linear_5994_36950" x1="34.375" y1="1.875" x2="45.1387" y2="45.1967" gradientUnits="userSpaceOnUse">
<stop offset="0.0665847" stop-color="#6EC2FF"/>
<stop offset="1" stop-color="#3267E1"/>
</linearGradient>
<linearGradient id="paint15_linear_5994_36950" x1="46.1189" y1="22.612" x2="56.951" y2="26.3708" gradientUnits="userSpaceOnUse">
<stop stop-color="#A3E9FF"/>
<stop offset="1" stop-color="#64B8FF"/>
</linearGradient>
<linearGradient id="paint16_linear_5994_36950" x1="79.4628" y1="27.119" x2="43.2373" y2="23.4137" gradientUnits="userSpaceOnUse">
<stop offset="0.27051" stop-color="#72AEFF"/>
<stop offset="0.926765" stop-color="white"/>
</linearGradient>
<linearGradient id="paint17_linear_5994_36950" x1="37.75" y1="16.3125" x2="51.2335" y2="38.718" gradientUnits="userSpaceOnUse">
<stop stop-color="white"/>
<stop offset="0.801204" stop-color="#51A4FF"/>
</linearGradient>
<linearGradient id="paint18_linear_5994_36950" x1="37.75" y1="16.3125" x2="51.2335" y2="38.718" gradientUnits="userSpaceOnUse">
<stop stop-color="white"/>
<stop offset="0.801204" stop-color="#51A4FF"/>
</linearGradient>
<clipPath id="clip0_5994_36950">
<rect width="80" height="54" fill="white" transform="translate(0 18)"/>
</clipPath>
</defs>
</svg>
