<svg width="11" height="11" viewBox="0 0 11 11" fill="none" xmlns="http://www.w3.org/2000/svg">
<path fill-rule="evenodd" clip-rule="evenodd" d="M7.29883 0.998954C7.59895 0.199341 8.44844 -0.200226 9.19824 0.0995398C9.64811 0.249495 9.94859 0.599102 10.0986 0.998954C10.213 1.30399 10.1989 1.73121 10.0986 1.99895C9.79863 2.79895 8.94824 3.19934 8.19824 2.89934C7.75342 2.73244 7.43292 2.39518 7.28711 1.99993H5.99902C5.69902 1.99993 5.49902 2.19993 5.49902 2.49993V4.45013C5.49894 4.8404 5.3595 5.1868 5.12891 5.44915C5.35994 5.71166 5.49902 6.05935 5.49902 6.45013V7.99993C5.49909 8.29984 5.69908 8.49993 5.99902 8.49993H7.29199C7.2945 8.49337 7.29621 8.48597 7.29883 8.47942C7.59895 7.67981 8.44844 7.28024 9.19824 7.58001C9.64811 7.72996 9.94859 8.07957 10.0986 8.47942C10.213 8.78446 10.1989 9.21168 10.0986 9.47942C9.79863 10.2794 8.94824 10.6798 8.19824 10.3798C7.76083 10.2157 7.44403 9.88666 7.29492 9.49993H5.99902C5.14908 9.49993 4.4991 8.84985 4.49902 7.99993V6.45013C4.49902 6.15026 4.2988 5.9503 3.99902 5.95013H2.89844C2.81346 6.17657 2.6782 6.38455 2.49707 6.55169C2.48627 6.56177 2.47589 6.57223 2.46484 6.58196C2.44703 6.59739 2.42884 6.6123 2.41016 6.62688C2.14865 6.83635 1.82788 6.95078 1.49805 6.9472C1.12535 6.95093 0.76387 6.80419 0.487305 6.53997C0.191134 6.27196 0.0156699 5.90417 0 5.52044V5.37884C0.0143674 5.0287 0.162376 4.69241 0.413086 4.43255C0.423977 4.42063 0.436056 4.40989 0.447266 4.39837C0.458785 4.38716 0.469527 4.37508 0.481445 4.36419C0.741317 4.11349 1.0776 3.96546 1.42773 3.9511H1.56934C1.87239 3.96349 2.16438 4.07705 2.40625 4.26946C2.42611 4.28485 2.44596 4.3 2.46484 4.31634C2.47589 4.32606 2.48627 4.33654 2.49707 4.34661C2.62087 4.46071 2.72184 4.59434 2.80078 4.74016C2.8372 4.80678 2.87083 4.87651 2.89844 4.95013H3.99902C4.29869 4.94995 4.49887 4.7498 4.49902 4.45013V2.49993C4.49902 1.64993 5.14902 0.99993 5.99902 0.99993L7.29883 0.998954ZM8.69824 8.47942C8.39857 8.47957 8.19843 8.67977 8.19824 8.97942C8.19824 9.27931 8.39843 9.47927 8.69824 9.47942C8.99824 9.47942 9.19824 9.27942 9.19824 8.97942C9.19805 8.67966 8.9981 8.47942 8.69824 8.47942ZM1.39062 4.95891C1.15158 5.00142 0.999023 5.18776 0.999023 5.45013C0.99916 5.71229 1.15171 5.89785 1.39062 5.94036C1.42493 5.94646 1.46137 5.95013 1.49902 5.95013C1.53647 5.9501 1.57232 5.94642 1.60645 5.94036C1.84546 5.89792 1.99889 5.71236 1.99902 5.45013C1.99902 5.18769 1.8456 5.00136 1.60645 4.95891C1.57233 4.95286 1.53645 4.95015 1.49902 4.95013C1.46139 4.95013 1.42491 4.95282 1.39062 4.95891ZM8.69824 0.998954C8.39857 0.999103 8.19843 1.1993 8.19824 1.49895C8.19824 1.79884 8.39843 1.9988 8.69824 1.99895C8.99824 1.99895 9.19824 1.79895 9.19824 1.49895C9.19805 1.19919 8.9981 0.998954 8.69824 0.998954Z" fill="#3261CE"/>
</svg>
