<svg width="12" height="12" viewBox="0 0 12 12" fill="none" xmlns="http://www.w3.org/2000/svg">
<path opacity="0.25" d="M8.19238 6.1822L9.65314 4.63281H11.2166L8.71482 7.20841L10.1088 9.84438H8.47338L7.68371 8.28494L6.24138 9.84438H4.65738L7.15913 7.26878L5.76514 4.63281H7.42114L8.19238 6.1822Z" fill="#4D5E7D"/>
<path d="M5.28408 3.27597C5.03037 3.27597 4.81912 3.36652 4.65034 3.54761C4.48156 3.72871 4.35369 4.02383 4.26672 4.43298L4.22395 4.6342H5.61252L5.36445 5.80127H3.97588L3.1162 9.84577H1.68648L2.54617 5.80127H1.63074L1.87881 4.6342H2.79424L2.8477 4.38267C3.0145 3.59792 3.33054 3.01438 3.7958 2.63207C4.26107 2.24975 4.80227 2.05859 5.41941 2.05859C5.72113 2.05859 5.97929 2.10219 6.1939 2.18939C6.40851 2.27658 6.56941 2.3906 6.67662 2.53146L5.91762 3.53755C5.74212 3.36316 5.53094 3.27597 5.28408 3.27597Z" fill="#4D5E7D"/>
</svg>
