<svg width="12" height="12" viewBox="0 0 12 12" fill="none" xmlns="http://www.w3.org/2000/svg">
<path opacity="0.25" d="M5.0918 6.19922L4.14453 7.14648H2.74805V9.25195H4.85352V7.85156L5.80078 6.9043V9.72559L5.79102 9.82129C5.7467 10.0369 5.5559 10.1992 5.32715 10.1992H2.27441L2.17871 10.1895C1.99405 10.1514 1.84849 10.006 1.81055 9.82129L1.80078 9.72559V6.67285C1.80083 6.44416 1.96314 6.25336 2.17871 6.20898L2.27441 6.19922H5.0918Z" fill="#4D5E7D"/>
<path d="M9.72949 1.80078C9.99098 1.80084 10.203 2.01295 10.2031 2.27441V5.32715C10.2031 5.58875 9.99108 5.80072 9.72949 5.80078H6.90527L8.35156 4.35449L7.64453 3.64746L6.20312 5.08887V2.27441C6.20329 2.01295 6.41527 1.80084 6.67676 1.80078H9.72949Z" fill="#4D5E7D"/>
</svg>
