<svg width="12" height="12" viewBox="0 0 12 12" fill="none" xmlns="http://www.w3.org/2000/svg">
<path d="M10.5 1.97374C10.5 1.7121 10.2879 1.5 10.0263 1.5H7.1838C6.92216 1.5 6.71006 1.7121 6.71006 1.97374V4.8162C6.71006 5.07784 6.92216 5.28994 7.1838 5.28994H10.0263C10.2879 5.28994 10.5 5.07784 10.5 4.8162V1.97374Z" fill="#D2D7DE"/>
<path d="M4.34182 9.55364H2.44636V7.65818H4.34182V9.55364ZM1.49912 10.0273L1.50889 10.123C1.54686 10.3076 1.69235 10.4531 1.87704 10.4911L1.97274 10.5009H4.81544L4.91114 10.4911C5.09587 10.4532 5.24131 10.3077 5.2793 10.123L5.28906 10.0273V7.18456C5.289 6.92301 5.07699 6.711 4.81544 6.71094H1.97274L1.87704 6.7207C1.66143 6.76504 1.49917 6.95583 1.49912 7.18456V10.0273Z" fill="#D2D7DE"/>
<path d="M5.11426 2.98242H2.98438V6.70801H3.80273V3.80078H5.11426V4.30371L5.98438 3.80078H5.99902V3.79199L6.70996 3.38184L5.11426 2.46094V2.98242Z" fill="#D2D7DE"/>
<path d="M9.88894 9.18044L9.18183 9.88755L2.11076 2.81648L2.81787 2.10938L9.88894 9.18044Z" fill="#4D5E7D"/>
</svg>
