<svg width="12" height="12" viewBox="0 0 12 12" fill="none" xmlns="http://www.w3.org/2000/svg">
<path d="M2 2L10.0002 9.99979" stroke="#4D5E7D"/>
<g opacity="0.25">
<path d="M3.86133 5.27539L3.5 6H4.58594L5.5 6.91406V9.5C5.5 9.77614 5.27614 10 5 10H2C1.72386 10 1.5 9.77614 1.5 9.5V6L2.52832 3.94238L3.86133 5.27539Z" fill="#4D5E7D"/>
<path d="M8.58594 10H7C6.72386 10 6.5 9.77614 6.5 9.5V7.91406L8.58594 10Z" fill="#4D5E7D"/>
<path d="M8.5 6H10C10.2761 6 10.5 6.22386 10.5 6.5V9.08496L6.80469 5.38965L8.5 2H10.5L8.5 6Z" fill="#4D5E7D"/>
<path d="M4.80469 3.38965L3.4707 2.05664L3.5 2H5.5L4.80469 3.38965Z" fill="#4D5E7D"/>
</g>
</svg>
