<svg width="12" height="12" viewBox="0 0 12 12" fill="none" xmlns="http://www.w3.org/2000/svg">
<path d="M6.5 6H10C10.2761 6 10.5 6.22386 10.5 6.5V9.5C10.5 9.77614 10.2761 10 10 10H7C6.72386 10 6.5 9.77614 6.5 9.5V6Z" fill="#4D5E7D"/>
<path d="M1.5 6H5C5.27614 6 5.5 6.22386 5.5 6.5V9.5C5.5 9.77614 5.27614 10 5 10H2C1.72386 10 1.5 9.77614 1.5 9.5V6Z" fill="#4D5E7D"/>
<path opacity="0.25" d="M3.5 2H5.5L3.5 6H1.5L3.5 2Z" fill="#4D5E7D"/>
<path opacity="0.25" d="M8.5 2H10.5L8.5 6H6.5L8.5 2Z" fill="#4D5E7D"/>
</svg>
