<svg width="14" height="14" viewBox="0 0 14 14" fill="none" xmlns="http://www.w3.org/2000/svg">
<path opacity="0.25" d="M9.55791 7.20996L11.2621 5.40234H13.0861L10.1674 8.40721L11.7938 11.4825H9.88576L8.96447 9.66316L7.28176 11.4825H5.43376L8.35246 8.47764L6.72614 5.40234H8.65814L9.55791 7.20996Z" fill="#4D5E7D"/>
<path d="M6.16471 3.81871C5.86871 3.81871 5.62226 3.92435 5.42535 4.13563C5.22844 4.34691 5.07925 4.69122 4.97779 5.16855L4.92789 5.40331H6.54789L6.25848 6.76489H4.63848L3.63551 11.4835H1.96751L2.97048 6.76489H1.90248L2.19189 5.40331H3.25989L3.32227 5.10986C3.51687 4.19432 3.88558 3.51353 4.42839 3.06749C4.97119 2.62146 5.6026 2.39844 6.3226 2.39844C6.6746 2.39844 6.97579 2.4493 7.22616 2.55103C7.47654 2.65276 7.66426 2.78578 7.78934 2.95011L6.90384 4.12389C6.69909 3.92044 6.45271 3.81871 6.16471 3.81871Z" fill="#4D5E7D"/>
</svg>
