<svg width="14" height="14" viewBox="0 0 14 14" fill="none" xmlns="http://www.w3.org/2000/svg">
<path opacity="0.25" d="M9.55785 7.20996L11.2621 5.40234H13.0861L10.1674 8.40721L11.7937 11.4825H9.8857L8.96441 9.66316L7.2817 11.4825H5.4337L8.3524 8.47764L6.72607 5.40234H8.65807L9.55785 7.20996Z" fill="#3261CE"/>
<path d="M6.16468 3.81871C5.86868 3.81871 5.62222 3.92435 5.42532 4.13563C5.22841 4.34691 5.07922 4.69122 4.97776 5.16855L4.92786 5.40331H6.54786L6.25845 6.76489H4.63845L3.63548 11.4835H1.96748L2.97045 6.76489H1.90245L2.19186 5.40331H3.25986L3.32224 5.10986C3.51684 4.19432 3.88555 3.51353 4.42836 3.06749C4.97116 2.62146 5.60257 2.39844 6.32257 2.39844C6.67457 2.39844 6.97576 2.4493 7.22613 2.55103C7.47651 2.65276 7.66423 2.78578 7.7893 2.95011L6.90381 4.12389C6.69906 3.92044 6.45268 3.81871 6.16468 3.81871Z" fill="#3261CE"/>
</svg>
