<svg xmlns="http://www.w3.org/2000/svg" width="20" height="20" viewBox="0 0 20 20" fill="none">
    <circle cx="10.0002" cy="10" r="10" fill="url(#paint0_radial_101_27152)"/>
    <path fill-rule="evenodd" clip-rule="evenodd" d="M1.62814 8.9075V9.45372C1.62814 14.3015 6.09977 14.9159 9.82142 14.9159C13.5431 14.9159 18.0147 14.3015 18.0147 9.45372V8.9075C18.0147 4.0597 13.5431 3.44531 9.82142 3.44531C6.09977 3.44531 1.62814 4.0597 1.62814 8.9075Z" fill="#0C0F13"/>
    <rect x="5.86476" y="7.22743" width="2.58786" height="3.77134" rx="1.29393" fill="url(#paint1_linear_101_27152)" stroke="white" stroke-width="0.220915"/>
    <rect x="11.1898" y="7.22743" width="2.58786" height="3.77134" rx="1.29393" fill="url(#paint2_linear_101_27152)" stroke="white" stroke-width="0.220915"/>
    <path d="M18.0147 8.90728V9.45394C18.0145 14.3016 13.543 14.9159 9.82142 14.9159C6.09984 14.9159 1.62838 14.3016 1.62814 9.45394V8.90728C1.6283 4.05959 6.09985 3.44531 9.82142 3.44531C13.543 3.44531 18.0145 4.05962 18.0147 8.90728ZM2.81161 8.90728V9.45394L2.81739 9.6741C3.01894 13.6454 6.83904 13.7324 9.82142 13.7324C12.8622 13.7324 16.831 13.571 16.8312 9.45394V8.90728C16.8311 4.79021 12.8621 4.62878 9.82142 4.62878C6.78069 4.62878 2.81178 4.79018 2.81161 8.90728Z" fill="url(#paint3_linear_101_27152)"/>
    <path d="M9.8215 3.22461C11.6857 3.22461 13.778 3.37648 15.4094 4.15918C16.2295 4.55268 16.9397 5.1084 17.4436 5.88867C17.9478 6.66948 18.2355 7.66031 18.2356 8.90723V9.4541C18.2355 10.701 17.9477 11.6919 17.4436 12.4727C16.9397 13.2529 16.2295 13.8087 15.4094 14.2021C13.778 14.9849 11.6857 15.1367 9.8215 15.1367C7.9573 15.1367 5.86501 14.9849 4.23361 14.2021C3.41348 13.8087 2.70333 13.2529 2.19943 12.4727C1.69526 11.6919 1.40752 10.701 1.40744 9.4541V8.90723C1.40749 7.66031 1.69525 6.66948 2.19943 5.88867C2.70332 5.10839 3.41346 4.55267 4.23361 4.15918C5.86502 3.37647 7.95731 3.22461 9.8215 3.22461ZM9.8215 4.84961C8.29494 4.84961 6.58535 4.89232 5.259 5.42871C4.60141 5.69465 4.04863 6.07786 3.65939 6.62891C3.27084 7.17903 3.03249 7.91469 3.03244 8.90723V9.44824L3.0383 9.66309L3.06662 10.0098C3.15532 10.7925 3.40186 11.39 3.75314 11.8496C4.15537 12.3758 4.70713 12.7379 5.35568 12.9863C6.66399 13.4873 8.32247 13.5117 9.8215 13.5117C11.348 13.5117 13.0577 13.469 14.384 12.9326C15.0416 12.6667 15.5934 12.2825 15.9826 11.7314C16.3711 11.1814 16.6105 10.4465 16.6106 9.4541V8.90723C16.6105 7.9147 16.3712 7.17902 15.9826 6.62891C15.5934 6.07811 15.0414 5.69459 14.384 5.42871C13.0577 4.89233 11.348 4.84961 9.8215 4.84961Z" stroke="white" stroke-opacity="0.5" stroke-width="0.44183"/>
    <path d="M9.8215 4.44531C11.6668 4.44532 13.5167 4.60518 14.8811 5.25977C15.5429 5.5773 16.0609 5.99837 16.4182 6.55176C16.774 7.10302 17.0148 7.85427 17.0149 8.90723V9.4541C17.0148 10.5071 16.774 11.2583 16.4182 11.8096C16.0609 12.363 15.5429 12.784 14.8811 13.1016C13.5167 13.7561 11.6668 13.916 9.8215 13.916C7.97625 13.916 6.12635 13.7561 4.76193 13.1016C4.10013 12.784 3.58214 12.363 3.22482 11.8096C2.869 11.2583 2.6282 10.5071 2.62814 9.4541V8.90723L2.63889 8.52637C2.68986 7.66957 2.91348 7.03413 3.22482 6.55176C3.58214 5.99837 4.10013 5.5773 4.76193 5.25977C6.12635 4.60522 7.97623 4.44531 9.8215 4.44531Z" stroke="url(#paint4_linear_101_27152)" stroke-width="2"/>
    <path d="M9.8215 4.44531C11.6668 4.44532 13.5167 4.60518 14.8811 5.25977C15.5429 5.5773 16.0609 5.99837 16.4182 6.55176C16.774 7.10302 17.0148 7.85427 17.0149 8.90723V9.4541C17.0148 10.5071 16.774 11.2583 16.4182 11.8096C16.0609 12.363 15.5429 12.784 14.8811 13.1016C13.5167 13.7561 11.6668 13.916 9.8215 13.916C7.97625 13.916 6.12635 13.7561 4.76193 13.1016C4.10013 12.784 3.58214 12.363 3.22482 11.8096C2.869 11.2583 2.6282 10.5071 2.62814 9.4541V8.90723L2.63889 8.52637C2.68986 7.66957 2.91348 7.03413 3.22482 6.55176C3.58214 5.99837 4.10013 5.5773 4.76193 5.25977C6.12635 4.60522 7.97623 4.44531 9.8215 4.44531Z" stroke="url(#paint5_linear_101_27152)" stroke-width="2"/>
    <defs>
        <radialGradient id="paint0_radial_101_27152" cx="0" cy="0" r="1" gradientUnits="userSpaceOnUse" gradientTransform="translate(5.73545 1.59314) rotate(72.6987) scale(19.2792 16.6655)">
            <stop stop-color="white"/>
            <stop offset="0.181966" stop-color="#F3F6FF"/>
            <stop offset="0.848301" stop-color="#D5DCE3"/>
            <stop offset="0.957319" stop-color="#F6F9FD"/>
            <stop offset="1" stop-color="#F7FBFF"/>
        </radialGradient>
        <linearGradient id="paint1_linear_101_27152" x1="7.15869" y1="7.33789" x2="7.15869" y2="10.8883" gradientUnits="userSpaceOnUse">
            <stop stop-color="white" stop-opacity="0.85"/>
            <stop offset="1" stop-color="white"/>
        </linearGradient>
        <linearGradient id="paint2_linear_101_27152" x1="12.4838" y1="7.33789" x2="12.4838" y2="10.8883" gradientUnits="userSpaceOnUse">
            <stop stop-color="white" stop-opacity="0.85"/>
            <stop offset="1" stop-color="white"/>
        </linearGradient>
        <linearGradient id="paint3_linear_101_27152" x1="2.39626" y1="3.00628" x2="11.0336" y2="18.8467" gradientUnits="userSpaceOnUse">
            <stop stop-color="#48FFFF"/>
            <stop offset="0.49556" stop-color="#2B8EFF"/>
            <stop offset="1" stop-color="#BE0FFF"/>
        </linearGradient>
        <linearGradient id="paint4_linear_101_27152" x1="2.39626" y1="3.00628" x2="11.0336" y2="18.8467" gradientUnits="userSpaceOnUse">
            <stop stop-color="#48FFFF"/>
            <stop offset="0.49556" stop-color="#2B8EFF"/>
            <stop offset="1" stop-color="#BE0FFF"/>
        </linearGradient>
        <linearGradient id="paint5_linear_101_27152" x1="2" y1="1.5" x2="23" y2="18" gradientUnits="userSpaceOnUse">
            <stop stop-color="#48FFFF"/>
            <stop offset="0.31115" stop-color="#2B8EFF"/>
            <stop offset="0.81253" stop-color="#742EFF"/>
        </linearGradient>
    </defs>
</svg>
