<svg xmlns="http://www.w3.org/2000/svg" width="14" height="14" viewBox="0 0 14 14" fill="none">
    <path fill-rule="evenodd" clip-rule="evenodd" d="M11.1432 2.04484C11.4372 2.07478 11.6667 2.32335 11.6667 2.62533V4.37533C11.6667 4.69749 11.4055 4.95866 11.0833 4.95866H7.58334V6.70866H9.90927L9.9725 6.71208C10.1187 6.72803 10.2544 6.79884 10.3513 6.91146L12.1087 8.95312L12.1452 9.00041C12.1546 9.01387 12.1627 9.02799 12.1708 9.04199H12.8333L12.8932 9.04484C13.1872 9.07478 13.4167 9.32335 13.4167 9.62533V11.9587C13.4167 12.2808 13.1555 12.542 12.8333 12.542H10.5C10.1778 12.542 9.91668 12.2808 9.91668 11.9587V9.62533L9.91953 9.56551C9.94947 9.27144 10.198 9.04199 10.5 9.04199H10.6458L9.64153 7.87533H7.58334V9.04199H8.16668L8.22649 9.04484C8.52057 9.07478 8.75001 9.32335 8.75001 9.62533V11.9587C8.75001 12.2808 8.48884 12.542 8.16668 12.542H5.83334C5.51118 12.542 5.25001 12.2808 5.25001 11.9587V9.62533L5.25286 9.56551C5.2828 9.27144 5.53137 9.04199 5.83334 9.04199H6.41668V7.87533H4.35108L3.35133 9.04199H3.50001L3.55982 9.04484C3.8539 9.07478 4.08334 9.32335 4.08334 9.62533V11.9587C4.08334 12.2808 3.82218 12.542 3.50001 12.542H1.16668C0.844511 12.542 0.583344 12.2808 0.583344 11.9587V9.62533L0.586192 9.56551C0.616135 9.27144 0.864699 9.04199 1.16668 9.04199H1.82862C1.84632 9.01146 1.86692 8.98203 1.89072 8.95426L3.64072 6.9126L3.68458 6.86646C3.7921 6.76569 3.93441 6.70866 4.08334 6.70866H6.41668V4.95866H2.91668C2.59451 4.95866 2.33334 4.69749 2.33334 4.37533V2.62533L2.33619 2.56551C2.36614 2.27144 2.6147 2.04199 2.91668 2.04199H11.0833L11.1432 2.04484ZM1.75001 11.3753H2.91668V10.2087H1.75001V11.3753ZM6.41668 11.3753H7.58334V10.2087H6.41668V11.3753ZM11.0833 11.3753H12.25V10.2087H11.0833V11.3753ZM3.50001 3.79199H10.5V3.20866H3.50001V3.79199Z" fill="#7D8999"/>
</svg>
