<svg xmlns="http://www.w3.org/2000/svg" width="14" height="14" viewBox="0 0 14 14" fill="none">
  <g clip-path="url(#clip0_2324_9396)">
    <path d="M10.208 8.45703C10.5299 8.45721 10.7908 8.71813 10.791 9.04004V10.5H12.249C12.5709 10.5002 12.8319 10.7611 12.832 11.083C12.832 11.4051 12.571 11.6668 12.249 11.667H10.791V13.124C10.7908 13.4459 10.5299 13.7069 10.208 13.707C9.88595 13.707 9.6242 13.446 9.62402 13.124V11.667H8.16504C7.84302 11.6668 7.58203 11.4051 7.58203 11.083C7.58221 10.7611 7.84313 10.5002 8.16504 10.5H9.62402V9.04004C9.6242 8.71802 9.88595 8.45703 10.208 8.45703Z" fill="#7D8999"/>
    <path d="M10.208 8.45703C10.5299 8.45721 10.7908 8.71813 10.791 9.04004V10.5H12.249C12.5709 10.5002 12.8319 10.7611 12.832 11.083C12.832 11.4051 12.571 11.6668 12.249 11.667H10.791V13.124C10.7908 13.4459 10.5299 13.7069 10.208 13.707C9.88595 13.707 9.6242 13.446 9.62402 13.124V11.667H8.16504C7.84302 11.6668 7.58203 11.4051 7.58203 11.083C7.58221 10.7611 7.84313 10.5002 8.16504 10.5H9.62402V9.04004C9.6242 8.71802 9.88595 8.45703 10.208 8.45703Z" fill="#202939"/>
    <path d="M6.99902 0.582031C10.5427 0.582207 13.415 3.4553 13.415 6.99902C13.415 7.69788 13.3023 8.37022 13.0957 9H11.8525C12.1071 8.38321 12.249 7.70773 12.249 6.99902C12.249 4.09964 9.89837 1.7492 6.99902 1.74902C4.09953 1.74902 1.74902 4.09953 1.74902 6.99902C1.74907 7.71167 1.89028 8.38984 2.14648 9.00781C2.27887 9.32708 2.44266 9.63096 2.63281 9.91504C2.72807 10.0575 2.74182 10.2058 2.74609 10.2588C2.75209 10.3331 2.74928 10.4075 2.74414 10.4717C2.7337 10.6017 2.70769 10.7591 2.67285 10.9346C2.64413 11.0791 2.606 11.2464 2.56055 11.4355C2.74994 11.39 2.91782 11.353 3.0625 11.3242C3.23818 11.2893 3.39624 11.2634 3.52637 11.2529C3.59038 11.2478 3.66419 11.245 3.73828 11.251C3.79104 11.2552 3.93877 11.2694 4.08105 11.3643C4.36517 11.5544 4.67 11.7182 4.98926 11.8506C5.60739 12.1069 6.28618 12.249 6.99902 12.249C7.22504 12.249 7.44752 12.2328 7.66602 12.2051V13.3799C7.44673 13.4025 7.2243 13.415 6.99902 13.415C6.13009 13.415 5.29933 13.2428 4.54199 12.9287C4.20225 12.7878 3.8784 12.6163 3.57129 12.4219C3.50653 12.4296 3.41423 12.4441 3.29004 12.4688C2.97562 12.5312 2.51501 12.6441 1.90234 12.8115C1.70036 12.8666 1.48399 12.8092 1.33594 12.6611C1.18797 12.513 1.13037 12.2967 1.18555 12.0947C1.35287 11.4823 1.46584 11.0224 1.52832 10.708C1.55313 10.5831 1.56747 10.4897 1.5752 10.4248C1.38095 10.1179 1.2101 9.7945 1.06934 9.45508C0.755326 8.69783 0.582074 7.86783 0.582031 6.99902C0.582031 3.45519 3.45519 0.582031 6.99902 0.582031ZM4.08203 6.12402C4.48463 6.12402 4.81135 6.44998 4.81152 6.85254C4.81152 7.25525 4.48474 7.58203 4.08203 7.58203C3.67932 7.58203 3.35254 7.25525 3.35254 6.85254C3.35271 6.44998 3.67943 6.12402 4.08203 6.12402ZM6.99902 6.12402C7.40147 6.1242 7.72736 6.45009 7.72754 6.85254C7.72754 7.25514 7.40158 7.58186 6.99902 7.58203C6.59632 7.58203 6.26953 7.25525 6.26953 6.85254C6.26971 6.44998 6.59642 6.12402 6.99902 6.12402ZM9.91504 6.12402C10.3176 6.12402 10.6444 6.44998 10.6445 6.85254C10.6445 7.25525 10.3177 7.58203 9.91504 7.58203C9.51248 7.58186 9.18652 7.25514 9.18652 6.85254C9.1867 6.45009 9.51259 6.1242 9.91504 6.12402Z" fill="#202939"/>
  </g>
  <defs>
    <clipPath id="clip0_2324_9396">
      <rect width="14" height="14" fill="white"/>
    </clipPath>
  </defs>
</svg>