<svg width="16" height="16" viewBox="0 0 16 16" fill="none" xmlns="http://www.w3.org/2000/svg">
<rect x="0.613636" y="2.15953" width="14.3182" height="11.4545" rx="1.84091" stroke="black" stroke-width="1.22727"/>
<rect x="0.613636" y="2.15953" width="14.3182" height="11.4545" rx="1.84091" stroke="#7D8999" stroke-width="1.22727"/>
<path fill-rule="evenodd" clip-rule="evenodd" d="M10.6802 4.79492C11.0706 4.79492 11.428 4.86031 11.7498 4.99346C12.0734 5.12509 12.3462 5.30492 12.5653 5.53525C12.7815 5.75729 12.9364 6.00464 13.0273 6.27744L13.0672 6.39712L12.9587 6.46021L11.8473 7.11333L11.6951 7.20239L11.6255 7.04097C11.5171 6.79041 11.3812 6.61355 11.2229 6.49917C11.066 6.38582 10.8771 6.32669 10.6496 6.32661C10.4263 6.32661 10.2257 6.38726 10.0447 6.50937L10.0437 6.5103C9.86959 6.6264 9.72339 6.80177 9.60863 7.04561C9.50113 7.27983 9.44445 7.56189 9.44443 7.89634C9.44443 8.23035 9.50085 8.51551 9.60863 8.75542L9.70048 8.92612C9.79755 9.08361 9.91173 9.20625 10.0419 9.29722C10.2232 9.41509 10.4249 9.47441 10.6496 9.47441C10.8771 9.47434 11.066 9.4152 11.2229 9.30186C11.3812 9.18751 11.5171 9.01058 11.6255 8.76006L11.6951 8.59863L11.8473 8.6877L12.9587 9.33989L13.0672 9.40391L13.0273 9.52358C12.9364 9.7963 12.7812 10.0462 12.5653 10.2732L12.5635 10.275C12.3445 10.4995 12.0715 10.6754 11.7489 10.8066L11.7498 10.8076C11.428 10.9407 11.0705 11.0052 10.6802 11.0052C10.1414 11.0052 9.64536 10.8778 9.19579 10.6202C8.74544 10.362 8.3889 9.99634 8.12704 9.52729C7.86397 9.05048 7.73461 8.50449 7.73461 7.89634C7.73464 7.2883 7.86362 6.7457 8.12704 6.27373C8.3889 5.80464 8.74543 5.43901 9.19579 5.18086C9.64536 4.92318 10.1414 4.79493 10.6802 4.79492Z" fill="black"/>
<path fill-rule="evenodd" clip-rule="evenodd" d="M10.6802 4.79492C11.0706 4.79492 11.428 4.86031 11.7498 4.99346C12.0734 5.12509 12.3462 5.30492 12.5653 5.53525C12.7815 5.75729 12.9364 6.00464 13.0273 6.27744L13.0672 6.39712L12.9587 6.46021L11.8473 7.11333L11.6951 7.20239L11.6255 7.04097C11.5171 6.79041 11.3812 6.61355 11.2229 6.49917C11.066 6.38582 10.8771 6.32669 10.6496 6.32661C10.4263 6.32661 10.2257 6.38726 10.0447 6.50937L10.0437 6.5103C9.86959 6.6264 9.72339 6.80177 9.60863 7.04561C9.50113 7.27983 9.44445 7.56189 9.44443 7.89634C9.44443 8.23035 9.50085 8.51551 9.60863 8.75542L9.70048 8.92612C9.79755 9.08361 9.91173 9.20625 10.0419 9.29722C10.2232 9.41509 10.4249 9.47441 10.6496 9.47441C10.8771 9.47434 11.066 9.4152 11.2229 9.30186C11.3812 9.18751 11.5171 9.01058 11.6255 8.76006L11.6951 8.59863L11.8473 8.6877L12.9587 9.33989L13.0672 9.40391L13.0273 9.52358C12.9364 9.7963 12.7812 10.0462 12.5653 10.2732L12.5635 10.275C12.3445 10.4995 12.0715 10.6754 11.7489 10.8066L11.7498 10.8076C11.428 10.9407 11.0705 11.0052 10.6802 11.0052C10.1414 11.0052 9.64536 10.8778 9.19579 10.6202C8.74544 10.362 8.3889 9.99634 8.12704 9.52729C7.86397 9.05048 7.73461 8.50449 7.73461 7.89634C7.73464 7.2883 7.86362 6.7457 8.12704 6.27373C8.3889 5.80464 8.74543 5.43901 9.19579 5.18086C9.64536 4.92318 10.1414 4.79493 10.6802 4.79492Z" fill="#7D8999"/>
<path d="M7.53552 6.38877H5.82571V10.905H4.19289V6.38877H2.48308V4.90439H7.53552V6.38877Z" fill="black"/>
<path d="M7.53552 6.38877H5.82571V10.905H4.19289V6.38877H2.48308V4.90439H7.53552V6.38877Z" fill="#7D8999"/>
<path d="M2.86363 2.36328L13.8 13.2997" stroke="#7D8999" stroke-width="1.23" stroke-linecap="round"/>
</svg>
