<svg width="14" height="14" viewBox="0 0 14 14" fill="none" xmlns="http://www.w3.org/2000/svg">
<path d="M11.9004 7V2.5C11.9004 2.27909 11.7209 2.09961 11.5 2.09961H2.5C2.27909 2.09961 2.09961 2.27909 2.09961 2.5V11.5C2.09961 11.7209 2.27909 11.9004 2.5 11.9004H7C7.33137 11.9004 7.59961 12.1686 7.59961 12.5C7.59961 12.8314 7.33137 13.0996 7 13.0996H2.5C1.61634 13.0996 0.900391 12.3837 0.900391 11.5V2.5C0.900391 1.61634 1.61634 0.900391 2.5 0.900391H11.5C12.3837 0.900391 13.0996 1.61634 13.0996 2.5V7C13.0996 7.33137 12.8314 7.59961 12.5 7.59961C12.1686 7.59961 11.9004 7.33137 11.9004 7Z" fill="#202939"/>
<path d="M9.33398 3.80078C9.65615 3.80078 9.91732 4.06195 9.91732 4.38411V5.25911C9.91732 5.58128 9.65615 5.84245 9.33398 5.84245C9.01182 5.84245 8.75065 5.58128 8.75065 5.25911V4.96745H7.58398V9.05078C7.90615 9.05078 8.16732 9.31195 8.16732 9.63411C8.16732 9.95628 7.90615 10.2174 7.58398 10.2174H6.41732C6.09515 10.2174 5.83398 9.95628 5.83398 9.63411C5.83398 9.31195 6.09515 9.05078 6.41732 9.05078V4.96745H5.25065V5.25911C5.25065 5.58128 4.98948 5.84245 4.66732 5.84245C4.34515 5.84245 4.08398 5.58128 4.08398 5.25911V4.38411C4.08398 4.06195 4.34515 3.80078 4.66732 3.80078H9.33398Z" fill="#202939"/>
<path d="M13.5453 9.86945C13.7796 10.1038 13.7796 10.4831 13.5453 10.7174L11.424 12.8387C11.3115 12.9513 11.1591 13.0141 11 13.0141H9.58577C9.2544 13.0141 8.98639 12.7461 8.98639 12.4148V11.0005C8.98639 10.8414 9.04926 10.6891 9.16178 10.5766L11.2831 8.45524C11.5174 8.22092 11.8968 8.22092 12.1311 8.45524L13.5453 9.86945ZM10.1852 11.2491V11.8154H10.7514L12.2733 10.2934L11.7071 9.7272L10.1852 11.2491Z" fill="#202939"/>
</svg>
