<svg xmlns="http://www.w3.org/2000/svg" width="14" height="14" viewBox="0 0 14 14" fill="none">
  <path d="M7.00227 9.33268C7.32444 9.33268 7.5856 9.59385 7.5856 9.91602C7.5856 10.2382 7.32444 10.4993 7.00227 10.4993H4.08332C3.76116 10.4993 3.49999 10.2382 3.49999 9.91602C3.49999 9.59385 3.76116 9.33268 4.08332 9.33268H7.00227Z" fill="#7D8999"/>
  <path d="M9.91666 6.99935C10.2388 6.99935 10.5 7.26052 10.5 7.58268C10.5 7.90485 10.2388 8.16602 9.91666 8.16602H4.08332C3.76116 8.16602 3.49999 7.90485 3.49999 7.58268C3.49999 7.26052 3.76116 6.99935 4.08332 6.99935H9.91666Z" fill="#7D8999"/>
  <path fill-rule="evenodd" clip-rule="evenodd" d="M9.99869 1.16602C10.0287 1.16602 10.0582 1.16904 10.087 1.17342C10.0955 1.17474 10.1041 1.17571 10.1126 1.17741C10.1625 1.18729 10.21 1.20354 10.2545 1.22526C10.2585 1.22724 10.2624 1.22946 10.2664 1.23153C10.2765 1.23674 10.2863 1.24227 10.2961 1.24805C10.3021 1.25165 10.3083 1.25504 10.3143 1.25887C10.3237 1.26493 10.3326 1.27166 10.3416 1.27824C10.3486 1.28335 10.3559 1.28818 10.3627 1.29362C10.3692 1.29883 10.3752 1.30466 10.3815 1.31014C10.3866 1.31456 10.392 1.31864 10.3969 1.32324L12.6482 3.42472C12.7663 3.53504 12.8333 3.68975 12.8333 3.8514V11.3743C12.8333 12.1798 12.1804 12.8327 11.375 12.8327H2.62499C1.81958 12.8327 1.16666 12.1798 1.16666 11.3743V2.62435C1.16666 1.83938 1.78692 1.20085 2.56404 1.16886C2.58406 1.16679 2.60442 1.16602 2.62499 1.16602H9.99869ZM2.62499 2.33268C2.46391 2.33268 2.33332 2.46327 2.33332 2.62435V11.3743C2.33332 11.5354 2.4639 11.666 2.62499 11.666H11.375C11.5361 11.666 11.6667 11.5354 11.6667 11.3743V4.10433L9.76911 2.33268H7.58503L7.58332 3.90381C7.58306 4.23106 7.3697 4.43515 7.22045 4.52702C7.06168 4.62472 6.87904 4.66602 6.70832 4.66602H4.37499C4.20427 4.66602 4.02163 4.62472 3.86286 4.52702C3.71353 4.4351 3.50001 4.23083 3.49999 3.90324V2.33268H2.62499ZM4.66666 3.49935H6.41723L6.41837 2.33268H4.66666V3.49935Z" fill="#7D8999"/>
</svg>
