<svg xmlns="http://www.w3.org/2000/svg" width="32" height="32" viewBox="0 0 32 32" fill="none">
    <path d="M0 6C0 2.68629 2.68629 0 6 0H26C29.3137 0 32 2.68629 32 6V26C32 29.3137 29.3137 32 26 32H6C2.68629 32 0 29.3137 0 26V6Z" fill="#D6EEFF"/>
    <mask id="mask0_101_25709" style="mask-type:alpha" maskUnits="userSpaceOnUse" x="0" y="0" width="32" height="32">
        <path d="M0 6C0 2.68629 2.68629 0 6 0H26C29.3137 0 32 2.68629 32 6V26C32 29.3137 29.3137 32 26 32H6C2.68629 32 0 29.3137 0 26V6Z" fill="#2E90FA"/>
    </mask>
    <g mask="url(#mask0_101_25709)">
        <path d="M21.9717 39.4866C20.176 39.981 18.2905 40.2506 16.3602 40.2506C15.1481 40.2506 13.936 40.1607 12.7688 39.936C12.1403 39.8461 11.5567 39.7113 10.9731 39.5316C10.165 39.3069 9.40184 39.0822 8.63867 38.7676L10.1201 23.8025L18.2457 21.8701L21.4779 22.8139L21.9717 39.4866Z" fill="#8AC6FF"/>
        <path d="M11.3324 8.61359C11.3324 8.61359 8.27975 4.83863 9.08781 4.29935C9.94077 3.80501 10.7039 4.56899 10.7039 4.56899C10.7039 4.56899 16.9889 3.58031 19.2784 4.20947C21.5679 4.83863 23.0942 8.61359 23.0942 8.61359C23.0942 8.61359 24.2615 8.52372 24.7104 10.0517C25.2042 11.6246 21.8373 19.3093 19.6824 18.9049C17.4827 18.5453 11.3324 8.61359 11.3324 8.61359Z" fill="#202939"/>
        <path d="M19.638 17.6963L19.7278 22.9543C19.7278 22.9543 18.83 24.4822 15.7773 24.7968C13.4878 25.0215 12.6797 24.5272 12.6797 24.5272L12.949 21.8757L13.2184 19.2692L18.7402 17.921L19.638 17.6963Z" fill="#F0B7A5"/>
        <path d="M18.6948 17.918C18.6948 18.0528 18.6499 18.2325 18.5602 18.4123C17.4378 21.0638 14.2505 21.6929 12.9486 21.8278L13.218 19.2212L18.6948 17.918Z" fill="#202939"/>
        <path d="M11.782 7.35592C11.782 7.35592 9.17824 13.9621 10.3454 17.6022C11.5126 21.2424 14.8347 20.5234 16.765 19.7594C18.7403 18.9954 19.6382 17.7371 19.6382 17.7371C19.6382 17.7371 21.5236 18.3213 22.6908 16.5237C23.858 14.7261 23.05 12.7937 21.9726 12.3443C20.8951 11.9398 19.6382 12.7487 19.6382 12.7487L20.5809 10.8163C20.5809 10.7714 16.0468 1.28901 11.782 7.35592Z" fill="#F0B7A5"/>
        <path d="M11.7815 7.35329C11.7815 7.35329 13.8017 6.54436 14.6995 7.2634C15.5525 7.98244 16.585 14.0494 19.6377 12.7461C22.6903 11.4428 21.1191 7.53305 21.1191 7.53305C21.1191 7.53305 13.4425 0.926862 11.7815 7.35329Z" fill="#202939"/>
        <path d="M12.9492 21.8701C12.9492 21.8701 12.0064 30.7233 10.9739 39.5765C5.36235 38.0935 0.693544 34.3185 -2 29.3751C-0.338981 27.6224 2.30966 24.7013 4.59917 23.8025C8.5946 22.0948 12.9492 21.8701 12.9492 21.8701Z" fill="#2E90FA"/>
        <path d="M15.1036 25.0636C13.7568 25.0636 12.6794 24.7491 12.5896 24.7491C12.455 24.7041 12.4101 24.5693 12.4549 24.4794C12.4998 24.3446 12.6345 24.2996 12.7243 24.3446C12.7692 24.3446 17.2135 25.6029 19.5479 22.8616C19.6377 22.7717 19.7724 22.7717 19.8622 22.8166C19.952 22.9065 19.952 23.0413 19.9071 23.1312C18.5603 24.6592 16.6299 25.0636 15.1036 25.0636Z" fill="white"/>
        <path d="M35.7094 27.2194C33.2853 33.1515 28.2124 37.7354 21.9724 39.4431C21.5235 39.578 21.1194 39.6678 20.6705 39.7577C20.042 32.8369 19.6829 20.7031 19.6829 20.7031C19.6829 20.7031 28.7511 20.2537 35.7094 27.2194Z" fill="#2E90FA"/>
        <path d="M19.8622 15.6268C19.8173 15.6268 19.7724 15.6268 19.7275 15.5819C19.6377 15.492 19.6377 15.3572 19.7275 15.2673L21.3885 13.5596C21.4783 13.4697 21.613 13.4697 21.7028 13.5596C21.7925 13.6495 21.7925 13.7843 21.7028 13.8742L20.0417 15.5819C19.9969 15.6268 19.952 15.6268 19.8622 15.6268Z" fill="#202939"/>
        <path d="M22.1067 15.222H22.0618L20.6252 14.8625C20.4906 14.8175 20.4457 14.7277 20.4457 14.5928C20.4906 14.458 20.5804 14.4131 20.715 14.4131L22.1516 14.7726C22.2863 14.8175 22.3312 14.9074 22.3312 15.0422C22.2863 15.1771 22.1965 15.222 22.1067 15.222Z" fill="#202939"/>
        <path d="M11.3773 10.3207C11.3324 10.3207 11.2875 10.3207 11.2426 10.2758C11.1529 10.1859 11.108 10.0511 11.1977 9.96121C11.1977 9.91627 11.6467 9.37699 12.7241 9.51181C12.8588 9.51181 12.9485 9.64663 12.9036 9.78145C12.9036 9.91627 12.769 10.0062 12.6343 9.96121C11.8262 9.82639 11.5569 10.1859 11.512 10.2309C11.512 10.2758 11.4222 10.3207 11.3773 10.3207Z" fill="#202939"/>
        <path d="M16.3153 10.3674C16.2704 10.3674 16.2255 10.3674 16.1806 10.3225C15.597 9.82816 14.9236 10.0079 14.9236 10.0079C14.7889 10.0529 14.6992 9.96298 14.6543 9.8731C14.6094 9.73828 14.6992 9.6484 14.7889 9.60346C14.8338 9.60346 15.6868 9.37876 16.45 10.0079C16.5398 10.0978 16.5397 10.2326 16.4949 10.3225C16.4051 10.3674 16.3602 10.3674 16.3153 10.3674Z" fill="#202939"/>
        <path d="M11.6024 12.9294C11.4676 12.9294 11.3777 12.7946 11.3777 12.7047L11.4676 11.4913C11.4676 11.3565 11.6024 11.2666 11.6923 11.2666C11.8271 11.2666 11.917 11.4014 11.917 11.4913L11.8271 12.7047C11.7821 12.8395 11.6923 12.9294 11.6024 12.9294Z" fill="#202939"/>
        <path d="M15.1935 13.0651C15.0586 13.0651 14.9688 12.9303 14.9688 12.8404L15.0586 11.627C15.0586 11.4922 15.1935 11.4023 15.2833 11.4023C15.4182 11.4023 15.508 11.5372 15.508 11.627L15.4182 12.8404C15.4182 12.9752 15.2833 13.0651 15.1935 13.0651Z" fill="#202939"/>
        <path d="M12.4549 15.8482C12.3651 15.8482 12.2753 15.8033 12.2304 15.7134C11.4672 14.0057 12.5895 12.6126 12.6793 12.5676C12.7691 12.4777 12.9038 12.4777 12.9936 12.5227C13.0834 12.6126 13.0834 12.7474 13.0385 12.8373C12.9936 12.8822 12.0508 14.0506 12.6793 15.5337C12.7242 15.6685 12.6793 15.7584 12.5446 15.8482C12.4998 15.8482 12.4997 15.8482 12.4549 15.8482Z" fill="#202939"/>
        <path d="M13.8913 16.9285C13.7567 16.9285 13.6669 16.8386 13.6669 16.7038C13.6669 16.569 13.7567 16.4791 13.8913 16.4791C13.9362 16.4791 14.6994 16.4791 14.9687 15.805C15.0136 15.6702 15.1483 15.6252 15.283 15.6702C15.4177 15.7151 15.4626 15.8499 15.4177 15.9848C14.9687 16.9285 13.9362 16.9285 13.8913 16.9285Z" fill="#202939"/>
    </g>
</svg>
