<svg width="10" height="10" viewBox="0 0 10 10" fill="none" xmlns="http://www.w3.org/2000/svg">
<path fill-rule="evenodd" clip-rule="evenodd" d="M6.95979 1.54975C7.25975 0.749852 8.10927 0.349577 8.8592 0.649359C9.3092 0.799359 9.60959 1.14975 9.75959 1.54975C9.87389 1.85491 9.85995 2.28214 9.75959 2.54975C9.45948 3.34953 8.6091 3.74912 7.8592 3.44916C7.5504 3.33328 7.302 3.13492 7.12971 2.89252C7.10988 2.89972 7.09028 2.90828 7.06916 2.91303C6.59561 3.01976 6.2003 3.34473 6.00471 3.78901L5.45588 5.03608L6.00569 6.2851C6.20128 6.72976 6.59621 7.05542 7.07014 7.16205C7.07851 7.16395 7.08638 7.16758 7.09455 7.16987C7.46801 6.56004 8.20225 6.28616 8.8592 6.54877C9.3092 6.69877 9.60959 7.04916 9.75959 7.44916C9.87389 7.75432 9.85995 8.18155 9.75959 8.44916C9.45948 9.24895 8.6091 9.64854 7.8592 9.34858C7.3017 9.13937 6.93915 8.66299 6.8719 8.13959C6.86487 8.13833 6.85744 8.13922 6.85041 8.13764C6.06666 7.9613 5.41308 7.42281 5.08967 6.68745L4.90998 6.27827L4.7303 6.68745C4.42977 7.37077 3.84385 7.88297 3.13362 8.0937C3.12254 8.22462 3.09719 8.3484 3.0594 8.44916C2.7593 9.24879 1.90979 9.64832 1.15998 9.34858C0.360104 9.04862 -0.0401514 8.19908 0.259593 7.44916C0.559593 6.64916 1.40998 6.24877 2.15998 6.54877C2.48051 6.65571 2.72316 6.86537 2.89143 7.12104C3.30155 6.98614 3.6386 6.6845 3.81428 6.2851L4.36311 5.03608L3.81526 3.78901C3.63299 3.37494 3.27639 3.06706 2.84553 2.94037C2.45439 3.46959 1.77456 3.69485 1.15998 3.44916C0.360104 3.14921 -0.0401514 2.29967 0.259593 1.54975C0.559593 0.749749 1.40998 0.349359 2.15998 0.649359C2.60978 0.799425 2.90944 1.14986 3.0594 1.54975C3.1078 1.67894 3.13195 1.82989 3.13752 1.98139C3.84581 2.19283 4.43029 2.70483 4.7303 3.38666L4.90998 3.79487L5.08967 3.38666C5.41314 2.65154 6.06685 2.11279 6.85041 1.93647C6.8562 1.93517 6.8622 1.93462 6.86799 1.93354C6.88025 1.80486 6.90937 1.67587 6.95979 1.54975ZM1.65998 7.44916C1.35998 7.44916 1.15998 7.64916 1.15998 7.94916C1.16016 8.24894 1.36012 8.44916 1.65998 8.44916C1.95963 8.44899 2.15981 8.24881 2.15998 7.94916C2.15998 7.6493 1.95976 7.44934 1.65998 7.44916ZM8.3592 7.44916C8.05939 7.44931 7.8592 7.64928 7.8592 7.94916C7.85938 8.24883 8.05952 8.44901 8.3592 8.44916C8.65907 8.44916 8.85903 8.24894 8.8592 7.94916C8.8592 7.64916 8.6592 7.44916 8.3592 7.44916ZM1.65998 1.54975C1.35998 1.54975 1.15998 1.74975 1.15998 2.04975C1.16016 2.34953 1.36012 2.54975 1.65998 2.54975C1.95963 2.54957 2.15981 2.3494 2.15998 2.04975C2.15998 1.74988 1.95976 1.54993 1.65998 1.54975ZM8.3592 1.54975C8.05939 1.5499 7.8592 1.74986 7.8592 2.04975C7.85938 2.34942 8.05952 2.5496 8.3592 2.54975C8.65907 2.54975 8.85903 2.34953 8.8592 2.04975C8.8592 1.74975 8.6592 1.54975 8.3592 1.54975Z" fill="#3261CE"/>
</svg>
