<svg width="12" height="12" viewBox="0 0 12 12" fill="none" xmlns="http://www.w3.org/2000/svg">
<path fill-rule="evenodd" clip-rule="evenodd" d="M8.20825 1.75872C8.50837 0.959106 9.35787 0.55954 10.1077 0.859305C10.5575 1.00926 10.858 1.35887 11.0081 1.75872C11.1224 2.06376 11.1083 2.49097 11.0081 2.75872C10.7081 3.55872 9.85767 3.95911 9.10767 3.65911C8.66284 3.4922 8.34234 3.15494 8.19653 2.7597H6.90845C6.60845 2.7597 6.40845 2.9597 6.40845 3.2597V5.20989C6.40837 5.60017 6.26892 5.94657 6.03833 6.20891C6.26936 6.47142 6.40845 6.81912 6.40845 7.20989V8.7597C6.40852 9.05961 6.6085 9.2597 6.90845 9.2597H8.20142C8.20393 9.25314 8.20563 9.24573 8.20825 9.23919C8.50837 8.43958 9.35787 8.04001 10.1077 8.33977C10.5575 8.48973 10.858 8.83934 11.0081 9.23919C11.1224 9.54422 11.1083 9.97144 11.0081 10.2392C10.7081 11.0392 9.85767 11.4396 9.10767 11.1396C8.67025 10.9754 8.35345 10.6464 8.20435 10.2597H6.90845C6.0585 10.2597 5.40853 9.60962 5.40845 8.7597V7.20989C5.40845 6.91002 5.20823 6.71007 4.90845 6.70989H3.80786C3.72289 6.93634 3.58763 7.14431 3.40649 7.31145C3.39569 7.32154 3.38532 7.33199 3.37427 7.34173C3.35646 7.35715 3.33826 7.37206 3.31958 7.38665C3.05807 7.59612 2.7373 7.71055 2.40747 7.70696C2.03477 7.7107 1.67329 7.56395 1.39673 7.29974C1.10056 7.03172 0.925094 6.66394 0.909424 6.2802V6.1386C0.923791 5.78847 1.0718 5.45218 1.32251 5.19231C1.3334 5.1804 1.34548 5.16965 1.35669 5.15813C1.36821 5.14692 1.37895 5.13484 1.39087 5.12395C1.65074 4.87326 1.98703 4.72522 2.33716 4.71087H2.47876C2.78182 4.72325 3.0738 4.83682 3.31567 5.02923C3.33554 5.04462 3.35539 5.05977 3.37427 5.0761C3.38532 5.08582 3.39569 5.0963 3.40649 5.10638C3.5303 5.22048 3.63127 5.35411 3.71021 5.49993C3.74662 5.56654 3.78025 5.63627 3.80786 5.70989H4.90845C5.20811 5.70972 5.40829 5.50956 5.40845 5.20989V3.2597C5.40845 2.4097 6.05845 1.7597 6.90845 1.7597L8.20825 1.75872ZM9.60767 9.23919C9.30799 9.23934 9.10785 9.43954 9.10767 9.73919C9.10767 10.0391 9.30785 10.239 9.60767 10.2392C9.90767 10.2392 10.1077 10.0392 10.1077 9.73919C10.1075 9.43942 9.90752 9.23919 9.60767 9.23919ZM2.30005 5.71868C2.061 5.76119 1.90845 5.94753 1.90845 6.20989C1.90858 6.47205 2.06114 6.65762 2.30005 6.70013C2.33435 6.70623 2.3708 6.70989 2.40845 6.70989C2.44589 6.70987 2.48174 6.70619 2.51587 6.70013C2.75489 6.65768 2.90831 6.47212 2.90845 6.20989C2.90845 5.94746 2.75502 5.76113 2.51587 5.71868C2.48175 5.71263 2.44587 5.70991 2.40845 5.70989C2.37081 5.70989 2.33434 5.71258 2.30005 5.71868ZM9.60767 1.75872C9.30799 1.75887 9.10785 1.95907 9.10767 2.25872C9.10767 2.55861 9.30785 2.75857 9.60767 2.75872C9.90767 2.75872 10.1077 2.55872 10.1077 2.25872C10.1075 1.95896 9.90752 1.75872 9.60767 1.75872Z" fill="#3261CE"/>
</svg>
