<svg width="12" height="12" viewBox="0 0 12 12" fill="none" xmlns="http://www.w3.org/2000/svg">
<path fill-rule="evenodd" clip-rule="evenodd" d="M8.30998 2.49899C8.61014 1.69939 9.45958 1.29972 10.2094 1.59958C10.6593 1.74954 10.9597 2.09913 11.1098 2.49899C11.2242 2.80399 11.21 3.23124 11.1098 3.49899C10.8098 4.29899 9.95939 4.69938 9.20939 4.39938C8.76821 4.23389 8.44967 3.90075 8.30216 3.50973H6.80998C6.50997 3.50973 6.30998 3.70973 6.30998 4.00973V8.00973C6.30991 8.85952 5.65971 9.5095 4.80997 9.50973H3.70939C3.40937 10.3096 2.55987 10.709 1.80997 10.4091C1.01 10.1092 0.609646 9.25971 0.909584 8.50973C1.20958 7.70973 2.05997 7.30934 2.80997 7.60934C3.2598 7.7594 3.55942 8.10983 3.70939 8.50973H4.80997C5.10969 8.50953 5.30992 8.30952 5.30998 8.00973V4.00973C5.30998 3.15973 5.95998 2.50973 6.80998 2.50973H8.30607C8.30738 2.50637 8.30863 2.50235 8.30998 2.49899ZM2.30997 8.50973C2.00997 8.50973 1.80997 8.70973 1.80997 9.00973C1.81003 9.30967 2.01001 9.50973 2.30997 9.50973C2.60969 9.50953 2.80992 9.30952 2.80997 9.00973C2.80997 8.70988 2.60972 8.50993 2.30997 8.50973ZM9.70939 2.49899C9.40963 2.49906 9.20959 2.6993 9.20939 2.99899C9.20939 3.29894 9.40948 3.49892 9.70939 3.49899C10.0094 3.49899 10.2094 3.29899 10.2094 2.99899C10.2092 2.69925 10.0092 2.49899 9.70939 2.49899Z" fill="#3261CE"/>
</svg>
