<svg width="20" height="20" viewBox="0 0 20 20" fill="none" xmlns="http://www.w3.org/2000/svg">
<path d="M9.99996 1.66699C10.4602 1.66699 10.8333 2.04009 10.8333 2.50033V5.00033C10.8333 5.46056 10.4602 5.83366 9.99996 5.83366C9.53971 5.83366 9.16663 5.46056 9.16663 5.00033V2.50033C9.16663 2.04009 9.53971 1.66699 9.99996 1.66699ZM9.99996 14.167C10.4602 14.167 10.8333 14.5401 10.8333 15.0003V17.5003C10.8333 17.9606 10.4602 18.3337 9.99996 18.3337C9.53971 18.3337 9.16663 17.9606 9.16663 17.5003V15.0003C9.16663 14.5401 9.53971 14.167 9.99996 14.167ZM18.3333 10.0003C18.3333 10.4606 17.9602 10.8337 17.5 10.8337H15C14.5397 10.8337 14.1666 10.4606 14.1666 10.0003C14.1666 9.54008 14.5397 9.16699 15 9.16699H17.5C17.9602 9.16699 18.3333 9.54008 18.3333 10.0003ZM5.83329 10.0003C5.83329 10.4606 5.46019 10.8337 4.99996 10.8337H2.49996C2.03973 10.8337 1.66663 10.4606 1.66663 10.0003C1.66663 9.54008 2.03973 9.16699 2.49996 9.16699H4.99996C5.46019 9.16699 5.83329 9.54008 5.83329 10.0003ZM15.8925 15.8929C15.567 16.2183 15.0395 16.2183 14.714 15.8929L12.9462 14.1251C12.6208 13.7997 12.6208 13.2721 12.9462 12.9466C13.2717 12.6212 13.7993 12.6212 14.1247 12.9466L15.8925 14.7144C16.218 15.0398 16.218 15.5674 15.8925 15.8929ZM7.05368 7.05405C6.72824 7.37948 6.20061 7.37948 5.87517 7.05405L4.1074 5.28628C3.78197 4.96084 3.78197 4.43321 4.1074 4.10777C4.43284 3.78233 4.96048 3.78233 5.28592 4.10777L7.05368 5.87553C7.37912 6.20098 7.37912 6.72861 7.05368 7.05405ZM4.1074 15.8929C3.78197 15.5674 3.78197 15.0398 4.1074 14.7144L5.87517 12.9466C6.20061 12.6212 6.72824 12.6212 7.05368 12.9466C7.37912 13.2721 7.37912 13.7997 7.05368 14.1251L5.28592 15.8929C4.96048 16.2183 4.43284 16.2183 4.1074 15.8929ZM12.9462 7.05405C12.6208 6.72861 12.6208 6.20098 12.9462 5.87553L14.714 4.10777C15.0395 3.78233 15.567 3.78233 15.8925 4.10777C16.218 4.43321 16.218 4.96084 15.8925 5.28628L14.1247 7.05405C13.7993 7.37948 13.2717 7.37948 12.9462 7.05405Z" fill="#00FEE1"/>
</svg>
