<svg width="672" height="64" viewBox="0 0 672 64" fill="none" xmlns="http://www.w3.org/2000/svg">
<path d="M0 6C0 2.68629 2.68629 0 6 0H666C669.314 0 672 2.68629 672 6V58C672 61.3137 669.314 64 666 64H6.00002C2.68631 64 0 61.3137 0 58V6Z" fill="white"/>
<rect x="183.5" y="16.5" width="31.0125" height="31" rx="15.5" fill="white"/>
<rect x="183.5" y="16.5" width="31.0125" height="31" rx="15.5" stroke="#D3D9E0" stroke-linejoin="bevel"/>
<path d="M198.259 32.1951C198.259 32.1754 198.258 32.1558 198.258 32.1361C198.252 31.9823 198.303 31.8281 198.42 31.7282C198.581 31.591 198.62 31.3583 198.513 31.1761L198.324 30.8528C198.215 30.6679 197.992 30.5847 197.789 30.6535C197.643 30.7031 197.483 30.6712 197.351 30.5909C197.315 30.5685 197.277 30.5474 197.239 30.5276C197.103 30.4567 196.996 30.3361 196.966 30.1857C196.925 29.9798 196.744 29.8314 196.534 29.8314H196.135C195.925 29.8314 195.744 29.9798 195.703 30.1857C195.673 30.3361 195.565 30.4567 195.429 30.5276C195.391 30.5474 195.354 30.5686 195.317 30.5909C195.186 30.6712 195.026 30.7031 194.88 30.6535C194.677 30.5847 194.454 30.6679 194.345 30.8527L194.155 31.1771C194.048 31.3587 194.087 31.5907 194.248 31.7275C194.365 31.8278 194.416 31.9828 194.411 32.1372C194.41 32.1758 194.41 32.2144 194.411 32.2529C194.416 32.4073 194.365 32.5623 194.248 32.6626C194.087 32.7995 194.048 33.0315 194.155 33.2131L194.345 33.5375C194.454 33.7223 194.677 33.8054 194.88 33.7367C195.026 33.6871 195.186 33.7189 195.317 33.7992C195.354 33.8216 195.391 33.8427 195.429 33.8625C195.565 33.9334 195.673 34.054 195.703 34.2044C195.744 34.4104 195.925 34.5588 196.135 34.5588H196.534C196.744 34.5588 196.925 34.4104 196.966 34.2045C196.996 34.054 197.103 33.9334 197.239 33.8625C197.277 33.8427 197.315 33.8216 197.351 33.7993C197.483 33.719 197.643 33.6871 197.789 33.7366C197.992 33.8054 198.215 33.7222 198.323 33.5374L198.513 33.214C198.62 33.0318 198.581 32.7992 198.42 32.662C198.303 32.562 198.252 32.4077 198.258 32.2538C198.258 32.2343 198.259 32.2147 198.259 32.1951ZM196.334 33.0815C196.159 33.0815 195.988 33.0295 195.842 32.9321C195.696 32.8347 195.583 32.6963 195.516 32.5343C195.448 32.3723 195.431 32.1941 195.465 32.0222C195.499 31.8502 195.584 31.6923 195.708 31.5683C195.832 31.4443 195.99 31.3599 196.162 31.3257C196.333 31.2915 196.512 31.3091 196.674 31.3762C196.836 31.4432 196.974 31.5569 197.071 31.7026C197.169 31.8484 197.221 32.0198 197.221 32.1951C197.221 32.4302 197.127 32.6556 196.961 32.8219C196.795 32.9881 196.57 33.0815 196.334 33.0815Z" fill="#4B5665"/>
<path d="M201.433 30.3208C202.506 30.3372 203.574 30.1871 204.6 29.8759C204.9 29.7793 205.188 29.6513 205.461 29.4939V30.6565C205.461 31.398 203.658 31.9992 201.433 31.9992C201.32 31.9992 201.208 31.9976 201.098 31.9946V30.3166C201.209 30.3194 201.321 30.3208 201.433 30.3208Z" fill="#4B5665"/>
<path d="M201.433 29.3139C203.658 29.3139 205.461 28.7127 205.461 27.9712C205.461 27.2297 203.658 26.6285 201.433 26.6285L201.307 26.6292C201.236 26.6299 201.167 26.6312 201.098 26.6331V29.3093C201.208 29.3123 201.32 29.3139 201.433 29.3139Z" fill="#4B5665"/>
<path d="M201.433 37.3698C201.32 37.3698 201.208 37.3683 201.098 37.3652V35.6872C201.209 35.6901 201.321 35.6915 201.433 35.6915C202.506 35.7078 203.574 35.5577 204.6 35.2466C204.9 35.15 205.188 35.0219 205.461 34.8645V36.0271C205.461 36.7687 203.658 37.3698 201.433 37.3698Z" fill="#4B5665"/>
<path d="M205.461 32.1792V33.3418C205.461 34.0833 203.658 34.6845 201.433 34.6845C201.32 34.6845 201.208 34.683 201.098 34.6799V33.0019C201.209 33.0047 201.321 33.0062 201.433 33.0062C202.506 33.0225 203.574 32.8724 204.6 32.5612C204.9 32.4646 205.188 32.3366 205.461 32.1792Z" fill="#4B5665"/>
<path d="M197.219 32.1948C197.219 32.3701 197.167 32.5415 197.069 32.6873C196.972 32.833 196.834 32.9466 196.672 33.0137C196.51 33.0808 196.331 33.0984 196.16 33.0642C195.988 33.03 195.83 32.9455 195.706 32.8216C195.582 32.6976 195.497 32.5397 195.463 32.3677C195.429 32.1958 195.446 32.0176 195.514 31.8556C195.581 31.6936 195.694 31.5552 195.84 31.4578C195.986 31.3604 196.157 31.3085 196.333 31.3085C196.449 31.3085 196.564 31.3314 196.672 31.3759C196.779 31.4205 196.877 31.4858 196.959 31.5681C197.042 31.6504 197.107 31.7481 197.151 31.8556C197.196 31.9632 197.219 32.0784 197.219 32.1948ZM200.14 24.7271V39.2725L193.338 38.2517C193.166 38.2259 193.009 38.1391 192.895 38.0071C192.781 37.8751 192.719 37.7067 192.719 37.5325V26.4216C192.719 26.2474 192.781 26.079 192.895 25.947C193.009 25.815 193.166 25.7281 193.338 25.7023L200.14 24.7271ZM198.256 32.1369C198.251 31.9826 198.302 31.8275 198.419 31.7272C198.579 31.5905 198.618 31.3585 198.512 31.1768L198.322 30.8525C198.213 30.6677 197.99 30.5845 197.787 30.6533C197.641 30.7029 197.481 30.671 197.349 30.5907C197.313 30.5683 197.275 30.5472 197.237 30.5274C197.101 30.4565 196.994 30.3359 196.964 30.1855C196.923 29.9796 196.742 29.8312 196.532 29.8312H196.133C195.923 29.8312 195.742 29.9796 195.701 30.1856C195.671 30.3359 195.564 30.4565 195.428 30.5274C195.389 30.5472 195.352 30.5684 195.315 30.5907C195.184 30.671 195.024 30.7028 194.878 30.6533C194.675 30.5845 194.452 30.6677 194.344 30.8525L194.153 31.1768C194.047 31.3585 194.086 31.5905 194.246 31.7273C194.363 31.8275 194.414 31.9826 194.409 32.1369C194.408 32.1755 194.408 32.2141 194.409 32.2527C194.414 32.407 194.363 32.5621 194.246 32.6624C194.086 32.7992 194.047 33.0312 194.153 33.2128L194.344 33.5371C194.452 33.7219 194.675 33.8051 194.878 33.7363C195.024 33.6868 195.184 33.7186 195.315 33.7989C195.352 33.8212 195.39 33.8423 195.428 33.8622C195.564 33.9331 195.671 34.0537 195.701 34.2041C195.742 34.4101 195.923 34.5585 196.133 34.5585H196.532C196.742 34.5585 196.923 34.4101 196.964 34.2041C196.994 34.0537 197.101 33.9331 197.237 33.8622C197.275 33.8424 197.313 33.8213 197.349 33.7989C197.481 33.7187 197.641 33.6868 197.787 33.7363C197.99 33.8051 198.213 33.7219 198.321 33.5371L198.512 33.2129C198.618 33.0312 198.579 32.7992 198.419 32.6623C198.302 32.562 198.251 32.407 198.256 32.2526C198.257 32.2141 198.257 32.1755 198.256 32.1369Z" fill="#A8B2BF"/>
<rect x="456.574" y="16.5" width="31.0125" height="31" rx="15.5" fill="white"/>
<rect x="456.574" y="16.5" width="31.0125" height="31" rx="15.5" stroke="#D3D9E0" stroke-linejoin="bevel"/>
<path d="M471.333 32.1951C471.333 32.1754 471.333 32.1558 471.332 32.1361C471.326 31.9823 471.378 31.8281 471.495 31.7282C471.655 31.591 471.694 31.3583 471.588 31.1761L471.398 30.8528C471.289 30.6679 471.066 30.5847 470.863 30.6535C470.717 30.7031 470.557 30.6712 470.426 30.5909C470.389 30.5685 470.352 30.5474 470.314 30.5276C470.178 30.4567 470.07 30.3361 470.04 30.1857C469.999 29.9798 469.818 29.8314 469.608 29.8314H469.209C468.999 29.8314 468.818 29.9798 468.777 30.1857C468.747 30.3361 468.64 30.4567 468.504 30.5276C468.466 30.5474 468.428 30.5686 468.392 30.5909C468.26 30.6712 468.1 30.7031 467.954 30.6535C467.751 30.5847 467.528 30.6679 467.42 30.8527L467.229 31.1771C467.123 31.3587 467.162 31.5907 467.322 31.7275C467.439 31.8278 467.49 31.9828 467.485 32.1372C467.484 32.1758 467.484 32.2144 467.485 32.2529C467.49 32.4073 467.439 32.5623 467.322 32.6626C467.162 32.7995 467.123 33.0315 467.229 33.2131L467.42 33.5375C467.528 33.7223 467.752 33.8054 467.954 33.7367C468.101 33.6871 468.26 33.7189 468.392 33.7992C468.428 33.8216 468.466 33.8427 468.504 33.8625C468.64 33.9334 468.748 34.054 468.777 34.2044C468.818 34.4104 468.999 34.5588 469.209 34.5588H469.608C469.818 34.5588 469.999 34.4104 470.04 34.2045C470.07 34.054 470.178 33.9334 470.314 33.8625C470.352 33.8427 470.389 33.8216 470.426 33.7993C470.557 33.719 470.717 33.6871 470.863 33.7366C471.066 33.8054 471.289 33.7222 471.398 33.5374L471.587 33.214C471.694 33.0318 471.655 32.7992 471.495 32.662C471.378 32.562 471.326 32.4077 471.332 32.2538C471.333 32.2343 471.333 32.2147 471.333 32.1951ZM469.409 33.0815C469.233 33.0815 469.062 33.0295 468.916 32.9321C468.77 32.8347 468.657 32.6963 468.59 32.5343C468.523 32.3723 468.505 32.1941 468.539 32.0222C468.573 31.8502 468.658 31.6923 468.782 31.5683C468.906 31.4443 469.064 31.3599 469.236 31.3257C469.408 31.2915 469.586 31.3091 469.748 31.3762C469.91 31.4432 470.048 31.5569 470.146 31.7026C470.243 31.8484 470.295 32.0198 470.295 32.1951C470.295 32.4302 470.202 32.6556 470.035 32.8219C469.869 32.9881 469.644 33.0815 469.409 33.0815Z" fill="#4B5665"/>
<path d="M474.508 30.3208C475.58 30.3372 476.648 30.1871 477.674 29.8759C477.974 29.7793 478.263 29.6513 478.536 29.4939V30.6565C478.536 31.398 476.732 31.9992 474.508 31.9992C474.394 31.9992 474.283 31.9976 474.172 31.9946V30.3166C474.283 30.3194 474.395 30.3208 474.508 30.3208Z" fill="#4B5665"/>
<path d="M474.508 29.3139C476.732 29.3139 478.536 28.7127 478.536 27.9712C478.536 27.2297 476.732 26.6285 474.508 26.6285L474.381 26.6292C474.311 26.6299 474.241 26.6312 474.172 26.6331V29.3093C474.283 29.3123 474.394 29.3139 474.508 29.3139Z" fill="#4B5665"/>
<path d="M474.508 37.3698C474.394 37.3698 474.283 37.3683 474.172 37.3652V35.6872C474.283 35.6901 474.395 35.6915 474.508 35.6915C475.58 35.7078 476.648 35.5577 477.674 35.2466C477.974 35.15 478.263 35.0219 478.536 34.8645V36.0271C478.536 36.7687 476.732 37.3698 474.508 37.3698Z" fill="#4B5665"/>
<path d="M478.536 32.1792V33.3418C478.536 34.0833 476.732 34.6845 474.508 34.6845C474.394 34.6845 474.283 34.683 474.172 34.6799V33.0019C474.283 33.0047 474.395 33.0062 474.508 33.0062C475.58 33.0225 476.648 32.8724 477.674 32.5612C477.974 32.4646 478.263 32.3366 478.536 32.1792Z" fill="#4B5665"/>
<path d="M470.293 32.1948C470.293 32.3701 470.241 32.5415 470.144 32.6873C470.046 32.833 469.908 32.9466 469.746 33.0137C469.584 33.0808 469.406 33.0984 469.234 33.0642C469.062 33.03 468.904 32.9455 468.78 32.8216C468.656 32.6976 468.572 32.5397 468.537 32.3677C468.503 32.1958 468.521 32.0176 468.588 31.8556C468.655 31.6936 468.769 31.5552 468.914 31.4578C469.06 31.3604 469.231 31.3085 469.407 31.3085C469.523 31.3085 469.638 31.3314 469.746 31.3759C469.853 31.4205 469.951 31.4858 470.033 31.5681C470.116 31.6504 470.181 31.7481 470.226 31.8556C470.27 31.9632 470.293 32.0784 470.293 32.1948ZM473.214 24.7271V39.2725L466.413 38.2517C466.24 38.2259 466.083 38.1391 465.969 38.0071C465.856 37.8751 465.793 37.7067 465.793 37.5325V26.4216C465.793 26.2474 465.856 26.079 465.969 25.947C466.083 25.815 466.24 25.7281 466.413 25.7023L473.214 24.7271ZM471.33 32.1369C471.325 31.9826 471.376 31.8275 471.493 31.7272C471.654 31.5905 471.693 31.3585 471.586 31.1768L471.396 30.8525C471.287 30.6677 471.064 30.5845 470.861 30.6533C470.715 30.7029 470.555 30.671 470.424 30.5907C470.387 30.5683 470.35 30.5472 470.312 30.5274C470.176 30.4565 470.068 30.3359 470.038 30.1855C469.997 29.9796 469.816 29.8312 469.606 29.8312H469.207C468.997 29.8312 468.816 29.9796 468.775 30.1856C468.746 30.3359 468.638 30.4565 468.502 30.5274C468.464 30.5472 468.426 30.5684 468.39 30.5907C468.258 30.671 468.099 30.7028 467.952 30.6533C467.75 30.5845 467.526 30.6677 467.418 30.8525L467.227 31.1768C467.121 31.3585 467.16 31.5905 467.32 31.7273C467.437 31.8275 467.488 31.9826 467.483 32.1369C467.482 32.1755 467.482 32.2141 467.483 32.2527C467.488 32.407 467.437 32.5621 467.32 32.6624C467.16 32.7992 467.121 33.0312 467.227 33.2128L467.418 33.5371C467.526 33.7219 467.75 33.8051 467.953 33.7363C468.099 33.6868 468.258 33.7186 468.39 33.7989C468.426 33.8212 468.464 33.8423 468.502 33.8622C468.638 33.9331 468.746 34.0537 468.775 34.2041C468.816 34.4101 468.997 34.5585 469.207 34.5585H469.606C469.816 34.5585 469.997 34.4101 470.038 34.2041C470.068 34.0537 470.176 33.9331 470.312 33.8622C470.35 33.8424 470.387 33.8213 470.424 33.7989C470.555 33.7187 470.715 33.6868 470.861 33.7363C471.064 33.8051 471.287 33.7219 471.396 33.5371L471.586 33.2129C471.693 33.0312 471.654 32.7992 471.493 32.6623C471.376 32.562 471.325 32.407 471.33 32.2526C471.331 32.2141 471.331 32.1755 471.33 32.1369Z" fill="#A8B2BF"/>
<path d="M212.333 32C212.333 33.4728 213.527 34.6667 215 34.6667C216.473 34.6667 217.667 33.4728 217.667 32C217.667 30.5272 216.473 29.3333 215 29.3333C213.527 29.3333 212.333 30.5272 212.333 32ZM453.333 32C453.333 33.4727 454.527 34.6666 456 34.6666C457.473 34.6666 458.667 33.4727 458.667 32C458.667 30.5272 457.473 29.3333 456 29.3333C454.527 29.3333 453.333 30.5272 453.333 32ZM215 32L215 32.5L456 32.5L456 32L456 31.5L215 31.5L215 32Z" fill="#D3D9E0"/>
<path d="M326 26C326 23.7909 327.791 22 330 22H342.008C344.217 22 346.008 23.7909 346.008 26V38C346.008 40.2091 344.217 42 342.008 42H330C327.791 42 326 40.2091 326 38V26Z" fill="#E5F4FE"/>
<path d="M337.575 27.7054C337.575 27.474 337.762 27.2864 337.994 27.2864H340.299C340.53 27.2864 340.718 27.474 340.718 27.7054V30.0102C340.718 30.2416 340.53 30.4292 340.299 30.4292H340.089C339.858 30.4292 339.67 30.2416 339.67 30.0102V28.334H337.994C337.762 28.334 337.575 28.1464 337.575 27.9149V27.7054ZM334.013 27.2864C334.244 27.2864 334.432 27.474 334.432 27.7054V27.9149C334.432 28.1464 334.244 28.334 334.013 28.334H332.337V30.0102C332.337 30.2416 332.149 30.4292 331.918 30.4292H331.708C331.477 30.4292 331.289 30.2416 331.289 30.0102V27.7054C331.289 27.474 331.477 27.2864 331.708 27.2864H334.013ZM337.994 36.7149C337.762 36.7149 337.575 36.5273 337.575 36.2959V36.0864C337.575 35.8549 337.762 35.6673 337.994 35.6673H339.67V33.9911C339.67 33.7597 339.858 33.5721 340.089 33.5721H340.299C340.53 33.5721 340.718 33.7597 340.718 33.9911V36.2959C340.718 36.5273 340.53 36.7149 340.299 36.7149H337.994ZM334.432 36.2959C334.432 36.5273 334.244 36.7149 334.013 36.7149H331.708C331.477 36.7149 331.289 36.5273 331.289 36.2959V33.9911C331.289 33.7597 331.477 33.5721 331.708 33.5721H331.918C332.149 33.5721 332.337 33.7597 332.337 33.9911V35.6673H334.013C334.244 35.6673 334.432 35.8549 334.432 36.0864V36.2959Z" fill="#2E90FA"/>
<path d="M336.004 29.3823C336.212 29.3823 336.4 29.5057 336.483 29.6964L338.317 33.8869C338.433 34.1519 338.312 34.4605 338.047 34.5764C337.782 34.6923 337.473 34.5713 337.357 34.3063L336.922 33.3109H335.085L334.65 34.3063C334.534 34.5713 334.226 34.6923 333.961 34.5764C333.696 34.4605 333.575 34.1519 333.69 33.8869L335.524 29.6964L335.56 29.6279C335.654 29.4766 335.822 29.3823 336.004 29.3823ZM335.544 32.2633H336.463L336.004 31.2126L335.544 32.2633Z" fill="#2E90FA"/>
</svg>
