<svg width="666" height="100" viewBox="0 0 666 100" fill="none" xmlns="http://www.w3.org/2000/svg">
    <path d="M0 4C0 1.79086 1.79086 0 4 0H662C664.209 0 666 1.79086 666 4V96C666 98.2091 664.209 100 662 100H4C1.79086 100 0 98.2091 0 96V4Z" fill="#F9FBFD"/>
    <path d="M257 14C257 12.8954 257.895 12 259 12H407C408.105 12 409 12.8954 409 14V86C409 87.1046 408.105 88 407 88H259C257.895 88 257 87.1046 257 86V14Z" fill="white" stroke="#B3C0CC" stroke-linejoin="bevel"/>
    <path fill-rule="evenodd" clip-rule="evenodd" d="M353.5 23.4135L352.804 24.1171L351.561 22.8607L350.865 23.5643L351.909 24.6197L351.213 25.3233L350.169 24.2679L349.075 25.3735C349.82 26.5294 349.522 28.0873 348.378 28.8411C347.384 29.4945 346.091 29.3437 345.246 28.5396C344.251 27.5848 344.251 25.9766 345.246 24.9715C346.091 24.1674 347.384 24.0166 348.378 24.6699L352.257 20.75L352.953 21.4536L352.257 22.1572L353.5 23.4135ZM345.986 27.8762C346.533 28.4793 347.428 28.4793 348.025 27.8762C348.621 27.3234 348.671 26.3685 348.074 25.7655C347.528 25.1624 346.583 25.1122 345.986 25.7152L345.936 25.7655C345.34 26.3685 345.389 27.3234 345.986 27.8762Z" fill="#79879C"/>
    <path fill-rule="evenodd" clip-rule="evenodd" d="M277.5 23.4135L276.804 24.1171L275.561 22.8607L274.865 23.5643L275.909 24.6197L275.213 25.3233L274.169 24.2679L273.075 25.3735C273.82 26.5294 273.522 28.0873 272.378 28.8411C271.384 29.4945 270.091 29.3437 269.246 28.5396C268.251 27.5848 268.251 25.9766 269.246 24.9715C270.091 24.1674 271.384 24.0166 272.378 24.6699L276.257 20.75L276.953 21.4536L276.257 22.1572L277.5 23.4135ZM269.986 27.8762C270.533 28.4793 271.428 28.4793 272.025 27.8762C272.621 27.3234 272.671 26.3685 272.074 25.7655C271.528 25.1624 270.583 25.1122 269.986 25.7152L269.936 25.7655C269.34 26.3685 269.389 27.3234 269.986 27.8762Z" fill="#79879C"/>
    <path fill-rule="evenodd" clip-rule="evenodd" d="M353.5 49.4135L352.804 50.1171L351.561 48.8607L350.865 49.5643L351.909 50.6197L351.213 51.3233L350.169 50.2679L349.075 51.3735C349.82 52.5294 349.522 54.0873 348.378 54.8411C347.384 55.4945 346.091 55.3437 345.246 54.5396C344.251 53.5848 344.251 51.9766 345.246 50.9715C346.091 50.1674 347.384 50.0166 348.378 50.6699L352.257 46.75L352.953 47.4536L352.257 48.1572L353.5 49.4135ZM345.986 53.8762C346.533 54.4793 347.428 54.4793 348.025 53.8762C348.621 53.3234 348.671 52.3685 348.074 51.7655C347.528 51.1624 346.583 51.1122 345.986 51.7152L345.936 51.7655C345.34 52.3685 345.389 53.3234 345.986 53.8762Z" fill="#79879C"/>
    <path fill-rule="evenodd" clip-rule="evenodd" d="M277.5 49.4135L276.804 50.1171L275.561 48.8607L274.865 49.5643L275.909 50.6197L275.213 51.3233L274.169 50.2679L273.075 51.3735C273.82 52.5294 273.522 54.0873 272.378 54.8411C271.384 55.4945 270.091 55.3437 269.246 54.5396C268.251 53.5848 268.251 51.9766 269.246 50.9715C270.091 50.1674 271.384 50.0166 272.378 50.6699L276.257 46.75L276.953 47.4536L276.257 48.1572L277.5 49.4135ZM269.986 53.8762C270.533 54.4793 271.428 54.4793 272.025 53.8762C272.621 53.3234 272.671 52.3685 272.074 51.7655C271.528 51.1624 270.583 51.1122 269.986 51.7152L269.936 51.7655C269.34 52.3685 269.389 53.3234 269.986 53.8762Z" fill="#79879C"/>
    <path fill-rule="evenodd" clip-rule="evenodd" d="M353.5 74.4135L352.804 75.1171L351.561 73.8607L350.865 74.5643L351.909 75.6197L351.213 76.3233L350.169 75.2679L349.075 76.3735C349.82 77.5294 349.522 79.0873 348.378 79.8411C347.384 80.4945 346.091 80.3437 345.246 79.5396C344.251 78.5848 344.251 76.9766 345.246 75.9715C346.091 75.1674 347.384 75.0166 348.378 75.6699L352.257 71.75L352.953 72.4536L352.257 73.1572L353.5 74.4135ZM345.986 78.8762C346.533 79.4793 347.428 79.4793 348.025 78.8762C348.621 78.3234 348.671 77.3685 348.074 76.7655C347.528 76.1624 346.583 76.1122 345.986 76.7152L345.936 76.7655C345.34 77.3685 345.389 78.3234 345.986 78.8762Z" fill="#79879C"/>
    <path fill-rule="evenodd" clip-rule="evenodd" d="M277.5 74.4135L276.804 75.1171L275.561 73.8607L274.865 74.5643L275.909 75.6197L275.213 76.3233L274.169 75.2679L273.075 76.3735C273.82 77.5294 273.522 79.0873 272.378 79.8411C271.384 80.4945 270.091 80.3437 269.246 79.5396C268.251 78.5848 268.251 76.9766 269.246 75.9715C270.091 75.1674 271.384 75.0166 272.378 75.6699L276.257 71.75L276.953 72.4536L276.257 73.1572L277.5 74.4135ZM269.986 78.8762C270.533 79.4793 271.428 79.4793 272.025 78.8762C272.621 78.3234 272.671 77.3685 272.074 76.7655C271.528 76.1624 270.583 76.1122 269.986 76.7152L269.936 76.7655C269.34 77.3685 269.389 78.3234 269.986 78.8762Z" fill="#79879C"/>
    <rect x="359" y="21" width="40" height="8" rx="1" fill="#E3E9EF"/>
    <rect x="283" y="21" width="40" height="8" rx="1" fill="#E3E9EF"/>
    <rect x="359" y="47" width="40" height="8" rx="1" fill="#E3E9EF"/>
    <rect x="283" y="47" width="40" height="8" rx="1" fill="#E3E9EF"/>
    <rect x="359" y="72" width="40" height="8" rx="1" fill="#E3E9EF"/>
    <rect x="283" y="72" width="40" height="8" rx="1" fill="#E3E9EF"/>
    <path d="M267 38H399" stroke="#E3E9EF"/>
    <path d="M267 64H399" stroke="#E3E9EF"/>
    <path d="M333 18L333 32" stroke="#E3E9EF"/>
    <path d="M333 44L333 58" stroke="#E3E9EF"/>
    <path d="M333 69L333 83" stroke="#E3E9EF"/>
    <path d="M71 52C71 50.8954 71.8954 50 73 50H95C96.1046 50 97 50.8954 97 52V74C97 75.1046 96.1046 76 95 76H73C71.8954 76 71 75.1046 71 74V52Z" fill="white"/>
    <path d="M71 52C71 50.8954 71.8954 50 73 50H95C96.1046 50 97 50.8954 97 52V74C97 75.1046 96.1046 76 95 76H73C71.8954 76 71 75.1046 71 74V52Z" stroke="#B3C0CC" stroke-linejoin="bevel"/>
    <path opacity="0.25" d="M84.9463 57.167H79.1162C78.9611 57.167 78.8123 57.2286 78.7026 57.3383C78.5929 57.448 78.5313 57.5968 78.5312 57.752V68.2487C78.5313 68.4038 78.5929 68.5526 78.7026 68.6623C78.8123 68.772 78.9611 68.8337 79.1162 68.8337H84.9463C85.1014 68.8337 85.2502 68.772 85.3599 68.6623C85.4696 68.5526 85.5312 68.4038 85.5312 68.2487V57.752C85.5312 57.5968 85.4696 57.448 85.3599 57.3383C85.2502 57.2286 85.1014 57.167 84.9463 57.167ZM80.1783 61.1474H82.6489V62.3827H80.1783V61.1474ZM83.8842 64.8532H80.1783V63.618H83.8842V64.8532Z" fill="#4D5E7D"/>
    <path d="M82.6488 61.1475V62.3828H80.1782V61.1475H82.6488ZM80.1782 63.6181V64.8534H83.8841V63.6181" fill="#4D5E7D"/>
    <path d="M86.5072 61.7655C87.2955 61.7776 88.0809 61.6672 88.8354 61.4384C89.0558 61.3674 89.268 61.2732 89.4686 61.1575V62.0123C89.4686 62.5575 88.1427 62.9995 86.5071 62.9995C86.4239 62.9995 86.3417 62.9984 86.2604 62.9961V61.7624C86.3421 61.7645 86.4244 61.7655 86.5072 61.7655Z" fill="#4D5E7D"/>
    <path d="M86.5072 61.0251C88.1428 61.0251 89.4687 60.5832 89.4687 60.038C89.4687 59.4928 88.1427 59.0508 86.5071 59.0508L86.414 59.0513C86.3624 59.0518 86.3112 59.0528 86.2604 59.0542V61.0218C86.3418 61.024 86.424 61.0251 86.5072 61.0251Z" fill="#4D5E7D"/>
    <path d="M86.5072 66.9482C86.424 66.9482 86.3417 66.9471 86.2604 66.9448L86.2603 65.7111C86.342 65.7132 86.4243 65.7142 86.5071 65.7142C87.2954 65.7263 88.0809 65.6159 88.8354 65.3871C89.0558 65.3161 89.2681 65.2219 89.4687 65.1062V65.961C89.4687 66.5062 88.1428 66.9482 86.5072 66.9482Z" fill="#4D5E7D"/>
    <path d="M89.4687 63.1319V63.9867C89.4687 64.5319 88.1427 64.9739 86.5072 64.9739C86.424 64.9739 86.3417 64.9727 86.2604 64.9705V63.7368C86.3421 63.7388 86.4244 63.7399 86.5072 63.7399C87.2955 63.7519 88.0809 63.6416 88.8354 63.4128C89.0558 63.3417 89.2681 63.2476 89.4687 63.1319Z" fill="#4D5E7D"/>
    <path d="M71 14C71 12.8954 71.8954 12 73 12H95C96.1046 12 97 12.8954 97 14V36C97 37.1046 96.1046 38 95 38H73C71.8954 38 71 37.1046 71 36V14Z" fill="white"/>
    <path d="M71 14C71 12.8954 71.8954 12 73 12H95C96.1046 12 97 12.8954 97 14V36C97 37.1046 96.1046 38 95 38H73C71.8954 38 71 37.1046 71 36V14Z" stroke="#B3C0CC" stroke-linejoin="bevel"/>
    <path opacity="0.25" d="M84.9463 19.167H79.1162C78.9611 19.167 78.8123 19.2286 78.7026 19.3383C78.5929 19.448 78.5313 19.5968 78.5312 19.752V30.2487C78.5313 30.4038 78.5929 30.5526 78.7026 30.6623C78.8123 30.772 78.9611 30.8337 79.1162 30.8337H84.9463C85.1014 30.8337 85.2502 30.772 85.3599 30.6623C85.4696 30.5526 85.5312 30.4038 85.5312 30.2487V19.752C85.5312 19.5968 85.4696 19.448 85.3599 19.3383C85.2502 19.2286 85.1014 19.167 84.9463 19.167ZM80.1783 23.1474H82.6489V24.3827H80.1783V23.1474ZM83.8842 26.8532H80.1783V25.618H83.8842V26.8532Z" fill="#4D5E7D"/>
    <path d="M82.6488 23.1475V24.3828H80.1782V23.1475H82.6488ZM80.1782 25.6181V26.8534H83.8841V25.6181" fill="#4D5E7D"/>
    <path d="M86.5072 23.7655C87.2955 23.7776 88.0809 23.6672 88.8354 23.4384C89.0558 23.3674 89.268 23.2732 89.4686 23.1575V24.0123C89.4686 24.5575 88.1427 24.9995 86.5071 24.9995C86.4239 24.9995 86.3417 24.9984 86.2604 24.9961V23.7624C86.3421 23.7645 86.4244 23.7655 86.5072 23.7655Z" fill="#4D5E7D"/>
    <path d="M86.5072 23.0251C88.1428 23.0251 89.4687 22.5832 89.4687 22.038C89.4687 21.4928 88.1427 21.0508 86.5071 21.0508L86.414 21.0513C86.3624 21.0518 86.3112 21.0528 86.2604 21.0542V23.0218C86.3418 23.024 86.424 23.0251 86.5072 23.0251Z" fill="#4D5E7D"/>
    <path d="M86.5072 28.9482C86.424 28.9482 86.3417 28.9471 86.2604 28.9448L86.2603 27.7111C86.342 27.7132 86.4243 27.7142 86.5071 27.7142C87.2954 27.7263 88.0809 27.6159 88.8354 27.3871C89.0558 27.3161 89.2681 27.2219 89.4687 27.1062V27.961C89.4687 28.5062 88.1428 28.9482 86.5072 28.9482Z" fill="#4D5E7D"/>
    <path d="M89.4687 25.1319V25.9867C89.4687 26.5319 88.1427 26.9739 86.5072 26.9739C86.424 26.9739 86.3417 26.9727 86.2604 26.9705V25.7368C86.3421 25.7388 86.4244 25.7399 86.5072 25.7399C87.2955 25.7519 88.0809 25.6416 88.8354 25.4128C89.0558 25.3417 89.2681 25.2476 89.4687 25.1319Z" fill="#4D5E7D"/>
    <path d="M569 64C569 62.8954 569.895 62 571 62H593C594.105 62 595 62.8954 595 64V86C595 87.1046 594.105 88 593 88H571C569.895 88 569 87.1046 569 86V64Z" fill="white"/>
    <path d="M569 64C569 62.8954 569.895 62 571 62H593C594.105 62 595 62.8954 595 64V86C595 87.1046 594.105 88 593 88H571C569.895 88 569 87.1046 569 86V64Z" stroke="#B3C0CC" stroke-linejoin="bevel"/>
    <path opacity="0.25" d="M582.946 69.167H577.116C576.961 69.167 576.812 69.2286 576.703 69.3383C576.593 69.448 576.531 69.5968 576.531 69.752V80.2487C576.531 80.4038 576.593 80.5526 576.703 80.6623C576.812 80.772 576.961 80.8337 577.116 80.8337H582.946C583.101 80.8337 583.25 80.772 583.36 80.6623C583.47 80.5526 583.531 80.4038 583.531 80.2487V69.752C583.531 69.5968 583.47 69.448 583.36 69.3383C583.25 69.2286 583.101 69.167 582.946 69.167ZM578.178 73.1474H580.649V74.3827H578.178V73.1474ZM581.884 76.8532H578.178V75.618H581.884V76.8532Z" fill="#4D5E7D"/>
    <path d="M580.649 73.1475V74.3828H578.178V73.1475H580.649ZM578.178 75.6181V76.8534H581.884V75.6181" fill="#4D5E7D"/>
    <path d="M584.507 73.7655C585.295 73.7776 586.081 73.6672 586.835 73.4384C587.056 73.3674 587.268 73.2732 587.469 73.1575V74.0123C587.469 74.5575 586.143 74.9995 584.507 74.9995C584.424 74.9995 584.342 74.9984 584.26 74.9961V73.7624C584.342 73.7645 584.424 73.7655 584.507 73.7655Z" fill="#4D5E7D"/>
    <path d="M584.507 73.0251C586.143 73.0251 587.469 72.5832 587.469 72.038C587.469 71.4928 586.143 71.0508 584.507 71.0508L584.414 71.0513C584.362 71.0518 584.311 71.0528 584.26 71.0542V73.0218C584.342 73.024 584.424 73.0251 584.507 73.0251Z" fill="#4D5E7D"/>
    <path d="M584.507 78.9482C584.424 78.9482 584.342 78.9471 584.26 78.9448L584.26 77.7111C584.342 77.7132 584.424 77.7142 584.507 77.7142C585.295 77.7263 586.081 77.6159 586.835 77.3871C587.056 77.3161 587.268 77.2219 587.469 77.1062V77.961C587.469 78.5062 586.143 78.9482 584.507 78.9482Z" fill="#4D5E7D"/>
    <path d="M587.469 75.1319V75.9867C587.469 76.5319 586.143 76.9739 584.507 76.9739C584.424 76.9739 584.342 76.9727 584.26 76.9705V75.7368C584.342 75.7388 584.424 75.7399 584.507 75.7399C585.295 75.7519 586.081 75.6416 586.835 75.4128C587.056 75.3417 587.268 75.2476 587.469 75.1319Z" fill="#4D5E7D"/>
    <path d="M569 27C569 25.8954 569.895 25 571 25H593C594.105 25 595 25.8954 595 27V49C595 50.1046 594.105 51 593 51H571C569.895 51 569 50.1046 569 49V27Z" fill="white"/>
    <path d="M569 27C569 25.8954 569.895 25 571 25H593C594.105 25 595 25.8954 595 27V49C595 50.1046 594.105 51 593 51H571C569.895 51 569 50.1046 569 49V27Z" stroke="#B3C0CC" stroke-linejoin="bevel"/>
    <path opacity="0.25" d="M582.946 32.167H577.116C576.961 32.167 576.812 32.2286 576.703 32.3383C576.593 32.448 576.531 32.5968 576.531 32.752V43.2487C576.531 43.4038 576.593 43.5526 576.703 43.6623C576.812 43.772 576.961 43.8337 577.116 43.8337H582.946C583.101 43.8337 583.25 43.772 583.36 43.6623C583.47 43.5526 583.531 43.4038 583.531 43.2487V32.752C583.531 32.5968 583.47 32.448 583.36 32.3383C583.25 32.2286 583.101 32.167 582.946 32.167ZM578.178 36.1474H580.649V37.3827H578.178V36.1474ZM581.884 39.8532H578.178V38.618H581.884V39.8532Z" fill="#4D5E7D"/>
    <path d="M580.649 36.1475V37.3828H578.178V36.1475H580.649ZM578.178 38.6181V39.8534H581.884V38.6181" fill="#4D5E7D"/>
    <path d="M584.507 36.7655C585.295 36.7776 586.081 36.6672 586.835 36.4384C587.056 36.3674 587.268 36.2732 587.469 36.1575V37.0123C587.469 37.5575 586.143 37.9995 584.507 37.9995C584.424 37.9995 584.342 37.9984 584.26 37.9961V36.7624C584.342 36.7645 584.424 36.7655 584.507 36.7655Z" fill="#4D5E7D"/>
    <path d="M584.507 36.0251C586.143 36.0251 587.469 35.5832 587.469 35.038C587.469 34.4928 586.143 34.0508 584.507 34.0508L584.414 34.0513C584.362 34.0518 584.311 34.0528 584.26 34.0542V36.0218C584.342 36.024 584.424 36.0251 584.507 36.0251Z" fill="#4D5E7D"/>
    <path d="M584.507 41.9482C584.424 41.9482 584.342 41.9471 584.26 41.9448L584.26 40.7111C584.342 40.7132 584.424 40.7142 584.507 40.7142C585.295 40.7263 586.081 40.6159 586.835 40.3871C587.056 40.3161 587.268 40.2219 587.469 40.1062V40.961C587.469 41.5062 586.143 41.9482 584.507 41.9482Z" fill="#4D5E7D"/>
    <path d="M587.469 38.1319V38.9867C587.469 39.5319 586.143 39.9739 584.507 39.9739C584.424 39.9739 584.342 39.9727 584.26 39.9705V38.7368C584.342 38.7388 584.424 38.7399 584.507 38.7399C585.295 38.7519 586.081 38.6416 586.835 38.4128C587.056 38.3417 587.268 38.2476 587.469 38.1319Z" fill="#4D5E7D"/>
    <path d="M254.333 51C254.333 52.4728 255.527 53.6667 257 53.6667C258.473 53.6667 259.667 52.4728 259.667 51C259.667 49.5272 258.473 48.3333 257 48.3333C255.527 48.3333 254.333 49.5272 254.333 51ZM188.052 53.3316L188.372 53.715L188.052 53.3316ZM194.47 51V51.5V51ZM179.286 60.6684L178.965 60.285L179.286 60.6684ZM179.286 60.6684L179.607 61.0518L188.372 53.715L188.052 53.3316L187.731 52.9482L178.965 60.285L179.286 60.6684ZM194.47 51V51.5H257V51V50.5H194.47V51ZM97 63V63.5H172.867V63V62.5H97V63ZM188.052 53.3316L188.372 53.715C190.082 52.2841 192.24 51.5 194.47 51.5V51V50.5C192.006 50.5 189.62 51.3666 187.731 52.9482L188.052 53.3316ZM179.286 60.6684L178.965 60.285C177.255 61.7159 175.097 62.5 172.867 62.5V63V63.5C175.331 63.5 177.717 62.6334 179.607 61.0518L179.286 60.6684Z" fill="#79879C"/>
    <path d="M94.3333 25C94.3333 26.4728 95.5272 27.6667 97 27.6667C98.4728 27.6667 99.6667 26.4728 99.6667 25C99.6667 23.5272 98.4728 22.3333 97 22.3333C95.5272 22.3333 94.3333 23.5272 94.3333 25ZM254.833 25C254.833 26.4728 256.027 27.6667 257.5 27.6667C258.973 27.6667 260.167 26.4728 260.167 25C260.167 23.5272 258.973 22.3333 257.5 22.3333C256.027 22.3333 254.833 23.5272 254.833 25ZM97 25L97 25.5H257.5V25V24.5H97L97 25Z" fill="#79879C"/>
    <path d="M94.3333 63C94.3333 61.5272 95.5272 60.3333 97 60.3333C98.4728 60.3333 99.6667 61.5272 99.6667 63C99.6667 64.4728 98.4728 65.6667 97 65.6667C95.5272 65.6667 94.3333 64.4728 94.3333 63ZM254.333 76C254.333 74.5272 255.527 73.3333 257 73.3333C258.473 73.3333 259.667 74.5272 259.667 76C259.667 77.4728 258.473 78.6667 257 78.6667C255.527 78.6667 254.333 77.4728 254.333 76ZM179.359 65.5919L179.694 65.2215L188.315 73.0377L187.979 73.4081L187.643 73.7785L179.023 65.9623L179.359 65.5919ZM194.696 76V75.5H257V76V76.5H194.696V76ZM97 63V62.5H172.641V63V63.5H97V63ZM187.979 73.4081L188.315 73.0377C190.062 74.6223 192.337 75.5 194.696 75.5V76V76.5C192.088 76.5 189.574 75.5299 187.643 73.7785L187.979 73.4081ZM179.359 65.5919L179.023 65.9623C177.275 64.3777 175 63.5 172.641 63.5V63V62.5C175.249 62.5 177.763 63.4701 179.694 65.2215L179.359 65.5919Z" fill="#79879C"/>
    <path d="M411.667 50C411.667 48.5272 410.473 47.3333 409 47.3333C407.527 47.3333 406.333 48.5272 406.333 50C406.333 51.4728 407.527 52.6667 409 52.6667C410.473 52.6667 411.667 51.4728 411.667 50ZM477.948 47.6684L477.628 47.285L477.948 47.6684ZM471.53 50V49.5V50ZM486.714 40.3316L487.035 40.715L486.714 40.3316ZM486.714 40.3316L486.393 39.9482L477.628 47.285L477.948 47.6684L478.269 48.0518L487.035 40.715L486.714 40.3316ZM471.53 50V49.5H409V50V50.5H471.53V50ZM569 38V37.5H493.133V38V38.5H569V38ZM477.948 47.6684L477.628 47.285C475.918 48.7159 473.76 49.5 471.53 49.5V50V50.5C473.994 50.5 476.38 49.6334 478.269 48.0518L477.948 47.6684ZM486.714 40.3316L487.035 40.715C488.745 39.2841 490.903 38.5 493.133 38.5V38V37.5C490.669 37.5 488.283 38.3666 486.393 39.9482L486.714 40.3316Z" fill="#79879C"/>
    <path d="M571.667 76C571.667 74.5272 570.473 73.3333 569 73.3333C567.527 73.3333 566.333 74.5272 566.333 76C566.333 77.4728 567.527 78.6667 569 78.6667C570.473 78.6667 571.667 77.4728 571.667 76ZM411.167 76C411.167 74.5272 409.973 73.3333 408.5 73.3333C407.027 73.3333 405.833 74.5272 405.833 76C405.833 77.4728 407.027 78.6667 408.5 78.6667C409.973 78.6667 411.167 77.4728 411.167 76ZM569 76V75.5H408.5V76V76.5H569V76Z" fill="#79879C"/>
    <path d="M571.667 38C571.667 39.4728 570.473 40.6667 569 40.6667C567.527 40.6667 566.333 39.4728 566.333 38C566.333 36.5272 567.527 35.3333 569 35.3333C570.473 35.3333 571.667 36.5272 571.667 38ZM411.667 25C411.667 26.4728 410.473 27.6667 409 27.6667C407.527 27.6667 406.333 26.4728 406.333 25C406.333 23.5272 407.527 22.3333 409 22.3333C410.473 22.3333 411.667 23.5272 411.667 25ZM486.641 35.4081L486.306 35.7785L477.685 27.9623L478.021 27.5919L478.357 27.2215L486.977 35.0377L486.641 35.4081ZM471.304 25V25.5H409V25V24.5H471.304V25ZM569 38V38.5H493.359V38V37.5H569V38ZM478.021 27.5919L477.685 27.9623C475.938 26.3777 473.663 25.5 471.304 25.5V25V24.5C473.912 24.5 476.426 25.4701 478.357 27.2215L478.021 27.5919ZM486.641 35.4081L486.977 35.0377C488.725 36.6223 491 37.5 493.359 37.5V38V38.5C490.751 38.5 488.237 37.5299 486.306 35.7785L486.641 35.4081Z" fill="#79879C"/>
</svg>
