<svg width="666" height="100" viewBox="0 0 666 100" fill="none" xmlns="http://www.w3.org/2000/svg">
    <rect width="666" height="100" rx="4" fill="#F9FBFD"/>
    <path d="M61 39C61 37.8954 61.8954 37 63 37H85C86.1046 37 87 37.8954 87 39V61C87 62.1046 86.1046 63 85 63H63C61.8954 63 61 62.1046 61 61V39Z" fill="white"/>
    <path d="M61 39C61 37.8954 61.8954 37 63 37H85C86.1046 37 87 37.8954 87 39V61C87 62.1046 86.1046 63 85 63H63C61.8954 63 61 62.1046 61 61V39Z" stroke="#B3C0CC" stroke-linejoin="bevel"/>
    <path opacity="0.25" d="M74.9463 44.167H69.1162C68.9611 44.167 68.8123 44.2286 68.7026 44.3383C68.5929 44.448 68.5313 44.5968 68.5312 44.752V55.2487C68.5313 55.4038 68.5929 55.5526 68.7026 55.6623C68.8123 55.772 68.9611 55.8337 69.1162 55.8337H74.9463C75.1014 55.8337 75.2502 55.772 75.3599 55.6623C75.4696 55.5526 75.5312 55.4038 75.5312 55.2487V44.752C75.5312 44.5968 75.4696 44.448 75.3599 44.3383C75.2502 44.2286 75.1014 44.167 74.9463 44.167ZM70.1783 48.1474H72.6489V49.3827H70.1783V48.1474ZM73.8842 51.8532H70.1783V50.618H73.8842V51.8532Z" fill="#4D5E7D"/>
    <path d="M72.6488 48.1475V49.3828H70.1782V48.1475H72.6488ZM70.1782 50.6181V51.8534H73.8841V50.6181" fill="#4D5E7D"/>
    <path d="M76.5072 48.7655C77.2955 48.7776 78.0809 48.6672 78.8354 48.4384C79.0558 48.3674 79.268 48.2732 79.4686 48.1575V49.0123C79.4686 49.5575 78.1427 49.9995 76.5071 49.9995C76.4239 49.9995 76.3417 49.9984 76.2604 49.9961V48.7624C76.3421 48.7645 76.4244 48.7655 76.5072 48.7655Z" fill="#4D5E7D"/>
    <path d="M76.5072 48.0251C78.1428 48.0251 79.4687 47.5832 79.4687 47.038C79.4687 46.4928 78.1427 46.0508 76.5071 46.0508L76.414 46.0513C76.3624 46.0518 76.3112 46.0528 76.2604 46.0542V48.0218C76.3418 48.024 76.424 48.0251 76.5072 48.0251Z" fill="#4D5E7D"/>
    <path d="M76.5072 53.9482C76.424 53.9482 76.3417 53.9471 76.2604 53.9448L76.2603 52.7111C76.342 52.7132 76.4243 52.7142 76.5071 52.7142C77.2954 52.7263 78.0809 52.6159 78.8354 52.3871C79.0558 52.3161 79.2681 52.2219 79.4687 52.1062V52.961C79.4687 53.5062 78.1428 53.9482 76.5072 53.9482Z" fill="#4D5E7D"/>
    <path d="M79.4687 50.1319V50.9867C79.4687 51.5319 78.1427 51.9739 76.5072 51.9739C76.424 51.9739 76.3417 51.9727 76.2604 51.9705V50.7368C76.3421 50.7388 76.4244 50.7399 76.5072 50.7399C77.2955 50.7519 78.0809 50.6416 78.8354 50.4128C79.0558 50.3417 79.2681 50.2476 79.4687 50.1319Z" fill="#4D5E7D"/>
    <path d="M247 39C247 37.8954 247.895 37 249 37H271C272.105 37 273 37.8954 273 39V61C273 62.1046 272.105 63 271 63H249C247.895 63 247 62.1046 247 61V39Z" fill="white"/>
    <path d="M247 39C247 37.8954 247.895 37 249 37H271C272.105 37 273 37.8954 273 39V61C273 62.1046 272.105 63 271 63H249C247.895 63 247 62.1046 247 61V39Z" stroke="#B3C0CC" stroke-linejoin="bevel"/>
    <path opacity="0.25" d="M260.946 44.167H255.116C254.961 44.167 254.812 44.2286 254.703 44.3383C254.593 44.448 254.531 44.5968 254.531 44.752V55.2487C254.531 55.4038 254.593 55.5526 254.703 55.6623C254.812 55.772 254.961 55.8337 255.116 55.8337H260.946C261.101 55.8337 261.25 55.772 261.36 55.6623C261.47 55.5526 261.531 55.4038 261.531 55.2487V44.752C261.531 44.5968 261.47 44.448 261.36 44.3383C261.25 44.2286 261.101 44.167 260.946 44.167ZM256.178 48.1474H258.649V49.3827H256.178V48.1474ZM259.884 51.8532H256.178V50.618H259.884V51.8532Z" fill="#4D5E7D"/>
    <path d="M258.649 48.1475V49.3828H256.178V48.1475H258.649ZM256.178 50.6181V51.8534H259.884V50.6181" fill="#4D5E7D"/>
    <path d="M262.507 48.7655C263.295 48.7776 264.081 48.6672 264.835 48.4384C265.056 48.3674 265.268 48.2732 265.469 48.1575V49.0123C265.469 49.5575 264.143 49.9995 262.507 49.9995C262.424 49.9995 262.342 49.9984 262.26 49.9961V48.7624C262.342 48.7645 262.424 48.7655 262.507 48.7655Z" fill="#4D5E7D"/>
    <path d="M262.507 48.0251C264.143 48.0251 265.469 47.5832 265.469 47.038C265.469 46.4928 264.143 46.0508 262.507 46.0508L262.414 46.0513C262.362 46.0518 262.311 46.0528 262.26 46.0542V48.0218C262.342 48.024 262.424 48.0251 262.507 48.0251Z" fill="#4D5E7D"/>
    <path d="M262.507 53.9482C262.424 53.9482 262.342 53.9471 262.26 53.9448L262.26 52.7111C262.342 52.7132 262.424 52.7142 262.507 52.7142C263.295 52.7263 264.081 52.6159 264.835 52.3871C265.056 52.3161 265.268 52.2219 265.469 52.1062V52.961C265.469 53.5062 264.143 53.9482 262.507 53.9482Z" fill="#4D5E7D"/>
    <path d="M265.469 50.1319V50.9867C265.469 51.5319 264.143 51.9739 262.507 51.9739C262.424 51.9739 262.342 51.9727 262.26 51.9705V50.7368C262.342 50.7388 262.424 50.7399 262.507 50.7399C263.295 50.7519 264.081 50.6416 264.835 50.4128C265.056 50.3417 265.268 50.2476 265.469 50.1319Z" fill="#4D5E7D"/>
    <path d="M244.333 50C244.333 51.4728 245.527 52.6667 247 52.6667C248.473 52.6667 249.667 51.4728 249.667 50C249.667 48.5272 248.473 47.3333 247 47.3333C245.527 47.3333 244.333 48.5272 244.333 50ZM87 50V50.5H247V50V49.5H87V50Z" fill="#79879C"/>
    <path d="M97 50C97 45.5817 100.582 42 105 42C109.418 42 113 45.5817 113 50C113 54.4183 109.418 58 105 58C100.582 58 97 54.4183 97 50Z" fill="#E8F3FF"/>
    <path fill-rule="evenodd" clip-rule="evenodd" d="M108.75 48.6776L108.17 49.2639L107.134 48.217L106.554 48.8033L107.424 49.6827L106.844 50.2691L105.974 49.3896L105.062 50.3109C105.684 51.2742 105.435 52.5724 104.482 53.2006C103.653 53.7451 102.576 53.6194 101.872 52.9494C101.043 52.1536 101.043 50.8135 101.872 49.9759C102.576 49.3058 103.653 49.1802 104.482 49.7246L107.714 46.458L108.294 47.0443L107.714 47.6306L108.75 48.6776ZM102.488 52.3965C102.944 52.8991 103.69 52.8991 104.187 52.3965C104.685 51.9358 104.726 51.1401 104.229 50.6376C103.773 50.135 102.986 50.0931 102.488 50.5957L102.447 50.6376C101.95 51.1401 101.991 51.9358 102.488 52.3965Z" fill="#3261CE"/>
    <path d="M221 50C221 45.5817 224.582 42 229 42C233.418 42 237 45.5817 237 50C237 54.4183 233.418 58 229 58C224.582 58 221 54.4183 221 50Z" fill="#E8F3FF"/>
    <path fill-rule="evenodd" clip-rule="evenodd" d="M232.75 48.6776L232.17 49.2639L231.134 48.217L230.554 48.8033L231.424 49.6827L230.844 50.2691L229.974 49.3896L229.062 50.3109C229.684 51.2742 229.435 52.5724 228.482 53.2006C227.653 53.7451 226.576 53.6194 225.872 52.9494C225.043 52.1536 225.043 50.8135 225.872 49.9759C226.576 49.3058 227.653 49.1802 228.482 49.7246L231.714 46.458L232.294 47.0443L231.714 47.6306L232.75 48.6776ZM226.488 52.3965C226.944 52.8991 227.69 52.8991 228.187 52.3965C228.685 51.9358 228.726 51.1401 228.229 50.6376C227.773 50.135 226.986 50.0931 226.488 50.5957L226.447 50.6376C225.95 51.1401 225.991 51.9358 226.488 52.3965Z" fill="#3261CE"/>
    <path d="M393 39C393 37.8954 393.895 37 395 37H417C418.105 37 419 37.8954 419 39V61C419 62.1046 418.105 63 417 63H395C393.895 63 393 62.1046 393 61V39Z" fill="white"/>
    <path d="M393 39C393 37.8954 393.895 37 395 37H417C418.105 37 419 37.8954 419 39V61C419 62.1046 418.105 63 417 63H395C393.895 63 393 62.1046 393 61V39Z" stroke="#B3C0CC" stroke-linejoin="bevel"/>
    <path opacity="0.25" d="M406.946 44.167H401.116C400.961 44.167 400.812 44.2286 400.703 44.3383C400.593 44.448 400.531 44.5968 400.531 44.752V55.2487C400.531 55.4038 400.593 55.5526 400.703 55.6623C400.812 55.772 400.961 55.8337 401.116 55.8337H406.946C407.101 55.8337 407.25 55.772 407.36 55.6623C407.47 55.5526 407.531 55.4038 407.531 55.2487V44.752C407.531 44.5968 407.47 44.448 407.36 44.3383C407.25 44.2286 407.101 44.167 406.946 44.167ZM402.178 48.1474H404.649V49.3827H402.178V48.1474ZM405.884 51.8532H402.178V50.618H405.884V51.8532Z" fill="#4D5E7D"/>
    <path d="M404.649 48.1475V49.3828H402.178V48.1475H404.649ZM402.178 50.6181V51.8534H405.884V50.6181" fill="#4D5E7D"/>
    <path d="M408.507 48.7655C409.295 48.7776 410.081 48.6672 410.835 48.4384C411.056 48.3674 411.268 48.2732 411.469 48.1575V49.0123C411.469 49.5575 410.143 49.9995 408.507 49.9995C408.424 49.9995 408.342 49.9984 408.26 49.9961V48.7624C408.342 48.7645 408.424 48.7655 408.507 48.7655Z" fill="#4D5E7D"/>
    <path d="M408.507 48.0251C410.143 48.0251 411.469 47.5832 411.469 47.038C411.469 46.4928 410.143 46.0508 408.507 46.0508L408.414 46.0513C408.362 46.0518 408.311 46.0528 408.26 46.0542V48.0218C408.342 48.024 408.424 48.0251 408.507 48.0251Z" fill="#4D5E7D"/>
    <path d="M408.507 53.9482C408.424 53.9482 408.342 53.9471 408.26 53.9448L408.26 52.7111C408.342 52.7132 408.424 52.7142 408.507 52.7142C409.295 52.7263 410.081 52.6159 410.835 52.3871C411.056 52.3161 411.268 52.2219 411.469 52.1062V52.961C411.469 53.5062 410.143 53.9482 408.507 53.9482Z" fill="#4D5E7D"/>
    <path d="M411.469 50.1319V50.9867C411.469 51.5319 410.143 51.9739 408.507 51.9739C408.424 51.9739 408.342 51.9727 408.26 51.9705V50.7368C408.342 50.7388 408.424 50.7399 408.507 50.7399C409.295 50.7519 410.081 50.6416 410.835 50.4128C411.056 50.3417 411.268 50.2476 411.469 50.1319Z" fill="#4D5E7D"/>
    <path d="M579 14C579 12.8954 579.895 12 581 12H603C604.105 12 605 12.8954 605 14V36C605 37.1046 604.105 38 603 38H581C579.895 38 579 37.1046 579 36V14Z" fill="white"/>
    <path d="M579 14C579 12.8954 579.895 12 581 12H603C604.105 12 605 12.8954 605 14V36C605 37.1046 604.105 38 603 38H581C579.895 38 579 37.1046 579 36V14Z" stroke="#B3C0CC" stroke-linejoin="bevel"/>
    <path opacity="0.25" d="M592.946 19.167H587.116C586.961 19.167 586.812 19.2286 586.703 19.3383C586.593 19.448 586.531 19.5968 586.531 19.752V30.2487C586.531 30.4038 586.593 30.5526 586.703 30.6623C586.812 30.772 586.961 30.8337 587.116 30.8337H592.946C593.101 30.8337 593.25 30.772 593.36 30.6623C593.47 30.5526 593.531 30.4038 593.531 30.2487V19.752C593.531 19.5968 593.47 19.448 593.36 19.3383C593.25 19.2286 593.101 19.167 592.946 19.167ZM588.178 23.1474H590.649V24.3827H588.178V23.1474ZM591.884 26.8532H588.178V25.618H591.884V26.8532Z" fill="#4D5E7D"/>
    <path d="M590.649 23.1475V24.3828H588.178V23.1475H590.649ZM588.178 25.6181V26.8534H591.884V25.6181" fill="#4D5E7D"/>
    <path d="M594.507 23.7655C595.295 23.7776 596.081 23.6672 596.835 23.4384C597.056 23.3674 597.268 23.2732 597.469 23.1575V24.0123C597.469 24.5575 596.143 24.9995 594.507 24.9995C594.424 24.9995 594.342 24.9984 594.26 24.9961V23.7624C594.342 23.7645 594.424 23.7655 594.507 23.7655Z" fill="#4D5E7D"/>
    <path d="M594.507 23.0251C596.143 23.0251 597.469 22.5832 597.469 22.038C597.469 21.4928 596.143 21.0508 594.507 21.0508L594.414 21.0513C594.362 21.0518 594.311 21.0528 594.26 21.0542V23.0218C594.342 23.024 594.424 23.0251 594.507 23.0251Z" fill="#4D5E7D"/>
    <path d="M594.507 28.9482C594.424 28.9482 594.342 28.9471 594.26 28.9448L594.26 27.7111C594.342 27.7132 594.424 27.7142 594.507 27.7142C595.295 27.7263 596.081 27.6159 596.835 27.3871C597.056 27.3161 597.268 27.2219 597.469 27.1062V27.961C597.469 28.5062 596.143 28.9482 594.507 28.9482Z" fill="#4D5E7D"/>
    <path d="M597.469 25.1319V25.9867C597.469 26.5319 596.143 26.9739 594.507 26.9739C594.424 26.9739 594.342 26.9727 594.26 26.9705V25.7368C594.342 25.7388 594.424 25.7399 594.507 25.7399C595.295 25.7519 596.081 25.6416 596.835 25.4128C597.056 25.3417 597.268 25.2476 597.469 25.1319Z" fill="#4D5E7D"/>
    <path d="M579 64C579 62.8954 579.895 62 581 62H603C604.105 62 605 62.8954 605 64V86C605 87.1046 604.105 88 603 88H581C579.895 88 579 87.1046 579 86V64Z" fill="white"/>
    <path d="M579 64C579 62.8954 579.895 62 581 62H603C604.105 62 605 62.8954 605 64V86C605 87.1046 604.105 88 603 88H581C579.895 88 579 87.1046 579 86V64Z" stroke="#B3C0CC" stroke-linejoin="bevel"/>
    <path opacity="0.25" d="M592.946 69.167H587.116C586.961 69.167 586.812 69.2286 586.703 69.3383C586.593 69.448 586.531 69.5968 586.531 69.752V80.2487C586.531 80.4038 586.593 80.5526 586.703 80.6623C586.812 80.772 586.961 80.8337 587.116 80.8337H592.946C593.101 80.8337 593.25 80.772 593.36 80.6623C593.47 80.5526 593.531 80.4038 593.531 80.2487V69.752C593.531 69.5968 593.47 69.448 593.36 69.3383C593.25 69.2286 593.101 69.167 592.946 69.167ZM588.178 73.1474H590.649V74.3827H588.178V73.1474ZM591.884 76.8532H588.178V75.618H591.884V76.8532Z" fill="#4D5E7D"/>
    <path d="M590.649 73.1475V74.3828H588.178V73.1475H590.649ZM588.178 75.6181V76.8534H591.884V75.6181" fill="#4D5E7D"/>
    <path d="M594.507 73.7655C595.295 73.7776 596.081 73.6672 596.835 73.4384C597.056 73.3674 597.268 73.2732 597.469 73.1575V74.0123C597.469 74.5575 596.143 74.9995 594.507 74.9995C594.424 74.9995 594.342 74.9984 594.26 74.9961V73.7624C594.342 73.7645 594.424 73.7655 594.507 73.7655Z" fill="#4D5E7D"/>
    <path d="M594.507 73.0251C596.143 73.0251 597.469 72.5832 597.469 72.038C597.469 71.4928 596.143 71.0508 594.507 71.0508L594.414 71.0513C594.362 71.0518 594.311 71.0528 594.26 71.0542V73.0218C594.342 73.024 594.424 73.0251 594.507 73.0251Z" fill="#4D5E7D"/>
    <path d="M594.507 78.9482C594.424 78.9482 594.342 78.9471 594.26 78.9448L594.26 77.7111C594.342 77.7132 594.424 77.7142 594.507 77.7142C595.295 77.7263 596.081 77.6159 596.835 77.3871C597.056 77.3161 597.268 77.2219 597.469 77.1062V77.961C597.469 78.5062 596.143 78.9482 594.507 78.9482Z" fill="#4D5E7D"/>
    <path d="M597.469 75.1319V75.9867C597.469 76.5319 596.143 76.9739 594.507 76.9739C594.424 76.9739 594.342 76.9727 594.26 76.9705V75.7368C594.342 75.7388 594.424 75.7399 594.507 75.7399C595.295 75.7519 596.081 75.6416 596.835 75.4128C597.056 75.3417 597.268 75.2476 597.469 75.1319Z" fill="#4D5E7D"/>
    <path d="M576.333 25C576.333 26.4728 577.527 27.6667 579 27.6667C580.473 27.6667 581.667 26.4728 581.667 25C581.667 23.5272 580.473 22.3333 579 22.3333C577.527 22.3333 576.333 23.5272 576.333 25ZM509.955 30.0251L510.389 30.2738L509.955 30.0251ZM501.382 44.9745L501.816 45.2232L501.382 44.9745ZM501.382 44.9745L501.816 45.2232L510.389 30.2738L509.955 30.0251L509.522 29.7763L500.948 44.7257L501.382 44.9745ZM518.63 25V25.5H579V25V24.5H518.63V25ZM419 49.9996V50.4996H492.707V49.9996V49.4996H419V49.9996ZM509.955 30.0251L510.389 30.2738C512.082 27.3211 515.226 25.5 518.63 25.5V25V24.5C514.868 24.5 511.393 26.5128 509.522 29.7763L509.955 30.0251ZM501.382 44.9745L500.948 44.7257C499.255 47.6785 496.111 49.4996 492.707 49.4996V49.9996V50.4996C496.469 50.4996 499.944 48.4868 501.816 45.2232L501.382 44.9745Z" fill="#79879C"/>
    <path d="M576.333 75C576.333 73.5272 577.527 72.3333 579 72.3333C580.473 72.3333 581.667 73.5272 581.667 75C581.667 76.4728 580.473 77.6667 579 77.6667C577.527 77.6667 576.333 76.4728 576.333 75ZM509.955 69.9749L510.389 69.7262L509.955 69.9749ZM501.382 55.0255L501.816 54.7768L501.382 55.0255ZM501.382 55.0255L501.816 54.7768L510.389 69.7262L509.955 69.9749L509.522 70.2237L500.948 55.2743L501.382 55.0255ZM518.63 75V74.5H579V75V75.5H518.63V75ZM419 50.0004V49.5004H492.707V50.0004V50.5004H419V50.0004ZM509.955 69.9749L510.389 69.7262C512.082 72.6789 515.226 74.5 518.63 74.5V75V75.5C514.868 75.5 511.393 73.4872 509.522 70.2237L509.955 69.9749ZM501.382 55.0255L500.948 55.2743C499.255 52.3215 496.111 50.5004 492.707 50.5004V50.0004V49.5004C496.469 49.5004 499.944 51.5132 501.816 54.7768L501.382 55.0255Z" fill="#79879C"/>
    <path d="M429 50C429 45.5817 432.582 42 437 42C441.418 42 445 45.5817 445 50C445 54.4183 441.418 58 437 58C432.582 58 429 54.4183 429 50Z" fill="#E8F3FF"/>
    <path fill-rule="evenodd" clip-rule="evenodd" d="M440.75 48.6776L440.17 49.2639L439.134 48.217L438.554 48.8033L439.424 49.6827L438.844 50.2691L437.974 49.3896L437.062 50.3109C437.684 51.2742 437.435 52.5724 436.482 53.2006C435.653 53.7451 434.576 53.6194 433.872 52.9494C433.043 52.1536 433.043 50.8135 433.872 49.9759C434.576 49.3058 435.653 49.1802 436.482 49.7246L439.714 46.458L440.294 47.0443L439.714 47.6306L440.75 48.6776ZM434.488 52.3965C434.944 52.8991 435.69 52.8991 436.187 52.3965C436.685 51.9358 436.726 51.1401 436.229 50.6376C435.773 50.135 434.986 50.0931 434.488 50.5957L434.447 50.6376C433.95 51.1401 433.991 51.9358 434.488 52.3965Z" fill="#3261CE"/>
    <path d="M553 25C553 20.5817 556.582 17 561 17C565.418 17 569 20.5817 569 25C569 29.4183 565.418 33 561 33C556.582 33 553 29.4183 553 25Z" fill="#E8F3FF"/>
    <path fill-rule="evenodd" clip-rule="evenodd" d="M564.75 23.6776L564.17 24.2639L563.134 23.217L562.554 23.8033L563.424 24.6827L562.844 25.2691L561.974 24.3896L561.062 25.3109C561.684 26.2742 561.435 27.5724 560.482 28.2006C559.653 28.7451 558.576 28.6194 557.872 27.9494C557.043 27.1536 557.043 25.8135 557.872 24.9759C558.576 24.3058 559.653 24.1802 560.482 24.7246L563.714 21.458L564.294 22.0443L563.714 22.6306L564.75 23.6776ZM558.488 27.3965C558.944 27.8991 559.69 27.8991 560.187 27.3965C560.685 26.9358 560.726 26.1401 560.229 25.6376C559.773 25.135 558.986 25.0931 558.488 25.5957L558.447 25.6376C557.95 26.1401 557.991 26.9358 558.488 27.3965Z" fill="#3261CE"/>
    <path d="M553 75C553 70.5817 556.582 67 561 67C565.418 67 569 70.5817 569 75C569 79.4183 565.418 83 561 83C556.582 83 553 79.4183 553 75Z" fill="#E8F3FF"/>
    <path fill-rule="evenodd" clip-rule="evenodd" d="M564.75 73.6776L564.17 74.2639L563.134 73.217L562.554 73.8033L563.424 74.6827L562.844 75.2691L561.974 74.3896L561.062 75.3109C561.684 76.2742 561.435 77.5724 560.482 78.2006C559.653 78.7451 558.576 78.6194 557.872 77.9494C557.043 77.1536 557.043 75.8135 557.872 74.9759C558.576 74.3058 559.653 74.1802 560.482 74.7246L563.714 71.458L564.294 72.0443L563.714 72.6306L564.75 73.6776ZM558.488 77.3965C558.944 77.8991 559.69 77.8991 560.187 77.3965C560.685 76.9358 560.726 76.1401 560.229 75.6376C559.773 75.135 558.986 75.0931 558.488 75.5957L558.447 75.6376C557.95 76.1401 557.991 76.9358 558.488 77.3965Z" fill="#3261CE"/>
</svg>
