<svg width="666" height="100" viewBox="0 0 666 100" fill="none" xmlns="http://www.w3.org/2000/svg">
    <rect width="666" height="100" rx="4" fill="#F9FBFD"/>
    <path d="M71 7C71 5.89543 71.8954 5 73 5H95C96.1046 5 97 5.89543 97 7V29C97 30.1046 96.1046 31 95 31H73C71.8954 31 71 30.1046 71 29V7Z" fill="white"/>
    <path d="M71 7C71 5.89543 71.8954 5 73 5H95C96.1046 5 97 5.89543 97 7V29C97 30.1046 96.1046 31 95 31H73C71.8954 31 71 30.1046 71 29V7Z" stroke="#B3C0CC" stroke-linejoin="bevel"/>
    <path opacity="0.25" d="M84.9463 12.167H79.1162C78.9611 12.167 78.8123 12.2286 78.7026 12.3383C78.5929 12.448 78.5313 12.5968 78.5312 12.752V23.2487C78.5313 23.4038 78.5929 23.5526 78.7026 23.6623C78.8123 23.772 78.9611 23.8337 79.1162 23.8337H84.9463C85.1014 23.8337 85.2502 23.772 85.3599 23.6623C85.4696 23.5526 85.5312 23.4038 85.5312 23.2487V12.752C85.5312 12.5968 85.4696 12.448 85.3599 12.3383C85.2502 12.2286 85.1014 12.167 84.9463 12.167ZM80.1783 16.1474H82.6489V17.3827H80.1783V16.1474ZM83.8842 19.8532H80.1783V18.618H83.8842V19.8532Z" fill="#4D5E7D"/>
    <path d="M82.6488 16.1475V17.3828H80.1782V16.1475H82.6488ZM80.1782 18.6181V19.8534H83.8841V18.6181" fill="#4D5E7D"/>
    <path d="M86.5072 16.7655C87.2955 16.7776 88.0809 16.6672 88.8354 16.4384C89.0558 16.3674 89.268 16.2732 89.4686 16.1575V17.0123C89.4686 17.5575 88.1427 17.9995 86.5071 17.9995C86.4239 17.9995 86.3417 17.9984 86.2604 17.9961V16.7624C86.3421 16.7645 86.4244 16.7655 86.5072 16.7655Z" fill="#4D5E7D"/>
    <path d="M86.5072 16.0251C88.1428 16.0251 89.4687 15.5832 89.4687 15.038C89.4687 14.4928 88.1427 14.0508 86.5071 14.0508L86.414 14.0513C86.3624 14.0518 86.3112 14.0528 86.2604 14.0542V16.0218C86.3418 16.024 86.424 16.0251 86.5072 16.0251Z" fill="#4D5E7D"/>
    <path d="M86.5072 21.9482C86.424 21.9482 86.3417 21.9471 86.2604 21.9448L86.2603 20.7111C86.342 20.7132 86.4243 20.7142 86.5071 20.7142C87.2954 20.7263 88.0809 20.6159 88.8354 20.3871C89.0558 20.3161 89.2681 20.2219 89.4687 20.1062V20.961C89.4687 21.5062 88.1428 21.9482 86.5072 21.9482Z" fill="#4D5E7D"/>
    <path d="M89.4687 18.1319V18.9867C89.4687 19.5319 88.1427 19.9739 86.5072 19.9739C86.424 19.9739 86.3417 19.9727 86.2604 19.9705V18.7368C86.3421 18.7388 86.4244 18.7399 86.5072 18.7399C87.2955 18.7519 88.0809 18.6416 88.8354 18.4128C89.0558 18.3417 89.2681 18.2476 89.4687 18.1319Z" fill="#4D5E7D"/>
    <path d="M71 55C71 53.8954 71.8954 53 73 53H95C96.1046 53 97 53.8954 97 55V77C97 78.1046 96.1046 79 95 79H73C71.8954 79 71 78.1046 71 77V55Z" fill="white"/>
    <path d="M71 55C71 53.8954 71.8954 53 73 53H95C96.1046 53 97 53.8954 97 55V77C97 78.1046 96.1046 79 95 79H73C71.8954 79 71 78.1046 71 77V55Z" stroke="#B3C0CC" stroke-linejoin="bevel"/>
    <path opacity="0.25" d="M84.9463 60.167H79.1162C78.9611 60.167 78.8123 60.2286 78.7026 60.3383C78.5929 60.448 78.5313 60.5968 78.5312 60.752V71.2487C78.5313 71.4038 78.5929 71.5526 78.7026 71.6623C78.8123 71.772 78.9611 71.8337 79.1162 71.8337H84.9463C85.1014 71.8337 85.2502 71.772 85.3599 71.6623C85.4696 71.5526 85.5312 71.4038 85.5312 71.2487V60.752C85.5312 60.5968 85.4696 60.448 85.3599 60.3383C85.2502 60.2286 85.1014 60.167 84.9463 60.167ZM80.1783 64.1474H82.6489V65.3827H80.1783V64.1474ZM83.8842 67.8532H80.1783V66.618H83.8842V67.8532Z" fill="#4D5E7D"/>
    <path d="M82.6488 64.1475V65.3828H80.1782V64.1475H82.6488ZM80.1782 66.6181V67.8534H83.8841V66.6181" fill="#4D5E7D"/>
    <path d="M86.5072 64.7655C87.2955 64.7776 88.0809 64.6672 88.8354 64.4384C89.0558 64.3674 89.268 64.2732 89.4686 64.1575V65.0123C89.4686 65.5575 88.1427 65.9995 86.5071 65.9995C86.4239 65.9995 86.3417 65.9984 86.2604 65.9961V64.7624C86.3421 64.7645 86.4244 64.7655 86.5072 64.7655Z" fill="#4D5E7D"/>
    <path d="M86.5072 64.0251C88.1428 64.0251 89.4687 63.5832 89.4687 63.038C89.4687 62.4928 88.1427 62.0508 86.5071 62.0508L86.414 62.0513C86.3624 62.0518 86.3112 62.0528 86.2604 62.0542V64.0218C86.3418 64.024 86.424 64.0251 86.5072 64.0251Z" fill="#4D5E7D"/>
    <path d="M86.5072 69.9482C86.424 69.9482 86.3417 69.9471 86.2604 69.9448L86.2603 68.7111C86.342 68.7132 86.4243 68.7142 86.5071 68.7142C87.2954 68.7263 88.0809 68.6159 88.8354 68.3871C89.0558 68.3161 89.2681 68.2219 89.4687 68.1062V68.961C89.4687 69.5062 88.1428 69.9482 86.5072 69.9482Z" fill="#4D5E7D"/>
    <path d="M89.4687 66.1319V66.9867C89.4687 67.5319 88.1427 67.9739 86.5072 67.9739C86.424 67.9739 86.3417 67.9727 86.2604 67.9705V66.7368C86.3421 66.7388 86.4244 66.7399 86.5072 66.7399C87.2955 66.7519 88.0809 66.6416 88.8354 66.4128C89.0558 66.3417 89.2681 66.2476 89.4687 66.1319Z" fill="#4D5E7D"/>
    <path d="M569 23C569 21.8954 569.895 21 571 21H593C594.105 21 595 21.8954 595 23V45C595 46.1046 594.105 47 593 47H571C569.895 47 569 46.1046 569 45V23Z" fill="white"/>
    <path d="M569 23C569 21.8954 569.895 21 571 21H593C594.105 21 595 21.8954 595 23V45C595 46.1046 594.105 47 593 47H571C569.895 47 569 46.1046 569 45V23Z" stroke="#B3C0CC" stroke-linejoin="bevel"/>
    <path opacity="0.25" d="M582.946 28.167H577.116C576.961 28.167 576.812 28.2286 576.703 28.3383C576.593 28.448 576.531 28.5968 576.531 28.752V39.2487C576.531 39.4038 576.593 39.5526 576.703 39.6623C576.812 39.772 576.961 39.8337 577.116 39.8337H582.946C583.101 39.8337 583.25 39.772 583.36 39.6623C583.47 39.5526 583.531 39.4038 583.531 39.2487V28.752C583.531 28.5968 583.47 28.448 583.36 28.3383C583.25 28.2286 583.101 28.167 582.946 28.167ZM578.178 32.1474H580.649V33.3827H578.178V32.1474ZM581.884 35.8532H578.178V34.618H581.884V35.8532Z" fill="#4D5E7D"/>
    <path d="M580.649 32.1475V33.3828H578.178V32.1475H580.649ZM578.178 34.6181V35.8534H581.884V34.6181" fill="#4D5E7D"/>
    <path d="M584.507 32.7655C585.295 32.7776 586.081 32.6672 586.835 32.4384C587.056 32.3674 587.268 32.2732 587.469 32.1575V33.0123C587.469 33.5575 586.143 33.9995 584.507 33.9995C584.424 33.9995 584.342 33.9984 584.26 33.9961V32.7624C584.342 32.7645 584.424 32.7655 584.507 32.7655Z" fill="#4D5E7D"/>
    <path d="M584.507 32.0251C586.143 32.0251 587.469 31.5832 587.469 31.038C587.469 30.4928 586.143 30.0508 584.507 30.0508L584.414 30.0513C584.362 30.0518 584.311 30.0528 584.26 30.0542V32.0218C584.342 32.024 584.424 32.0251 584.507 32.0251Z" fill="#4D5E7D"/>
    <path d="M584.507 37.9482C584.424 37.9482 584.342 37.9471 584.26 37.9448L584.26 36.7111C584.342 36.7132 584.424 36.7142 584.507 36.7142C585.295 36.7263 586.081 36.6159 586.835 36.3871C587.056 36.3161 587.268 36.2219 587.469 36.1062V36.961C587.469 37.5062 586.143 37.9482 584.507 37.9482Z" fill="#4D5E7D"/>
    <path d="M587.469 34.1319V34.9867C587.469 35.5319 586.143 35.9739 584.507 35.9739C584.424 35.9739 584.342 35.9727 584.26 35.9705V34.7368C584.342 34.7388 584.424 34.7399 584.507 34.7399C585.295 34.7519 586.081 34.6416 586.835 34.4128C587.056 34.3417 587.268 34.2476 587.469 34.1319Z" fill="#4D5E7D"/>
    <path d="M569 71C569 69.8954 569.895 69 571 69H593C594.105 69 595 69.8954 595 71V93C595 94.1046 594.105 95 593 95H571C569.895 95 569 94.1046 569 93V71Z" fill="white"/>
    <path d="M569 71C569 69.8954 569.895 69 571 69H593C594.105 69 595 69.8954 595 71V93C595 94.1046 594.105 95 593 95H571C569.895 95 569 94.1046 569 93V71Z" stroke="#B3C0CC" stroke-linejoin="bevel"/>
    <path opacity="0.25" d="M582.946 76.167H577.116C576.961 76.167 576.812 76.2286 576.703 76.3383C576.593 76.448 576.531 76.5968 576.531 76.752V87.2487C576.531 87.4038 576.593 87.5526 576.703 87.6623C576.812 87.772 576.961 87.8337 577.116 87.8337H582.946C583.101 87.8337 583.25 87.772 583.36 87.6623C583.47 87.5526 583.531 87.4038 583.531 87.2487V76.752C583.531 76.5968 583.47 76.448 583.36 76.3383C583.25 76.2286 583.101 76.167 582.946 76.167ZM578.178 80.1474H580.649V81.3827H578.178V80.1474ZM581.884 83.8532H578.178V82.618H581.884V83.8532Z" fill="#4D5E7D"/>
    <path d="M580.649 80.1475V81.3828H578.178V80.1475H580.649ZM578.178 82.6181V83.8534H581.884V82.6181" fill="#4D5E7D"/>
    <path d="M584.507 80.7655C585.295 80.7776 586.081 80.6672 586.835 80.4384C587.056 80.3674 587.268 80.2732 587.469 80.1575V81.0123C587.469 81.5575 586.143 81.9995 584.507 81.9995C584.424 81.9995 584.342 81.9984 584.26 81.9961V80.7624C584.342 80.7645 584.424 80.7655 584.507 80.7655Z" fill="#4D5E7D"/>
    <path d="M584.507 80.0251C586.143 80.0251 587.469 79.5832 587.469 79.038C587.469 78.4928 586.143 78.0508 584.507 78.0508L584.414 78.0513C584.362 78.0518 584.311 78.0528 584.26 78.0542V80.0218C584.342 80.024 584.424 80.0251 584.507 80.0251Z" fill="#4D5E7D"/>
    <path d="M584.507 85.9482C584.424 85.9482 584.342 85.9471 584.26 85.9448L584.26 84.7111C584.342 84.7132 584.424 84.7142 584.507 84.7142C585.295 84.7263 586.081 84.6159 586.835 84.3871C587.056 84.3161 587.268 84.2219 587.469 84.1062V84.961C587.469 85.5062 586.143 85.9482 584.507 85.9482Z" fill="#4D5E7D"/>
    <path d="M587.469 82.1319V82.9867C587.469 83.5319 586.143 83.9739 584.507 83.9739C584.424 83.9739 584.342 83.9727 584.26 83.9705V82.7368C584.342 82.7388 584.424 82.7399 584.507 82.7399C585.295 82.7519 586.081 82.6416 586.835 82.4128C587.056 82.3417 587.268 82.2476 587.469 82.1319Z" fill="#4D5E7D"/>
    <path d="M320 7C320 5.89543 320.895 5 322 5H344C345.105 5 346 5.89543 346 7V29C346 30.1046 345.105 31 344 31H322C320.895 31 320 30.1046 320 29V7Z" fill="white"/>
    <path d="M320 7C320 5.89543 320.895 5 322 5H344C345.105 5 346 5.89543 346 7V29C346 30.1046 345.105 31 344 31H322C320.895 31 320 30.1046 320 29V7Z" stroke="#B3C0CC" stroke-linejoin="bevel"/>
    <path opacity="0.25" d="M333.946 12.167H328.116C327.961 12.167 327.812 12.2286 327.703 12.3383C327.593 12.448 327.531 12.5968 327.531 12.752V23.2487C327.531 23.4038 327.593 23.5526 327.703 23.6623C327.812 23.772 327.961 23.8337 328.116 23.8337H333.946C334.101 23.8337 334.25 23.772 334.36 23.6623C334.47 23.5526 334.531 23.4038 334.531 23.2487V12.752C334.531 12.5968 334.47 12.448 334.36 12.3383C334.25 12.2286 334.101 12.167 333.946 12.167ZM329.178 16.1474H331.649V17.3827H329.178V16.1474ZM332.884 19.8532H329.178V18.618H332.884V19.8532Z" fill="#4D5E7D"/>
    <path d="M331.649 16.1475V17.3828H329.178V16.1475H331.649ZM329.178 18.6181V19.8534H332.884V18.6181" fill="#4D5E7D"/>
    <path d="M335.507 16.7655C336.295 16.7776 337.081 16.6672 337.835 16.4384C338.056 16.3674 338.268 16.2732 338.469 16.1575V17.0123C338.469 17.5575 337.143 17.9995 335.507 17.9995C335.424 17.9995 335.342 17.9984 335.26 17.9961V16.7624C335.342 16.7645 335.424 16.7655 335.507 16.7655Z" fill="#4D5E7D"/>
    <path d="M335.507 16.0251C337.143 16.0251 338.469 15.5832 338.469 15.038C338.469 14.4928 337.143 14.0508 335.507 14.0508L335.414 14.0513C335.362 14.0518 335.311 14.0528 335.26 14.0542V16.0218C335.342 16.024 335.424 16.0251 335.507 16.0251Z" fill="#4D5E7D"/>
    <path d="M335.507 21.9482C335.424 21.9482 335.342 21.9471 335.26 21.9448L335.26 20.7111C335.342 20.7132 335.424 20.7142 335.507 20.7142C336.295 20.7263 337.081 20.6159 337.835 20.3871C338.056 20.3161 338.268 20.2219 338.469 20.1062V20.961C338.469 21.5062 337.143 21.9482 335.507 21.9482Z" fill="#4D5E7D"/>
    <path d="M338.469 18.1319V18.9867C338.469 19.5319 337.143 19.9739 335.507 19.9739C335.424 19.9739 335.342 19.9727 335.26 19.9705V18.7368C335.342 18.7388 335.424 18.7399 335.507 18.7399C336.295 18.7519 337.081 18.6416 337.835 18.4128C338.056 18.3417 338.268 18.2476 338.469 18.1319Z" fill="#4D5E7D"/>
    <path d="M320 39C320 37.8954 320.895 37 322 37H344C345.105 37 346 37.8954 346 39V61C346 62.1046 345.105 63 344 63H322C320.895 63 320 62.1046 320 61V39Z" fill="white"/>
    <path d="M320 39C320 37.8954 320.895 37 322 37H344C345.105 37 346 37.8954 346 39V61C346 62.1046 345.105 63 344 63H322C320.895 63 320 62.1046 320 61V39Z" stroke="#B3C0CC" stroke-linejoin="bevel"/>
    <path opacity="0.25" d="M333.946 44.167H328.116C327.961 44.167 327.812 44.2286 327.703 44.3383C327.593 44.448 327.531 44.5968 327.531 44.752V55.2487C327.531 55.4038 327.593 55.5526 327.703 55.6623C327.812 55.772 327.961 55.8337 328.116 55.8337H333.946C334.101 55.8337 334.25 55.772 334.36 55.6623C334.47 55.5526 334.531 55.4038 334.531 55.2487V44.752C334.531 44.5968 334.47 44.448 334.36 44.3383C334.25 44.2286 334.101 44.167 333.946 44.167ZM329.178 48.1474H331.649V49.3827H329.178V48.1474ZM332.884 51.8532H329.178V50.618H332.884V51.8532Z" fill="#4D5E7D"/>
    <path d="M331.649 48.1475V49.3828H329.178V48.1475H331.649ZM329.178 50.6181V51.8534H332.884V50.6181" fill="#4D5E7D"/>
    <path d="M335.507 48.7655C336.295 48.7776 337.081 48.6672 337.835 48.4384C338.056 48.3674 338.268 48.2732 338.469 48.1575V49.0123C338.469 49.5575 337.143 49.9995 335.507 49.9995C335.424 49.9995 335.342 49.9984 335.26 49.9961V48.7624C335.342 48.7645 335.424 48.7655 335.507 48.7655Z" fill="#4D5E7D"/>
    <path d="M335.507 48.0251C337.143 48.0251 338.469 47.5832 338.469 47.038C338.469 46.4928 337.143 46.0508 335.507 46.0508L335.414 46.0513C335.362 46.0518 335.311 46.0528 335.26 46.0542V48.0218C335.342 48.024 335.424 48.0251 335.507 48.0251Z" fill="#4D5E7D"/>
    <path d="M335.507 53.9482C335.424 53.9482 335.342 53.9471 335.26 53.9448L335.26 52.7111C335.342 52.7132 335.424 52.7142 335.507 52.7142C336.295 52.7263 337.081 52.6159 337.835 52.3871C338.056 52.3161 338.268 52.2219 338.469 52.1062V52.961C338.469 53.5062 337.143 53.9482 335.507 53.9482Z" fill="#4D5E7D"/>
    <path d="M338.469 50.1319V50.9867C338.469 51.5319 337.143 51.9739 335.507 51.9739C335.424 51.9739 335.342 51.9727 335.26 51.9705V50.7368C335.342 50.7388 335.424 50.7399 335.507 50.7399C336.295 50.7519 337.081 50.6416 337.835 50.4128C338.056 50.3417 338.268 50.2476 338.469 50.1319Z" fill="#4D5E7D"/>
    <path d="M320 71C320 69.8954 320.895 69 322 69H344C345.105 69 346 69.8954 346 71V93C346 94.1046 345.105 95 344 95H322C320.895 95 320 94.1046 320 93V71Z" fill="white"/>
    <path d="M320 71C320 69.8954 320.895 69 322 69H344C345.105 69 346 69.8954 346 71V93C346 94.1046 345.105 95 344 95H322C320.895 95 320 94.1046 320 93V71Z" stroke="#B3C0CC" stroke-linejoin="bevel"/>
    <path opacity="0.25" d="M333.946 76.167H328.116C327.961 76.167 327.812 76.2286 327.703 76.3383C327.593 76.448 327.531 76.5968 327.531 76.752V87.2487C327.531 87.4038 327.593 87.5526 327.703 87.6623C327.812 87.772 327.961 87.8337 328.116 87.8337H333.946C334.101 87.8337 334.25 87.772 334.36 87.6623C334.47 87.5526 334.531 87.4038 334.531 87.2487V76.752C334.531 76.5968 334.47 76.448 334.36 76.3383C334.25 76.2286 334.101 76.167 333.946 76.167ZM329.178 80.1474H331.649V81.3827H329.178V80.1474ZM332.884 83.8532H329.178V82.618H332.884V83.8532Z" fill="#4D5E7D"/>
    <path d="M331.649 80.1475V81.3828H329.178V80.1475H331.649ZM329.178 82.6181V83.8534H332.884V82.6181" fill="#4D5E7D"/>
    <path d="M335.507 80.7655C336.295 80.7776 337.081 80.6672 337.835 80.4384C338.056 80.3674 338.268 80.2732 338.469 80.1575V81.0123C338.469 81.5575 337.143 81.9995 335.507 81.9995C335.424 81.9995 335.342 81.9984 335.26 81.9961V80.7624C335.342 80.7645 335.424 80.7655 335.507 80.7655Z" fill="#4D5E7D"/>
    <path d="M335.507 80.0251C337.143 80.0251 338.469 79.5832 338.469 79.038C338.469 78.4928 337.143 78.0508 335.507 78.0508L335.414 78.0513C335.362 78.0518 335.311 78.0528 335.26 78.0542V80.0218C335.342 80.024 335.424 80.0251 335.507 80.0251Z" fill="#4D5E7D"/>
    <path d="M335.507 85.9482C335.424 85.9482 335.342 85.9471 335.26 85.9448L335.26 84.7111C335.342 84.7132 335.424 84.7142 335.507 84.7142C336.295 84.7263 337.081 84.6159 337.835 84.3871C338.056 84.3161 338.268 84.2219 338.469 84.1062V84.961C338.469 85.5062 337.143 85.9482 335.507 85.9482Z" fill="#4D5E7D"/>
    <path d="M338.469 82.1319V82.9867C338.469 83.5319 337.143 83.9739 335.507 83.9739C335.424 83.9739 335.342 83.9727 335.26 83.9705V82.7368C335.342 82.7388 335.424 82.7399 335.507 82.7399C336.295 82.7519 337.081 82.6416 337.835 82.4128C338.056 82.3417 338.268 82.2476 338.469 82.1319Z" fill="#4D5E7D"/>
    <path d="M317.333 50C317.333 51.4728 318.527 52.6667 320 52.6667C321.473 52.6667 322.667 51.4728 322.667 50C322.667 48.5272 321.473 47.3333 320 47.3333C318.527 47.3333 317.333 48.5272 317.333 50ZM225.046 52.194L225.358 52.5843L225.046 52.194ZM210.543 63.806L210.856 64.1963L225.358 52.5843L225.046 52.194L224.733 51.8037L210.231 63.4157L210.543 63.806ZM231.296 50V50.5H320V50V49.5H231.296V50ZM97 66V66.5H204.293V66V65.5H97V66ZM225.046 52.194L225.358 52.5843C227.043 51.2351 229.137 50.5 231.296 50.5V50V49.5C228.91 49.5 226.595 50.3125 224.733 51.8037L225.046 52.194ZM210.543 63.806L210.231 63.4157C208.546 64.7649 206.451 65.5 204.293 65.5V66V66.5C206.679 66.5 208.993 65.6875 210.856 64.1963L210.543 63.806Z" fill="#79879C"/>
    <path d="M94.3333 18C94.3333 19.4728 95.5272 20.6667 97 20.6667C98.4728 20.6667 99.6667 19.4728 99.6667 18C99.6667 16.5272 98.4728 15.3333 97 15.3333C95.5272 15.3333 94.3333 16.5272 94.3333 18ZM317.333 18C317.333 19.4728 318.527 20.6667 320 20.6667C321.473 20.6667 322.667 19.4728 322.667 18C322.667 16.5272 321.473 15.3333 320 15.3333C318.527 15.3333 317.333 16.5272 317.333 18ZM97 18V18.5H320V18V17.5H97V18Z" fill="#79879C"/>
    <path d="M94.3333 66C94.3333 64.5272 95.5272 63.3333 97 63.3333C98.4728 63.3333 99.6667 64.5272 99.6667 66C99.6667 67.4728 98.4728 68.6667 97 68.6667C95.5272 68.6667 94.3333 67.4728 94.3333 66ZM317.333 82C317.333 80.5272 318.527 79.3333 320 79.3333C321.473 79.3333 322.667 80.5272 322.667 82C322.667 83.4728 321.473 84.6667 320 84.6667C318.527 84.6667 317.333 83.4728 317.333 82ZM225.046 79.806L225.358 79.4157L225.046 79.806ZM210.543 68.194L210.856 67.8037L225.358 79.4157L225.046 79.806L224.733 80.1963L210.231 68.5843L210.543 68.194ZM231.296 82V81.5H320V82V82.5H231.296V82ZM97 66V65.5H204.293V66V66.5H97V66ZM225.046 79.806L225.358 79.4157C227.043 80.7649 229.137 81.5 231.296 81.5V82V82.5C228.91 82.5 226.595 81.6875 224.733 80.1963L225.046 79.806ZM210.543 68.194L210.231 68.5843C208.546 67.2351 206.451 66.5 204.293 66.5V66V65.5C206.679 65.5 208.993 66.3125 210.856 67.8037L210.543 68.194Z" fill="#79879C"/>
    <path d="M348.667 50C348.667 48.5272 347.473 47.3333 346 47.3333C344.527 47.3333 343.333 48.5272 343.333 50C343.333 51.4728 344.527 52.6667 346 52.6667C347.473 52.6667 348.667 51.4728 348.667 50ZM440.954 47.806L440.642 47.4157L440.954 47.806ZM455.457 36.194L455.144 35.8037L440.642 47.4157L440.954 47.806L441.267 48.1963L455.769 36.5843L455.457 36.194ZM434.704 50V49.5H346V50V50.5H434.704V50ZM569 34V33.5H461.707V34V34.5H569V34ZM440.954 47.806L440.642 47.4157C438.957 48.7649 436.863 49.5 434.704 49.5V50V50.5C437.09 50.5 439.405 49.6875 441.267 48.1963L440.954 47.806ZM455.457 36.194L455.769 36.5843C457.454 35.2351 459.549 34.5 461.707 34.5V34V33.5C459.321 33.5 457.007 34.3125 455.144 35.8037L455.457 36.194Z" fill="#79879C"/>
    <path d="M571.667 82C571.667 80.5272 570.473 79.3333 569 79.3333C567.527 79.3333 566.333 80.5272 566.333 82C566.333 83.4728 567.527 84.6667 569 84.6667C570.473 84.6667 571.667 83.4728 571.667 82ZM348.667 82C348.667 80.5272 347.473 79.3333 346 79.3333C344.527 79.3333 343.333 80.5272 343.333 82C343.333 83.4728 344.527 84.6667 346 84.6667C347.473 84.6667 348.667 83.4728 348.667 82ZM569 82V81.5H346V82V82.5H569V82Z" fill="#79879C"/>
    <path d="M571.667 34C571.667 35.4728 570.473 36.6667 569 36.6667C567.527 36.6667 566.333 35.4728 566.333 34C566.333 32.5272 567.527 31.3333 569 31.3333C570.473 31.3333 571.667 32.5272 571.667 34ZM348.667 18C348.667 19.4728 347.473 20.6667 346 20.6667C344.527 20.6667 343.333 19.4728 343.333 18C343.333 16.5272 344.527 15.3333 346 15.3333C347.473 15.3333 348.667 16.5272 348.667 18ZM440.954 20.194L440.642 20.5843L440.954 20.194ZM455.457 31.806L455.144 32.1963L440.642 20.5843L440.954 20.194L441.267 19.8037L455.769 31.4157L455.457 31.806ZM434.704 18V18.5H346V18V17.5H434.704V18ZM569 34V34.5H461.707V34V33.5H569V34ZM440.954 20.194L440.642 20.5843C438.957 19.2351 436.863 18.5 434.704 18.5V18V17.5C437.09 17.5 439.405 18.3125 441.267 19.8037L440.954 20.194ZM455.457 31.806L455.769 31.4157C457.454 32.7649 459.549 33.5 461.707 33.5V34V34.5C459.321 34.5 457.007 33.6875 455.144 32.1963L455.457 31.806Z" fill="#79879C"/>
</svg>
