<svg width="24" height="24" viewBox="0 0 24 24" fill="none" xmlns="http://www.w3.org/2000/svg">
<path d="M5.713 10.25C7.051 11.0025 9.367 11.5 12 11.5C14.633 11.5 16.949 11.0025 18.287 10.25C19.054 10.6815 19.5 11.1965 19.5 11.75C19.5 13.269 16.142 14.5 12 14.5C7.858 14.5 4.5 13.269 4.5 11.75C4.5 11.1965 4.946 10.6815 5.713 10.25V10.25ZM6.2145 14.5C7.5895 15.111 9.671 15.5 12 15.5C14.329 15.5 16.41 15.111 17.7855 14.5C18.8565 14.975 19.5 15.585 19.5 16.25C19.5 17.769 16.142 19 12 19C7.858 19 4.5 17.769 4.5 16.25C4.5 15.585 5.1435 14.975 6.2145 14.5ZM12 10.5C7.858 10.5 4.5 9.269 4.5 7.75C4.5 6.231 7.858 5 12 5C16.142 5 19.5 6.231 19.5 7.75C19.5 9.269 16.142 10.5 12 10.5Z" fill="url(#paint0_linear_347_5058)"/>
<defs>
<linearGradient id="paint0_linear_347_5058" x1="9.21069" y1="5.29553" x2="22.5667" y2="18.7697" gradientUnits="userSpaceOnUse">
<stop stop-color="#1D85FF"/>
<stop offset="1" stop-color="#1DFFBC" stop-opacity="0.74"/>
</linearGradient>
</defs>
</svg>
