<?xml version="1.0" encoding="UTF-8"?>
<svg width="16px" height="16px" viewBox="0 0 16 16" version="1.1" xmlns="http://www.w3.org/2000/svg" xmlns:xlink="http://www.w3.org/1999/xlink">
    <title>行业-制造</title>
    <defs>
        <linearGradient x1="79.249375%" y1="73.9366744%" x2="11.0429375%" y2="62.8302663%" id="linearGradient-1">
            <stop stop-color="#1D85FF" offset="0%"></stop>
            <stop stop-color="#9CCAFF" offset="100%"></stop>
        </linearGradient>
    </defs>
    <g id="行业-制造" stroke="none" stroke-width="1" fill="none" fill-rule="evenodd">
        <g id="制造" transform="translate(1.000000, 3.000000)" fill="url(#linearGradient-1)" fill-rule="nonzero">
            <path d="M10.004575,0 C11.3567125,0 12.450375,1.45445125 12.6940625,3.4364575 C13.54885,3.92569625 14,4.85709875 14,5.9394125 C14,6.54289028 13.8555753,7.09631373 13.5844861,7.55715667 L13.476925,7.72555 L13.476925,9.3275 C13.476925,10.0781 10.8238857,10.1049071 10.6343829,9.40792143 L10.623725,9.3275 L10.623725,8.8099375 L3.37862875,8.8099375 L3.37862875,9.3275 C3.37862875,10.0781 0.723368292,10.1049071 0.533706831,9.40792143 L0.52304,9.3275 L0.52304,7.72555 C0.18465125,7.2338875 0,6.618325 0,5.9394125 C0,4.85711625 0.451185,3.92524125 1.30501,3.4364575 C1.54119845,1.52278784 2.56892159,0.100933695 3.85694896,0.00515025739 L3.99592375,0 L10.004575,0 Z M2.4186925,5.006085 C1.90420125,5.006085 1.4868175,5.4236875 1.4868175,5.9394125 C1.4868175,6.45505 1.90372,6.871725 2.4186925,6.871725 C2.9345925,6.871725 3.3515125,6.45505 3.3515125,5.9394125 C3.3515125,5.4236875 2.93650875,5.006085 2.4186925,5.006085 Z M11.5822875,5.006085 C11.068225,5.006085 10.648925,5.4236875 10.648925,5.9394125 C10.648925,6.45505 11.0663875,6.871725 11.5822875,6.871725 C12.097225,6.871725 12.516525,6.45505 12.5140963,5.9394125 C12.5140963,5.4236875 12.0962625,5.006085 11.5822875,5.006085 Z M10.0069375,0.855225 L3.9978225,0.855225 C3.19874625,0.855225 2.49865875,1.8135075 2.23022625,3.11518375 C2.34128125,3.09836042 2.45381792,3.08271153 2.57177699,3.07414819 L2.79577511,3.06742851 C3.45229774,3.06854902 11.4947,3.08242875 11.4947,3.08994875 C11.5884125,3.09661625 11.6851,3.10114 11.7726,3.11518375 C11.5164358,1.8726746 10.8681779,0.943051082 10.1151888,0.861107021 L10.0069375,0.855225 Z" id="形状"></path>
        </g>
    </g>
</svg>