<?xml version="1.0" encoding="UTF-8"?>
<svg width="16px" height="16px" viewBox="0 0 16 16" version="1.1" xmlns="http://www.w3.org/2000/svg" xmlns:xlink="http://www.w3.org/1999/xlink">
    <title>行业-零售</title>
    <defs>
        <linearGradient x1="79.2493511%" y1="77.3938063%" x2="10.6076843%" y2="66.2162738%" id="linearGradient-1">
            <stop stop-color="#1D85FF" offset="0%"></stop>
            <stop stop-color="#9CCAFF" offset="100%"></stop>
        </linearGradient>
    </defs>
    <g id="行业-零售" stroke="none" stroke-width="1" fill="none" fill-rule="evenodd">
        <g id="零售" transform="translate(1.000000, 2.000000)" fill="url(#linearGradient-1)" fill-rule="nonzero">
            <path d="M13.3835625,2.04575 C13.3497,2.03986125 13.3158375,2.0354425 13.2804875,2.0325025 L3.85438375,2.0325025 L3.702685,0.75408375 C3.595165,0.32991 3.21664875,0.01325625 2.76154375,0 L0.603855,0 C0.27099625,0 0,0.26952625 0,0.603855 C0,0.93671375 0.26952625,1.20771875 0.603855,1.20771875 L2.18567125,1.20771875 C2.36830125,1.220975 2.54799125,1.35646875 2.5803925,1.53174 L2.58481125,1.56856 L2.61573375,1.82924875 L3.5657125,9.76045 C3.6422925,10.2375875 4.05615875,10.6029 4.55545125,10.6029 L11.13455,10.6029 C11.4674,10.6029 11.7383875,10.3333125 11.7383875,9.998975 C11.7383875,9.666125 11.4688875,9.3951375 11.13455,9.3951375 L5.06062375,9.3951375 C4.89713875,9.3701125 4.7425,9.2493625 4.70273125,9.09615 L4.59521125,8.193325 L11.427675,7.8192625 C11.6500125,7.804475 11.8356,7.669025 11.9284375,7.4834375 L11.937275,7.4657625 L13.9285125,3.25199875 C14.1126125,2.78511625 13.9447,2.15327 13.3835625,2.04575 L13.3835625,2.04575 Z" id="路径"></path>
        </g>
    </g>
</svg>