<?xml version="1.0" encoding="UTF-8"?>
<svg width="16px" height="16px" viewBox="0 0 16 16" version="1.1" xmlns="http://www.w3.org/2000/svg" xmlns:xlink="http://www.w3.org/1999/xlink">
    <title>行业-医疗</title>
    <defs>
        <linearGradient x1="68.7315863%" y1="97.7597831%" x2="23.5085282%" y2="90.3954265%" id="linearGradient-1">
            <stop stop-color="#1D85FF" offset="0%"></stop>
            <stop stop-color="#9CCAFF" offset="100%"></stop>
        </linearGradient>
    </defs>
    <g id="行业-医疗" stroke="none" stroke-width="1" fill="none" fill-rule="evenodd">
        <g id="医疗行业" transform="translate(3.000000, 2.000000)" fill="url(#linearGradient-1)" fill-rule="nonzero">
            <path d="M1.648332,2.274084 C1.50588,2.274084 1.399044,2.24865 1.327824,2.197776 C1.256598,2.146902 1.205724,2.085852 1.175196,2.014626 C1.134498,1.93323 1.114152,1.841652 1.114152,1.739904 L1.114152,0.732594 C1.114152,0.5392686 1.152306,0.3942768 1.228614,0.2976156 C1.304928,0.2009538 1.388874,0.1271862 1.480446,0.0763116 C1.59237,0.02543712 1.71447,0 1.84674,0 L7.75326,0 C7.88556,0 8.00766,0.02543712 8.11956,0.0763116 C8.21112,0.1271862 8.29506,0.2009538 8.37138,0.2976156 C8.4477,0.3942768 8.48586,0.5392686 8.48586,0.732594 L8.48586,1.739904 C8.48586,1.841652 8.46552,1.93323 8.42478,2.014626 C8.3943,2.085852 8.34594,2.146902 8.27982,2.197776 C8.2137,2.24865 8.10936,2.274084 7.96692,2.274084 L1.648332,2.274084 L1.648332,2.274084 Z M9.6,10.79046 C9.6,11.01432 9.55932,11.21778 9.4779,11.40096 C9.40668,11.5536 9.2973,11.69094 9.14976,11.81304 C9.00222,11.93514 8.79108,11.99616 8.5164,11.99616 L1.098888,11.99616 C0.81399,11.99616 0.600318,11.93514 0.457872,11.81304 C0.31542,11.69094 0.208584,11.5536 0.137358,11.40096 C0.055962,11.21778 0.010176,11.01432 0,10.79046 L0,5.082354 C0,4.746582 0.06105,4.50747 0.18315,4.365024 C0.305244,4.222578 0.417168,4.100478 0.518922,3.99873 L1.602546,2.991414 L8.21112,2.991414 L9.08106,3.99873 C9.18282,4.100478 9.29478,4.222578 9.41688,4.365024 C9.53898,4.50747 9.6,4.746582 9.6,5.082354 L9.6,10.79046 L9.6,10.79046 Z M7.21908,6.85278 L5.61654,6.85278 L5.61654,5.234976 L3.983466,5.234976 L3.983466,6.85278 L2.38092,6.85278 L2.38092,8.48586 L3.983466,8.48586 L3.983466,10.0884 L5.61654,10.0884 L5.61654,8.48586 L7.21908,8.48586 L7.21908,6.85278 Z" id="形状"></path>
        </g>
    </g>
</svg>