<?xml version="1.0" encoding="UTF-8"?>
<svg width="16px" height="16px" viewBox="0 0 16 16" version="1.1" xmlns="http://www.w3.org/2000/svg" xmlns:xlink="http://www.w3.org/1999/xlink">
    <title>行业-通信</title>
    <defs>
        <linearGradient x1="68.7196%" y1="97.7595%" x2="23.525%" y2="90.4%" id="linearGradient-1">
            <stop stop-color="#1D85FF" offset="0%"></stop>
            <stop stop-color="#9CCAFF" offset="100%"></stop>
        </linearGradient>
    </defs>
    <g id="行业-通信" stroke="none" stroke-width="1" fill="none" fill-rule="evenodd">
        <g id="通信" transform="translate(3.000000, 2.000000)" fill="url(#linearGradient-1)" fill-rule="nonzero">
            <path d="M9.594,1.2 C9.594,0.54 9.06,0 8.4,0 L3.6,0 L0,3.6 L0,10.8 C0,11.46 0.54,12 1.2,12 L8.406,12 C9.066,12 9.6,11.46 9.6,10.8 L9.594,1.2 Z M3,10.2 L1.8,10.2 L1.8,9 L3,9 L3,10.2 Z M7.8,10.2 L6.6,10.2 L6.6,9 L7.8,9 L7.8,10.2 Z M3,7.8 L1.8,7.8 L1.8,5.4 L3,5.4 L3,7.8 Z M5.4,10.2 L4.2,10.2 L4.2,7.8 L5.4,7.8 L5.4,10.2 Z M5.4,6.6 L4.2,6.6 L4.2,5.4 L5.4,5.4 L5.4,6.6 Z M7.8,7.8 L6.6,7.8 L6.6,5.4 L7.8,5.4 L7.8,7.8 Z" id="形状"></path>
        </g>
    </g>
</svg>