<?xml version="1.0" encoding="UTF-8"?>
<svg width="16px" height="16px" viewBox="0 0 16 16" version="1.1" xmlns="http://www.w3.org/2000/svg" xmlns:xlink="http://www.w3.org/1999/xlink">
    <title>行业-政务</title>
    <defs>
        <linearGradient x1="79.2494933%" y1="89.1861547%" x2="9.6826968%" y2="77.8578792%" id="linearGradient-1">
            <stop stop-color="#1D85FF" offset="0%"></stop>
            <stop stop-color="#9CCAFF" offset="100%"></stop>
        </linearGradient>
    </defs>
    <g id="行业-政务" stroke="none" stroke-width="1" fill="none" fill-rule="evenodd">
        <g id="政务" transform="translate(2.000000, 2.000000)" fill="url(#linearGradient-1)" fill-rule="nonzero">
            <path d="M3.608112,5.93408 C3.746472,5.93408 3.859672,6.04672 3.859672,6.18568 L3.859048,10.33648 L5.129456,10.33648 L5.129456,6.18568 C5.129456,6.04672 5.242656,5.93408 5.381024,5.93408 L7.41936,5.93408 C7.55832,5.93408 7.67088,6.04672 7.67088,6.18568 L7.67088,10.33648 L8.94128,10.33648 L8.94128,6.18568 C8.94128,6.04672 9.05448,5.93408 9.19288,5.93408 L11.2312,5.93408 C11.37016,5.93408 11.48272,6.04672 11.48272,6.18568 L11.48272,10.33648 L12.43808,10.33648 C12.5764,10.33648 12.68968,10.44912 12.68968,10.58808 L12.68968,10.96544 C12.68968,11.13224 12.62336,11.29216 12.50544,11.41016 C12.38752,11.52808 12.22752,11.59432 12.06072,11.59432 L0.740256,11.59432 C0.573456,11.59432 0.413488,11.52808 0.295544,11.41016 C0.1776,11.29216 0.111344,11.13224 0.111344,10.96544 L0.111344,10.58808 C0.111344,10.44912 0.224544,10.33648 0.362904,10.33648 L1.318232,10.33648 L1.318232,6.18568 C1.318232,6.04672 1.430808,5.93408 1.569792,5.93408 L3.608112,5.93408 Z M6.354288,0.001224 C6.53552,-0.008344 6.71536,0.038336 6.86904,0.13488 L6.94448,0.188336 L12.63808,4.664328 C12.70312,4.715384 12.75176,4.784368 12.77808,4.862768 C12.80432,4.941168 12.80704,5.025544 12.78592,5.10548 C12.7648,5.185416 12.72072,5.257416 12.65912,5.312576 C12.59752,5.367744 12.52112,5.403656 12.43936,5.41588 L12.37648,5.42091392 L0.424544,5.42091392 C0.342192,5.42116 0.26156,5.397384 0.192528,5.352496 C0.123496,5.307608 0.069048,5.243552 0.035872,5.168184 C0.002696,5.092824 -0.007776,5.009416 0.005744,4.928184 C0.019256,4.846952 0.056176,4.771432 0.111968,4.710864 L0.16228,4.664328 L5.85648,0.188336 C5.99916,0.076144 6.173032,0.010792 6.354288,0.001224 Z" id="形状"></path>
        </g>
    </g>
</svg>