<?xml version="1.0" encoding="UTF-8"?>
<svg width="32px" height="32px" viewBox="0 0 32 32" version="1.1" xmlns="http://www.w3.org/2000/svg" xmlns:xlink="http://www.w3.org/1999/xlink">
    <title>中断任务</title>
    <defs>
        <linearGradient x1="0%" y1="50%" x2="100%" y2="50%" id="linearGradient-1">
            <stop stop-color="#FF381D" offset="0%"></stop>
            <stop stop-color="#DF9019" offset="100%"></stop>
        </linearGradient>
    </defs>
    <g id="页面-1" stroke="none" stroke-width="1" fill="none" fill-rule="evenodd">
        <g id="画板" transform="translate(-207.000000, -157.000000)" fill-rule="nonzero">
            <g id="中断任务" transform="translate(207.000000, 157.000000)">
                <rect id="矩形" fill="url(#linearGradient-1)" x="0" y="0" width="32" height="32" rx="16"></rect>
                <path d="M22.1903,19.9314 C22.5145,20.2737 22.7521,20.5874 22.903,20.8726 C23.0539,21.1578 23.0287,21.483 22.8275,21.8481 C22.7828,21.9165 22.7213,21.9992 22.6431,22.0962 C22.5648,22.1932 22.4838,22.2873 22.3999,22.3786 C22.3161,22.4698 22.2322,22.5525 22.1484,22.6267 C22.0646,22.7008 21.9947,22.755 21.9388,22.7893 C21.6593,22.9604 21.3295,23.006 20.9495,22.9262 C20.5694,22.8463 20.2284,22.6524 19.9266,22.3443 L19.2223,21.6256 L18.2833,20.6673 L17.1766,19.5378 L15.9692,18.3057 L13.8229,20.4961 C13.1633,21.1692 12.6267,21.7226 12.2131,22.1561 C11.7883,22.5896 11.3663,22.8577 10.9471,22.9604 C10.5279,23.0631 10.1562,22.9661 9.832,22.6695 L9.7146,22.5497 L9.5301,22.3614 L9.3457,22.1732 C9.2786,22.1047 9.2395,22.0591 9.2283,22.0363 C9.1053,21.8766 9.0327,21.714 9.0103,21.5486 C8.988,21.3831 9.0019,21.2206 9.0522,21.0609 C9.1025,20.9011 9.178,20.7471 9.2786,20.5988 C9.3792,20.4505 9.491,20.3136 9.614,20.1881 C9.7146,20.0968 9.8935,19.9257 10.1506,19.6747 L11.0561,18.7164 C11.425,18.3513 11.8358,17.9406 12.2886,17.4842 C12.7413,17.0279 13.2136,16.5487 13.7055,16.0467 C13.1689,15.4991 12.6575,14.98 12.1712,14.4895 C11.6849,13.9989 11.2489,13.5597 10.8632,13.1718 C10.4776,12.7839 10.1618,12.4673 9.9158,12.222 C9.6699,11.9767 9.519,11.8255 9.4631,11.7685 C9.1724,11.4719 9.0243,11.1781 9.0187,10.8872 C9.0131,10.5963 9.1109,10.3025 9.3122,10.0059 C9.4016,9.89178 9.5301,9.75772 9.6978,9.60371 C9.8655,9.44969 9.9829,9.34987 10.05,9.30423 C10.3853,9.07606 10.6872,8.97623 10.9555,9.00475 C11.2238,9.03328 11.4921,9.19014 11.7603,9.47536 L12.2802,10.0059 C12.5373,10.2683 12.8559,10.5877 13.236,10.9642 C13.6161,11.3407 14.0436,11.7656 14.5188,12.2391 C14.9939,12.7126 15.4885,13.206 16.0028,13.7194 C16.4276,13.2859 16.844,12.8637 17.252,12.453 C17.66,12.0423 18.0401,11.6573 18.3923,11.2979 C18.7444,10.9385 19.063,10.6162 19.3481,10.331 C19.6331,10.0458 19.8707,9.80621 20.0607,9.61226 C20.329,9.34987 20.6197,9.17588 20.9327,9.09032 C21.2457,9.00475 21.5475,9.07606 21.8382,9.30423 C21.8494,9.31564 21.8857,9.34416 21.9472,9.3898 C22.0087,9.43543 22.0701,9.48677 22.1316,9.54381 C22.1931,9.60086 22.2518,9.65505 22.3077,9.70639 C22.3636,9.75773 22.4027,9.7891 22.4251,9.80051 C22.7269,10.0971 22.875,10.4194 22.8694,10.7674 C22.8639,11.1154 22.7157,11.4376 22.4251,11.7343 C22.2239,11.9396 21.9751,12.1963 21.6789,12.5044 C21.3826,12.8124 21.0529,13.1489 20.6895,13.514 C20.3262,13.8791 19.9434,14.267 19.5409,14.6777 L18.2665,15.9783 C18.6801,16.389 19.0854,16.7912 19.4822,17.1848 C19.8791,17.5784 20.248,17.9463 20.5889,18.2885 C20.9299,18.6308 21.2373,18.9445 21.5112,19.2298 C21.7851,19.515 22.0115,19.7489 22.1903,19.9314 L22.1903,19.9314 Z" id="路径" fill="#FFFFFF"></path>
            </g>
        </g>
    </g>
</svg>