<?xml version="1.0" encoding="UTF-8"?>
<svg width="14px" height="14px" viewBox="0 0 14 14" version="1.1" xmlns="http://www.w3.org/2000/svg" xmlns:xlink="http://www.w3.org/1999/xlink">
    <title>失败</title>
    <g id="页面-1" stroke="none" stroke-width="1" fill="none" fill-rule="evenodd">
        <g id="画板" transform="translate(-161.000000, -221.000000)" fill="#FA471D" fill-rule="nonzero">
            <g id="失败" transform="translate(161.000000, 221.000000)">
                <path d="M7,0.33325 C10.6818,0.33325 13.6666,3.31809 13.6666,6.99992 C13.6666,10.6818 10.6818,13.6666 7,13.6666 C3.31815,13.6666 0.33331,10.6818 0.33331,6.99992 C0.33331,3.31809 3.31815,0.33325 7,0.33325 Z M8.6897,4.830562 C8.6267,4.83083 8.5643,4.84357 8.5062,4.86806 C8.4481,4.89255 8.3954,4.9283 8.3511,4.97325 L7,6.32442 L5.64881,4.97325 C5.60459,4.9283 5.55191,4.89255 5.4938,4.86806 C5.43569,4.84357 5.37331,4.83083 5.31025,4.830562 C5.2472,4.83031 5.18471,4.84254 5.1264,4.86655 C5.0681,4.89057 5.01512,4.92588 4.97053,4.97047 C4.92594,5.01506 4.89063,5.06804 4.86661,5.12634 C4.8426,5.18465 4.83037,5.24713 4.830622,5.31019 C4.83089,5.37325 4.84363,5.43563 4.86812,5.49374 C4.89261,5.55185 4.92836,5.60453 4.97331,5.64875 L6.3245,6.99992 L4.97331,8.35109 C4.92836,8.39531 4.89261,8.44799 4.86812,8.5061 C4.84363,8.56421 4.83089,8.62659 4.830622,8.68965 C4.83037,8.7527 4.8426,8.81519 4.86661,8.87349 C4.89063,8.9318 4.92594,8.98478 4.97053,9.0294 C5.01512,9.074 5.0681,9.1093 5.1264,9.1333 C5.18471,9.1573 5.2472,9.1695 5.31025,9.16930478 C5.37331,9.169 5.43569,9.1563 5.4938,9.1318 C5.55191,9.1073 5.60459,9.0715 5.64881,9.0266 L7,7.67542 L8.3511,9.0266 C8.3954,9.0715 8.4481,9.1073 8.5062,9.1318 C8.5643,9.1563 8.6267,9.169 8.6897,9.16930478 C8.7528,9.1695 8.8152,9.1573 8.8736,9.1333 C8.9319,9.1093 8.9848,9.074 9.0294,9.0294 C9.074,8.98478 9.1093,8.9318 9.1333,8.87349 C9.1574,8.81519 9.1696,8.7527 9.16931061,8.68965 C9.1691,8.62659 9.1563,8.56421 9.1318,8.5061 C9.1074,8.44799 9.0716,8.39531 9.0266,8.35109 L7.6755,6.99992 L9.0266,5.64875 C9.0716,5.60453 9.1074,5.55185 9.1318,5.49374 C9.1563,5.43563 9.1691,5.37325 9.16931061,5.31019 C9.1696,5.24713 9.1574,5.18465 9.1333,5.12634 C9.1093,5.06804 9.074,5.01506 9.0294,4.97047 C8.9848,4.92588 8.9319,4.89057 8.8736,4.86655 C8.8152,4.84254 8.7528,4.83031 8.6897,4.830562 Z" id="形状"></path>
            </g>
        </g>
    </g>
</svg>