<svg xmlns="http://www.w3.org/2000/svg" width="20" height="20" viewBox="0 0 20 20" fill="none">
  <g clip-path="url(#clip0_0_9528)">
    <path d="M17.4999 10C17.4999 5.85786 14.1421 2.5 9.99992 2.5C5.85778 2.5 2.49992 5.85786 2.49992 10C2.49992 14.1421 5.85778 17.5 9.99992 17.5C14.1421 17.5 17.4999 14.1421 17.4999 10ZM19.1666 10C19.1666 15.0626 15.0625 19.1667 9.99992 19.1667C4.93731 19.1667 0.833252 15.0626 0.833252 10C0.833252 4.93739 4.93731 0.833332 9.99992 0.833332C15.0625 0.833332 19.1666 4.93739 19.1666 10Z" fill="#D5D4E8"/>
    <path d="M18.3333 9.16666C18.7935 9.16666 19.1666 9.53976 19.1666 10C19.1666 10.4602 18.7935 10.8333 18.3333 10.8333H1.66659C1.20635 10.8333 0.833252 10.4602 0.833252 10C0.833252 9.53976 1.20635 9.16666 1.66659 9.16666H18.3333Z" fill="#D5D4E8"/>
    <path d="M10.0001 0.833332C10.2341 0.833332 10.4575 0.931605 10.6153 1.10433C12.836 3.53544 14.0982 6.69098 14.1668 9.98291C14.167 9.9943 14.167 10.0057 14.1668 10.0171C14.0982 13.309 12.836 16.4646 10.6153 18.8957C10.4575 19.0684 10.2341 19.1667 10.0001 19.1667C9.76608 19.1667 9.54273 19.0684 9.38486 18.8957C7.16422 16.4646 5.90201 13.309 5.83343 10.0171C5.83319 10.0057 5.83319 9.9943 5.83343 9.98291C5.90201 6.69098 7.16422 3.53544 9.38486 1.10433L9.44671 1.04329C9.59844 0.908589 9.79521 0.833332 10.0001 0.833332ZM10.0001 2.96224C8.43962 4.97358 7.55719 7.43849 7.50009 10C7.55718 12.5613 8.43986 15.0257 10.0001 17.0369C11.5603 15.0257 12.4422 12.5613 12.4993 10C12.4422 7.43849 11.5606 4.97357 10.0001 2.96224Z" fill="#D5D4E8"/>
  </g>
  <defs>
    <clipPath id="clip0_0_9528">
      <rect width="20" height="20" fill="white"/>
    </clipPath>
  </defs>
</svg>