<?xml version="1.0" encoding="UTF-8"?>
<svg width="32px" height="32px" viewBox="0 0 32 32" version="1.1" xmlns="http://www.w3.org/2000/svg" xmlns:xlink="http://www.w3.org/1999/xlink">
    <title>未开始</title>
    <defs>
        <linearGradient x1="0%" y1="50%" x2="100%" y2="50%" id="linearGradient-1">
            <stop stop-color="#929292" offset="0%"></stop>
            <stop stop-color="#7A7A7A" offset="100%"></stop>
        </linearGradient>
    </defs>
    <g id="页面-1" stroke="none" stroke-width="1" fill="none" fill-rule="evenodd">
        <g id="画板" transform="translate(-262.000000, -157.000000)" fill-rule="nonzero">
            <g id="未开始" transform="translate(262.000000, 157.000000)">
                <rect id="矩形" fill="url(#linearGradient-1)" x="0" y="0" width="32" height="32" rx="16"></rect>
                <path d="M16.6667,23 L16.6667,25.6667 L14,25.6667 L14,23 L16.6667,23 Z M16,7 C17.5913,7 19.1174,7.63214 20.2426,8.75736 C21.3679,9.88258 22,11.4087 22,13 C22,15.2987 20.7367,17.24 18.8407,18.2447 L18.6667,18.3333 C17.3333,19 16.6667,20.3333 16.6667,21.6667 L14,21.6667 C14,19 16,17 17.5593,15.9467 C18.0811,15.6705 18.5201,15.2608 18.8316,14.7593 C19.143,14.2579 19.3157,13.6827 19.3321,13.0927 C19.3484,12.5026 19.2077,11.9188 18.9244,11.4009 C18.6411,10.883 18.2254,10.4496 17.7197,10.1451 C17.2141,9.84055 16.6366,9.67575 16.0463,9.66754 C15.4561,9.65933 14.8743,9.80802 14.3603,10.0984 C13.8464,10.3888 13.4188,10.8104 13.1212,11.3202 C12.8236,11.83 12.6668,12.4097 12.6667,13 L10,13 C10,11.4087 10.6321,9.88258 11.7574,8.75736 C12.8826,7.63214 14.4087,7 16,7 L16,7 Z" id="形状" fill="#FFFFFF"></path>
            </g>
        </g>
    </g>
</svg>