<?xml version="1.0" encoding="UTF-8"?>
<svg width="14px" height="14px" viewBox="0 0 14 14" version="1.1" xmlns="http://www.w3.org/2000/svg" xmlns:xlink="http://www.w3.org/1999/xlink">
    <title>终止</title>
    <g id="页面-1" stroke="none" stroke-width="1" fill="none" fill-rule="evenodd">
        <g id="画板" transform="translate(-185.000000, -221.000000)" fill="#777777">
            <g id="终止" transform="translate(185.000000, 221.000000)">
                <path d="M6.65,-1.15463195e-13 C8.4137,-1.15463195e-13 10.1051,0.70062 11.3523,1.94774 C12.5994,3.19486 13.3,4.88631 13.3,6.65 C13.3,8.41369 12.5994,10.1051 11.3523,11.3523 C10.1051,12.5994 8.4137,13.3 6.65,13.3 C4.88631,13.3 3.19486,12.5994 1.94774,11.3523 C0.70062,10.1051 -1.15463195e-13,8.41369 -1.15463195e-13,6.65 C-1.15463195e-13,4.88631 0.70062,3.19486 1.94774,1.94774 C3.19486,0.70062 4.88631,-1.15463195e-13 6.65,-1.15463195e-13 Z M9.6311,3.66896 L3.66899,3.66896 L3.66899,9.631 L9.6311,9.631 L9.6311,3.66896 Z" id="形状"></path>
            </g>
        </g>
    </g>
</svg>