<?xml version="1.0" encoding="UTF-8"?>
<svg width="14px" height="14px" viewBox="0 0 14 14" version="1.1" xmlns="http://www.w3.org/2000/svg" xmlns:xlink="http://www.w3.org/1999/xlink">
    <title>成功</title>
    <g id="页面-1" stroke="none" stroke-width="1" fill="none" fill-rule="evenodd">
        <g id="画板" transform="translate(-132.000000, -221.000000)" fill="#1DFFBC" fill-rule="nonzero">
            <g id="成功" transform="translate(132.000000, 221.000000)">
                <path d="M7,0.33325 C10.6818,0.33325 13.6666,3.31809 13.6666,6.99992 C13.6666,10.6818 10.6818,13.6666 7,13.6666 C3.31815,13.6666 0.33331,10.6818 0.33331,6.99992 C0.33331,3.31809 3.31815,0.33325 7,0.33325 Z M9.4996,4.83318991 C9.434,4.83324 9.3689,4.84622 9.3083,4.8714 C9.2476,4.89657 9.1925,4.93345 9.1461,4.97992 L6.1706,7.95992 L4.85281,6.64758 C4.75861,6.55523 4.63172,6.50384 4.4998,6.50463 C4.36788,6.50541 4.24161,6.5583 4.14852,6.65178 C4.05542,6.74525 4.00303,6.87173 4.00277806,7.00365 C4.00252,7.13557 4.05441,7.26225 4.14715,7.35609 L5.81881,9.0209 C5.9127,9.1144 6.0399,9.1668 6.1724,9.16660114 C6.3049,9.1665 6.4319,9.1137 6.5255,9.0199 L9.8538,5.68658 C9.9002,5.64012 9.937,5.58497 9.9621,5.52429 C9.9872,5.4636 10.0001,5.39857 10.0000011,5.3329 C10.0000011,5.26723 9.987,5.20221 9.9618,5.14156 C9.9367,5.08091 9.8998,5.02582 9.8533,4.97942 C9.8069,4.93301 9.7517,4.89621 9.691,4.87112 C9.6303,4.84603 9.5653,4.83318991 9.4996,4.83318991 Z" id="形状"></path>
            </g>
        </g>
    </g>
</svg>