<svg xmlns="http://www.w3.org/2000/svg" width="16" height="16" viewBox="0 0 16 16" fill="none">
<path d="M3.59962 1.76782H1.39942C1.20491 1.76782 1.01836 1.84509 0.880824 1.98263C0.743284 2.12017 0.666016 2.30671 0.666016 2.50122V14.6023C0.666016 14.7968 0.743284 14.9834 0.880824 15.1209C1.01836 15.2585 1.20491 15.3357 1.39942 15.3357H6.89992V13.6949C6.89992 13.3701 7.02893 13.0586 7.25857 12.829L12.4004 7.68713V2.50122C12.4004 2.30671 12.3232 2.12017 12.1856 1.98263C12.0481 1.84509 11.8615 1.76782 11.667 1.76782H9.46683C9.46683 2.37539 8.97429 2.86792 8.36672 2.86792H4.69972C4.09215 2.86792 3.59962 2.37539 3.59962 1.76782Z" fill="#2E90FA"/>
<path d="M4.33399 0.666748C4.13948 0.666748 3.95293 0.744017 3.81539 0.881556C3.67785 1.0191 3.60059 1.20564 3.60059 1.40015V1.64244C3.60059 2.31872 4.14882 2.86695 4.8251 2.86695H8.24328C8.91956 2.86695 9.46779 2.31872 9.46779 1.64244V1.40015C9.46779 1.20564 9.39052 1.0191 9.25298 0.881556C9.11545 0.744017 8.9289 0.666748 8.73439 0.666748H4.33399ZM12.7963 8.84695C13.2637 8.37961 14.0214 8.37961 14.4887 8.84695C14.9561 9.31431 14.9561 10.0721 14.4887 10.5394L14.2067 10.8215L12.5142 9.12902L12.7963 8.84695ZM11.9501 9.69345L13.6425 11.3858L10.0521 14.9761C9.82247 15.2058 9.51102 15.3348 9.18626 15.3348H8.61325C8.27511 15.3348 8.00099 15.0607 8.00099 14.7225V14.1496C8.00099 13.8248 8.13001 13.5133 8.35966 13.2837L11.9501 9.69345Z" fill="#8AC6FF"/>
</svg>