<svg xmlns="http://www.w3.org/2000/svg" width="16" height="16" viewBox="0 0 16 16" fill="none">
<path d="M12.1759 5.72513H13.5906C13.8742 5.7231 14.1469 5.8338 14.3489 6.03287C14.5509 6.23195 14.6655 6.50309 14.6675 6.78667V13.6066C14.6655 13.8901 14.5509 14.1613 14.3489 14.3604C14.1469 14.5594 13.8742 14.6701 13.5906 14.6681H12.1759V5.72513Z" fill="#CCBCFF"/>
<path fill-rule="evenodd" clip-rule="evenodd" d="M11.1855 1.33353C11.4457 1.33129 11.6965 1.43243 11.8821 1.61481C12.0677 1.79721 12.1735 2.04606 12.1758 2.30628V14.6681H2.32333C2.06311 14.6703 1.81229 14.5691 1.62665 14.3868C1.44105 14.2044 1.33534 13.9555 1.33301 13.6953V2.30628C1.33534 2.04605 1.44104 1.79721 1.62665 1.61481C1.81229 1.43246 2.06311 1.33128 2.32333 1.33353H11.1855ZM4.90494 11.2818C4.59465 11.2818 4.34305 11.5334 4.34304 11.8437C4.34304 12.154 4.59464 12.4056 4.90494 12.4056H6.57892C6.88922 12.4056 7.14082 12.154 7.14082 11.8437C7.14081 11.5334 6.88921 11.2818 6.57892 11.2818H4.90494ZM4.90494 9.25815C4.59456 9.25828 4.34304 9.50964 4.34304 9.82005C4.34306 10.1304 4.59457 10.3818 4.90494 10.3819H8.71778C9.02811 10.3818 9.27967 10.1304 9.27968 9.82005C9.27968 9.50967 9.02812 9.25832 8.71778 9.25815H4.90494ZM6.81006 3.67432C6.78297 3.67429 6.75626 3.68154 6.73323 3.6958C6.71012 3.71021 6.69116 3.73125 6.67919 3.7557L6.08213 4.99149L4.69985 5.19268C4.67326 5.1968 4.64804 5.20778 4.62757 5.22524C4.6071 5.24272 4.59219 5.26602 4.58395 5.29165C4.57578 5.3172 4.57493 5.34439 4.58135 5.37043C4.58781 5.39657 4.60118 5.42061 4.62041 5.43945L5.61204 6.39071L5.37764 7.76322C5.37352 7.78414 5.3738 7.80569 5.37894 7.82638C5.38416 7.84722 5.39396 7.86707 5.40759 7.88368C5.42119 7.90022 5.43837 7.91357 5.45773 7.92274C5.47715 7.93193 5.49875 7.93641 5.52023 7.93642L5.56906 7.92991L6.79834 7.26969L8.03152 7.92014L8.0784 7.93642H8.09989L8.16305 7.92535L8.18583 7.90842C8.2076 7.89242 8.22468 7.87037 8.23467 7.84526C8.24464 7.82009 8.24739 7.79246 8.24248 7.76583L8.00027 6.41415L8.99971 5.4388C9.01865 5.41978 9.03252 5.39588 9.03877 5.36978C9.04497 5.34376 9.04375 5.31646 9.03552 5.291C9.02733 5.26536 9.01177 5.24265 8.99124 5.22524C8.97081 5.20794 8.94611 5.19661 8.91962 5.19268L7.55752 5.00712L6.94028 3.7557C6.92836 3.73132 6.90989 3.71086 6.88689 3.69645C6.86384 3.68203 6.83726 3.67436 6.81006 3.67432Z" fill="#977AE7"/>
<path d="M6.57963 11.2818C6.88992 11.2818 7.14152 11.5335 7.14153 11.8437C7.14153 12.154 6.88992 12.4056 6.57963 12.4056H4.90565C4.59535 12.4056 4.34375 12.154 4.34375 11.8437C4.34376 11.5335 4.59536 11.2818 4.90565 11.2818H6.57963Z" fill="#E1DAFF"/>
<path d="M8.71849 9.25823C9.02883 9.2584 9.28039 9.50975 9.28039 9.82013C9.28037 10.1305 9.02882 10.3819 8.71849 10.382H4.90565C4.59528 10.3819 4.34377 10.1305 4.34375 9.82013C4.34375 9.50972 4.59527 9.25836 4.90565 9.25823H8.71849Z" fill="#E1DAFF"/>
<path d="M6.81012 3.6744C6.83735 3.67442 6.86451 3.68209 6.8876 3.69653C6.91054 3.71093 6.92909 3.73146 6.94099 3.75578L7.55823 5.0072L8.91968 5.19276C8.94629 5.19666 8.97142 5.20794 8.99195 5.22532C9.01248 5.2427 9.028 5.26547 9.03623 5.29108C9.04447 5.31663 9.0451 5.34441 9.03883 5.37051C9.03254 5.39643 9.01922 5.41997 9.00042 5.43888L8.00098 6.41488L8.24319 7.76591C8.24809 7.79254 8.24535 7.82017 8.23537 7.84534C8.22539 7.8705 8.20835 7.89247 8.18654 7.9085L8.16375 7.92543L8.09995 7.93715H8.07911L8.03223 7.92022L6.79905 7.26977L5.56977 7.92999L5.52029 7.93715C5.48936 7.93694 5.45929 7.92678 5.43434 7.9085C5.41228 7.89211 5.39477 7.86968 5.38486 7.84404C5.37495 7.81838 5.37303 7.79029 5.37835 7.7633L5.61274 6.39079L4.62112 5.43953C4.60194 5.42073 4.58787 5.39723 4.5814 5.37116C4.57493 5.34501 4.57641 5.31737 4.58466 5.29173C4.59289 5.26618 4.60788 5.24341 4.62828 5.22597C4.64878 5.20849 4.67393 5.19686 4.70055 5.19276L6.08219 4.99157L6.6799 3.75578C6.69184 3.73143 6.71029 3.71091 6.73329 3.69653C6.75631 3.68217 6.78298 3.67443 6.81012 3.6744Z" fill="#E1DAFF"/>
</svg>