<svg width="14" height="14" viewBox="0 0 14 14" xmlns="http://www.w3.org/2000/svg">
<path d="M9.76684 1.9539C9.9765 1.70935 10.3448 1.68105 10.5894 1.89067L12.6305 3.64067C12.6329 3.64274 12.635 3.64541 12.6374 3.6475C12.6486 3.65747 12.66 3.66747 12.6704 3.67826C12.6739 3.68192 12.6772 3.68593 12.6807 3.68966C12.6903 3.70015 12.6997 3.71095 12.7086 3.72213C12.7127 3.72732 12.7166 3.73277 12.7205 3.73808C12.7285 3.74894 12.7361 3.76027 12.7433 3.77169C12.7461 3.77611 12.7486 3.78087 12.7513 3.78536C12.7578 3.79619 12.7643 3.80713 12.7701 3.8184C12.7742 3.82639 12.7778 3.83474 12.7815 3.8429C12.7861 3.85315 12.7905 3.86367 12.7946 3.87423C12.7967 3.87968 12.7989 3.88523 12.8009 3.89075C12.8058 3.90489 12.8101 3.91943 12.814 3.93404C12.8152 3.93875 12.8168 3.94354 12.8179 3.94828C12.821 3.96134 12.8231 3.97478 12.8254 3.98816C12.8265 3.99494 12.8279 4.00183 12.8288 4.00867C12.8301 4.01935 12.8308 4.03028 12.8316 4.04114C12.8321 4.04774 12.8336 4.05444 12.8339 4.06108C12.834 4.0646 12.8333 4.06838 12.8333 4.0719C12.8334 4.07575 12.8345 4.08 12.8345 4.08386C12.8344 4.08915 12.8335 4.09456 12.8333 4.09981C12.833 4.11217 12.8322 4.12459 12.831 4.13684C12.8303 4.14464 12.8292 4.15249 12.8282 4.1602C12.827 4.1693 12.8258 4.17853 12.8242 4.18754C12.8181 4.22155 12.8086 4.25441 12.7969 4.28609C12.7951 4.29095 12.7937 4.2961 12.7917 4.3009C12.7621 4.37446 12.7187 4.44116 12.6636 4.4963L10.6219 6.5374L10.5775 6.57727C10.3484 6.76402 10.0106 6.75084 9.79703 6.5374C9.58357 6.32386 9.57041 5.98605 9.75716 5.75696L9.79703 5.71253L10.8424 4.6672H5.54451C3.8503 4.66725 2.40279 6.05908 2.33675 7.75248C2.26727 9.54091 3.7536 11.0838 5.54451 11.0839H10.5017C10.8237 11.084 11.085 11.3451 11.085 11.6672C11.0848 11.9891 10.8236 12.2504 10.5017 12.2505H5.54451C3.09304 12.2505 1.07584 10.1586 1.17122 7.70691C1.26171 5.38731 3.22374 3.50058 5.54451 3.50053H10.676L9.83007 2.77592C9.58557 2.56628 9.55731 2.19848 9.76684 1.9539Z"/>
<path d="M9.76684 1.9539C9.9765 1.70935 10.3448 1.68105 10.5894 1.89067L12.6305 3.64067C12.6329 3.64274 12.635 3.64541 12.6374 3.6475C12.6486 3.65747 12.66 3.66747 12.6704 3.67826C12.6739 3.68192 12.6772 3.68593 12.6807 3.68966C12.6903 3.70015 12.6997 3.71095 12.7086 3.72213C12.7127 3.72732 12.7166 3.73277 12.7205 3.73808C12.7285 3.74894 12.7361 3.76027 12.7433 3.77169C12.7461 3.77611 12.7486 3.78087 12.7513 3.78536C12.7578 3.79619 12.7643 3.80713 12.7701 3.8184C12.7742 3.82639 12.7778 3.83474 12.7815 3.8429C12.7861 3.85315 12.7905 3.86367 12.7946 3.87423C12.7967 3.87968 12.7989 3.88523 12.8009 3.89075C12.8058 3.90489 12.8101 3.91943 12.814 3.93404C12.8152 3.93875 12.8168 3.94354 12.8179 3.94828C12.821 3.96134 12.8231 3.97478 12.8254 3.98816C12.8265 3.99494 12.8279 4.00183 12.8288 4.00867C12.8301 4.01935 12.8308 4.03028 12.8316 4.04114C12.8321 4.04774 12.8336 4.05444 12.8339 4.06108C12.834 4.0646 12.8333 4.06838 12.8333 4.0719C12.8334 4.07575 12.8345 4.08 12.8345 4.08386C12.8344 4.08915 12.8335 4.09456 12.8333 4.09981C12.833 4.11217 12.8322 4.12459 12.831 4.13684C12.8303 4.14464 12.8292 4.15249 12.8282 4.1602C12.827 4.1693 12.8258 4.17853 12.8242 4.18754C12.8181 4.22155 12.8086 4.25441 12.7969 4.28609C12.7951 4.29095 12.7937 4.2961 12.7917 4.3009C12.7621 4.37446 12.7187 4.44116 12.6636 4.4963L10.6219 6.5374L10.5775 6.57727C10.3484 6.76402 10.0106 6.75084 9.79703 6.5374C9.58357 6.32386 9.57041 5.98605 9.75716 5.75696L9.79703 5.71253L10.8424 4.6672H5.54451C3.8503 4.66725 2.40279 6.05908 2.33675 7.75248C2.26727 9.54091 3.7536 11.0838 5.54451 11.0839H10.5017C10.8237 11.084 11.085 11.3451 11.085 11.6672C11.0848 11.9891 10.8236 12.2504 10.5017 12.2505H5.54451C3.09304 12.2505 1.07584 10.1586 1.17122 7.70691C1.26171 5.38731 3.22374 3.50058 5.54451 3.50053H10.676L9.83007 2.77592C9.58557 2.56628 9.55731 2.19848 9.76684 1.9539Z"/>
</svg>
