<svg width="32" height="32" viewBox="0 0 32 32" fill="none" xmlns="http://www.w3.org/2000/svg">
<rect x="0.5625" y="0.5625" width="30.875" height="30.875" rx="15.4375" stroke="#D3D9E0" stroke-width="1.125"/>
<path d="M17.2768 12.838C17.2148 12.7761 17.1413 12.7269 17.0604 12.6934C16.9794 12.6598 16.8927 12.6426 16.8051 12.6426C16.7175 12.6426 16.6307 12.6598 16.5498 12.6934C16.4689 12.7269 16.3953 12.7761 16.3334 12.838L9.19543 19.976C9.13347 20.0379 9.08432 20.1115 9.05079 20.1924C9.01726 20.2733 9 20.3601 9 20.4477C9 20.5353 9.01726 20.622 9.05079 20.7029C9.08432 20.7839 9.13347 20.8574 9.19543 20.9193L11.0818 22.8057C11.2069 22.9307 11.3765 23.001 11.5533 23.001C11.7301 23.001 11.8997 22.9307 12.0248 22.8057L19.1635 15.6677C19.2254 15.6058 19.2746 15.5323 19.3081 15.4513C19.3416 15.3704 19.3589 15.2837 19.3589 15.1961C19.3589 15.1084 19.3416 15.0217 19.3081 14.9408C19.2746 14.8598 19.2254 14.7863 19.1635 14.7244L17.2768 12.838Z" fill="#2E90FA"/>
<path d="M17.2768 12.838C17.2148 12.7761 17.1413 12.7269 17.0604 12.6934C16.9794 12.6598 16.8927 12.6426 16.8051 12.6426C16.7175 12.6426 16.6307 12.6598 16.5498 12.6934C16.4689 12.7269 16.3953 12.7761 16.3334 12.838L9.19543 19.976C9.13347 20.0379 9.08432 20.1115 9.05079 20.1924C9.01726 20.2733 9 20.3601 9 20.4477C9 20.5353 9.01726 20.622 9.05079 20.7029C9.08432 20.7839 9.13347 20.8574 9.19543 20.9193L11.0818 22.8057C11.2069 22.9307 11.3765 23.001 11.5533 23.001C11.7301 23.001 11.8997 22.9307 12.0248 22.8057L19.1635 15.6677C19.2254 15.6058 19.2746 15.5323 19.3081 15.4513C19.3416 15.3704 19.3589 15.2837 19.3589 15.1961C19.3589 15.1084 19.3416 15.0217 19.3081 14.9408C19.2746 14.8598 19.2254 14.7863 19.1635 14.7244L17.2768 12.838Z" fill="#A8B2BF"/>
<path d="M19.5979 12.3656L18.12 11.9058C18.0903 11.8965 18.0634 11.8795 18.0431 11.8559C18.0227 11.8324 18.0093 11.8036 18.0045 11.7729C17.9996 11.7421 18.0035 11.7107 18.0156 11.682C18.0277 11.6533 18.0476 11.6286 18.073 11.6106L19.3368 10.717L19.3168 9.16908C19.3164 9.13791 19.3247 9.10725 19.3408 9.08057C19.3569 9.05389 19.3801 9.03226 19.4079 9.01813C19.4357 9.00399 19.4669 8.99793 19.4979 9.00062C19.529 9.00332 19.5586 9.01466 19.5836 9.03336L20.824 9.95904L22.2899 9.46218C22.3194 9.4522 22.351 9.45066 22.3813 9.45773C22.4116 9.46481 22.4393 9.48021 22.4613 9.5022C22.4833 9.52419 22.4987 9.5519 22.5058 9.58219C22.5128 9.61248 22.5113 9.64414 22.5013 9.6736L22.0045 11.1395L22.9302 12.3799C22.9489 12.4049 22.9602 12.4345 22.9629 12.4656C22.9656 12.4966 22.9595 12.5278 22.9454 12.5556C22.9313 12.5834 22.9096 12.6066 22.8829 12.6227C22.8563 12.6388 22.8256 12.6471 22.7944 12.6467L21.2462 12.6267L20.3525 13.8905C20.3346 13.9158 20.3099 13.9356 20.2812 13.9477C20.2526 13.9597 20.2212 13.9636 20.1905 13.9587C20.1598 13.9539 20.1311 13.9405 20.1076 13.9202C20.0841 13.8999 20.0667 13.8735 20.0574 13.8438L19.5979 12.3656Z" fill="#31CF9A"/>
<path d="M19.5979 12.3656L18.12 11.9058C18.0903 11.8965 18.0634 11.8795 18.0431 11.8559C18.0227 11.8324 18.0093 11.8036 18.0045 11.7729C17.9996 11.7421 18.0035 11.7107 18.0156 11.682C18.0277 11.6533 18.0476 11.6286 18.073 11.6106L19.3368 10.717L19.3168 9.16908C19.3164 9.13791 19.3247 9.10725 19.3408 9.08057C19.3569 9.05389 19.3801 9.03226 19.4079 9.01813C19.4357 9.00399 19.4669 8.99793 19.4979 9.00062C19.529 9.00332 19.5586 9.01466 19.5836 9.03336L20.824 9.95904L22.2899 9.46218C22.3194 9.4522 22.351 9.45066 22.3813 9.45773C22.4116 9.46481 22.4393 9.48021 22.4613 9.5022C22.4833 9.52419 22.4987 9.5519 22.5058 9.58219C22.5128 9.61248 22.5113 9.64414 22.5013 9.6736L22.0045 11.1395L22.9302 12.3799C22.9489 12.4049 22.9602 12.4345 22.9629 12.4656C22.9656 12.4966 22.9595 12.5278 22.9454 12.5556C22.9313 12.5834 22.9096 12.6066 22.8829 12.6227C22.8563 12.6388 22.8256 12.6471 22.7944 12.6467L21.2462 12.6267L20.3525 13.8905C20.3346 13.9158 20.3099 13.9356 20.2812 13.9477C20.2526 13.9597 20.2212 13.9636 20.1905 13.9587C20.1598 13.9539 20.1311 13.9405 20.1076 13.9202C20.0841 13.8999 20.0667 13.8735 20.0574 13.8438L19.5979 12.3656Z" fill="#A8B2BF"/>
<path d="M14.1292 11.653L13.3963 12.0175C13.3686 12.0312 13.3376 12.0369 13.3069 12.0341C13.2761 12.0312 13.2467 12.0199 13.222 12.0013C13.1973 11.9827 13.1783 11.9577 13.167 11.9289C13.1557 11.9001 13.1527 11.8688 13.1582 11.8384L13.2956 11.0798L12.7217 10.5503C12.6984 10.5288 12.6818 10.5012 12.6736 10.4707C12.6655 10.4401 12.6662 10.4079 12.6756 10.3777C12.6851 10.3475 12.703 10.3207 12.7271 10.3003C12.7513 10.2799 12.7807 10.2668 12.8121 10.2625L13.614 10.1524L13.9815 9.44785C13.9956 9.42088 14.0168 9.39829 14.0429 9.38252C14.0689 9.36676 14.0988 9.35843 14.1292 9.35843C14.1597 9.35843 14.1895 9.36676 14.2156 9.38252C14.2416 9.39829 14.2628 9.42088 14.2769 9.44785L14.6444 10.1524L15.4467 10.2625C15.478 10.2668 15.5074 10.28 15.5315 10.3004C15.5556 10.3208 15.5735 10.3477 15.5829 10.3778C15.5923 10.408 15.593 10.4402 15.5848 10.4707C15.5767 10.5013 15.56 10.5288 15.5367 10.5503L14.9629 11.0798L15.1002 11.8384C15.1057 11.8688 15.1027 11.9001 15.0914 11.9289C15.0801 11.9577 15.0611 11.9827 15.0364 12.0013C15.0117 12.0199 14.9823 12.0312 14.9516 12.0341C14.9208 12.0369 14.8898 12.0312 14.8622 12.0175L14.1292 11.653Z" fill="#31CF9A"/>
<path d="M14.1292 11.653L13.3963 12.0175C13.3686 12.0312 13.3376 12.0369 13.3069 12.0341C13.2761 12.0312 13.2467 12.0199 13.222 12.0013C13.1973 11.9827 13.1783 11.9577 13.167 11.9289C13.1557 11.9001 13.1527 11.8688 13.1582 11.8384L13.2956 11.0798L12.7217 10.5503C12.6984 10.5288 12.6818 10.5012 12.6736 10.4707C12.6655 10.4401 12.6662 10.4079 12.6756 10.3777C12.6851 10.3475 12.703 10.3207 12.7271 10.3003C12.7513 10.2799 12.7807 10.2668 12.8121 10.2625L13.614 10.1524L13.9815 9.44785C13.9956 9.42088 14.0168 9.39829 14.0429 9.38252C14.0689 9.36676 14.0988 9.35843 14.1292 9.35843C14.1597 9.35843 14.1895 9.36676 14.2156 9.38252C14.2416 9.39829 14.2628 9.42088 14.2769 9.44785L14.6444 10.1524L15.4467 10.2625C15.478 10.2668 15.5074 10.28 15.5315 10.3004C15.5556 10.3208 15.5735 10.3477 15.5829 10.3778C15.5923 10.408 15.593 10.4402 15.5848 10.4707C15.5767 10.5013 15.56 10.5288 15.5367 10.5503L14.9629 11.0798L15.1002 11.8384C15.1057 11.8688 15.1027 11.9001 15.0914 11.9289C15.0801 11.9577 15.0611 11.9827 15.0364 12.0013C15.0117 12.0199 14.9823 12.0312 14.9516 12.0341C14.9208 12.0369 14.8898 12.0312 14.8622 12.0175L14.1292 11.653Z" fill="#A8B2BF"/>
<path d="M20.3989 19.0201L21.1318 18.6556L21.8648 19.0201C21.8924 19.0338 21.9234 19.0395 21.9542 19.0367C21.9849 19.0338 22.0143 19.0225 22.039 19.0039C22.0637 18.9853 22.0827 18.9603 22.094 18.9315C22.1053 18.9027 22.1083 18.8714 22.1028 18.841L21.9655 18.0824L22.5393 17.5529C22.5626 17.5314 22.5793 17.5038 22.5874 17.4733C22.5956 17.4427 22.5949 17.4105 22.5854 17.3803C22.5759 17.3501 22.5581 17.3233 22.5339 17.3029C22.5098 17.2825 22.4803 17.2694 22.449 17.2651L21.647 17.155L21.2795 16.4504C21.2654 16.4235 21.2442 16.4009 21.2182 16.3851C21.1921 16.3694 21.1623 16.361 21.1318 16.361C21.1014 16.361 21.0715 16.3694 21.0455 16.3851C21.0194 16.4009 20.9982 16.4235 20.9841 16.4504L20.6166 17.155L19.8143 17.2651C19.783 17.2694 19.7536 17.2826 19.7295 17.303C19.7054 17.3234 19.6876 17.3503 19.6781 17.3804C19.6687 17.4106 19.668 17.4428 19.6762 17.4733C19.6844 17.5039 19.7011 17.5314 19.7243 17.5529L20.2982 18.0824L20.1608 18.841C20.1553 18.8714 20.1583 18.9027 20.1696 18.9315C20.1809 18.9603 20.1999 18.9853 20.2246 19.0039C20.2493 19.0225 20.2787 19.0338 20.3095 19.0367C20.3402 19.0395 20.3712 19.0338 20.3989 19.0201Z" fill="#31CF9A"/>
<path d="M20.3989 19.0201L21.1318 18.6556L21.8648 19.0201C21.8924 19.0338 21.9234 19.0395 21.9542 19.0367C21.9849 19.0338 22.0143 19.0225 22.039 19.0039C22.0637 18.9853 22.0827 18.9603 22.094 18.9315C22.1053 18.9027 22.1083 18.8714 22.1028 18.841L21.9655 18.0824L22.5393 17.5529C22.5626 17.5314 22.5793 17.5038 22.5874 17.4733C22.5956 17.4427 22.5949 17.4105 22.5854 17.3803C22.5759 17.3501 22.5581 17.3233 22.5339 17.3029C22.5098 17.2825 22.4803 17.2694 22.449 17.2651L21.647 17.155L21.2795 16.4504C21.2654 16.4235 21.2442 16.4009 21.2182 16.3851C21.1921 16.3694 21.1623 16.361 21.1318 16.361C21.1014 16.361 21.0715 16.3694 21.0455 16.3851C21.0194 16.4009 20.9982 16.4235 20.9841 16.4504L20.6166 17.155L19.8143 17.2651C19.783 17.2694 19.7536 17.2826 19.7295 17.303C19.7054 17.3234 19.6876 17.3503 19.6781 17.3804C19.6687 17.4106 19.668 17.4428 19.6762 17.4733C19.6844 17.5039 19.7011 17.5314 19.7243 17.5529L20.2982 18.0824L20.1608 18.841C20.1553 18.8714 20.1583 18.9027 20.1696 18.9315C20.1809 18.9603 20.1999 18.9853 20.2246 19.0039C20.2493 19.0225 20.2787 19.0338 20.3095 19.0367C20.3402 19.0395 20.3712 19.0338 20.3989 19.0201Z" fill="#A8B2BF"/>
</svg>
