<svg width="14" height="14" viewBox="0 0 14 14" xmlns="http://www.w3.org/2000/svg">
<path d="M3.41105 1.89064C3.65566 1.68109 4.02401 1.70931 4.23364 1.95388C4.44311 2.19843 4.41482 2.56626 4.17041 2.7759L3.32446 3.50051H8.45597C10.7767 3.50056 12.7388 5.38729 12.8293 7.70689C12.9246 10.1586 10.9074 12.2505 8.45597 12.2505H3.49878C3.17681 12.2505 2.91568 11.9891 2.91545 11.6672C2.91545 11.345 3.17666 11.0839 3.49878 11.0838H8.45597C10.2469 11.0838 11.7332 9.54088 11.6637 7.75246C11.5977 6.05906 10.1502 4.66723 8.45597 4.66717H3.15812L4.20345 5.7125L4.24333 5.75694C4.43002 5.986 4.41683 6.32385 4.20345 6.53737C3.98993 6.75079 3.65209 6.76394 3.42301 6.57725L3.37858 6.53737L1.33691 4.49628C1.30973 4.46911 1.28542 4.43892 1.264 4.40684C1.2592 4.39964 1.25479 4.39202 1.25033 4.38462C1.22481 4.34241 1.20417 4.29678 1.18994 4.24847C1.18713 4.23895 1.18485 4.22909 1.18254 4.21942C1.1799 4.20836 1.17714 4.1971 1.17513 4.18581C1.17434 4.18135 1.1741 4.17662 1.17342 4.17214C1.17131 4.15827 1.16885 4.14416 1.16772 4.12998C1.16703 4.12135 1.16689 4.11247 1.16659 4.10378C1.16636 4.09722 1.16602 4.09045 1.16602 4.08384C1.16602 4.07922 1.16647 4.0742 1.16659 4.0696C1.16665 4.06685 1.16649 4.06382 1.16659 4.06105C1.16677 4.05635 1.16742 4.0515 1.16772 4.04681C1.16852 4.03403 1.16954 4.02119 1.17114 4.00865C1.17225 4.00011 1.17365 3.99146 1.17513 3.98301C1.17709 3.97175 1.17937 3.96043 1.18197 3.9494C1.18335 3.94354 1.18495 3.93755 1.18652 3.93174C1.18982 3.9195 1.19329 3.90719 1.19735 3.89528C1.19987 3.88789 1.20251 3.88035 1.20532 3.87307C1.20986 3.86134 1.21487 3.84966 1.22013 3.83832C1.22279 3.83259 1.22583 3.82686 1.22868 3.82123C1.23484 3.80902 1.24164 3.79703 1.24862 3.78534C1.25129 3.78085 1.2538 3.77609 1.25659 3.77167C1.26383 3.76026 1.27139 3.74891 1.27938 3.73806C1.28328 3.73275 1.28725 3.72729 1.29134 3.72211C1.30025 3.71083 1.31012 3.70021 1.31982 3.68964C1.32316 3.686 1.32609 3.6818 1.32951 3.67824C1.33993 3.66745 1.35132 3.65745 1.36255 3.64748C1.36499 3.64532 1.36748 3.64278 1.36995 3.64064L3.41105 1.89064Z"/>
<path d="M3.41105 1.89064C3.65566 1.68109 4.02401 1.70931 4.23364 1.95388C4.44311 2.19843 4.41482 2.56626 4.17041 2.7759L3.32446 3.50051H8.45597C10.7767 3.50056 12.7388 5.38729 12.8293 7.70689C12.9246 10.1586 10.9074 12.2505 8.45597 12.2505H3.49878C3.17681 12.2505 2.91568 11.9891 2.91545 11.6672C2.91545 11.345 3.17666 11.0839 3.49878 11.0838H8.45597C10.2469 11.0838 11.7332 9.54088 11.6637 7.75246C11.5977 6.05906 10.1502 4.66723 8.45597 4.66717H3.15812L4.20345 5.7125L4.24333 5.75694C4.43002 5.986 4.41683 6.32385 4.20345 6.53737C3.98993 6.75079 3.65209 6.76394 3.42301 6.57725L3.37858 6.53737L1.33691 4.49628C1.30973 4.46911 1.28542 4.43892 1.264 4.40684C1.2592 4.39964 1.25479 4.39202 1.25033 4.38462C1.22481 4.34241 1.20417 4.29678 1.18994 4.24847C1.18713 4.23895 1.18485 4.22909 1.18254 4.21942C1.1799 4.20836 1.17714 4.1971 1.17513 4.18581C1.17434 4.18135 1.1741 4.17662 1.17342 4.17214C1.17131 4.15827 1.16885 4.14416 1.16772 4.12998C1.16703 4.12135 1.16689 4.11247 1.16659 4.10378C1.16636 4.09722 1.16602 4.09045 1.16602 4.08384C1.16602 4.07922 1.16647 4.0742 1.16659 4.0696C1.16665 4.06685 1.16649 4.06382 1.16659 4.06105C1.16677 4.05635 1.16742 4.0515 1.16772 4.04681C1.16852 4.03403 1.16954 4.02119 1.17114 4.00865C1.17225 4.00011 1.17365 3.99146 1.17513 3.98301C1.17709 3.97175 1.17937 3.96043 1.18197 3.9494C1.18335 3.94354 1.18495 3.93755 1.18652 3.93174C1.18982 3.9195 1.19329 3.90719 1.19735 3.89528C1.19987 3.88789 1.20251 3.88035 1.20532 3.87307C1.20986 3.86134 1.21487 3.84966 1.22013 3.83832C1.22279 3.83259 1.22583 3.82686 1.22868 3.82123C1.23484 3.80902 1.24164 3.79703 1.24862 3.78534C1.25129 3.78085 1.2538 3.77609 1.25659 3.77167C1.26383 3.76026 1.27139 3.74891 1.27938 3.73806C1.28328 3.73275 1.28725 3.72729 1.29134 3.72211C1.30025 3.71083 1.31012 3.70021 1.31982 3.68964C1.32316 3.686 1.32609 3.6818 1.32951 3.67824C1.33993 3.66745 1.35132 3.65745 1.36255 3.64748C1.36499 3.64532 1.36748 3.64278 1.36995 3.64064L3.41105 1.89064Z"/>
</svg>
