<svg width="24" height="24" viewBox="0 0 24 24" fill="none" xmlns="http://www.w3.org/2000/svg">
<path d="M12 22C6.47715 22 2 17.5228 2 12C2 6.47715 6.47715 2 12 2C17.5228 2 22 6.47715 22 12C22 17.5228 17.5228 22 12 22Z" fill="url(#paint0_linear_0_26951)"/>
<path d="M10.1244 7.93457C10.2124 7.93457 10.2983 7.96058 10.3714 8.00935L15.8019 11.6297C16.0065 11.7661 16.0618 12.0425 15.9254 12.2471C15.8928 12.296 15.8508 12.338 15.8019 12.3706L10.3714 15.9909C10.1668 16.1274 9.89035 16.0721 9.754 15.8675C9.70524 15.7943 9.6792 15.7084 9.6792 15.6205V8.3798C9.6792 8.1339 9.87855 7.93457 10.1244 7.93457Z" fill="#161D15"/>
<defs>
<linearGradient id="paint0_linear_0_26951" x1="2" y1="12" x2="22" y2="12" gradientUnits="userSpaceOnUse">
<stop stop-color="#30FD98"/>
<stop offset="1" stop-color="#83FE4D"/>
</linearGradient>
</defs>
</svg>
