<svg width="30" height="30" viewBox="0 0 30 30" fill="none" xmlns="http://www.w3.org/2000/svg">
<path d="M11.875 12.5C14.2912 12.5 16.25 10.5412 16.25 8.125C16.25 5.70876 14.2912 3.75 11.875 3.75C9.45875 3.75 7.5 5.70876 7.5 8.125C7.5 10.5412 9.45875 12.5 11.875 12.5Z" stroke="white" stroke-width="2.5" stroke-linecap="round" stroke-linejoin="round"/>
<path d="M20.3796 4.37402C21.6501 5.13959 22.4999 6.53259 22.4999 8.12402C22.4999 9.71546 21.6501 11.1085 20.3796 11.874" stroke="white" stroke-width="2.5" stroke-linecap="round" stroke-linejoin="round"/>
<path d="M2.49951 25.499V26.249H21.2495V25.499C21.2495 22.6988 21.2495 21.2986 20.7046 20.2291C20.2252 19.2883 19.4603 18.5233 18.5194 18.044C17.4499 17.499 16.0498 17.499 13.2495 17.499H10.4995C7.69926 17.499 6.29914 17.499 5.22956 18.044C4.28875 18.5233 3.52384 19.2883 3.04448 20.2291C2.49951 21.2986 2.49951 22.6988 2.49951 25.499Z" stroke="white" stroke-width="2.5" stroke-linecap="round" stroke-linejoin="round"/>
<path d="M27.4986 26.2499V25.4999C27.4986 22.6997 27.4986 21.2995 26.9537 20.23C26.4743 19.2892 25.7094 18.5243 24.7686 18.0449" stroke="white" stroke-width="2.5" stroke-linecap="round" stroke-linejoin="round"/>
</svg>
