<svg width="16" height="16" viewBox="0 0 16 16" fill="none" xmlns="http://www.w3.org/2000/svg">
<path d="M1.33301 4.00016C1.33301 3.63196 1.63148 3.3335 1.99967 3.3335H13.9997C14.3679 3.3335 14.6663 3.63196 14.6663 4.00016V10.6668C14.6663 11.035 14.3679 11.3335 13.9997 11.3335H1.99967C1.63148 11.3335 1.33301 11.035 1.33301 10.6668V4.00016Z" stroke="white" stroke-width="1.33333"/>
<path d="M4 6.33325H6" stroke="white" stroke-width="1.33333" stroke-linecap="round" stroke-linejoin="round"/>
<path d="M4 8.33325H5.33333" stroke="white" stroke-width="1.33333" stroke-linecap="round" stroke-linejoin="round"/>
<path d="M4.66699 13.3335V11.3335" stroke="white" stroke-width="1.33333" stroke-linecap="round" stroke-linejoin="round"/>
<path d="M11.333 13.3335V11.3335" stroke="white" stroke-width="1.33333" stroke-linecap="round" stroke-linejoin="round"/>
<path d="M10.3337 8.99984C11.2541 8.99984 12.0003 8.25364 12.0003 7.33317C12.0003 6.4127 11.2541 5.6665 10.3337 5.6665C9.41318 5.6665 8.66699 6.4127 8.66699 7.33317C8.66699 8.25364 9.41318 8.99984 10.3337 8.99984Z" stroke="white" stroke-width="1.33333"/>
</svg>
