<svg width="12" height="12" viewBox="0 0 12 12" fill="none" xmlns="http://www.w3.org/2000/svg">
<path d="M5.83333 2.91667C6.1555 2.91667 6.41667 3.17783 6.41667 3.5V5.25H8.16667C8.48883 5.25 8.75 5.51117 8.75 5.83333C8.75 6.1555 8.48883 6.41667 8.16667 6.41667H6.41667V8.16667C6.41667 8.48883 6.1555 8.75 5.83333 8.75C5.51117 8.75 5.25 8.48883 5.25 8.16667V6.41667H3.5C3.17783 6.41667 2.91667 6.1555 2.91667 5.83333C2.91667 5.51117 3.17783 5.25 3.5 5.25H5.25V3.5C5.25 3.17783 5.51117 2.91667 5.83333 2.91667Z" fill="#202939"/>
<path fill-rule="evenodd" clip-rule="evenodd" d="M10.2083 0C11.0137 0 11.6667 0.652918 11.6667 1.45833V10.2083C11.6667 11.0137 11.0137 11.6667 10.2083 11.6667H1.45833C0.652918 11.6667 0 11.0137 0 10.2083V1.45833C0 0.652918 0.652918 0 1.45833 0H10.2083ZM1.45833 1.16667C1.29725 1.16667 1.16667 1.29725 1.16667 1.45833V10.2083C1.16667 10.3694 1.29725 10.5 1.45833 10.5H10.2083C10.3694 10.5 10.5 10.3694 10.5 10.2083V1.45833C10.5 1.29725 10.3694 1.16667 10.2083 1.16667H1.45833Z" fill="#202939"/>
</svg>
