<svg width="13" height="13" viewBox="0 0 13 13" fill="none" xmlns="http://www.w3.org/2000/svg">
<path d="M6.48844 0C9.83866 0.000128133 12.5417 2.74951 12.5417 6.125C12.5417 9.50049 9.83866 12.2499 6.48844 12.25C4.9514 12.25 3.54784 11.6694 2.48145 10.7159C2.1724 10.4395 1.89132 10.1319 1.64347 9.79761C1.49864 9.60228 1.36489 9.39766 1.24357 9.18522C1.08385 8.90551 1.18097 8.5492 1.46061 8.3894C1.74032 8.22972 2.09664 8.32682 2.25643 8.60645C2.35472 8.77858 2.46325 8.9444 2.58057 9.10262C2.78134 9.37341 3.0089 9.62292 3.25903 9.8466C4.12116 10.6174 5.25106 11.0833 6.48844 11.0833C9.18007 11.0832 11.375 8.8705 11.375 6.125C11.375 3.3795 9.18007 1.16679 6.48844 1.16667C5.25106 1.16667 4.12116 1.6326 3.25903 2.4034C3.0089 2.62708 2.78134 2.87659 2.58057 3.14738C2.46325 3.3056 2.35472 3.47142 2.25643 3.64355C2.09664 3.92318 1.74032 4.02028 1.46061 3.8606C1.19851 3.71083 1.09647 3.38848 1.21623 3.11833L1.24357 3.06478L1.337 2.90698C1.43251 2.75074 1.53487 2.59887 1.64347 2.45239C1.89132 2.11813 2.1724 1.81046 2.48145 1.5341C3.54784 0.58059 4.95139 0 6.48844 0Z" fill="#202939"/>
<path d="M5.20215 3.74381C5.42995 3.51601 5.79921 3.51601 6.02702 3.74381L7.97184 5.68864C8.0911 5.79545 8.16667 5.95003 8.16667 6.12272C8.16724 6.27273 8.11024 6.42296 7.99577 6.53743L6.02702 8.50618L5.98259 8.54606C5.75347 8.73289 5.4157 8.71974 5.20215 8.50618C4.9886 8.29263 4.97544 7.95487 5.16227 7.72575L5.20215 7.68131L6.17741 6.70605H0.583333C0.261167 6.70605 0 6.44489 0 6.12272C0 5.80055 0.261167 5.53939 0.583333 5.53939H6.17285L5.20215 4.56868C4.97436 4.34089 4.97439 3.97162 5.20215 3.74381Z" fill="#202939"/>
</svg>
