<?xml version="1.0" encoding="UTF-8"?>
<svg width="31px" height="31px" viewBox="0 0 31 31" version="1.1" xmlns="http://www.w3.org/2000/svg" xmlns:xlink="http://www.w3.org/1999/xlink">
    <title>编组 34</title>
    <defs>
        <linearGradient x1="59.7680919%" y1="50%" x2="69.3000436%" y2="92.8363974%" id="linearGradient-1">
            <stop stop-color="#6861D1" offset="0%"></stop>
            <stop stop-color="#8A9FE3" offset="100%"></stop>
        </linearGradient>
        <linearGradient x1="35.1201227%" y1="3.46944695e-15%" x2="60.5452641%" y2="100%" id="linearGradient-2">
            <stop stop-color="#BEC5FF" offset="0%"></stop>
            <stop stop-color="#29283F" stop-opacity="0" offset="100%"></stop>
        </linearGradient>
        <rect id="path-3" x="0" y="0" width="30" height="30" rx="10"></rect>
        <filter x="-23.3%" y="-23.3%" width="146.7%" height="146.7%" filterUnits="objectBoundingBox" id="filter-4">
            <feGaussianBlur stdDeviation="5" in="SourceAlpha" result="shadowBlurInner1"></feGaussianBlur>
            <feOffset dx="0" dy="-4" in="shadowBlurInner1" result="shadowOffsetInner1"></feOffset>
            <feComposite in="shadowOffsetInner1" in2="SourceAlpha" operator="arithmetic" k2="-1" k3="1" result="shadowInnerInner1"></feComposite>
            <feColorMatrix values="0 0 0 0 0.670215814   0 0 0 0 0.660201075   0 0 0 0 0.890540082  0 0 0 0.200174825 0" type="matrix" in="shadowInnerInner1"></feColorMatrix>
        </filter>
        <linearGradient x1="-38.507562%" y1="50%" x2="158.625265%" y2="115.495791%" id="linearGradient-5">
            <stop stop-color="#EA2BFF" offset="0%"></stop>
            <stop stop-color="#01FFDF" offset="100%"></stop>
        </linearGradient>
    </defs>
    <g id="new" stroke="none" stroke-width="1" fill="none" fill-rule="evenodd">
        <g id="新建对象" transform="translate(-1148.000000, -1388.000000)">
            <g id="编组-12" transform="translate(1040.000000, 0.000000)">
                <g id="编组-33" transform="translate(47.615051, 94.000000)">
                    <g id="编组-40" transform="translate(0.000000, 1054.000000)">
                        <g id="编组-38" transform="translate(2.384949, 79.000000)">
                            <g id="编组-14" transform="translate(0.000000, 20.000000)">
                                <g id="编组-13" transform="translate(17.804348, 141.503758)">
                                    <g id="编组-34" transform="translate(40.521739, 0.000000)">
                                        <g id="路径">
                                            <use fill-opacity="0.8" fill="url(#linearGradient-1)" fill-rule="evenodd" xlink:href="#path-3"></use>
                                            <use fill="black" fill-opacity="1" filter="url(#filter-4)" xlink:href="#path-3"></use>
                                            <rect stroke="url(#linearGradient-2)" stroke-width="1" stroke-linejoin="square" x="0.5" y="0.5" width="29" height="29" rx="10"></rect>
                                        </g>
                                        <g id="删除-(5)" transform="translate(7.000000, 7.000000)">
                                            <path d="M13.5082929,4.79788643 L2.49170702,4.79788643 C2.4494349,4.79788643 2.40716277,4.80258333 2.36723909,4.80728023 C1.88580654,4.87538533 1.54997798,5.32159111 1.62043152,5.80302366 L2.96844267,15.2461471 C3.03185086,15.6782621 3.4029062,16 3.83971817,16 L12.1626302,16 C12.5994422,16 12.9704975,15.6782621 13.0339057,15.2461471 L14.3819169,5.80302366 C14.3889622,5.76309999 14.3913107,5.72082786 14.3913107,5.67855573 C14.3889622,5.19477473 13.9944224,4.79788643 13.5082929,4.79788643 L13.5082929,4.79788643 Z M6.24218404,14.403053 C6.22339643,14.4054014 6.20695727,14.4054014 6.18816966,14.4054014 C5.84764419,14.4054014 5.56113311,14.1470718 5.52825479,13.8065463 L4.84955231,6.99603701 C4.81902244,6.69778368 5.03742843,6.43006021 5.33568177,6.40187879 C5.35446938,6.39953034 5.37325699,6.39718189 5.38969615,6.39718189 C5.73022162,6.39718189 6.0167327,6.65551155 6.04961102,6.99603701 L6.7283135,13.8065463 C6.75884337,14.1071481 6.54043738,14.3725231 6.24218404,14.403053 Z M11.1363569,6.99603701 L10.4106854,13.8065463 C10.3731102,14.1470718 10.0865991,14.4054014 9.74607365,14.4054014 C9.72728604,14.4054014 9.70849843,14.4054014 9.68971082,14.403053 C9.39380593,14.3701747 9.17774839,14.1047997 9.21062672,13.8065463 L9.93629822,6.99603701 C9.971525,6.65786 10.2580361,6.39718189 10.5985615,6.39718189 C10.6173492,6.39718189 10.6361368,6.39953034 10.6549244,6.40187879 C10.9508293,6.43475711 11.1668868,6.70013213 11.1363569,6.99603701 L11.1363569,6.99603701 Z" id="形状" fill="url(#linearGradient-5)"></path>
                                            <path d="M13.5082929,4.79788643 L2.49170702,4.79788643 C2.4494349,4.79788643 2.40716277,4.80258333 2.36723909,4.80728023 C1.88580654,4.87538533 1.54997798,5.32159111 1.62043152,5.80302366 L2.96844267,15.2461471 C3.03185086,15.6782621 3.4029062,16 3.83971817,16 L12.1626302,16 C12.5994422,16 12.9704975,15.6782621 13.0339057,15.2461471 L14.3819169,5.80302366 C14.3889622,5.76309999 14.3913107,5.72082786 14.3913107,5.67855573 C14.3889622,5.19477473 13.9944224,4.79788643 13.5082929,4.79788643 L13.5082929,4.79788643 Z" id="形状" fill="url(#linearGradient-5)"></path>
                                            <path d="M6.24218404,14.403053 C6.22339643,14.4054014 6.20695727,14.4054014 6.18816966,14.4054014 C5.84764419,14.4054014 5.56113311,14.1470718 5.52825479,13.8065463 L4.84955231,6.99603701 C4.81902244,6.69778368 5.03742843,6.43006021 5.33568177,6.40187879 C5.35446938,6.39953034 5.37325699,6.39718189 5.38969615,6.39718189 C5.73022162,6.39718189 6.0167327,6.65551155 6.04961102,6.99603701 L6.7283135,13.8065463 C6.75884337,14.1071481 6.54043738,14.3725231 6.24218404,14.403053 Z" id="路径" fill="#D4D8FF" fill-rule="nonzero"></path>
                                            <path d="M11.1363569,6.99603701 L10.4106854,13.8065463 C10.3731102,14.1470718 10.0865991,14.4054014 9.74607365,14.4054014 C9.72728604,14.4054014 9.70849843,14.4054014 9.68971082,14.403053 C9.39380593,14.3701747 9.17774839,14.1047997 9.21062672,13.8065463 L9.93629822,6.99603701 C9.971525,6.65786 10.2580361,6.39718189 10.5985615,6.39718189 C10.6173492,6.39718189 10.6361368,6.39953034 10.6549244,6.40187879 C10.9508293,6.43475711 11.1668868,6.70013213 11.1363569,6.99603701 L11.1363569,6.99603701 Z" id="路径" fill="#D4D8FF" fill-rule="nonzero"></path>
                                            <path d="M7.19917801,0.214264971 C7.69400175,-0.0714216571 8.30364975,-0.0714216571 8.79847349,0.214264971 C9.29329724,0.4999516 9.59812121,1.02792226 9.59812121,1.59929551 L9.59812121,1.59929551 L14.8022897,1.59929551 C15.464553,1.59929551 16.0023484,2.1370909 16.0023484,2.79935422 C16.0023484,3.46161753 15.464553,3.99941292 14.8022897,3.99941292 L1.20005871,3.99941292 C0.53779539,3.99941292 0,3.46161753 0,2.79935422 C0,2.1370909 0.535446938,1.59929551 1.20005871,1.59929551 L6.39953029,1.59929551 C6.39953029,1.02792226 6.70435426,0.4999516 7.19917801,0.214264971 Z" id="形状结合" fill="#D4D8FF" fill-rule="nonzero"></path>
                                        </g>
                                    </g>
                                </g>
                            </g>
                        </g>
                    </g>
                </g>
            </g>
        </g>
    </g>
</svg>