<?xml version="1.0" encoding="UTF-8"?>
<svg width="31px" height="31px" viewBox="0 0 31 31" version="1.1" xmlns="http://www.w3.org/2000/svg" xmlns:xlink="http://www.w3.org/1999/xlink">
    <title>编组 34</title>
    <defs>
        <linearGradient x1="59.7680919%" y1="50%" x2="69.3000436%" y2="92.8363974%" id="linearGradient-1">
            <stop stop-color="#6861D1" offset="0%"></stop>
            <stop stop-color="#8A9FE3" offset="100%"></stop>
        </linearGradient>
        <linearGradient x1="35.1201227%" y1="3.46944695e-15%" x2="60.5452641%" y2="100%" id="linearGradient-2">
            <stop stop-color="#BEC5FF" offset="0%"></stop>
            <stop stop-color="#29283F" stop-opacity="0" offset="100%"></stop>
        </linearGradient>
        <rect id="path-3" x="0" y="0" width="30" height="30" rx="10"></rect>
        <filter x="-23.3%" y="-23.3%" width="146.7%" height="146.7%" filterUnits="objectBoundingBox" id="filter-4">
            <feGaussianBlur stdDeviation="5" in="SourceAlpha" result="shadowBlurInner1"></feGaussianBlur>
            <feOffset dx="0" dy="-4" in="shadowBlurInner1" result="shadowOffsetInner1"></feOffset>
            <feComposite in="shadowOffsetInner1" in2="SourceAlpha" operator="arithmetic" k2="-1" k3="1" result="shadowInnerInner1"></feComposite>
            <feColorMatrix values="0 0 0 0 0.670215814   0 0 0 0 0.660201075   0 0 0 0 0.890540082  0 0 0 0.200174825 0" type="matrix" in="shadowInnerInner1"></feColorMatrix>
        </filter>
        <linearGradient x1="-38.507562%" y1="50%" x2="158.625265%" y2="135.249155%" id="linearGradient-5">
            <stop stop-color="#EA2BFF" offset="0%"></stop>
            <stop stop-color="#01FFDF" offset="100%"></stop>
        </linearGradient>
        <linearGradient x1="-38.507562%" y1="50%" x2="158.625265%" y2="135.249155%" id="linearGradient-6">
            <stop stop-color="#EA2BFF" offset="0%"></stop>
            <stop stop-color="#01FFDF" offset="100%"></stop>
        </linearGradient>
    </defs>
    <g id="new" stroke="none" stroke-width="1" fill="none" fill-rule="evenodd">
        <g id="新建对象" transform="translate(-1148.000000, -1318.000000)">
            <g id="编组-12" transform="translate(1040.000000, 0.000000)">
                <g id="编组-33" transform="translate(47.615051, 94.000000)">
                    <g id="编组-40" transform="translate(0.000000, 1054.000000)">
                        <g id="编组-38" transform="translate(2.384949, 79.000000)">
                            <g id="编组-14" transform="translate(0.000000, 20.000000)">
                                <g id="编组-12" transform="translate(17.804348, 71.503758)">
                                    <g id="编组-34" transform="translate(40.521739, 0.000000)">
                                        <g id="路径">
                                            <use fill-opacity="0.8" fill="url(#linearGradient-1)" fill-rule="evenodd" xlink:href="#path-3"></use>
                                            <use fill="black" fill-opacity="1" filter="url(#filter-4)" xlink:href="#path-3"></use>
                                            <rect stroke="url(#linearGradient-2)" stroke-width="1" stroke-linejoin="square" x="0.5" y="0.5" width="29" height="29" rx="10"></rect>
                                        </g>
                                        <g id="立项创建项目" transform="translate(7.000000, 7.000000)">
                                            <path d="M2.08733974,0 L13.7764423,0 C15.1680021,0 15.8637821,0.695779915 15.8637821,2.08733974 L15.8637821,14.1939103 C15.8637821,15.5854701 15.1680021,16.28125 13.7764423,16.28125 L2.08733974,16.28125 C0.695779915,16.28125 0,15.5854701 0,14.1939103 L0,2.08733974 C0,0.695779915 0.695779915,0 2.08733974,0 Z" id="路径" fill="#E4EBFF" fill-rule="nonzero"></path>
                                            <path d="M2.08733974,1.25240385 C1.62621738,1.25240385 1.25240385,1.62621738 1.25240385,2.08733974 L1.25240385,14.1939103 C1.25240385,14.6550326 1.62621738,15.0288462 2.08733974,15.0288462 L13.7764423,15.0288462 C14.2375647,15.0288462 14.6113782,14.6550326 14.6113782,14.1939103 L14.6113782,2.08733974 C14.6113782,1.62621738 14.2375647,1.25240385 13.7764423,1.25240385 L2.08733974,1.25240385 M2.08733974,0 L13.7764423,0 C14.9292482,0 15.8637821,0.934533835 15.8637821,2.08733974 L15.8637821,14.1939103 C15.8637821,14.7475072 15.6438665,15.2784302 15.2524144,15.6698823 C14.8609623,16.0613345 14.3300392,16.28125 13.7764423,16.28125 L2.08733974,16.28125 C1.53374282,16.28125 1.00281979,16.0613345 0.611367656,15.6698823 C0.21991552,15.2784302 0,14.7475072 0,14.1939103 L0,2.08733974 C0,0.934533835 0.934533835,0 2.08733974,0 L2.08733974,0 Z" id="形状" fill="#D4D8FF" fill-rule="nonzero"></path>
                                            <path d="M5.31664242,10.5134147 L13.4114637,2.41859333 C13.60826,2.22179706 13.8050563,2.22179706 14.0018526,2.41859333 L16.3970601,4.81380084 C16.5938563,5.01059711 16.5938563,5.20739339 16.3970601,5.40418968 L8.30223877,13.499011 C8.1054425,13.6958073 7.90864622,13.6958073 7.71184993,13.499011 L5.31664242,11.1038035 C5.11984615,10.9070072 5.11984615,10.710211 5.31664242,10.5134147 L5.31664242,10.5134147 Z" id="路径" fill="url(#linearGradient-5)"></path>
                                            <path d="M4.31286138,14.5959319 C4.28733417,14.5990836 4.26177905,14.5902939 4.24359153,14.5721064 C4.22540401,14.5539189 4.21661427,14.5283637 4.21976603,14.5028365 L4.59381731,11.3864383 C4.59756964,11.3546724 4.61914048,11.3278423 4.64935904,11.3173547 C4.67957761,11.306867 4.7131319,11.3145655 4.73575641,11.3371771 L7.47852083,14.0799415 C7.50113241,14.102566 7.50883088,14.1361203 7.49834326,14.1663389 C7.48785564,14.1965574 7.46102551,14.2181283 7.42925962,14.2218806 L4.31286138,14.5959319 Z" id="路径" fill="url(#linearGradient-6)"></path>
                                            <path d="M5.38491907,2.5828742 C5.96132202,2.5828742 6.42858894,3.05014112 6.42858894,3.62654407 L6.42807372,4.7748742 L7.51442308,4.77583333 C8.09082603,4.77583333 8.55809295,5.24310025 8.55809295,5.81950321 C8.55809295,6.39590616 8.09082603,6.86317308 7.51442308,6.86317308 L6.42807372,6.8628742 L6.42858894,7.80122356 C6.42858894,8.37762651 5.96132202,8.84489343 5.38491907,8.84489343 C4.80851612,8.84489343 4.3412492,8.37762651 4.3412492,7.80122356 L4.34107372,6.8628742 L3.33974359,6.86317308 C2.76334064,6.86317308 2.29607372,6.39590616 2.29607372,5.81950321 C2.29607372,5.24310025 2.76334064,4.77583333 3.33974359,4.77583333 L4.34107372,4.7748742 L4.3412492,3.62654407 C4.3412492,3.05014112 4.80851612,2.5828742 5.38491907,2.5828742 Z" id="形状结合" fill="url(#linearGradient-6)"></path>
                                        </g>
                                    </g>
                                </g>
                            </g>
                        </g>
                    </g>
                </g>
            </g>
        </g>
    </g>
</svg>