<?xml version="1.0" encoding="UTF-8"?>
<svg width="24px" height="24px" viewBox="0 0 24 24" version="1.1" xmlns="http://www.w3.org/2000/svg" xmlns:xlink="http://www.w3.org/1999/xlink">
    <title>路径</title>
    <defs>
        <linearGradient x1="50%" y1="50%" x2="50%" y2="100%" id="linearGradient-1">
            <stop stop-color="#4C4EB5" offset="0%"></stop>
            <stop stop-color="#958AE3" offset="100%"></stop>
        </linearGradient>
        <linearGradient x1="50%" y1="0%" x2="50%" y2="100%" id="linearGradient-2">
            <stop stop-color="#C1CAFF" offset="0%"></stop>
            <stop stop-color="#5A53FF" stop-opacity="0" offset="100%"></stop>
        </linearGradient>
        <rect id="path-3" x="0" y="0" width="24" height="24" rx="12"></rect>
        <filter x="-29.2%" y="-29.2%" width="158.3%" height="158.3%" filterUnits="objectBoundingBox" id="filter-5">
            <feGaussianBlur stdDeviation="5" in="SourceAlpha" result="shadowBlurInner1"></feGaussianBlur>
            <feOffset dx="0" dy="-4" in="shadowBlurInner1" result="shadowOffsetInner1"></feOffset>
            <feComposite in="shadowOffsetInner1" in2="SourceAlpha" operator="arithmetic" k2="-1" k3="1" result="shadowInnerInner1"></feComposite>
            <feColorMatrix values="0 0 0 0 0.670215814   0 0 0 0 0.660201075   0 0 0 0 0.890540082  0 0 0 0.200174825 0" type="matrix" in="shadowInnerInner1"></feColorMatrix>
        </filter>
        <filter x="-99.6%" y="-112.5%" width="299.2%" height="325.0%" filterUnits="objectBoundingBox" id="filter-6">
            <feGaussianBlur stdDeviation="6" in="SourceGraphic"></feGaussianBlur>
        </filter>
        <path d="M5.47407813,5.68742813 C7.04469427,5.68742813 8.31779219,4.41418731 8.31779219,2.84371407 C8.31779219,1.27324082 7.04455137,0 5.47407813,0 C3.90360488,0 2.63036406,1.27324082 2.63036406,2.84371407 C2.63036406,4.41418731 3.90346198,5.68742813 5.47407813,5.68742813 Z M4.10995278,1.47944582 C4.76073362,0.828657001 5.78060168,0.728202132 6.54584713,1.23951532 C7.31109259,1.75082851 7.60858426,2.73150212 7.25638833,3.58179608 C6.9041924,4.43209004 6.00040021,4.91518599 5.09773428,4.73564211 C4.19506835,4.55609822 3.54491823,3.7639199 3.54491823,2.84357117 C3.54352886,2.33165044 3.74698801,1.84044631 4.10995278,1.47944582 L4.10995278,1.47944582 Z M9.59860672,6.3669186 C9.42146092,6.36693921 9.24461835,6.38156456 9.06987597,6.41064607 C9.03964084,6.38394441 9.00600557,6.36136072 8.96984582,6.34348297 C8.9532694,6.33533766 8.93655008,6.32719235 8.91968785,6.31918993 C8.77680704,6.25155754 8.62906419,6.194715 8.47769752,6.14913869 C8.35278328,6.11162455 8.22563806,6.08198596 8.09701138,6.06039766 C7.92766899,6.03206067 7.75626815,6.0178134 7.58457124,6.0178134 L6.94337803,6.0178134 C6.7762168,6.01803174 6.61663472,6.08757725 6.5026738,6.20987128 L5.44907059,7.342927 L4.40246949,6.21115738 C4.2884724,6.08808323 4.12837944,6.01802961 3.96062206,6.0178134 L3.31571344,6.0178134 C2.42658837,6.0178134 1.59047927,6.39178324 0.961432575,7.07098791 C0.341388588,7.74047537 0,8.62488473 0,9.56145267 L0,10.3152512 C0,11.4178692 0.845969209,12.3148538 1.8862827,12.3148538 L7.74933518,12.3158541 C7.80300501,12.3156464 7.85621732,12.3059714 7.9065254,12.2872741 C8.41384921,12.6037179 8.99996805,12.771046 9.59789222,12.7701376 C11.3664252,12.7701376 12.8,11.336559 12.8,9.56802608 C12.8,7.79949315 11.3671397,6.3669186 9.59860672,6.3669186 Z M0.914561308,10.3152512 L0.914561308,9.56145267 C0.914561308,8.111873 1.99174305,6.93208891 3.31528474,6.93208891 L3.82329497,6.93208891 L5.00622286,8.21176024 C5.12005219,8.33454909 5.27977923,8.40452672 5.44721289,8.40496132 L5.44792739,8.40496132 C5.61508861,8.40474298 5.7746707,8.33519747 5.88863162,8.21290344 L7.07899032,6.93208891 L7.58371384,6.93208891 C7.64558963,6.93208891 7.70803702,6.93480401 7.76948411,6.94009132 C7.07166078,7.42555419 6.59548915,8.16855019 6.44589301,9.00536116 C6.29629686,9.84217212 6.48555264,10.7041261 6.97195807,11.4012928 L1.88471079,11.4004354 C1.35012113,11.4012928 0.914561308,10.9140031 0.914561308,10.3152512 L0.914561308,10.3152512 Z M11.3577082,11.3275563 C10.4678808,12.217215 9.05392151,12.3025359 8.06357273,11.5263305 C8.04653676,11.5101895 8.02828722,11.4953796 8.00898485,11.4820314 C7.9505863,11.4333501 7.89414072,11.3818107 7.83964811,11.3274134 C7.23120568,10.7176098 6.9812123,9.8366157 7.17868241,8.99812411 C7.37615252,8.15963251 7.99302608,7.48279108 8.8096547,7.20860081 C8.86796271,7.20301393 8.92466446,7.18632838 8.97670503,7.15944314 C9.17991764,7.10748083 9.38885587,7.08126753 9.59860672,7.08141897 C10.6048106,7.08134041 11.5119723,7.68742728 11.8970405,8.61703399 C12.2821088,9.5466407 12.0692414,10.6166739 11.3577082,11.3281279 L11.3577082,11.3275563 Z" id="path-7"></path>
        <filter x="-78.5%" y="-63.0%" width="257.0%" height="257.4%" filterUnits="objectBoundingBox" id="filter-8">
            <feMorphology radius="0.05" operator="dilate" in="SourceAlpha" result="shadowSpreadOuter1"></feMorphology>
            <feOffset dx="0" dy="2" in="shadowSpreadOuter1" result="shadowOffsetOuter1"></feOffset>
            <feGaussianBlur stdDeviation="3" in="shadowOffsetOuter1" result="shadowBlurOuter1"></feGaussianBlur>
            <feComposite in="shadowBlurOuter1" in2="SourceAlpha" operator="out" result="shadowBlurOuter1"></feComposite>
            <feColorMatrix values="0 0 0 0 0.240815753   0 0 0 0 0.207236554   0 0 0 0 0.788156703  0 0 0 0.660893794 0" type="matrix" in="shadowBlurOuter1"></feColorMatrix>
        </filter>
        <path d="M8.61845422,7.85736773 L9.12746475,8.01770176 C9.02904532,8.27585966 8.91489211,8.52774119 8.78564746,8.77192904 L8.78564746,8.77192904 L8.78564746,11.3801436 L8.2543445,11.3801436 L8.2543445,9.58874661 C8.20232883,9.6556239 8.14659775,9.71878579 8.09458207,9.77451687 C8.0462818,9.64076228 7.901381,9.33981445 7.81221127,9.20605986 C8.13173613,8.8828196 8.44011477,8.37009367 8.61845422,7.85736773 L8.61845422,7.85736773 Z M10.7621002,10.3364005 C10.9961707,10.5667556 11.2451029,10.8751342 11.3751421,11.0869124 L11.3751421,11.0869124 L10.9218626,11.3727128 C10.8104005,11.1535038 10.5540375,10.815402 10.3311132,10.5739006 L10.3311132,10.5739006 Z M9.53230103,10.3438313 L10.0375962,10.5033079 C9.84811048,10.8302636 9.53973184,11.1609347 9.27222266,11.3652819 C9.17562212,11.2686814 8.97127483,11.1014882 8.85238186,11.0271801 C9.11989104,10.8637022 9.38368482,10.5999085 9.53230103,10.3438313 L9.53230103,10.3438313 Z M10.907001,7.86922845 L10.907001,8.54157391 L11.3602804,8.54157391 L11.3602804,9.05772945 L10.907001,9.05772945 L10.907001,9.70078037 L11.3862883,9.70078037 L11.3862883,10.2283679 L8.96027151,10.2283679 L8.96027151,9.70078037 L9.42083887,9.70078037 L9.42083887,9.05772945 L9.04929834,9.05772945 L9.04929834,8.54171681 L9.42083887,8.54171681 L9.42083887,7.87665926 L9.94842642,7.87665926 L9.94842642,8.54171681 L10.3794134,8.54171681 L10.3794134,7.86922845 L10.907001,7.86922845 Z M10.3794134,9.05772945 L9.94842642,9.05772945 L9.94842642,9.70078037 L10.3794134,9.70078037 L10.3794134,9.05772945 Z" id="path-9"></path>
        <filter x="-279.8%" y="-227.1%" width="659.6%" height="667.7%" filterUnits="objectBoundingBox" id="filter-10">
            <feOffset dx="0" dy="2" in="SourceAlpha" result="shadowOffsetOuter1"></feOffset>
            <feGaussianBlur stdDeviation="3" in="shadowOffsetOuter1" result="shadowBlurOuter1"></feGaussianBlur>
            <feColorMatrix values="0 0 0 0 0.240815753   0 0 0 0 0.207236554   0 0 0 0 0.788156703  0 0 0 0.660893794 0" type="matrix" in="shadowBlurOuter1"></feColorMatrix>
        </filter>
    </defs>
    <g id="new" stroke="none" stroke-width="1" fill="none" fill-rule="evenodd">
        <g id="新建对象" transform="translate(-1114.000000, -184.000000)">
            <g id="编组-12" transform="translate(1040.000000, 0.000000)">
                <g id="编组-33" transform="translate(47.615051, 94.000000)">
                    <g id="编组-13" transform="translate(0.953979, 0.000000)">
                        <g id="编组-37" transform="translate(1.430969, 46.000000)">
                            <g id="编组-30" transform="translate(0.000000, 34.000000)">
                                <g id="路径" transform="translate(24.000000, 10.000000)">
                                    <mask id="mask-4" fill="white">
                                        <use xlink:href="#path-3"></use>
                                    </mask>
                                    <g id="蒙版">
                                        <use fill="url(#linearGradient-1)" fill-rule="evenodd" xlink:href="#path-3"></use>
                                        <use fill="black" fill-opacity="1" filter="url(#filter-5)" xlink:href="#path-3"></use>
                                        <rect stroke="url(#linearGradient-2)" stroke-width="1" stroke-linejoin="square" x="0.5" y="0.5" width="23" height="23" rx="11.5"></rect>
                                    </g>
                                    <path d="M-3.1256888,6.58564796 C-3.51122742,2.2268162 0.208746993,-1.88890383 5.18310661,-2.60707003 C10.1574662,-3.32523623 14.5025223,-0.37389366 14.8880609,3.9849381 C15.2735995,8.34376985 11.5536251,12.4594899 6.57926546,13.1776561 C1.60490584,13.8958223 -2.74015018,10.9444797 -3.1256888,6.58564796 L-3.1256888,6.58564796 Z" fill="#A457EB" fill-rule="nonzero" filter="url(#filter-6)" mask="url(#mask-4)"></path>
                                    <g id="供应商管理" mask="url(#mask-4)">
                                        <g transform="translate(6.400000, 5.600000)">
                                            <g id="形状" stroke-dasharray="0,0">
                                                <use fill="black" fill-opacity="1" filter="url(#filter-8)" xlink:href="#path-7"></use>
                                                <use stroke="#FFFFFF" stroke-width="0.1" fill="#FFFFFF" fill-rule="evenodd" xlink:href="#path-7"></use>
                                            </g>
                                            <g id="形状结合">
                                                <use fill="black" fill-opacity="1" filter="url(#filter-10)" xlink:href="#path-9"></use>
                                                <use fill="#FFFFFF" fill-rule="evenodd" xlink:href="#path-9"></use>
                                            </g>
                                        </g>
                                    </g>
                                </g>
                            </g>
                        </g>
                    </g>
                </g>
            </g>
        </g>
    </g>
</svg>