<svg width="10" height="14" viewBox="0 0 10 14" fill="none" xmlns="http://www.w3.org/2000/svg">
    <path opacity="0.15" d="M1.5805 13.6512L8.77659 7.56257C8.96298 7.40482 9.06489 7.169 9.05205 6.92515C9.0392 6.68131 8.91309 6.45749 8.71116 6.32019L1.55706 0.345776C1.34314 0.164213 1.04827 0.111315 0.784574 0.207194C0.520875 0.303072 0.328845 0.532999 0.281488 0.809562C0.234132 1.08613 0.338723 1.36684 0.5555 1.54499L7.05491 6.97253L0.570539 12.4583C0.357435 12.6386 0.256713 12.9189 0.306312 13.1936C0.355911 13.4683 0.548297 13.6957 0.810999 13.7901C1.0737 13.8845 1.36681 13.8316 1.57991 13.6512H1.5805Z" fill="black"/>
</svg>
