<svg width="20" height="20" viewBox="0 0 20 20" fill="none" xmlns="http://www.w3.org/2000/svg">
<path opacity="0.25" d="M4.58333 7.08325H1.25V16.6666C1.25 16.8876 1.3378 17.0996 1.49408 17.2558C1.65036 17.4121 1.86232 17.4999 2.08333 17.4999H4.58333V7.08325ZM5.83333 7.08325H16.25V8.20645C15.0513 7.79684 13.747 7.82021 12.5638 8.27251C11.3805 8.72481 10.3932 9.57743 9.77339 10.6822C9.15357 11.7869 8.94048 13.0739 9.17113 14.3195C9.40179 15.565 10.0616 16.6904 11.0359 17.4999H5.83333V7.08325Z" fill="#3261CE"/>
<path d="M2.08333 2.5C1.86232 2.5 1.65036 2.5878 1.49408 2.74408C1.3378 2.90036 1.25 3.11232 1.25 3.33333V5.83333H16.25V3.33333C16.25 3.11232 16.1622 2.90036 16.0059 2.74408C15.8496 2.5878 15.6377 2.5 15.4167 2.5H2.08333ZM14.5833 9.16667C13.7592 9.16667 12.9537 9.41104 12.2685 9.86888C11.5833 10.3267 11.0492 10.9775 10.7338 11.7388C10.4185 12.5002 10.336 13.338 10.4967 14.1462C10.6575 14.9545 11.0543 15.6969 11.6371 16.2796C12.2198 16.8623 12.9622 17.2592 13.7705 17.4199C14.5787 17.5807 15.4165 17.4982 16.1778 17.1828C16.9392 16.8675 17.59 16.3334 18.0478 15.6482C18.5056 14.963 18.75 14.1574 18.75 13.3333C18.75 12.2283 18.311 11.1685 17.5296 10.3871C16.7482 9.60565 15.6884 9.16667 14.5833 9.16667ZM13.9323 15.4971L12.0441 13.483L12.9559 12.6281L13.9323 13.6695L16.2107 11.2392L17.1226 12.0941L13.9323 15.4971Z" fill="#3261CE"/>
<path d="M2.08333 2.5C1.86232 2.5 1.65036 2.5878 1.49408 2.74408C1.3378 2.90036 1.25 3.11232 1.25 3.33333V5.83333H16.25V3.33333C16.25 3.11232 16.1622 2.90036 16.0059 2.74408C15.8496 2.5878 15.6377 2.5 15.4167 2.5H2.08333ZM14.5833 9.16667C13.7592 9.16667 12.9537 9.41104 12.2685 9.86888C11.5833 10.3267 11.0492 10.9775 10.7338 11.7388C10.4185 12.5002 10.336 13.338 10.4967 14.1462C10.6575 14.9545 11.0543 15.6969 11.6371 16.2796C12.2198 16.8623 12.9622 17.2592 13.7705 17.4199C14.5787 17.5807 15.4165 17.4982 16.1778 17.1828C16.9392 16.8675 17.59 16.3334 18.0478 15.6482C18.5056 14.963 18.75 14.1574 18.75 13.3333C18.75 12.2283 18.311 11.1685 17.5296 10.3871C16.7482 9.60565 15.6884 9.16667 14.5833 9.16667ZM13.9323 15.4971L12.0441 13.483L12.9559 12.6281L13.9323 13.6695L16.2107 11.2392L17.1226 12.0941L13.9323 15.4971Z" fill="#3261CE"/>
</svg>
