<svg width="20" height="20" viewBox="0 0 20 20" fill="none" xmlns="http://www.w3.org/2000/svg">
<path opacity="0.25" fill-rule="evenodd" clip-rule="evenodd" d="M3.75 5L4.5345 17.552C4.54773 17.7636 4.64111 17.9622 4.79562 18.1073C4.95013 18.2525 5.15416 18.3333 5.36617 18.3333H14.6338C14.8458 18.3333 15.0498 18.2525 15.2043 18.1073C15.3589 17.9622 15.4522 17.7636 15.4655 17.552L16.25 5H3.75ZM9.16667 9.16667V14.1667H7.5V9.16667H9.16667ZM12.5 9.16667V14.1667H10.8333V9.16667H12.5Z" fill="#3261CE"/>
<path d="M17.5 3.33341C17.5 3.1124 17.4122 2.90044 17.2559 2.74416C17.0996 2.58788 16.8877 2.50008 16.6667 2.50008H12.5L11.6667 1.66675H8.33333L7.5 2.50008H3.33333C3.11232 2.50008 2.90036 2.58788 2.74408 2.74416C2.5878 2.90044 2.5 3.1124 2.5 3.33341V5.00008H17.5M9.16667 9.16675V14.1667H7.5V9.16675H9.16667ZM12.5 14.1667V9.16675H10.8333V14.1667H12.5Z" fill="#3261CE"/>
<path d="M17.5 3.33341C17.5 3.1124 17.4122 2.90044 17.2559 2.74416C17.0996 2.58788 16.8877 2.50008 16.6667 2.50008H12.5L11.6667 1.66675H8.33333L7.5 2.50008H3.33333C3.11232 2.50008 2.90036 2.58788 2.74408 2.74416C2.5878 2.90044 2.5 3.1124 2.5 3.33341V5.00008H17.5M9.16667 9.16675V14.1667H7.5V9.16675H9.16667ZM12.5 14.1667V9.16675H10.8333V14.1667H12.5Z" fill="#3261CE"/>
</svg>
