<svg width="20" height="20" viewBox="0 0 20 20" fill="none" xmlns="http://www.w3.org/2000/svg">
<path opacity="0.25" d="M2.84113 18.014C2.77867 18.0071 2.71836 17.9871 2.66407 17.9555C2.60978 17.9239 2.56271 17.8812 2.52588 17.8303C2.48906 17.7794 2.46329 17.7213 2.45025 17.6598C2.4372 17.5984 2.43716 17.5349 2.45013 17.4734L3.48139 14.166L13.2388 3.70459L15.9978 6.27792L6.24191 16.7393L2.97594 18.0143L2.84113 18.014Z" fill="#3261CE"/>
<path d="M13.2393 3.70465L14.439 2.41242C14.5594 2.28339 14.704 2.17936 14.8645 2.10626C15.0251 2.03315 15.1985 1.99242 15.3749 1.98638C15.5512 1.98035 15.727 2.00912 15.8922 2.07107C16.0574 2.13302 16.2087 2.22693 16.3376 2.34742L17.1345 3.08858C17.3932 3.33132 17.5455 3.66645 17.5583 4.02098C17.5711 4.37551 17.4433 4.72073 17.2027 4.98147L15.9983 6.2779L13.2393 3.70465Z" fill="#3261CE"/>
<path d="M13.2393 3.70465L14.439 2.41242C14.5594 2.28339 14.704 2.17936 14.8645 2.10626C15.0251 2.03315 15.1985 1.99242 15.3749 1.98638C15.5512 1.98035 15.727 2.00912 15.8922 2.07107C16.0574 2.13302 16.2087 2.22693 16.3376 2.34742L17.1345 3.08858C17.3932 3.33132 17.5455 3.66645 17.5583 4.02098C17.5711 4.37551 17.4433 4.72073 17.2027 4.98147L15.9983 6.2779L13.2393 3.70465Z" fill="#3261CE"/>
</svg>
