<svg xmlns="http://www.w3.org/2000/svg" width="48" height="48" viewBox="0 0 48 48" fill="none">
    <path opacity="0.55" d="M30.2224 26.8152C30.2224 28.4656 29.5668 30.0483 28.3999 31.2152C27.2329 32.3822 25.6502 33.0378 23.9999 33.0378C22.3496 33.0378 20.7669 32.3822 19.5999 31.2152C18.433 30.0483 17.7774 28.4656 17.7774 26.8152H4.08789L11.1815 17.357C11.2974 17.2025 11.4478 17.077 11.6206 16.9906C11.7934 16.9042 11.9839 16.8592 12.1771 16.8592H35.8227C36.0159 16.8592 36.2064 16.9042 36.3792 16.9906C36.552 17.077 36.7024 17.2025 36.8183 17.357L43.9119 26.8152H30.2224ZM26.7931 10.8411H22.6115V4.23828H26.7931V10.8411Z" fill="#4D5E7D"/>
    <path fill-rule="evenodd" clip-rule="evenodd" d="M37.68 9.09589L34.724 5.98389L30.54 10.3839L33.5 13.4959L37.68 9.09589Z" fill="#4D5E7D"/>
    <path opacity="0.25" d="M30.2224 26.8153C30.2224 28.4656 29.5668 30.0484 28.3999 31.2153C27.2329 32.3823 25.6502 33.0378 23.9999 33.0378C22.3496 33.0378 20.7669 32.3823 19.5999 31.2153C18.433 30.0484 17.7774 28.4656 17.7774 26.8153H4.08789V41.7494C4.08788 42.0762 4.15225 42.3999 4.27734 42.7019C4.40242 43.0039 4.58576 43.2783 4.81689 43.5094C5.04802 43.7405 5.32242 43.9239 5.62441 44.0489C5.9264 44.174 6.25006 44.2384 6.57693 44.2384H41.423C41.7499 44.2384 42.0735 44.174 42.3755 44.0489C42.6775 43.9239 42.9519 43.7405 43.183 43.5094C43.4142 43.2783 43.5975 43.0039 43.7226 42.7019C43.8477 42.3999 43.9121 42.0762 43.912 41.7494V26.8153H30.2224ZM18.8637 10.3851L14.6823 5.9834L11.7255 9.0958L15.9067 13.4975L18.8637 10.3851Z" fill="#4D5E7D"/>
</svg>
