<svg width="12" height="12" viewBox="0 0 12 12" fill="none" xmlns="http://www.w3.org/2000/svg">
<path opacity="0.25" fill-rule="evenodd" clip-rule="evenodd" d="M1.5 3.25C1.36739 3.25 1.24021 3.30268 1.14645 3.39645C1.05268 3.49021 1 3.61739 1 3.75V8.25C1 8.38261 1.05268 8.50979 1.14645 8.60355C1.24021 8.69732 1.36739 8.75 1.5 8.75H10.5C10.6326 8.75 10.7598 8.69732 10.8536 8.60355C10.9473 8.50979 11 8.38261 11 8.25V3.75C11 3.61739 10.9473 3.49021 10.8536 3.39645C10.7598 3.30268 10.6326 3.25 10.5 3.25H1.5ZM6.86728 7.49538H4.63485V7.012L5.66318 5.93093C5.86183 5.74954 5.99539 5.50791 6.0433 5.2432C6.05109 5.13114 6.01921 5.01991 5.95323 4.929C5.92072 4.89232 5.88027 4.86356 5.83495 4.8449C5.78964 4.82625 5.74066 4.81819 5.69175 4.82135C5.6375 4.82067 5.58395 4.83359 5.53597 4.85891C5.488 4.88424 5.44712 4.92118 5.41708 4.96635C5.34386 5.07107 5.30684 5.19683 5.31163 5.32452H4.569C4.56754 5.13356 4.61845 4.94585 4.7162 4.7818C4.81326 4.61583 4.95483 4.48035 5.1249 4.39067C5.30483 4.29553 5.5058 4.24716 5.70932 4.25C5.99536 4.23113 6.2786 4.31618 6.50693 4.4895C6.60262 4.57552 6.67763 4.68206 6.72633 4.80116C6.77504 4.92026 6.79618 5.04883 6.78818 5.17725C6.78811 5.30361 6.76426 5.42883 6.71788 5.54637C6.66181 5.6809 6.58791 5.80729 6.49815 5.92212C6.35074 6.1073 6.19147 6.28272 6.02133 6.44727L5.60825 6.92407H6.86725L6.86728 7.49538ZM8.447 5.586H8.09758V6.1375H8.45792C8.57772 6.13045 8.69613 6.16628 8.79192 6.23857C8.83616 6.28322 8.86994 6.33712 8.89084 6.39639C8.91173 6.45566 8.91923 6.51883 8.91277 6.58135C8.91429 6.63346 8.90469 6.68529 8.88461 6.7334C8.86453 6.78151 8.83443 6.82478 8.79632 6.86035C8.71015 6.93523 8.59833 6.97381 8.48432 6.96802C8.37669 6.97101 8.27203 6.93246 8.19207 6.86035C8.15492 6.82908 8.12506 6.79006 8.10456 6.74604C8.08406 6.70202 8.07343 6.65406 8.0734 6.6055H7.32853C7.32597 6.77676 7.37413 6.94495 7.46695 7.0889C7.56756 7.23643 7.70875 7.35167 7.87345 7.42068C8.05784 7.50065 8.25695 7.54107 8.45792 7.53933C8.76728 7.55411 9.07249 7.46347 9.32365 7.28225C9.42953 7.20278 9.51475 7.09901 9.57211 6.9797C9.62946 6.86038 9.65728 6.72902 9.65322 6.5967C9.65897 6.43017 9.60783 6.26665 9.50822 6.13308C9.40506 6.00249 9.2661 5.90476 9.10832 5.85183C9.25493 5.78751 9.38163 5.68509 9.47524 5.5552C9.55728 5.44121 9.60182 5.30452 9.60269 5.16408C9.6083 5.0362 9.58355 4.9088 9.53046 4.79232C9.47738 4.67584 9.39746 4.57359 9.29726 4.49393C9.05365 4.31894 8.75737 4.23283 8.45792 4.25C8.26894 4.24788 8.08167 4.28606 7.9086 4.362C7.75331 4.42711 7.61881 4.53349 7.5197 4.66962C7.42609 4.80098 7.37683 4.95878 7.37908 5.12007H8.11955C8.11936 5.07857 8.12902 5.03762 8.14773 5.00058C8.16645 4.96354 8.19368 4.93147 8.2272 4.907C8.30056 4.84984 8.39132 4.8196 8.4843 4.82133C8.53526 4.81816 8.58632 4.82549 8.63432 4.84288C8.68233 4.86026 8.72624 4.88733 8.76335 4.9224C8.79647 4.95626 8.82232 4.99653 8.83932 5.04074C8.85632 5.08494 8.86411 5.13215 8.86222 5.17948C8.86959 5.23538 8.86385 5.29222 8.84546 5.34551C8.82706 5.39881 8.79651 5.44708 8.75622 5.48653C8.71594 5.52597 8.66702 5.55549 8.61335 5.57276C8.55968 5.59002 8.50273 5.59456 8.447 5.586ZM3.97217 7.49538H3.2295V5.13113L2.5 5.34428V4.78178L3.904 4.29618H3.97212L3.97217 7.49538Z" fill="#4D5E7D"/>
<path d="M6.17677 0.676732C6.12989 0.629852 6.0663 0.603516 6 0.603516C5.9337 0.603516 5.87011 0.629852 5.82323 0.676732L4 2.49996H8L6.17677 0.676732ZM8 9.49996H4L5.82323 11.3232C5.87011 11.37 5.9337 11.3964 6 11.3964C6.0663 11.3964 6.12989 11.37 6.17677 11.3232L8 9.49996ZM4.63485 7.49531H6.86728V6.92404H5.60828L6.02136 6.44721C6.19149 6.28267 6.35076 6.10726 6.49818 5.92209C6.58793 5.80726 6.66184 5.68087 6.71791 5.54634C6.76429 5.4288 6.78814 5.30358 6.78821 5.17721C6.79621 5.04879 6.77507 4.92022 6.72636 4.80112C6.67766 4.68202 6.60265 4.57548 6.50696 4.48946C6.27862 4.31614 5.99537 4.23109 5.70932 4.24996C5.50579 4.2471 5.3048 4.29546 5.12485 4.39059C4.95479 4.48026 4.81322 4.61574 4.71615 4.78169C4.61841 4.94575 4.5675 5.13345 4.56895 5.32441H5.31163C5.30684 5.19673 5.34387 5.07098 5.41708 4.96626C5.44712 4.92109 5.488 4.88415 5.53597 4.85883C5.58395 4.8335 5.6375 4.82059 5.69175 4.82126C5.74066 4.81811 5.78964 4.82617 5.83495 4.84483C5.88027 4.86349 5.92072 4.89225 5.95323 4.92893C6.01921 5.01984 6.05109 5.13107 6.0433 5.24313C5.9954 5.50785 5.86184 5.74949 5.66318 5.93088L4.63485 7.01196V7.49531ZM8.447 5.58589H8.09758V6.13741H8.45792C8.57773 6.13035 8.69613 6.16618 8.79192 6.23849C8.83616 6.28313 8.86994 6.33703 8.89084 6.39631C8.91174 6.45558 8.91923 6.51875 8.91277 6.58126C8.9143 6.63338 8.9047 6.68522 8.88462 6.73334C8.86454 6.78145 8.83444 6.82474 8.79632 6.86031C8.71015 6.93519 8.59833 6.97377 8.48432 6.96796C8.37669 6.97097 8.27203 6.93242 8.19207 6.86031C8.15493 6.82903 8.12506 6.79002 8.10457 6.74599C8.08407 6.70197 8.07344 6.654 8.07342 6.60544H7.32853C7.32596 6.77669 7.37412 6.94488 7.46695 7.08881C7.56757 7.23634 7.70875 7.35158 7.87345 7.42061C8.05784 7.50058 8.25695 7.541 8.45792 7.53926C8.76727 7.55403 9.07249 7.4634 9.32365 7.28219C9.42953 7.20272 9.51474 7.09895 9.5721 6.97964C9.62946 6.86032 9.65728 6.72897 9.65322 6.59664C9.65897 6.43011 9.60783 6.26659 9.50822 6.13301C9.40505 6.00243 9.2661 5.9047 9.10832 5.85176C9.25493 5.78745 9.38163 5.68502 9.47524 5.55514C9.55729 5.44114 9.60184 5.30442 9.6027 5.16396C9.60831 5.03608 9.58356 4.90868 9.53047 4.7922C9.47738 4.67573 9.39747 4.57347 9.29727 4.49381C9.05365 4.31884 8.75737 4.23277 8.45792 4.24996C8.26894 4.24784 8.08167 4.28602 7.9086 4.36196C7.7533 4.42706 7.61881 4.53346 7.5197 4.66959C7.42609 4.80094 7.37683 4.95873 7.37908 5.12001H8.11955C8.11936 5.07852 8.12902 5.03757 8.14773 5.00053C8.16645 4.9635 8.19368 4.93143 8.2272 4.90696C8.30055 4.84979 8.39131 4.81954 8.4843 4.82126C8.53525 4.8181 8.58632 4.82543 8.63432 4.84282C8.68232 4.86021 8.72624 4.88727 8.76335 4.92233C8.79646 4.9562 8.82231 4.99647 8.83931 5.04068C8.85632 5.08489 8.86411 5.1321 8.86222 5.17943C8.86958 5.23532 8.86384 5.29216 8.84544 5.34545C8.82703 5.39873 8.79648 5.447 8.7562 5.48644C8.71591 5.52587 8.667 5.55539 8.61333 5.57265C8.55967 5.58991 8.50272 5.59445 8.447 5.58589ZM3.2295 7.49531H3.97217V4.29609H3.90405L2.5 4.78169V5.34419L3.2295 5.13106V7.49531Z" fill="#4D5E7D"/>
<path d="M6.17677 0.676732C6.12989 0.629852 6.0663 0.603516 6 0.603516C5.9337 0.603516 5.87011 0.629852 5.82323 0.676732L4 2.49996H8L6.17677 0.676732ZM8 9.49996H4L5.82323 11.3232C5.87011 11.37 5.9337 11.3964 6 11.3964C6.0663 11.3964 6.12989 11.37 6.17677 11.3232L8 9.49996ZM4.63485 7.49531H6.86728V6.92404H5.60828L6.02136 6.44721C6.19149 6.28267 6.35076 6.10726 6.49818 5.92209C6.58793 5.80726 6.66184 5.68087 6.71791 5.54634C6.76429 5.4288 6.78814 5.30358 6.78821 5.17721C6.79621 5.04879 6.77507 4.92022 6.72636 4.80112C6.67766 4.68202 6.60265 4.57548 6.50696 4.48946C6.27862 4.31614 5.99537 4.23109 5.70932 4.24996C5.50579 4.2471 5.3048 4.29546 5.12485 4.39059C4.95479 4.48026 4.81322 4.61574 4.71615 4.78169C4.61841 4.94575 4.5675 5.13345 4.56895 5.32441H5.31163C5.30684 5.19673 5.34387 5.07098 5.41708 4.96626C5.44712 4.92109 5.488 4.88415 5.53597 4.85883C5.58395 4.8335 5.6375 4.82059 5.69175 4.82126C5.74066 4.81811 5.78964 4.82617 5.83495 4.84483C5.88027 4.86349 5.92072 4.89225 5.95323 4.92893C6.01921 5.01984 6.05109 5.13107 6.0433 5.24313C5.9954 5.50785 5.86184 5.74949 5.66318 5.93088L4.63485 7.01196V7.49531ZM8.447 5.58589H8.09758V6.13741H8.45792C8.57773 6.13035 8.69613 6.16618 8.79192 6.23849C8.83616 6.28313 8.86994 6.33703 8.89084 6.39631C8.91174 6.45558 8.91923 6.51875 8.91277 6.58126C8.9143 6.63338 8.9047 6.68522 8.88462 6.73334C8.86454 6.78145 8.83444 6.82474 8.79632 6.86031C8.71015 6.93519 8.59833 6.97377 8.48432 6.96796C8.37669 6.97097 8.27203 6.93242 8.19207 6.86031C8.15493 6.82903 8.12506 6.79002 8.10457 6.74599C8.08407 6.70197 8.07344 6.654 8.07342 6.60544H7.32853C7.32596 6.77669 7.37412 6.94488 7.46695 7.08881C7.56757 7.23634 7.70875 7.35158 7.87345 7.42061C8.05784 7.50058 8.25695 7.541 8.45792 7.53926C8.76727 7.55403 9.07249 7.4634 9.32365 7.28219C9.42953 7.20272 9.51474 7.09895 9.5721 6.97964C9.62946 6.86032 9.65728 6.72897 9.65322 6.59664C9.65897 6.43011 9.60783 6.26659 9.50822 6.13301C9.40505 6.00243 9.2661 5.9047 9.10832 5.85176C9.25493 5.78745 9.38163 5.68502 9.47524 5.55514C9.55729 5.44114 9.60184 5.30442 9.6027 5.16396C9.60831 5.03608 9.58356 4.90868 9.53047 4.7922C9.47738 4.67573 9.39747 4.57347 9.29727 4.49381C9.05365 4.31884 8.75737 4.23277 8.45792 4.24996C8.26894 4.24784 8.08167 4.28602 7.9086 4.36196C7.7533 4.42706 7.61881 4.53346 7.5197 4.66959C7.42609 4.80094 7.37683 4.95873 7.37908 5.12001H8.11955C8.11936 5.07852 8.12902 5.03757 8.14773 5.00053C8.16645 4.9635 8.19368 4.93143 8.2272 4.90696C8.30055 4.84979 8.39131 4.81954 8.4843 4.82126C8.53525 4.8181 8.58632 4.82543 8.63432 4.84282C8.68232 4.86021 8.72624 4.88727 8.76335 4.92233C8.79646 4.9562 8.82231 4.99647 8.83931 5.04068C8.85632 5.08489 8.86411 5.1321 8.86222 5.17943C8.86958 5.23532 8.86384 5.29216 8.84544 5.34545C8.82703 5.39873 8.79648 5.447 8.7562 5.48644C8.71591 5.52587 8.667 5.55539 8.61333 5.57265C8.55967 5.58991 8.50272 5.59445 8.447 5.58589ZM3.2295 7.49531H3.97217V4.29609H3.90405L2.5 4.78169V5.34419L3.2295 5.13106V7.49531Z" fill="#4D5E7D"/>
</svg>
