<svg width="14" height="14" viewBox="0 0 14 14" fill="none" xmlns="http://www.w3.org/2000/svg">
<path opacity="0.25" fill-rule="evenodd" clip-rule="evenodd" d="M6.99984 12.8334C8.15356 12.8334 9.28138 12.4913 10.2407 11.8503C11.2 11.2093 11.9476 10.2983 12.3891 9.2324C12.8306 8.1665 12.9462 6.99361 12.7211 5.86206C12.496 4.7305 11.9404 3.6911 11.1246 2.87529C10.3088 2.05949 9.26942 1.50392 8.13786 1.27884C7.00631 1.05376 5.83342 1.16928 4.76752 1.61079C3.70161 2.0523 2.79057 2.79997 2.1496 3.75926C1.50862 4.71854 1.1665 5.84636 1.1665 7.00008C1.1665 8.54718 1.78109 10.0309 2.87505 11.1249C3.41672 11.6665 4.05978 12.0962 4.76752 12.3894C5.47525 12.6825 6.23379 12.8334 6.99984 12.8334ZM6.13829 5.35734L4.95817 5.12418C5.05344 4.65227 5.31358 4.22969 5.69201 3.93211C6.07045 3.63452 6.54246 3.48137 7.02352 3.50008C7.50589 3.48123 7.9779 3.64325 8.34701 3.95436C8.71612 4.26547 8.9557 4.70324 9.01879 5.18183C9.07044 5.51388 9.0325 5.85369 8.90887 6.16616C8.78525 6.47863 8.58043 6.75243 8.31558 6.95925L8.21851 7.05398L8.13819 7.13233C7.95893 7.27087 7.81516 7.45003 7.71874 7.65504C7.62231 7.86005 7.57598 8.08505 7.58358 8.31148H6.37917C6.36949 7.93221 6.44545 7.55563 6.6014 7.20978C6.75735 6.86392 6.98928 6.55767 7.27993 6.31383L7.3699 6.22602L7.45688 6.14115C7.79185 5.81129 7.86839 5.65932 7.82446 5.33251C7.80235 5.13976 7.70675 4.96297 7.55755 4.83895C7.40835 4.71494 7.21706 4.65325 7.02352 4.66675C6.8165 4.65111 6.61108 4.7132 6.44739 4.8409C6.2837 4.9686 6.17349 5.15273 6.13829 5.35734ZM7.58317 9.77092C7.58317 9.88629 7.54896 9.99907 7.48486 10.095C7.42076 10.1909 7.32966 10.2657 7.22307 10.3098C7.11648 10.354 6.99919 10.3656 6.88603 10.343C6.77288 10.3205 6.66894 10.265 6.58736 10.1834C6.50578 10.1018 6.45022 9.99788 6.42771 9.88472C6.4052 9.77156 6.41676 9.65428 6.46091 9.54769C6.50506 9.4411 6.57983 9.34999 6.67575 9.28589C6.77168 9.2218 6.88446 9.18758 6.99984 9.18758C7.15455 9.18758 7.30292 9.24904 7.41232 9.35844C7.52171 9.46783 7.58317 9.61621 7.58317 9.77092Z" fill="#4D5E7D"/>
<path d="M4.9585 5.12416L6.13861 5.35732C6.17381 5.15271 6.28402 4.96858 6.44772 4.84088C6.61141 4.71318 6.81683 4.65109 7.02385 4.66673C7.21739 4.65324 7.40868 4.71492 7.55787 4.83894C7.70707 4.96295 7.80268 5.13974 7.82479 5.33249C7.86871 5.65925 7.79218 5.81127 7.4572 6.14113L7.37023 6.22601L7.28026 6.31381C6.9896 6.55766 6.75768 6.8639 6.60172 7.20976C6.44577 7.55562 6.36981 7.93219 6.3795 8.31146H7.5839C7.57631 8.08503 7.62263 7.86004 7.71906 7.65503C7.81549 7.45001 7.95926 7.27085 8.13851 7.13231L8.21884 7.05397L8.31591 6.95923C8.58075 6.75241 8.78557 6.47862 8.9092 6.16615C9.03282 5.85367 9.07077 5.51386 9.01911 5.18182C8.95603 4.70322 8.71644 4.26545 8.34733 3.95434C7.97822 3.64323 7.50621 3.48122 7.02385 3.50007C6.54279 3.48136 6.07077 3.63451 5.69234 3.93209C5.3139 4.22967 5.05376 4.65226 4.9585 5.12416ZM7.00016 10.3542C7.11554 10.3542 7.22832 10.32 7.32425 10.2559C7.42017 10.1918 7.49494 10.1007 7.53909 9.99413C7.58324 9.88754 7.5948 9.77025 7.57229 9.6571C7.54978 9.54394 7.49422 9.44 7.41264 9.35842C7.33106 9.27684 7.22712 9.22128 7.11397 9.19878C7.00081 9.17627 6.88352 9.18782 6.77693 9.23197C6.67034 9.27612 6.57924 9.35089 6.51514 9.44682C6.45104 9.54275 6.41683 9.65553 6.41683 9.7709C6.41683 9.92561 6.47829 10.074 6.58768 10.1834C6.69708 10.2928 6.84545 10.3542 7.00016 10.3542Z" fill="#4D5E7D"/>
<path d="M4.9585 5.12416L6.13861 5.35732C6.17381 5.15271 6.28402 4.96858 6.44772 4.84088C6.61141 4.71318 6.81683 4.65109 7.02385 4.66673C7.21739 4.65324 7.40868 4.71492 7.55787 4.83894C7.70707 4.96295 7.80268 5.13974 7.82479 5.33249C7.86871 5.65925 7.79218 5.81127 7.4572 6.14113L7.37023 6.22601L7.28026 6.31381C6.9896 6.55766 6.75768 6.8639 6.60172 7.20976C6.44577 7.55562 6.36981 7.93219 6.3795 8.31146H7.5839C7.57631 8.08503 7.62263 7.86004 7.71906 7.65503C7.81549 7.45001 7.95926 7.27085 8.13851 7.13231L8.21884 7.05397L8.31591 6.95923C8.58075 6.75241 8.78557 6.47862 8.9092 6.16615C9.03282 5.85367 9.07077 5.51386 9.01911 5.18182C8.95603 4.70322 8.71644 4.26545 8.34733 3.95434C7.97822 3.64323 7.50621 3.48122 7.02385 3.50007C6.54279 3.48136 6.07077 3.63451 5.69234 3.93209C5.3139 4.22967 5.05376 4.65226 4.9585 5.12416ZM7.00016 10.3542C7.11554 10.3542 7.22832 10.32 7.32425 10.2559C7.42017 10.1918 7.49494 10.1007 7.53909 9.99413C7.58324 9.88754 7.5948 9.77025 7.57229 9.6571C7.54978 9.54394 7.49422 9.44 7.41264 9.35842C7.33106 9.27684 7.22712 9.22128 7.11397 9.19878C7.00081 9.17627 6.88352 9.18782 6.77693 9.23197C6.67034 9.27612 6.57924 9.35089 6.51514 9.44682C6.45104 9.54275 6.41683 9.65553 6.41683 9.7709C6.41683 9.92561 6.47829 10.074 6.58768 10.1834C6.69708 10.2928 6.84545 10.3542 7.00016 10.3542Z" fill="#4D5E7D"/>
</svg>
