<svg xmlns="http://www.w3.org/2000/svg" xmlns:xlink="http://www.w3.org/1999/xlink" id="eOyg3jLTB4k1" viewBox="0 0 426 400" shape-rendering="geometricPrecision" text-rendering="geometricPrecision" style="background-color:transparent">
<style><![CDATA[
#eOyg3jLTB4k11 {animation: eOyg3jLTB4k11_s_do 1500ms linear infinite normal forwards}@keyframes eOyg3jLTB4k11_s_do { 0% {stroke-dashoffset: 1095} 100% {stroke-dashoffset: 0}} #eOyg3jLTB4k12 {animation: eOyg3jLTB4k12_s_do 1500ms linear infinite normal forwards}@keyframes eOyg3jLTB4k12_s_do { 0% {stroke-dashoffset: 1095} 100% {stroke-dashoffset: 0}} #eOyg3jLTB4k13 {animation: eOyg3jLTB4k13_s_do 1500ms linear infinite normal forwards}@keyframes eOyg3jLTB4k13_s_do { 0% {stroke-dashoffset: 1095} 100% {stroke-dashoffset: 0}} #eOyg3jLTB4k16 {animation: eOyg3jLTB4k16_s_do 1500ms linear infinite normal forwards}@keyframes eOyg3jLTB4k16_s_do { 0% {stroke-dashoffset: 0} 100% {stroke-dashoffset: 2404}} #eOyg3jLTB4k17 {animation: eOyg3jLTB4k17_s_do 1500ms linear infinite normal forwards}@keyframes eOyg3jLTB4k17_s_do { 0% {stroke-dashoffset: 0} 100% {stroke-dashoffset: 2404}} #eOyg3jLTB4k18 {animation: eOyg3jLTB4k18_s_do 1500ms linear infinite normal forwards}@keyframes eOyg3jLTB4k18_s_do { 0% {stroke-dashoffset: 0} 100% {stroke-dashoffset: 2404}} #eOyg3jLTB4k21 {animation: eOyg3jLTB4k21_s_do 1500ms linear infinite normal forwards}@keyframes eOyg3jLTB4k21_s_do { 0% {stroke-dashoffset: 0} 100% {stroke-dashoffset: 1183}} #eOyg3jLTB4k22 {animation: eOyg3jLTB4k22_s_do 1500ms linear infinite normal forwards}@keyframes eOyg3jLTB4k22_s_do { 0% {stroke-dashoffset: 0} 100% {stroke-dashoffset: 1183}} #eOyg3jLTB4k23 {animation: eOyg3jLTB4k23_s_do 1500ms linear infinite normal forwards}@keyframes eOyg3jLTB4k23_s_do { 0% {stroke-dashoffset: 0} 100% {stroke-dashoffset: 1183}} #eOyg3jLTB4k26 {animation: eOyg3jLTB4k26_s_do 1500ms linear infinite normal forwards}@keyframes eOyg3jLTB4k26_s_do { 0% {stroke-dashoffset: 600} 100% {stroke-dashoffset: 0}} #eOyg3jLTB4k27 {animation: eOyg3jLTB4k27_s_do 1500ms linear infinite normal forwards}@keyframes eOyg3jLTB4k27_s_do { 0% {stroke-dashoffset: 600} 100% {stroke-dashoffset: 0}} #eOyg3jLTB4k28 {animation: eOyg3jLTB4k28_s_do 1500ms linear infinite normal forwards}@keyframes eOyg3jLTB4k28_s_do { 0% {stroke-dashoffset: 600} 100% {stroke-dashoffset: 0}}
]]></style>
<g transform=""><g><path d="M240,57.83c23.194436-38.586743,70.662578-55.068304,112.778985-39.158343s66.831519,59.659585,58.720338,103.944202-46.728038,76.434341-91.749323,76.384141C268.25,199,241,147.68,213,106c-28.63-42.69-55.25-93-106.75-93-44.873366.107559-83.270456,32.24212-91.282643,76.394531s16.645793,87.729361,58.620214,103.596892s89.293186-.500153,112.492429-38.911423" opacity="0.15" fill="none" stroke="#5e5e5e" stroke-width="26" stroke-linecap="round" stroke-linejoin="round"/><path id="eOyg3jLTB4k21" d="M240,57.83c23.194436-38.586743,70.662578-55.068304,112.778985-39.158343s66.831519,59.659585,58.720338,103.944202-46.728038,76.434341-91.749323,76.384141C268.25,199,241,147.68,213,106c-28.63-42.69-55.25-93-106.75-93-44.873366.107559-83.270456,32.24212-91.282643,76.394531s16.645793,87.729361,58.620214,103.596892s89.293186-.500153,112.492429-38.911423" transform="" fill="none" stroke="#1e91ff" stroke-width="26" stroke-linecap="round" stroke-linejoin="round" stroke-dasharray="450,733"/><path id="eOyg3jLTB4k22" d="M240,57.83c23.194436-38.586743,70.662578-55.068304,112.778985-39.158343s66.831519,59.659585,58.720338,103.944202-46.728038,76.434341-91.749323,76.384141C268.25,199,241,147.68,213,106c-28.63-42.69-55.25-93-106.75-93-44.873366.107559-83.270456,32.24212-91.282643,76.394531s16.645793,87.729361,58.620214,103.596892s89.293186-.500153,112.492429-38.911423" transform="" fill="none" stroke="#25caff" stroke-width="26" stroke-linecap="round" stroke-linejoin="round" stroke-dasharray="250,933"/><path id="eOyg3jLTB4k23" d="M240,57.83c23.194436-38.586743,70.662578-55.068304,112.778985-39.158343s66.831519,59.659585,58.720338,103.944202-46.728038,76.434341-91.749323,76.384141C268.25,199,241,147.68,213,106c-28.63-42.69-55.25-93-106.75-93-44.873366.107559-83.270456,32.24212-91.282643,76.394531s16.645793,87.729361,58.620214,103.596892s89.293186-.500153,112.492429-38.911423" transform="" fill="none" stroke="#7bfff2" stroke-width="26" stroke-linecap="round" stroke-linejoin="round" stroke-dasharray="50,1133"/></g></g></svg>