<svg width="12" height="12" viewBox="0 0 12 12" fill="none" xmlns="http://www.w3.org/2000/svg">
<path opacity="0.25" d="M8.14741 1.14258C8.10223 1.09739 8.04859 1.06153 7.98955 1.03707C7.93052 1.0126 7.86724 1.00001 7.80333 1C7.73943 0.999994 7.67615 1.01258 7.6171 1.03703C7.55806 1.06149 7.50442 1.09733 7.45923 1.14252L5.26118 3.3406C5.22744 3.37434 5.20068 3.4144 5.18242 3.45849C5.16417 3.50258 5.15477 3.54983 5.15479 3.59755C5.1548 3.64527 5.16421 3.69252 5.18249 3.7366C5.20076 3.78068 5.22754 3.82072 5.2613 3.85445L6.30257 4.89472L7.02223 4.17509C7.12252 4.07123 7.25771 4.00817 7.40174 3.99807C7.54577 3.98798 7.68844 4.03158 7.80223 4.12044C7.86356 4.17073 7.91366 4.23331 7.94931 4.30415C7.98496 4.37499 8.00536 4.45251 8.0092 4.53173C8.01304 4.61094 8.00023 4.69007 7.9716 4.76403C7.94297 4.83799 7.89915 4.90512 7.84297 4.96109L7.10349 5.7006L8.23178 6.82452C8.27743 6.87 8.33926 6.89551 8.40369 6.89544C8.46813 6.89538 8.52991 6.86976 8.57547 6.8242L10.8577 4.5419C10.949 4.45067 11.0002 4.32694 11.0002 4.19792C11.0002 4.06889 10.949 3.94515 10.8578 3.8539L8.14741 1.14258Z" fill="#4D5E7D"/>
<path d="M2.46436 2.46484L9.53542 9.53591" stroke="#4D5E7D"/>
<path opacity="0.25" d="M5.69834 7.10621L4.97776 7.82584C4.87764 7.92964 4.74261 7.99267 4.59875 8.00276C4.45489 8.01286 4.31239 7.9693 4.19876 7.88049C4.14107 7.83313 4.09327 7.77486 4.0581 7.70902C4.02293 7.64318 4.00107 7.57106 3.99377 7.49677C3.98648 7.42248 3.99388 7.34748 4.01558 7.27606C4.03727 7.20463 4.07281 7.13818 4.12019 7.08049C4.1318 7.06635 4.14408 7.05278 4.15702 7.0398L4.89643 6.30033L3.7682 5.17641C3.72256 5.13093 3.66073 5.10541 3.59629 5.10547C3.53185 5.10553 3.47007 5.13115 3.4245 5.17671L1.14226 7.45896C1.09708 7.50414 1.06124 7.55778 1.03679 7.6168C1.01234 7.67583 0.999756 7.7391 0.999756 7.80299C0.999756 7.86688 1.01234 7.93015 1.03679 7.98917C1.06124 8.0482 1.09708 8.10184 1.14226 8.14701L3.85315 10.8579C3.94438 10.9491 4.06812 11.0004 4.19715 11.0004C4.32617 11.0004 4.44991 10.9491 4.54115 10.8579L6.8232 8.57591C6.8458 8.55333 6.86372 8.52651 6.87595 8.497C6.88818 8.4675 6.89448 8.43587 6.89449 8.40392C6.89449 8.37198 6.88821 8.34035 6.87599 8.31083C6.86377 8.28132 6.84586 8.2545 6.82327 8.23191L5.69834 7.10621Z" fill="#4D5E7D"/>
</svg>
