<svg width="65" height="52" viewBox="0 0 65 52" fill="none" xmlns="http://www.w3.org/2000/svg">
<rect x="0.32476" y="0.1875" width="73.25" height="14.25" rx="1.875" transform="matrix(0.866025 -0.5 0 1 0.0435095 37.1624)" fill="url(#paint0_linear_572_21767)"/>
<rect x="0.32476" y="0.1875" width="73.25" height="14.25" rx="1.875" transform="matrix(0.866025 -0.5 0 1 0.0435095 37.1624)" stroke="url(#paint1_linear_572_21767)" stroke-width="0.75"/>
<path d="M7.68426 36.9395L9.17296 36.08C11.0176 35.015 11.9399 35.5775 11.9399 37.7675C11.9399 38.8355 11.7009 39.7985 11.2228 40.6565C10.75 41.5055 10.0823 42.179 9.21973 42.677L7.68426 43.5635V36.9395ZM9.11061 41.885C10.3733 41.156 11.0046 39.9635 11.0046 38.3075C11.0046 36.6815 10.3733 36.233 9.11061 36.962L8.58839 37.2635V42.1865L9.11061 41.885ZM14.0694 39.994C13.6953 40.21 13.3913 40.2565 13.1575 40.1335C12.9237 40.0045 12.8068 39.724 12.8068 39.292C12.8068 38.284 13.6615 37.1785 15.3711 35.9755C15.3659 35.6545 15.3087 35.4355 15.1996 35.3185C15.0593 35.1835 14.8437 35.2 14.5527 35.368C14.3448 35.488 14.1266 35.665 13.898 35.899C13.7161 36.082 13.5212 36.3115 13.3134 36.5875L12.9782 36.079C13.2381 35.737 13.4953 35.4385 13.7499 35.1835C14.0772 34.8625 14.3968 34.612 14.7086 34.432C15.7478 33.832 16.2674 34.231 16.2674 35.629V38.608L15.5348 39.031L15.4568 38.509L15.4334 38.5225C15.2204 38.8555 15.0099 39.139 14.8021 39.373C14.5579 39.646 14.3137 39.853 14.0694 39.994ZM14.3422 39.0175C14.6644 38.8315 15.0073 38.4415 15.3711 37.8475V36.6325C14.7579 37.0705 14.3163 37.4635 14.0461 37.8115C13.7966 38.1295 13.6719 38.4325 13.6719 38.7205C13.6719 39.1765 13.8954 39.2755 14.3422 39.0175ZM18.8519 37.2328C18.3895 37.4998 18.0517 37.5358 17.8387 37.3408C17.6464 37.1638 17.5503 36.7993 17.5503 36.2473V33.7453L16.9268 34.1053V33.3313L17.5893 32.8948L17.6906 31.4683L18.4466 31.0318V32.3998L19.5612 31.7563V32.5843L18.4466 33.2278V35.7388C18.4466 36.3388 18.6545 36.5188 19.0702 36.2788C19.2209 36.1918 19.3741 36.0643 19.53 35.8963L19.6937 36.5668C19.5482 36.7048 19.4157 36.8233 19.2962 36.9223C19.1403 37.0483 18.9922 37.1518 18.8519 37.2328ZM21.3233 35.806C20.9491 36.022 20.6452 36.0685 20.4113 35.9455C20.1775 35.8165 20.0606 35.536 20.0606 35.104C20.0606 34.096 20.9154 32.9905 22.6249 31.7875C22.6197 31.4665 22.5625 31.2475 22.4534 31.1305C22.3131 30.9955 22.0975 31.012 21.8065 31.18C21.5986 31.3 21.3804 31.477 21.1518 31.711C20.9699 31.894 20.7751 32.1235 20.5672 32.3995L20.2321 31.891C20.4919 31.549 20.7491 31.2505 21.0037 30.9955C21.331 30.6745 21.6506 30.424 21.9624 30.244C23.0016 29.644 23.5212 30.043 23.5212 31.441V34.42L22.7886 34.843L22.7106 34.321L22.6872 34.3345C22.4742 34.6675 22.2638 34.951 22.0559 35.185C21.8117 35.458 21.5675 35.665 21.3233 35.806ZM21.596 34.8295C21.9182 34.6435 22.2612 34.2535 22.6249 33.6595V32.4445C22.0117 32.8825 21.5701 33.2755 21.2999 33.6235C21.0505 33.9415 20.9257 34.2445 20.9257 34.5325C20.9257 34.9885 21.1492 35.0875 21.596 34.8295ZM28.2586 31.8019C27.448 32.2699 26.7673 32.3389 26.2165 32.0089L26.7465 30.9829C27.1986 31.2439 27.7078 31.2109 28.2742 30.8839C28.9964 30.4669 29.3576 29.9464 29.3576 29.3224C29.3576 29.0524 29.2718 28.8829 29.1004 28.8139C29.0224 28.7929 28.9237 28.7809 28.8042 28.7779C28.7574 28.7749 28.7003 28.7749 28.6327 28.7779L27.6428 28.8544C27.487 28.8724 27.3493 28.8679 27.2298 28.8409C27.0791 28.8199 26.9518 28.7734 26.8478 28.7014C26.5984 28.5334 26.4737 28.2304 26.4737 27.7924C26.4737 27.2704 26.653 26.7319 27.0115 26.1769C27.3649 25.6249 27.8143 25.1914 28.3599 24.8764C29.0458 24.4804 29.6252 24.4249 30.098 24.7099L29.6226 25.6504C29.2381 25.4764 28.8172 25.5214 28.3599 25.7854C27.7156 26.1574 27.3934 26.6284 27.3934 27.1984C27.3934 27.4504 27.4896 27.6049 27.6818 27.6619C27.7598 27.6829 27.8585 27.6919 27.978 27.6889C28.0248 27.6919 28.0819 27.6889 28.1495 27.6799L29.1082 27.5944C29.4823 27.5644 29.7629 27.6214 29.9499 27.7654C30.1682 27.9394 30.2773 28.2544 30.2773 28.7104C30.2773 29.2564 30.098 29.8129 29.7395 30.3799C29.3654 30.9739 28.8717 31.4479 28.2586 31.8019ZM33.0707 29.0236C32.4732 29.3686 31.9795 29.4256 31.5898 29.1946C31.1845 28.9546 30.9819 28.4386 30.9819 27.6466C30.9819 26.8726 31.1819 26.1211 31.582 25.3921C31.9614 24.7051 32.4134 24.2101 32.9382 23.9071C33.4942 23.5861 33.9281 23.5516 34.2399 23.8036C34.5361 24.0466 34.6841 24.5281 34.6841 25.2481C34.6841 25.4641 34.6712 25.6456 34.6452 25.7926L31.8626 27.3991C31.9354 28.3651 32.3771 28.6141 33.1877 28.1461C33.541 27.9421 33.8813 27.6226 34.2087 27.1876L34.5205 27.6646C34.3074 27.9496 34.0866 28.2031 33.858 28.4251C33.6033 28.6681 33.3409 28.8676 33.0707 29.0236ZM33.9125 25.5046C33.9125 24.6046 33.593 24.3391 32.9538 24.7081C32.6732 24.8701 32.4342 25.1251 32.2368 25.4731C32.0237 25.8421 31.8964 26.2486 31.8548 26.6926L33.9125 25.5046ZM35.6929 22.4427L36.4256 22.0197L36.4958 22.8702L36.5191 22.8567C36.8413 21.9927 37.2466 21.4197 37.735 21.1377C37.9273 21.0267 38.0884 20.9697 38.2183 20.9667L38.0546 21.9612C37.9091 21.9912 37.7662 22.0467 37.6259 22.1277C37.4337 22.2387 37.2492 22.4232 37.0725 22.6812C36.8751 22.9812 36.7114 23.3517 36.5815 23.7927V26.8797L35.6929 27.3927V22.4427ZM38.4805 20.8333L39.4002 20.3023L40.1329 22.5433C40.1796 22.7203 40.242 22.9303 40.3199 23.1733L40.507 23.8033L40.5382 23.7853L40.7252 22.9393C40.8032 22.6063 40.8655 22.3243 40.9123 22.0933L41.6449 19.0063L42.5179 18.5023L41.037 24.3073L40.0004 24.9058L38.4805 20.8333ZM43.3045 18.0481L44.193 17.5351V22.4851L43.3045 22.9981V18.0481ZM43.7488 16.8646C43.3695 17.0836 43.1798 16.9891 43.1798 16.5811C43.1798 16.1731 43.3695 15.8596 43.7488 15.6406C44.1333 15.4186 44.3255 15.5116 44.3255 15.9196C44.3255 16.3276 44.1333 16.6426 43.7488 16.8646ZM47.2882 20.8152C46.6906 21.1602 46.2048 21.2157 45.8307 20.9817C45.4358 20.7357 45.2383 20.2137 45.2383 19.4157C45.2383 18.6177 45.4514 17.8527 45.8774 17.1207C46.2724 16.4367 46.766 15.9237 47.3584 15.5817C47.613 15.4347 47.852 15.3507 48.0754 15.3297C48.2625 15.3177 48.4417 15.3492 48.6132 15.4242L48.169 16.3557C47.9195 16.2417 47.6623 16.2612 47.3973 16.4142C47.0388 16.6212 46.7452 16.9527 46.5166 17.4087C46.2827 17.8677 46.1658 18.3582 46.1658 18.8802C46.1658 19.4022 46.2776 19.7577 46.501 19.9467C46.7244 20.1357 47.0154 20.1267 47.3739 19.9197C47.6909 19.7367 48.0027 19.4067 48.3092 18.9297L48.6756 19.4022C48.2807 20.0382 47.8182 20.5092 47.2882 20.8152ZM51.1482 18.5866C50.5506 18.9316 50.057 18.9886 49.6673 18.7576C49.262 18.5176 49.0593 18.0016 49.0593 17.2096C49.0593 16.4356 49.2594 15.6841 49.6595 14.9551C50.0388 14.2681 50.4909 13.7731 51.0157 13.4701C51.5717 13.1491 52.0055 13.1146 52.3173 13.3666C52.6135 13.6096 52.7616 14.0911 52.7616 14.8111C52.7616 15.0271 52.7486 15.2086 52.7226 15.3556L49.9401 16.9621C50.0128 17.9281 50.4545 18.1771 51.2651 17.7091C51.6184 17.5051 51.9588 17.1856 52.2861 16.7506L52.5979 17.2276C52.3849 17.5126 52.164 17.7661 51.9354 17.9881C51.6808 18.2311 51.4184 18.4306 51.1482 18.5866ZM51.9899 15.0676C51.9899 14.1676 51.6704 13.9021 51.0313 14.2711C50.7507 14.4331 50.5116 14.6881 50.3142 15.0361C50.1011 15.4051 49.9738 15.8116 49.9323 16.2556L51.9899 15.0676ZM54.9317 16.4022C54.3342 16.7472 53.7964 16.8297 53.3183 16.6497L53.7392 15.7407C54.1497 15.8817 54.555 15.8367 54.9551 15.6057C55.4591 15.3147 55.7111 14.9472 55.7111 14.5032C55.7111 14.3052 55.6124 14.1882 55.415 14.1522C55.3318 14.1462 55.2279 14.1492 55.1032 14.1612L54.7602 14.1972C54.5836 14.2212 54.4407 14.2317 54.3316 14.2287C54.1757 14.2287 54.0432 14.2092 53.9341 14.1702C53.6691 14.0712 53.5366 13.8357 53.5366 13.4637C53.5366 13.0437 53.6717 12.6207 53.9419 12.1947C54.2224 11.7567 54.594 11.4042 55.0564 11.1372C55.3266 10.9812 55.5864 10.8882 55.8359 10.8582C56.0489 10.8372 56.2541 10.8567 56.4516 10.9167L56.0307 11.7987C55.8696 11.7537 55.7189 11.7357 55.5786 11.7447C55.4072 11.7657 55.2383 11.8242 55.072 11.9202C54.6148 12.1842 54.3861 12.5202 54.3861 12.9282C54.3861 13.1142 54.4797 13.2192 54.6667 13.2432C54.7395 13.2492 54.8356 13.2477 54.9551 13.2387L55.1266 13.2117C55.1474 13.2057 55.1759 13.2012 55.2123 13.1982L55.2981 13.1847C55.4955 13.1547 55.6462 13.1397 55.7501 13.1397C55.9112 13.1367 56.0463 13.1517 56.1554 13.1847C56.4256 13.2867 56.5607 13.5447 56.5607 13.9587C56.5607 14.3907 56.423 14.8242 56.1476 15.2592C55.8462 15.7272 55.4409 16.1082 54.9317 16.4022Z" fill="white"/>
<defs>
<linearGradient id="paint0_linear_572_21767" x1="-2.96694" y1="2.20753" x2="46.9136" y2="43.1359" gradientUnits="userSpaceOnUse">
<stop stop-color="#3A7DEF"/>
<stop offset="1" stop-color="#384EF6"/>
</linearGradient>
<linearGradient id="paint1_linear_572_21767" x1="0" y1="7.5" x2="74" y2="7.5" gradientUnits="userSpaceOnUse">
<stop stop-color="#2CBFFF"/>
<stop offset="1" stop-color="#2CBFFF"/>
</linearGradient>
</defs>
</svg>
