<svg width="78" height="60" viewBox="0 0 78 60" fill="none" xmlns="http://www.w3.org/2000/svg">
<rect x="0.32476" y="0.5625" width="89.25" height="14.25" rx="1.875" transform="matrix(0.866025 0.5 0 1 0.0435095 -0.16238)" fill="url(#paint0_linear_569_18909)"/>
<rect x="0.32476" y="0.5625" width="89.25" height="14.25" rx="1.875" transform="matrix(0.866025 0.5 0 1 0.0435095 -0.16238)" stroke="url(#paint1_linear_569_18909)" stroke-width="0.75"/>
<path d="M7.68426 8.8125L9.17296 9.672C11.0176 10.737 11.9399 12.3645 11.9399 14.5545C11.9399 15.6225 11.7009 16.3095 11.2228 16.6155C10.75 16.9185 10.0823 16.821 9.21973 16.323L7.68426 15.4365V8.8125ZM9.11061 15.405C10.3733 16.134 11.0046 15.6705 11.0046 14.0145C11.0046 12.3885 10.3733 11.211 9.11061 10.482L8.58839 10.1805V15.1035L9.11061 15.405ZM14.0694 19.24C13.6953 19.024 13.3913 18.7195 13.1575 18.3265C12.9237 17.9275 12.8068 17.512 12.8068 17.08C12.8068 16.072 13.6615 15.9535 15.3711 16.7245C15.3659 16.3975 15.3087 16.1125 15.1996 15.8695C15.0593 15.5725 14.8437 15.34 14.5527 15.172C14.3448 15.052 14.1266 14.977 13.898 14.947C13.7161 14.92 13.5212 14.9245 13.3134 14.9605L12.9782 14.065C13.2381 14.023 13.4953 14.0215 13.7499 14.0605C14.0772 14.1175 14.3968 14.236 14.7086 14.416C15.7478 15.016 16.2674 16.015 16.2674 17.413V20.392L15.5348 19.969L15.4568 19.357L15.4334 19.3435C15.2204 19.4305 15.0099 19.471 14.8021 19.465C14.5579 19.456 14.3137 19.381 14.0694 19.24ZM14.3422 18.5785C14.6644 18.7645 15.0073 18.7705 15.3711 18.5965V17.3815C14.7579 17.1115 14.3163 16.9945 14.0461 17.0305C13.7966 17.0605 13.6719 17.2195 13.6719 17.5075C13.6719 17.9635 13.8954 18.3205 14.3422 18.5785ZM18.8519 22.0012C18.3895 21.7342 18.0517 21.3802 17.8387 20.9392C17.6464 20.5402 17.5503 20.0647 17.5503 19.5127V17.0107L16.9268 16.6507V15.8767L17.5893 16.2052L17.6906 14.8957L18.4466 15.3322V16.7002L19.5612 17.3437V18.1717L18.4466 17.5282V20.0392C18.4466 20.6392 18.6545 21.0592 19.0702 21.2992C19.2209 21.3862 19.3741 21.4357 19.53 21.4477L19.6937 22.3072C19.5482 22.2772 19.4157 22.2427 19.2962 22.2037C19.1403 22.1497 18.9922 22.0822 18.8519 22.0012ZM21.3233 23.428C20.9491 23.212 20.6452 22.9075 20.4113 22.5145C20.1775 22.1155 20.0606 21.7 20.0606 21.268C20.0606 20.26 20.9154 20.1415 22.6249 20.9125C22.6197 20.5855 22.5625 20.3005 22.4534 20.0575C22.3131 19.7605 22.0975 19.528 21.8065 19.36C21.5986 19.24 21.3804 19.165 21.1518 19.135C20.9699 19.108 20.7751 19.1125 20.5672 19.1485L20.2321 18.253C20.4919 18.211 20.7491 18.2095 21.0037 18.2485C21.331 18.3055 21.6506 18.424 21.9624 18.604C23.0016 19.204 23.5212 20.203 23.5212 21.601V24.58L22.7886 24.157L22.7106 23.545L22.6872 23.5315C22.4742 23.6185 22.2638 23.659 22.0559 23.653C21.8117 23.644 21.5675 23.569 21.3233 23.428ZM21.596 22.7665C21.9182 22.9525 22.2612 22.9585 22.6249 22.7845V21.5695C22.0117 21.2995 21.5701 21.1825 21.2999 21.2185C21.0505 21.2485 20.9257 21.4075 20.9257 21.6955C20.9257 22.1515 21.1492 22.5085 21.596 22.7665ZM28.9601 27.8371C28.1755 27.3841 27.5415 26.7211 27.0583 25.8481C26.5594 24.9421 26.31 23.9581 26.31 22.8961C26.31 21.8401 26.5646 21.1411 27.0739 20.7991C27.5675 20.4721 28.204 20.5336 28.9835 20.9836C29.3576 21.1996 29.7005 21.4846 30.0123 21.8386C30.2617 22.1206 30.4877 22.4431 30.6904 22.8061L30.1994 23.1886C30.0435 22.9126 29.8798 22.6771 29.7083 22.4821C29.5005 22.2481 29.2692 22.0576 29.0146 21.9106C28.4742 21.5986 28.0455 21.5761 27.7286 21.8431C27.4012 22.1041 27.2375 22.6216 27.2375 23.3956C27.2375 24.1936 27.3934 24.9046 27.7052 25.5286C28.017 26.1586 28.4664 26.6431 29.0536 26.9821C29.4433 27.2071 29.7447 27.2731 29.9577 27.1801V25.6231L28.8198 24.9661V24.1111L30.7761 25.2406V28.1116C30.5735 28.2286 30.3215 28.2661 30.0201 28.2241C29.6927 28.1851 29.3394 28.0561 28.9601 27.8371ZM33.7237 30.5874C33.1677 30.2664 32.7 29.7714 32.3207 29.1024C31.9102 28.3794 31.705 27.6249 31.705 26.8389C31.705 26.0409 31.9102 25.5174 32.3207 25.2684C32.7 25.0314 33.1677 25.0734 33.7237 25.3944C34.2797 25.7154 34.7499 26.2149 35.1344 26.8929C35.5397 27.6129 35.7424 28.3719 35.7424 29.1699C35.7424 29.9559 35.5397 30.4749 35.1344 30.7269C34.7499 30.9549 34.2797 30.9084 33.7237 30.5874ZM33.7237 29.7414C34.0614 29.9364 34.329 29.9319 34.5265 29.7279C34.7239 29.5299 34.8227 29.1669 34.8227 28.6389C34.8227 28.1109 34.7239 27.6309 34.5265 27.1989C34.329 26.7609 34.0614 26.4444 33.7237 26.2494C33.3911 26.0574 33.1261 26.0664 32.9287 26.2764C32.7312 26.4804 32.6325 26.8464 32.6325 27.3744C32.6325 27.8964 32.7312 28.3734 32.9287 28.8054C33.1261 29.2374 33.3911 29.5494 33.7237 29.7414ZM36.1742 26.9352L37.0939 27.4662L37.8266 30.5532C37.8733 30.7842 37.9357 31.0662 38.0136 31.3992L38.2007 32.2452L38.2319 32.2632L38.4189 31.6332C38.4969 31.3902 38.5592 31.1802 38.606 31.0032L39.3386 28.7622L40.2116 29.2662L38.7307 33.3612L37.6941 32.7627L36.1742 26.9352ZM42.7374 35.7914C42.1398 35.4464 41.6462 34.9334 41.2565 34.2524C40.8512 33.5444 40.6486 32.7944 40.6486 32.0024C40.6486 31.2284 40.8486 30.7079 41.2487 30.4409C41.628 30.1919 42.0801 30.2189 42.6049 30.5219C43.1609 30.8429 43.5948 31.3094 43.9065 31.9214C44.2027 32.5064 44.3508 33.1589 44.3508 33.8789C44.3508 34.0949 44.3378 34.2614 44.3118 34.3784L41.5293 32.7719C41.602 33.8219 42.0437 34.5809 42.8543 35.0489C43.2077 35.2529 43.548 35.3264 43.8754 35.2694L44.1871 36.1064C43.9741 36.1454 43.7533 36.1439 43.5246 36.1019C43.27 36.0509 43.0076 35.9474 42.7374 35.7914ZM43.5792 33.2444C43.5792 32.3444 43.2596 31.7099 42.6205 31.3409C42.3399 31.1789 42.1009 31.1579 41.9034 31.2779C41.6904 31.4009 41.5631 31.6604 41.5215 32.0564L43.5792 33.2444ZM45.3596 32.2384L46.0923 32.6614L46.1624 33.5929L46.1858 33.6064C46.508 33.1144 46.9133 33.0094 47.4017 33.2914C47.594 33.4024 47.755 33.5314 47.8849 33.6784L47.7213 34.4839C47.5758 34.3459 47.4329 34.2364 47.2926 34.1554C47.1003 34.0444 46.9159 34.0159 46.7392 34.0699C46.5417 34.1419 46.3781 34.3234 46.2482 34.6144V37.7014L45.3596 37.1884V32.2384ZM48.5489 34.0797L49.2815 34.5027L49.3517 35.2272L49.375 35.2407C49.6037 35.1147 49.8167 35.0487 50.0142 35.0427C50.2636 35.0247 50.5234 35.0937 50.7936 35.2497C51.6717 35.7567 52.1108 36.6642 52.1108 37.9722V41.0862L51.2145 40.5687V37.5807C51.2145 36.7827 50.9729 36.2442 50.4896 35.9652C50.1779 35.7852 49.8271 35.8077 49.4374 36.0327V39.5427L48.5489 39.0297V34.0797ZM54.4259 42.5398C54.0518 42.3238 53.7478 42.0193 53.514 41.6263C53.2801 41.2273 53.1632 40.8118 53.1632 40.3798C53.1632 39.3718 54.018 39.2533 55.7275 40.0243C55.7223 39.6973 55.6652 39.4123 55.5561 39.1693C55.4158 38.8723 55.2001 38.6398 54.9091 38.4718C54.7013 38.3518 54.483 38.2768 54.2544 38.2468C54.0726 38.2198 53.8777 38.2243 53.6698 38.2603L53.3347 37.3648C53.5945 37.3228 53.8517 37.3213 54.1063 37.3603C54.4337 37.4173 54.7532 37.5358 55.065 37.7158C56.1042 38.3158 56.6239 39.3148 56.6239 40.7128V43.6918L55.8912 43.2688L55.8133 42.6568L55.7899 42.6433C55.5768 42.7303 55.3664 42.7708 55.1585 42.7648C54.9143 42.7558 54.6701 42.6808 54.4259 42.5398ZM54.6987 41.8783C55.0208 42.0643 55.3638 42.0703 55.7275 41.8963V40.6813C55.1144 40.4113 54.6727 40.2943 54.4025 40.3303C54.1531 40.3603 54.0284 40.5193 54.0284 40.8073C54.0284 41.2633 54.2518 41.6203 54.6987 41.8783ZM57.8958 39.4762L58.6285 39.8992L58.6986 40.6237L58.722 40.6372C58.9507 40.5112 59.1637 40.4452 59.3612 40.4392C59.6106 40.4212 59.8704 40.4902 60.1406 40.6462C61.0187 41.1532 61.4578 42.0607 61.4578 43.3687V46.4827L60.5615 45.9652V42.9772C60.5615 42.1792 60.3198 41.6407 59.8366 41.3617C59.5248 41.1817 59.1741 41.2042 58.7844 41.4292V44.9392L57.8958 44.4262V39.4762ZM64.5055 48.3593C63.908 48.0143 63.4221 47.5088 63.048 46.8428C62.6531 46.1408 62.4556 45.3908 62.4556 44.5928C62.4556 43.7948 62.6687 43.2758 63.0948 43.0358C63.4897 42.8078 63.9833 42.8648 64.5757 43.2068C64.8303 43.3538 65.0693 43.5458 65.2927 43.7828C65.4798 43.9868 65.6591 44.2253 65.8306 44.4983L65.3863 44.9168C65.1369 44.5148 64.8797 44.2373 64.6147 44.0843C64.2561 43.8773 63.9625 43.8698 63.7339 44.0618C63.5001 44.2508 63.3832 44.6063 63.3832 45.1283C63.3832 45.6503 63.4949 46.1348 63.7183 46.5818C63.9417 47.0288 64.2327 47.3558 64.5913 47.5628C64.9082 47.7458 65.22 47.7758 65.5266 47.6528L65.8929 48.5483C65.498 48.7283 65.0355 48.6653 64.5055 48.3593ZM68.3655 50.5878C67.7679 50.2428 67.2743 49.7298 66.8846 49.0488C66.4793 48.3408 66.2766 47.5908 66.2766 46.7988C66.2766 46.0248 66.4767 45.5043 66.8768 45.2373C67.2561 44.9883 67.7082 45.0153 68.233 45.3183C68.789 45.6393 69.2229 46.1058 69.5346 46.7178C69.8308 47.3028 69.9789 47.9553 69.9789 48.6753C69.9789 48.8913 69.9659 49.0578 69.9399 49.1748L67.1574 47.5683C67.2301 48.6183 67.6718 49.3773 68.4824 49.8453C68.8358 50.0493 69.1761 50.1228 69.5035 50.0658L69.8152 50.9028C69.6022 50.9418 69.3814 50.9403 69.1527 50.8983C68.8981 50.8473 68.6357 50.7438 68.3655 50.5878ZM69.2073 48.0408C69.2073 47.1408 68.8877 46.5063 68.2486 46.1373C67.968 45.9753 67.729 45.9543 67.5315 46.0743C67.3185 46.1973 67.1912 46.4568 67.1496 46.8528L69.2073 48.0408Z" fill="white"/>
<defs>
<linearGradient id="paint0_linear_569_18909" x1="-3.60844" y1="2.20753" x2="47.251" y2="52.9622" gradientUnits="userSpaceOnUse">
<stop stop-color="#3A7DEF"/>
<stop offset="1" stop-color="#384EF6"/>
</linearGradient>
<linearGradient id="paint1_linear_569_18909" x1="0" y1="7.5" x2="90" y2="7.5" gradientUnits="userSpaceOnUse">
<stop stop-color="#2CBFFF"/>
<stop offset="1" stop-color="#2CBFFF"/>
</linearGradient>
</defs>
</svg>
