<svg width="74" height="58" viewBox="0 0 74 58" fill="none" xmlns="http://www.w3.org/2000/svg">
<rect x="0.32476" y="0.1875" width="84.25" height="14.25" rx="1.875" transform="matrix(0.866025 -0.5 0 1 0.0435095 42.6624)" fill="url(#paint0_linear_572_21765)"/>
<rect x="0.32476" y="0.1875" width="84.25" height="14.25" rx="1.875" transform="matrix(0.866025 -0.5 0 1 0.0435095 42.6624)" stroke="url(#paint1_linear_572_21765)" stroke-width="0.75"/>
<path d="M7.68426 42.4395L9.17296 41.58C11.0176 40.515 11.9399 41.0775 11.9399 43.2675C11.9399 44.3355 11.7009 45.2985 11.2228 46.1565C10.75 47.0055 10.0823 47.679 9.21973 48.177L7.68426 49.0635V42.4395ZM9.11061 47.385C10.3733 46.656 11.0046 45.4635 11.0046 43.8075C11.0046 42.1815 10.3733 41.733 9.11061 42.462L8.58839 42.7635V47.6865L9.11061 47.385ZM14.0694 45.494C13.6953 45.71 13.3913 45.7565 13.1575 45.6335C12.9237 45.5045 12.8068 45.224 12.8068 44.792C12.8068 43.784 13.6615 42.6785 15.3711 41.4755C15.3659 41.1545 15.3087 40.9355 15.1996 40.8185C15.0593 40.6835 14.8437 40.7 14.5527 40.868C14.3448 40.988 14.1266 41.165 13.898 41.399C13.7161 41.582 13.5212 41.8115 13.3134 42.0875L12.9782 41.579C13.2381 41.237 13.4953 40.9385 13.7499 40.6835C14.0772 40.3625 14.3968 40.112 14.7086 39.932C15.7478 39.332 16.2674 39.731 16.2674 41.129V44.108L15.5348 44.531L15.4568 44.009L15.4334 44.0225C15.2204 44.3555 15.0099 44.639 14.8021 44.873C14.5579 45.146 14.3137 45.353 14.0694 45.494ZM14.3422 44.5175C14.6644 44.3315 15.0073 43.9415 15.3711 43.3475V42.1325C14.7579 42.5705 14.3163 42.9635 14.0461 43.3115C13.7966 43.6295 13.6719 43.9325 13.6719 44.2205C13.6719 44.6765 13.8954 44.7755 14.3422 44.5175ZM18.8519 42.7328C18.3895 42.9998 18.0517 43.0358 17.8387 42.8408C17.6464 42.6638 17.5503 42.2993 17.5503 41.7473V39.2453L16.9268 39.6053V38.8313L17.5893 38.3948L17.6906 36.9683L18.4466 36.5318V37.8998L19.5612 37.2563V38.0843L18.4466 38.7278V41.2388C18.4466 41.8388 18.6545 42.0188 19.0702 41.7788C19.2209 41.6918 19.3741 41.5643 19.53 41.3963L19.6937 42.0668C19.5482 42.2048 19.4157 42.3233 19.2962 42.4223C19.1403 42.5483 18.9922 42.6518 18.8519 42.7328ZM21.3233 41.306C20.9491 41.522 20.6452 41.5685 20.4113 41.4455C20.1775 41.3165 20.0606 41.036 20.0606 40.604C20.0606 39.596 20.9154 38.4905 22.6249 37.2875C22.6197 36.9665 22.5625 36.7475 22.4534 36.6305C22.3131 36.4955 22.0975 36.512 21.8065 36.68C21.5986 36.8 21.3804 36.977 21.1518 37.211C20.9699 37.394 20.7751 37.6235 20.5672 37.8995L20.2321 37.391C20.4919 37.049 20.7491 36.7505 21.0037 36.4955C21.331 36.1745 21.6506 35.924 21.9624 35.744C23.0016 35.144 23.5212 35.543 23.5212 36.941V39.92L22.7886 40.343L22.7106 39.821L22.6872 39.8345C22.4742 40.1675 22.2638 40.451 22.0559 40.685C21.8117 40.958 21.5675 41.165 21.3233 41.306ZM21.596 40.3295C21.9182 40.1435 22.2612 39.7535 22.6249 39.1595V37.9445C22.0117 38.3825 21.5701 38.7755 21.2999 39.1235C21.0505 39.4415 20.9257 39.7445 20.9257 40.0325C20.9257 40.4885 21.1492 40.5875 21.596 40.3295ZM26.6218 31.5059L28.3599 30.5024C29.0458 30.1064 29.5706 29.9504 29.9344 30.0344C30.3448 30.1274 30.5501 30.5279 30.5501 31.2359C30.5501 31.9319 30.3474 32.5829 29.9421 33.1889C29.5628 33.7499 29.0458 34.2194 28.3911 34.5974L27.5259 35.0969V37.6079L26.6218 38.1299V31.5059ZM28.3054 33.8099C29.2095 33.2879 29.6616 32.6009 29.6616 31.7489C29.6616 30.9749 29.1991 30.8549 28.2742 31.3889L27.5259 31.8209V34.2599L28.3054 33.8099ZM31.5903 30.3113L32.323 29.8883L32.3931 30.7388L32.4165 30.7253C32.7387 29.8613 33.144 29.2883 33.6324 29.0063C33.8247 28.8953 33.9857 28.8383 34.1157 28.8353L33.952 29.8298C33.8065 29.8598 33.6636 29.9153 33.5233 29.9963C33.331 30.1073 33.1466 30.2918 32.9699 30.5498C32.7724 30.8498 32.6088 31.2203 32.4789 31.6613V34.7483L31.5903 35.2613V30.3113ZM36.4106 32.5954C35.8546 32.9164 35.3869 32.9614 35.0076 32.7304C34.5971 32.4814 34.3919 31.9639 34.3919 31.1779C34.3919 30.3799 34.5971 29.6194 35.0076 28.8964C35.3869 28.2214 35.8546 27.7234 36.4106 27.4024C36.9666 27.0814 37.4368 27.0379 37.8213 27.2719C38.2266 27.5239 38.4293 28.0489 38.4293 28.8469C38.4293 29.6329 38.2266 30.3859 37.8213 31.1059C37.4368 31.7779 36.9666 32.2744 36.4106 32.5954ZM36.4106 31.7494C36.7483 31.5544 37.0159 31.2409 37.2134 30.8089C37.4108 30.3829 37.5096 29.9059 37.5096 29.3779C37.5096 28.8499 37.4108 28.4839 37.2134 28.2799C37.0159 28.0699 36.7483 28.0624 36.4106 28.2574C36.078 28.4494 35.813 28.7644 35.6156 29.2024C35.4181 29.6344 35.3194 30.1144 35.3194 30.6424C35.3194 31.1644 35.4181 31.5274 35.6156 31.7314C35.813 31.9354 36.078 31.9414 36.4106 31.7494ZM41.2294 29.8132C40.6318 30.1582 40.146 30.2137 39.7719 29.9797C39.377 29.7337 39.1795 29.2117 39.1795 28.4137C39.1795 27.6157 39.3926 26.8507 39.8187 26.1187C40.2136 25.4347 40.7072 24.9217 41.2996 24.5797C41.5542 24.4327 41.7932 24.3487 42.0166 24.3277C42.2037 24.3157 42.383 24.3472 42.5544 24.4222L42.1102 25.3537C41.8607 25.2397 41.6035 25.2592 41.3385 25.4122C40.98 25.6192 40.6864 25.9507 40.4578 26.4067C40.224 26.8657 40.107 27.3562 40.107 27.8782C40.107 28.4002 40.2188 28.7557 40.4422 28.9447C40.6656 29.1337 40.9566 29.1247 41.3151 28.9177C41.6321 28.7347 41.9439 28.4047 42.2505 27.9277L42.6168 28.4002C42.2219 29.0362 41.7594 29.5072 41.2294 29.8132ZM45.0894 27.5846C44.4918 27.9296 43.9982 27.9866 43.6085 27.7556C43.2032 27.5156 43.0005 26.9996 43.0005 26.2076C43.0005 25.4336 43.2006 24.6821 43.6007 23.9531C43.98 23.2661 44.4321 22.7711 44.9569 22.4681C45.5129 22.1471 45.9467 22.1126 46.2585 22.3646C46.5547 22.6076 46.7028 23.0891 46.7028 23.8091C46.7028 24.0251 46.6898 24.2066 46.6638 24.3536L43.8813 25.9601C43.954 26.9261 44.3957 27.1751 45.2063 26.7071C45.5596 26.5031 45.9 26.1836 46.2273 25.7486L46.5391 26.2256C46.3261 26.5106 46.1052 26.7641 45.8766 26.9861C45.622 27.2291 45.3596 27.4286 45.0894 27.5846ZM45.9312 24.0656C45.9312 23.1656 45.6116 22.9001 44.9725 23.2691C44.6919 23.4311 44.4528 23.6861 44.2554 24.0341C44.0424 24.4031 43.915 24.8096 43.8735 25.2536L45.9312 24.0656ZM48.8729 25.4002C48.2754 25.7452 47.7376 25.8277 47.2595 25.6477L47.6804 24.7387C48.0909 24.8797 48.4962 24.8347 48.8963 24.6037C49.4003 24.3127 49.6524 23.9452 49.6524 23.5012C49.6524 23.3032 49.5536 23.1862 49.3562 23.1502C49.273 23.1442 49.1691 23.1472 49.0444 23.1592L48.7015 23.1952C48.5248 23.2192 48.3819 23.2297 48.2728 23.2267C48.1169 23.2267 47.9844 23.2072 47.8753 23.1682C47.6103 23.0692 47.4778 22.8337 47.4778 22.4617C47.4778 22.0417 47.6129 21.6187 47.8831 21.1927C48.1637 20.7547 48.5352 20.4022 48.9976 20.1352C49.2678 19.9792 49.5276 19.8862 49.7771 19.8562C49.9901 19.8352 50.1953 19.8547 50.3928 19.9147L49.9719 20.7967C49.8108 20.7517 49.6601 20.7337 49.5198 20.7427C49.3484 20.7637 49.1795 20.8222 49.0132 20.9182C48.556 21.1822 48.3273 21.5182 48.3273 21.9262C48.3273 22.1122 48.4209 22.2172 48.6079 22.2412C48.6807 22.2472 48.7768 22.2457 48.8963 22.2367L49.0678 22.2097C49.0886 22.2037 49.1171 22.1992 49.1535 22.1962L49.2393 22.1827C49.4367 22.1527 49.5874 22.1377 49.6913 22.1377C49.8524 22.1347 49.9875 22.1497 50.0966 22.1827C50.3668 22.2847 50.5019 22.5427 50.5019 22.9567C50.5019 23.3887 50.3642 23.8222 50.0888 24.2572C49.7875 24.7252 49.3822 25.1062 48.8729 25.4002ZM52.6178 23.2381C52.0203 23.5831 51.4825 23.6656 51.0044 23.4856L51.4253 22.5766C51.8358 22.7176 52.2411 22.6726 52.6412 22.4416C53.1452 22.1506 53.3972 21.7831 53.3972 21.3391C53.3972 21.1411 53.2985 21.0241 53.1011 20.9881C53.0179 20.9821 52.914 20.9851 52.7893 20.9971L52.4463 21.0331C52.2697 21.0571 52.1268 21.0676 52.0177 21.0646C51.8618 21.0646 51.7293 21.0451 51.6201 21.0061C51.3551 20.9071 51.2226 20.6716 51.2226 20.2996C51.2226 19.8796 51.3577 19.4566 51.6279 19.0306C51.9085 18.5926 52.2801 18.2401 52.7425 17.9731C53.0127 17.8171 53.2725 17.7241 53.5219 17.6941C53.735 17.6731 53.9402 17.6926 54.1377 17.7526L53.7168 18.6346C53.5557 18.5896 53.405 18.5716 53.2647 18.5806C53.0933 18.6016 52.9244 18.6601 52.7581 18.7561C52.3008 19.0201 52.0722 19.3561 52.0722 19.7641C52.0722 19.9501 52.1657 20.0551 52.3528 20.0791C52.4256 20.0851 52.5217 20.0836 52.6412 20.0746L52.8127 20.0476C52.8335 20.0416 52.862 20.0371 52.8984 20.0341L52.9841 20.0206C53.1816 19.9906 53.3323 19.9756 53.4362 19.9756C53.5973 19.9726 53.7324 19.9876 53.8415 20.0206C54.1117 20.1226 54.2468 20.3806 54.2468 20.7946C54.2468 21.2266 54.1091 21.6601 53.8337 22.0951C53.5323 22.5631 53.127 22.9441 52.6178 23.2381ZM55.2014 16.6795L56.0899 16.1665V21.1165L55.2014 21.6295V16.6795ZM55.6456 15.496C55.2663 15.715 55.0766 15.6205 55.0766 15.2125C55.0766 14.8045 55.2663 14.491 55.6456 14.272C56.0301 14.05 56.2224 14.143 56.2224 14.551C56.2224 14.959 56.0301 15.274 55.6456 15.496ZM57.4392 15.3875L58.1718 14.9645L58.242 15.608L58.2653 15.5945C58.494 15.2045 58.707 14.8925 58.9045 14.6585C59.1539 14.3525 59.4137 14.1215 59.6839 13.9655C60.562 13.4585 61.0011 13.859 61.0011 15.167V18.281L60.1048 18.7985V15.8105C60.1048 15.0125 59.8632 14.753 59.3799 15.032C59.0681 15.212 58.7174 15.6395 58.3277 16.3145V19.8245L57.4392 20.3375V15.3875ZM63.7682 18.9064C63.233 19.2154 62.8096 19.3489 62.4978 19.3069C62.16 19.2739 61.9912 19.0474 61.9912 18.6274C61.9912 18.2014 62.199 17.7214 62.6147 17.1874V17.1424C62.3549 17.1124 62.225 16.9144 62.225 16.5484C62.225 16.3684 62.2744 16.1629 62.3731 15.9319C62.4562 15.7399 62.5653 15.5479 62.7004 15.3559V15.3199C62.5394 15.2689 62.4095 15.1639 62.3107 15.0049C62.1964 14.8309 62.1393 14.6059 62.1393 14.3299C62.1393 13.7839 62.3055 13.2499 62.6381 12.7279C62.9499 12.2359 63.337 11.8564 63.7994 11.5894C64.0229 11.4604 64.2307 11.3824 64.423 11.3554L65.9428 10.4779V11.2519L65.1244 11.7244C65.3115 11.8444 65.405 12.0934 65.405 12.4714C65.405 12.9934 65.2492 13.5004 64.9374 13.9924C64.6412 14.4634 64.2619 14.8324 63.7994 15.0994C63.5916 15.2194 63.3915 15.2839 63.1993 15.2929C63.0434 15.5449 62.9654 15.7639 62.9654 15.9499C62.9654 16.2739 63.2045 16.2979 63.6825 16.0219L64.4697 15.5674C65.4986 14.9734 66.013 15.0784 66.013 15.8824C66.013 16.3744 65.8103 16.8994 65.405 17.4574C64.9841 18.0364 64.4386 18.5194 63.7682 18.9064ZM63.7994 14.4334C64.0281 14.3014 64.2177 14.0959 64.3684 13.8169C64.5295 13.5259 64.61 13.2214 64.61 12.9034C64.61 12.2014 64.3398 12.0064 63.7994 12.3184C63.259 12.6304 62.9888 13.1374 62.9888 13.8394C62.9888 14.1574 63.0694 14.3689 63.2304 14.4739C63.3811 14.5789 63.5708 14.5654 63.7994 14.4334ZM63.9007 18.1459C64.2645 17.9359 64.5659 17.6719 64.8049 17.3539C65.0335 17.0539 65.1478 16.7839 65.1478 16.5439C65.1478 16.1839 64.8802 16.1584 64.345 16.4674L63.6981 16.8409C63.5058 16.9519 63.3136 17.0389 63.1213 17.1019C62.8771 17.4469 62.755 17.7574 62.755 18.0334C62.755 18.5494 63.1369 18.5869 63.9007 18.1459Z" fill="white"/>
<defs>
<linearGradient id="paint0_linear_572_21765" x1="-3.40797" y1="2.20753" x2="47.3625" y2="50.0587" gradientUnits="userSpaceOnUse">
<stop stop-color="#3A7DEF"/>
<stop offset="1" stop-color="#384EF6"/>
</linearGradient>
<linearGradient id="paint1_linear_572_21765" x1="0" y1="7.5" x2="85" y2="7.5" gradientUnits="userSpaceOnUse">
<stop stop-color="#2CBFFF"/>
<stop offset="1" stop-color="#2CBFFF"/>
</linearGradient>
</defs>
</svg>
