<svg width="77" height="59" viewBox="0 0 77 59" fill="none" xmlns="http://www.w3.org/2000/svg">
<rect x="0.32476" y="0.5625" width="87.25" height="14.25" rx="1.875" transform="matrix(0.866025 0.5 0 1 0.0435095 -0.16238)" fill="url(#paint0_linear_569_19070)"/>
<rect x="0.32476" y="0.5625" width="87.25" height="14.25" rx="1.875" transform="matrix(0.866025 0.5 0 1 0.0435095 -0.16238)" stroke="url(#paint1_linear_569_19070)" stroke-width="0.75"/>
<path d="M8.55047 9.3125L10.0392 10.172C11.8838 11.237 12.8061 12.8645 12.8061 15.0545C12.8061 16.1225 12.5671 16.8095 12.0891 17.1155C11.6162 17.4185 10.9485 17.321 10.0859 16.823L8.55047 15.9365V9.3125ZM9.97682 15.905C11.2395 16.634 11.8708 16.1705 11.8708 14.5145C11.8708 12.8885 11.2395 11.711 9.97682 10.982L9.4546 10.6805V15.6035L9.97682 15.905ZM14.9357 19.74C14.5615 19.524 14.2576 19.2195 14.0237 18.8265C13.7899 18.4275 13.673 18.012 13.673 17.58C13.673 16.572 14.5278 16.4535 16.2373 17.2245C16.2321 16.8975 16.1749 16.6125 16.0658 16.3695C15.9255 16.0725 15.7099 15.84 15.4189 15.672C15.211 15.552 14.9928 15.477 14.7642 15.447C14.5823 15.42 14.3875 15.4245 14.1796 15.4605L13.8445 14.565C14.1043 14.523 14.3615 14.5215 14.6161 14.5605C14.9434 14.6175 15.263 14.736 15.5748 14.916C16.614 15.516 17.1336 16.515 17.1336 17.913V20.892L16.401 20.469L16.323 19.857L16.2996 19.8435C16.0866 19.9305 15.8762 19.971 15.6683 19.965C15.4241 19.956 15.1799 19.881 14.9357 19.74ZM15.2085 19.0785C15.5306 19.2645 15.8736 19.2705 16.2373 19.0965V17.8815C15.6241 17.6115 15.1825 17.4945 14.9123 17.5305C14.6629 17.5605 14.5381 17.7195 14.5381 18.0075C14.5381 18.4635 14.7616 18.8205 15.2085 19.0785ZM19.7181 22.5012C19.2557 22.2342 18.9179 21.8802 18.7049 21.4392C18.5126 21.0402 18.4165 20.5647 18.4165 20.0127V17.5107L17.793 17.1507V16.3767L18.4555 16.7052L18.5568 15.3957L19.3128 15.8322V17.2002L20.4274 17.8437V18.6717L19.3128 18.0282V20.5392C19.3128 21.1392 19.5207 21.5592 19.9364 21.7992C20.0871 21.8862 20.2404 21.9357 20.3962 21.9477L20.5599 22.8072C20.4144 22.7772 20.2819 22.7427 20.1624 22.7037C20.0065 22.6497 19.8584 22.5822 19.7181 22.5012ZM22.1895 23.928C21.8153 23.712 21.5114 23.4075 21.2775 23.0145C21.0437 22.6155 20.9268 22.2 20.9268 21.768C20.9268 20.76 21.7816 20.6415 23.4911 21.4125C23.4859 21.0855 23.4287 20.8005 23.3196 20.5575C23.1793 20.2605 22.9637 20.028 22.6727 19.86C22.4649 19.74 22.2466 19.665 22.018 19.635C21.8361 19.608 21.6413 19.6125 21.4334 19.6485L21.0983 18.753C21.3581 18.711 21.6153 18.7095 21.8699 18.7485C22.1973 18.8055 22.5168 18.924 22.8286 19.104C23.8678 19.704 24.3874 20.703 24.3874 22.101V25.08L23.6548 24.657L23.5768 24.045L23.5535 24.0315C23.3404 24.1185 23.13 24.159 22.9221 24.153C22.6779 24.144 22.4337 24.069 22.1895 23.928ZM22.4623 23.2665C22.7844 23.4525 23.1274 23.4585 23.4911 23.2845V22.0695C22.878 21.7995 22.4363 21.6825 22.1661 21.7185C21.9167 21.7485 21.792 21.9075 21.792 22.1955C21.792 22.6515 22.0154 23.0085 22.4623 23.2665ZM27.488 20.2461L28.3921 20.7681V27.3921L27.488 26.8701V20.2461ZM29.8153 23.2638L30.548 23.6868L30.6181 24.4113L30.6415 24.4248C30.8701 24.2988 31.0832 24.2328 31.2806 24.2268C31.5301 24.2088 31.7899 24.2778 32.0601 24.4338C32.9382 24.9408 33.3773 25.8483 33.3773 27.1563V30.2703L32.4809 29.7528V26.7648C32.4809 25.9668 32.2393 25.4283 31.7561 25.1493C31.4443 24.9693 31.0936 24.9918 30.7039 25.2168V28.7268L29.8153 28.2138V23.2638ZM36.121 31.9714C35.6586 31.7044 35.3208 31.3504 35.1078 30.9094C34.9155 30.5104 34.8194 30.0349 34.8194 29.4829V26.9809L34.1959 26.6209V25.8469L34.8584 26.1754L34.9597 24.8659L35.7157 25.3024V26.6704L36.8303 27.3139V28.1419L35.7157 27.4984V30.0094C35.7157 30.6094 35.9236 31.0294 36.3393 31.2694C36.49 31.3564 36.6433 31.4059 36.7991 31.4179L36.9628 32.2774C36.8173 32.2474 36.6848 32.2129 36.5653 32.1739C36.4094 32.1199 36.2613 32.0524 36.121 31.9714ZM39.4249 33.8788C38.8273 33.5338 38.3337 33.0208 37.944 32.3398C37.5387 31.6318 37.336 30.8818 37.336 30.0898C37.336 29.3158 37.5361 28.7953 37.9362 28.5283C38.3155 28.2793 38.7676 28.3063 39.2924 28.6093C39.8484 28.9303 40.2822 29.3968 40.594 30.0088C40.8902 30.5938 41.0383 31.2463 41.0383 31.9663C41.0383 32.1823 41.0253 32.3488 40.9993 32.4658L38.2168 30.8593C38.2895 31.9093 38.7312 32.6683 39.5418 33.1363C39.8951 33.3403 40.2355 33.4138 40.5628 33.3568L40.8746 34.1938C40.6616 34.2328 40.4407 34.2313 40.2121 34.1893C39.9575 34.1383 39.6951 34.0348 39.4249 33.8788ZM40.2667 31.3318C40.2667 30.4318 39.9471 29.7973 39.308 29.4283C39.0274 29.2663 38.7883 29.2453 38.5909 29.3653C38.3779 29.4883 38.2505 29.7478 38.209 30.1438L40.2667 31.3318ZM43.4287 38.2964C42.8935 37.9874 42.47 37.6319 42.1582 37.2299C41.8205 36.8069 41.6516 36.3854 41.6516 35.9654C41.6516 35.5394 41.8594 35.2994 42.2751 35.2454V35.2004C42.0153 34.8704 41.8854 34.5224 41.8854 34.1564C41.8854 33.9764 41.9348 33.8279 42.0335 33.7109C42.1166 33.6149 42.2258 33.5489 42.3609 33.5129V33.4769C42.1998 33.2399 42.0699 32.9849 41.9712 32.7119C41.8568 32.4059 41.7997 32.1149 41.7997 31.8389C41.7997 31.2929 41.966 30.9509 42.2985 30.8129C42.6103 30.6809 42.9974 30.7484 43.4599 31.0154C43.6833 31.1444 43.8911 31.3064 44.0834 31.5014L45.6033 32.3789V33.1529L44.7849 32.6804C44.9719 33.0164 45.0655 33.3734 45.0655 33.7514C45.0655 34.2734 44.9096 34.6004 44.5978 34.7324C44.3016 34.8614 43.9223 34.7924 43.4599 34.5254C43.252 34.4054 43.052 34.2389 42.8597 34.0259C42.7038 34.0979 42.6259 34.2269 42.6259 34.4129C42.6259 34.7369 42.8649 35.0369 43.3429 35.3129L44.1302 35.7674C45.159 36.3614 45.6734 37.0604 45.6734 37.8644C45.6734 38.3564 45.4708 38.6474 45.0655 38.7374C44.6446 38.8304 44.099 38.6834 43.4287 38.2964ZM43.4599 33.8594C43.6885 33.9914 43.8781 34.0049 44.0288 33.8999C44.1899 33.7949 44.2705 33.5834 44.2705 33.2654C44.2705 32.5634 44.0003 32.0564 43.4599 31.7444C42.9195 31.4324 42.6493 31.6274 42.6493 32.3294C42.6493 32.6474 42.7298 32.9519 42.8909 33.2429C43.0416 33.5219 43.2312 33.7274 43.4599 33.8594ZM43.5612 37.6889C43.9249 37.8989 44.2263 37.9829 44.4653 37.9409C44.6939 37.9049 44.8083 37.7669 44.8083 37.5269C44.8083 37.1669 44.5407 36.8324 44.0054 36.5234L43.3585 36.1499C43.1663 36.0389 42.974 35.9039 42.7818 35.7449C42.5375 35.8079 42.4154 35.9774 42.4154 36.2534C42.4154 36.7694 42.7973 37.2479 43.5612 37.6889ZM46.4694 32.879L47.2021 33.302L47.2722 34.2335L47.2956 34.247C47.6177 33.755 48.023 33.65 48.5115 33.932C48.7037 34.043 48.8648 34.172 48.9947 34.319L48.831 35.1245C48.6856 34.9865 48.5427 34.877 48.4024 34.796C48.2101 34.685 48.0256 34.6565 47.849 34.7105C47.6515 34.7825 47.4878 34.964 47.3579 35.255V38.342L46.4694 37.829V32.879ZM50.4512 40.2449C50.077 40.0289 49.7731 39.7244 49.5392 39.3314C49.3054 38.9324 49.1885 38.5169 49.1885 38.0849C49.1885 37.0769 50.0433 36.9584 51.7528 37.7294C51.7476 37.4024 51.6904 37.1174 51.5813 36.8744C51.441 36.5774 51.2254 36.3449 50.9344 36.1769C50.7265 36.0569 50.5083 35.9819 50.2797 35.9519C50.0978 35.9249 49.903 35.9294 49.6951 35.9654L49.36 35.0699C49.6198 35.0279 49.877 35.0264 50.1316 35.0654C50.4589 35.1224 50.7785 35.2409 51.0903 35.4209C52.1295 36.0209 52.6491 37.0199 52.6491 38.4179V41.3969L51.9165 40.9739L51.8385 40.3619L51.8151 40.3484C51.6021 40.4354 51.3917 40.4759 51.1838 40.4699C50.9396 40.4609 50.6954 40.3859 50.4512 40.2449ZM50.724 39.5834C51.0461 39.7694 51.3891 39.7754 51.7528 39.6014V38.3864C51.1396 38.1164 50.698 37.9994 50.4278 38.0354C50.1784 38.0654 50.0536 38.2244 50.0536 38.5124C50.0536 38.9684 50.2771 39.3254 50.724 39.5834ZM55.2336 43.006C54.7712 42.739 54.4334 42.385 54.2204 41.944C54.0281 41.545 53.932 41.0695 53.932 40.5175V38.0155L53.3085 37.6555V36.8815L53.971 37.21L54.0723 35.9005L54.8283 36.337V37.705L55.9429 38.3485V39.1765L54.8283 38.533V41.044C54.8283 41.644 55.0362 42.064 55.4519 42.304C55.6026 42.391 55.7559 42.4405 55.9117 42.4525L56.0754 43.312C55.9299 43.282 55.7974 43.2475 55.6779 43.2085C55.522 43.1545 55.3739 43.087 55.2336 43.006ZM56.882 38.8907L57.7705 39.4037V44.3537L56.882 43.8407V38.8907ZM57.3263 38.2202C56.947 38.0012 56.7573 37.6877 56.7573 37.2797C56.7573 36.8717 56.947 36.7772 57.3263 36.9962C57.7108 37.2182 57.903 37.5332 57.903 37.9412C57.903 38.3492 57.7108 38.4422 57.3263 38.2202ZM60.8345 46.2397C60.2785 45.9187 59.8109 45.4237 59.4316 44.7547C59.0211 44.0317 58.8158 43.2772 58.8158 42.4912C58.8158 41.6932 59.0211 41.1697 59.4316 40.9207C59.8109 40.6837 60.2785 40.7257 60.8345 41.0467C61.3905 41.3677 61.8608 41.8672 62.2453 42.5452C62.6506 43.2652 62.8532 44.0242 62.8532 44.8222C62.8532 45.6082 62.6506 46.1272 62.2453 46.3792C61.8608 46.6072 61.3905 46.5607 60.8345 46.2397ZM60.8345 45.3937C61.1723 45.5887 61.4399 45.5842 61.6373 45.3802C61.8348 45.1822 61.9335 44.8192 61.9335 44.2912C61.9335 43.7632 61.8348 43.2832 61.6373 42.8512C61.4399 42.4132 61.1723 42.0967 60.8345 41.9017C60.502 41.7097 60.237 41.7187 60.0395 41.9287C59.8421 42.1327 59.7433 42.4987 59.7433 43.0267C59.7433 43.5487 59.8421 44.0257 60.0395 44.4577C60.237 44.8897 60.502 45.2017 60.8345 45.3937ZM63.9075 42.9469L64.6401 43.3699L64.7103 44.0944L64.7337 44.1079C64.9623 43.9819 65.1753 43.9159 65.3728 43.9099C65.6222 43.8919 65.882 43.9609 66.1522 44.1169C67.0304 44.6239 67.4694 45.5314 67.4694 46.8394V49.9534L66.5731 49.4359V46.4479C66.5731 45.6499 66.3315 45.1114 65.8482 44.8324C65.5365 44.6524 65.1857 44.6749 64.796 44.8999V48.4099L63.9075 47.8969V42.9469Z" fill="white"/>
<defs>
<linearGradient id="paint0_linear_569_19070" x1="-3.52825" y1="2.20753" x2="47.316" y2="51.8195" gradientUnits="userSpaceOnUse">
<stop stop-color="#3A7DEF"/>
<stop offset="1" stop-color="#384EF6"/>
</linearGradient>
<linearGradient id="paint1_linear_569_19070" x1="0" y1="7.5" x2="88" y2="7.5" gradientUnits="userSpaceOnUse">
<stop stop-color="#2CBFFF"/>
<stop offset="1" stop-color="#2CBFFF"/>
</linearGradient>
</defs>
</svg>
