<svg width="12" height="12" viewBox="0 0 12 12" fill="none" xmlns="http://www.w3.org/2000/svg">
<path d="M9.22125 7.75C9.22082 7.68497 9.21503 7.62008 9.20392 7.556L9.5 7.30322L9.144 6.69678L8.774 6.82214C8.67089 6.73952 8.55509 6.67412 8.4311 6.62848L8.356 6.25H7.644L7.56887 6.62848C7.44488 6.67412 7.32908 6.73952 7.22597 6.82214L6.85597 6.69678L6.5 7.30322L6.79608 7.55603C6.77297 7.68429 6.77297 7.81565 6.79608 7.94391L6.5 8.19678L6.856 8.80322L7.226 8.6778C7.32908 8.76046 7.44488 8.82586 7.5689 8.87146L7.644 9.25H8.356L8.43113 8.87146C8.55514 8.82586 8.67093 8.76046 8.774 8.6778L9.14405 8.80322L9.5 8.19678L9.20392 7.94391C9.21502 7.87986 9.22082 7.815 9.22125 7.75ZM8 8.3125C7.88875 8.3125 7.77999 8.27951 7.68749 8.21771C7.59499 8.1559 7.52289 8.06805 7.48031 7.96527C7.43773 7.86248 7.42659 7.74938 7.4483 7.64027C7.47 7.53115 7.52357 7.43092 7.60224 7.35226C7.68091 7.27359 7.78113 7.22001 7.89025 7.19831C7.99936 7.1766 8.11246 7.18774 8.21525 7.23032C8.31803 7.27289 8.40588 7.34499 8.46769 7.43749C8.5295 7.52999 8.56249 7.63875 8.56249 7.75C8.56249 7.89918 8.50323 8.04226 8.39774 8.14774C8.29225 8.25323 8.14918 8.3125 8 8.3125Z" fill="#4D5E7D"/>
<path d="M7.24993 2.59677V1.80664C8.29734 2.11997 9.18995 2.81322 9.75278 3.75049H8.84231C8.42765 3.22686 7.87668 2.82767 7.24993 2.59677Z" fill="#4D5E7D"/>
<path d="M2.24707 8.25049C2.80992 9.18773 3.70253 9.88096 4.74993 10.1943V9.40419C4.12318 9.17329 3.5722 8.77411 3.15753 8.25049H2.24707Z" fill="#4D5E7D"/>
<path opacity="0.25" d="M8.56249 7.75C8.56249 7.86125 8.5295 7.97001 8.46769 8.06251C8.40588 8.15501 8.31803 8.22711 8.21525 8.26968C8.11246 8.31226 7.99936 8.3234 7.89025 8.30169C7.78113 8.27999 7.68091 8.22641 7.60224 8.14774C7.52357 8.06908 7.47 7.96885 7.4483 7.85973C7.42659 7.75062 7.43773 7.63752 7.48031 7.53473C7.52289 7.43195 7.59499 7.3441 7.68749 7.28229C7.77999 7.22049 7.88875 7.1875 8 7.1875C8.07387 7.1875 8.14701 7.20205 8.21526 7.23032C8.28351 7.25858 8.34551 7.30002 8.39775 7.35225C8.44998 7.40448 8.49141 7.46649 8.51968 7.53474C8.54795 7.60299 8.56249 7.67613 8.56249 7.75ZM6.5 1.5C6.5 1.36739 6.44732 1.24021 6.35355 1.14645C6.25979 1.05268 6.13261 1 6 1H2C1.86739 1 1.74021 1.05268 1.64645 1.14645C1.55268 1.24021 1.5 1.36739 1.5 1.5V7C1.5 7.13261 1.55268 7.25979 1.64645 7.35355C1.74021 7.44732 1.86739 7.5 2 7.5H4.75V3.75H6.5V1.5ZM10.5 5V10.5C10.5 10.6326 10.4473 10.7598 10.3536 10.8536C10.2598 10.9473 10.1326 11 10 11H6C5.86739 11 5.74021 10.9473 5.64645 10.8536C5.55268 10.7598 5.5 10.6326 5.5 10.5V4.5H10C10.1326 4.5 10.2598 4.55268 10.3536 4.64645C10.4473 4.74021 10.5 4.86739 10.5 5ZM9.20392 7.556L9.5 7.30322L9.144 6.69678L8.774 6.82214C8.67089 6.73952 8.55509 6.67412 8.4311 6.62848L8.356 6.25H7.644L7.56887 6.62848C7.44488 6.67412 7.32908 6.73952 7.22597 6.82214L6.85597 6.69678L6.5 7.30322L6.79608 7.55603C6.77297 7.68429 6.77297 7.81565 6.79608 7.94391L6.5 8.19678L6.856 8.80322L7.226 8.6778C7.32908 8.76046 7.44488 8.82586 7.5689 8.87146L7.644 9.25H8.356L8.43113 8.87146C8.55514 8.82586 8.67093 8.76046 8.774 8.6778L9.14405 8.80322L9.5 8.19678L9.20392 7.94391C9.22703 7.81565 9.22703 7.68426 9.20392 7.556Z" fill="#4D5E7D"/>
</svg>
