<svg xmlns="http://www.w3.org/2000/svg" width="20" height="20" viewBox="0 0 20 20" fill="none">
  <path d="M4.24915 10.6391L5.9014 12.2913L7.17935 11.0134L5.5271 9.36122L6.80505 8.08331L8.45734 9.73551L9.73527 8.4576L8.083 6.80539L9.36098 5.52746L11.0132 7.17968L12.2912 5.90176L10.6389 4.24954L13.1948 1.6937C13.5477 1.34082 14.1199 1.34082 14.4727 1.6937L18.3066 5.52746C18.6595 5.88035 18.6595 6.4525 18.3066 6.80539L6.80505 18.3067C6.45215 18.6595 5.88 18.6595 5.5271 18.3067L1.69324 14.4729C1.34035 14.12 1.34035 13.5479 1.69324 13.195L4.24915 10.6391ZM11.9169 15.7504L15.7507 11.9166L18.1324 14.2983V18.1327H14.2992L11.9169 15.7504ZM4.24902 8.08274L1.69311 5.52689C1.34022 5.17401 1.34022 4.60186 1.69311 4.24897L4.24902 1.69313C4.60191 1.34025 5.17407 1.34025 5.52697 1.69313L8.08287 4.24897L4.24902 8.08274Z" fill="white"/>
</svg>