<svg xmlns="http://www.w3.org/2000/svg" width="20" height="20" viewBox="0 0 20 20" fill="none">
  <path fill-rule="evenodd" clip-rule="evenodd" d="M12.6699 2.90643C12.8702 2.66699 13.2392 2.66688 13.4394 2.90643L19.0947 9.68475C19.2496 9.87055 19.2496 10.1415 19.0947 10.3273L13.4394 17.1056C13.2392 17.3456 12.8702 17.3454 12.6699 17.1056L9.92279 13.8127L7.17572 17.1056C6.97547 17.3452 6.60744 17.3452 6.40717 17.1056L0.750919 10.3273C0.596059 10.1415 0.596016 9.87055 0.750919 9.68475L6.40717 2.90643C6.60742 2.66715 6.97549 2.66713 7.17572 2.90643L9.92279 6.19842L12.6699 2.90643ZM3.09369 10.0051L6.79096 14.4377L8.61713 12.2482L7.01459 10.3273C6.85968 10.1414 6.85956 9.87056 7.01459 9.68475L8.61811 7.76189L6.79096 5.57244L3.09369 10.0051ZM11.2275 7.76189L12.832 9.68475C12.9868 9.87054 12.9868 10.1415 12.832 10.3273L11.2285 12.2482L13.0546 14.4377L16.7519 10.0051L13.0546 5.57244L11.2275 7.76189ZM9.35639 10.0051L9.92279 10.6838L10.4892 10.0051L9.92279 9.32537L9.35639 10.0051Z" fill="white" fill-opacity="0.8"/>
</svg>