<svg xmlns="http://www.w3.org/2000/svg" width="19" height="19" viewBox="0 0 19 19" fill="none">
  <path d="M15.5837 5.891L15.3888 6.3585C15.2462 6.70076 14.7934 6.70076 14.6507 6.3585L14.4558 5.891C14.1084 5.05741 13.4826 4.39373 12.7017 4.03064L12.1012 3.75142C11.7765 3.60044 11.7765 3.10645 12.1012 2.95547L12.6681 2.69185C13.4691 2.31943 14.1061 1.63118 14.4475 0.769279L14.6477 0.264077C14.7872 -0.0880258 15.2523 -0.0880258 15.3918 0.264077L15.5919 0.769279C15.9334 1.63118 16.5704 2.31943 17.3714 2.69185L17.9383 2.95547C18.263 3.10645 18.263 3.60044 17.9383 3.75142L17.3378 4.03064C16.5569 4.39373 15.9311 5.05741 15.5837 5.891ZM6.32411 1.65289C9.53953 1.65289 12.1945 4.16167 12.5958 7.40904L14.3749 10.3336C14.492 10.5262 14.4684 10.8138 14.1971 10.9353L12.6482 11.6289V14.0496C12.6482 14.9625 11.9404 15.7025 11.0672 15.7025H9.48696L9.48617 18.1818H2.37154L2.37174 15.129C2.3718 14.1531 2.02649 13.2303 1.38775 12.3976C0.519423 11.2655 0 9.82843 0 8.26446C0 4.61299 2.8314 1.65289 6.32411 1.65289ZM6.32411 3.30578C3.70458 3.30578 1.58103 5.52586 1.58103 8.26446C1.58103 9.40901 1.95113 10.49 2.62117 11.3636C3.48589 12.4909 3.95285 13.7745 3.95277 15.1292L3.95267 16.5289H7.90569L7.90648 14.0496H11.0672V10.5388L12.2923 9.99017L11.0729 7.98564L11.0277 7.62081C10.7245 5.16645 8.71486 3.30578 6.32411 3.30578ZM14.616 14.0437L15.9316 14.9607C16.8538 13.5175 17.3913 11.7831 17.3913 9.91744C17.3913 9.35289 17.3421 8.8005 17.2479 8.26446L15.7119 8.67769C15.7766 9.08083 15.8103 9.49504 15.8103 9.91744C15.8103 11.4439 15.3704 12.863 14.616 14.0437Z" fill="white" fill-opacity="0.8"/>
</svg>