<svg xmlns="http://www.w3.org/2000/svg" width="20" height="20" viewBox="0 0 20 20" fill="none">
  <path fill-rule="evenodd" clip-rule="evenodd" d="M17.4639 2.53683C17.042 2.11489 16.481 1.86116 15.8858 1.82311C15.2905 1.78506 14.7018 1.96531 14.2297 2.33012C13.7577 2.69493 13.4346 3.21932 13.321 3.80521C13.2073 4.39109 13.3109 4.99833 13.6123 5.51333L13.6159 5.51953C13.7929 5.81963 14.0316 6.07861 14.3163 6.27924C14.601 6.47987 14.9252 6.61755 15.2672 6.68313C15.6092 6.74871 15.9612 6.74069 16.2999 6.6596C16.6385 6.57851 16.9561 6.42621 17.2314 6.21283C17.5066 5.99944 17.7334 5.72986 17.8965 5.42201C18.0596 5.11416 18.1553 4.7751 18.1773 4.42736C18.1993 4.07963 18.147 3.7312 18.024 3.40523C17.901 3.07927 17.7101 2.78324 17.4639 2.53683ZM16.3075 4.85087C16.1931 4.96528 16.0474 5.04319 15.8888 5.07475C15.7302 5.10631 15.5658 5.09011 15.4164 5.02818C15.267 4.96626 15.1393 4.8614 15.0495 4.72686C14.9596 4.59232 14.9117 4.43414 14.9117 4.27234C14.9117 4.11053 14.9596 3.95235 15.0495 3.81782C15.1393 3.68328 15.267 3.57841 15.4164 3.51649C15.5658 3.45456 15.7302 3.43836 15.8888 3.46992C16.0474 3.50148 16.1931 3.57939 16.3075 3.6938C16.4608 3.84725 16.5469 4.05534 16.5469 4.27233C16.5469 4.48931 16.4608 4.69741 16.3075 4.85087ZM7.94249 6.83461L7.04136 6.04057C7.16704 5.6823 7.16428 5.29144 7.03353 4.93498C6.90279 4.57853 6.65222 4.27867 6.32475 4.08679C5.99729 3.89491 5.61332 3.82297 5.23866 3.88329C4.86399 3.9436 4.52196 4.13242 4.27117 4.41739C4.02038 4.70236 3.87645 5.06573 3.86405 5.44523C3.85165 5.82473 3.97155 6.19673 4.2032 6.49747C4.43485 6.79822 4.76383 7.009 5.13376 7.09367C5.50369 7.17834 5.89153 7.13164 6.23082 6.96158L7.17344 7.79218C7.33627 7.49754 7.53974 7.22731 7.77786 6.98943C7.8315 6.93577 7.88637 6.88417 7.94249 6.83461ZM12.4242 12.4189C12.7567 12.175 13.0451 11.8762 13.277 11.5351L14.3392 12.471C14.8328 12.1364 15.4314 11.9933 16.0228 12.0687C16.6143 12.144 17.158 12.4326 17.552 12.8803C17.9461 13.328 18.1634 13.9041 18.1634 14.5007C18.1633 15.0972 17.9458 15.6733 17.5516 16.1209C17.1575 16.5685 16.6137 16.857 16.0223 16.9322C15.4308 17.0073 14.8322 16.8641 14.3387 16.5294C13.8452 16.1946 13.4906 15.6913 13.3415 15.1137C13.1923 14.5361 13.2587 13.9239 13.5284 13.3918L12.4242 12.4189Z" fill="white" fill-opacity="0.8"/>
  <path fill-rule="evenodd" clip-rule="evenodd" d="M13.6123 5.51333C13.823 5.8715 14.1204 6.1709 14.4772 6.38364L13.3058 7.5558C13.758 8.24503 13.959 9.06916 13.8749 9.88935C13.7908 10.7095 13.4268 11.4757 12.8441 12.0587C12.2614 12.6417 11.4957 13.0059 10.676 13.0901C9.8563 13.1742 9.03265 12.9731 8.34382 12.5206L7.08872 13.7764C7.46892 14.3708 7.61626 15.0848 7.50246 15.7812C7.38865 16.4777 7.02173 17.1075 6.47214 17.5498C5.92254 17.9921 5.22903 18.2156 4.52477 18.1775C3.82051 18.1394 3.15514 17.8423 2.65644 17.3433C2.15774 16.8442 1.86085 16.1785 1.8228 15.4738C1.78474 14.7691 2.0082 14.0752 2.45025 13.5254C2.89231 12.9755 3.5218 12.6084 4.21786 12.4945C4.91392 12.3807 5.62747 12.5282 6.22149 12.9086L7.44894 11.6805C6.92958 10.9902 6.67687 10.1354 6.73732 9.2735C6.79776 8.41158 7.16725 7.6004 7.77786 6.98943C8.38847 6.37846 9.19913 6.00881 10.0606 5.94833C10.922 5.88785 11.7763 6.1407 12.4662 6.66036L13.6123 5.51333ZM3.45177 15.3205C3.45177 15.5632 3.52371 15.8005 3.65847 16.0023C3.79324 16.2041 3.98479 16.3614 4.20889 16.4542C4.433 16.5471 4.67961 16.5714 4.91752 16.5241C5.15543 16.4767 5.37397 16.3598 5.54549 16.1882C5.71701 16.0166 5.83382 15.7979 5.88115 15.5599C5.92847 15.3218 5.90418 15.0751 5.81135 14.8509C5.71853 14.6266 5.56133 14.435 5.35963 14.3001C5.15794 14.1653 4.92082 14.0933 4.67824 14.0933C4.35297 14.0933 4.04102 14.2226 3.81103 14.4527C3.58103 14.6829 3.45177 14.995 3.45177 15.3205Z" fill="white" fill-opacity="0.8"/>
</svg>