<svg width="24" height="24" viewBox="0 0 24 24" fill="none" xmlns="http://www.w3.org/2000/svg">
<g filter="url(#filter0_i_0_58539)">
<rect width="24" height="24" rx="12" fill="url(#paint0_linear_0_58539)" fill-opacity="0.8"/>
<rect width="24" height="24" rx="12" fill="url(#paint1_linear_0_58539)"/>
</g>
<rect x="0.5" y="0.5" width="23" height="23" rx="11.5" stroke="url(#paint2_linear_0_58539)"/>
<mask id="mask0_0_58539" style="mask-type:luminance" maskUnits="userSpaceOnUse" x="0" y="0" width="24" height="24">
<rect x="1" y="1" width="22" height="22" rx="11" fill="white" stroke="white" stroke-width="2"/>
</mask>
<g mask="url(#mask0_0_58539)">
<g filter="url(#filter1_f_0_58539)">
<path d="M-3.12586 6.58551C-3.5114 2.22668 0.208572 -1.88904 5.18293 -2.60721C10.1573 -3.32537 14.5023 -0.374031 14.8879 3.9848C15.2734 8.34363 11.5534 12.4594 6.57909 13.1775C1.60473 13.8957 -2.74033 10.9443 -3.12586 6.58551Z" fill="#A457EB"/>
</g>
<path fill-rule="evenodd" clip-rule="evenodd" d="M11.3223 7.17101C11.7371 6.94308 12.2559 6.94291 12.6914 7.17101L16.4043 9.24621C16.5849 9.34942 16.7318 9.48567 16.8438 9.64269C16.866 9.66522 16.8866 9.69126 16.9023 9.72277C16.9075 9.7318 16.9108 9.74178 16.915 9.75109C17.0281 9.94839 17.0888 10.1727 17.0889 10.4073V14.5362C17.0887 15.0132 16.8191 15.4692 16.4043 15.6974L12.6914 17.7726C12.5336 17.8673 12.3513 17.9247 12.1729 17.9474C12.124 17.9798 12.0672 18 12.0068 18.0001C11.946 18.0001 11.888 17.9803 11.8389 17.9474C11.661 17.9247 11.4796 17.8669 11.3223 17.7726L7.6084 15.6974C7.17293 15.4485 6.92397 15.0132 6.92383 14.5362V10.4073C6.92387 10.1879 6.98291 9.97382 7.08496 9.78332C7.09102 9.7627 7.09922 9.74225 7.11035 9.72277C7.12433 9.69831 7.14196 9.67679 7.16113 9.65734C7.27639 9.48878 7.42793 9.3455 7.6084 9.24621L11.3223 7.17101ZM7.55566 10.3185C7.54956 10.3547 7.54592 10.3912 7.5459 10.4279V14.5568C7.54597 14.8056 7.69178 15.0544 7.91992 15.1788L11.6328 17.253C11.6529 17.264 11.6744 17.2723 11.6953 17.2814V12.6573L7.55566 10.3185ZM14.5459 11.3986C14.5437 11.3999 14.5413 11.4011 14.5391 11.4025L12.3174 12.6573V17.2814C12.3383 17.2724 12.3598 17.264 12.3799 17.253L16.0928 15.1788C16.3209 15.0544 16.4667 14.8056 16.4668 14.5568V10.4073C16.4668 10.377 16.4642 10.3467 16.46 10.3165L14.5459 11.3986ZM7.91992 9.80578C7.91544 9.80822 7.91067 9.81105 7.90625 9.81359L12.0068 12.129L13.7666 11.1339L9.6543 8.83605L7.91992 9.80578ZM12.0059 7.62805C11.8815 7.62814 11.7364 7.6694 11.6328 7.73156L10.2832 8.48449L14.3906 10.7823L16.123 9.80383C16.113 9.79768 16.1031 9.79092 16.0928 9.78527L12.3799 7.71105C12.2762 7.64882 12.1303 7.62805 12.0059 7.62805Z" fill="white"/>
<path d="M11.3223 7.17101L11.2395 7.02038L11.2384 7.02097L11.3223 7.17101ZM12.6914 7.17101L12.7753 7.02093L12.7712 7.01876L12.6914 7.17101ZM16.4043 9.24621L16.4896 9.09698L16.4882 9.09618L16.4043 9.24621ZM16.8438 9.64269L16.7038 9.74249L16.7118 9.7537L16.7215 9.7635L16.8438 9.64269ZM16.9023 9.72277L16.7484 9.79983L16.7531 9.80805L16.9023 9.72277ZM16.915 9.75109L16.7583 9.8217L16.7618 9.82931L16.7659 9.83655L16.915 9.75109ZM17.0889 10.4073H17.2607V10.4073L17.0889 10.4073ZM17.0889 14.5362L17.2607 14.5363V14.5362H17.0889ZM16.4043 15.6974L16.3215 15.5468L16.3204 15.5473L16.4043 15.6974ZM12.6914 17.7726L12.6075 17.6225L12.603 17.6252L12.6914 17.7726ZM12.1729 17.9474L12.1512 17.7769L12.1113 17.7819L12.0777 17.8042L12.1729 17.9474ZM12.0068 18.0001V18.172H12.007L12.0068 18.0001ZM11.8389 17.9474L11.9345 17.8045L11.9008 17.782L11.8607 17.7769L11.8389 17.9474ZM11.3223 17.7726L11.4107 17.6251L11.4061 17.6225L11.3223 17.7726ZM7.6084 15.6974L7.52311 15.8466L7.52456 15.8474L7.6084 15.6974ZM6.92383 14.5362H6.75195V14.5363L6.92383 14.5362ZM6.92383 10.4073L6.75195 10.4073V10.4073H6.92383ZM7.08496 9.78332L7.23647 9.86448L7.24486 9.84881L7.24987 9.83175L7.08496 9.78332ZM7.11035 9.72277L6.96114 9.63747L6.96112 9.6375L7.11035 9.72277ZM7.16113 9.65734L7.28354 9.778L7.29433 9.76705L7.30302 9.75435L7.16113 9.65734ZM7.6084 9.24621L7.69126 9.3968L7.69224 9.39625L7.6084 9.24621ZM7.55566 10.3185L7.64021 10.1688L7.42692 10.0483L7.38618 10.2899L7.55566 10.3185ZM7.5459 10.4279L7.37402 10.4277V10.4279H7.5459ZM7.5459 14.5568H7.37402L7.37402 14.5568L7.5459 14.5568ZM7.91992 15.1788L8.00375 15.0288L8.00223 15.0279L7.91992 15.1788ZM11.6328 17.253L11.549 17.4031L11.5505 17.4039L11.6328 17.253ZM11.6953 17.2814L11.6273 17.4392L11.8672 17.5425V17.2814H11.6953ZM11.6953 12.6573H11.8672V12.557L11.7799 12.5077L11.6953 12.6573ZM14.5459 11.3986L14.4612 11.2488L14.4548 11.2528L14.5459 11.3986ZM14.5391 11.4025L14.6236 11.5521L14.6266 11.5504L14.5391 11.4025ZM12.3174 12.6573L12.2329 12.5077L12.1455 12.557V12.6573H12.3174ZM12.3174 17.2814H12.1455V17.5426L12.3854 17.4392L12.3174 17.2814ZM12.3799 17.253L12.4622 17.4039L12.4637 17.4031L12.3799 17.253ZM16.0928 15.1788L16.0105 15.0279L16.0089 15.0288L16.0928 15.1788ZM16.4668 14.5568L16.6387 14.5568V14.5568H16.4668ZM16.4668 10.4073H16.6387V10.4073L16.4668 10.4073ZM16.46 10.3165L16.6302 10.2927L16.5952 10.0426L16.3754 10.1669L16.46 10.3165ZM7.91992 9.80578L8.00223 9.95668L8.0038 9.9558L7.91992 9.80578ZM7.90625 9.81359L7.82058 9.66459L7.55907 9.81494L7.82174 9.96326L7.90625 9.81359ZM12.0068 12.129L11.9223 12.2787L12.0069 12.3264L12.0914 12.2786L12.0068 12.129ZM13.7666 11.1339L13.8512 11.2835L14.1174 11.133L13.8504 10.9839L13.7666 11.1339ZM9.6543 8.83605L9.73814 8.68601L9.65427 8.63915L9.57042 8.68603L9.6543 8.83605ZM12.0059 7.62805V7.45617L12.0057 7.45617L12.0059 7.62805ZM11.6328 7.73156L11.7166 7.88173L11.7212 7.87894L11.6328 7.73156ZM10.2832 8.48449L10.1995 8.33439L9.93079 8.48428L10.1993 8.63449L10.2832 8.48449ZM14.3906 10.7823L14.3067 10.9323L14.391 10.9795L14.4752 10.932L14.3906 10.7823ZM16.123 9.80383L16.2076 9.95348L16.4615 9.81006L16.213 9.65738L16.123 9.80383ZM16.0928 9.78527L16.0089 9.93533L16.0105 9.93616L16.0928 9.78527ZM12.3799 7.71105L12.2914 7.85851L12.2961 7.8611L12.3799 7.71105ZM11.3223 7.17101L11.405 7.32165C11.7671 7.12268 12.2249 7.12069 12.6117 7.32327L12.6914 7.17101L12.7712 7.01876C12.287 6.76513 11.707 6.76349 11.2395 7.02038L11.3223 7.17101ZM12.6914 7.17101L12.6076 7.32105L16.3204 9.39624L16.4043 9.24621L16.4882 9.09618L12.7753 7.02098L12.6914 7.17101ZM16.4043 9.24621L16.319 9.39543C16.4776 9.48605 16.606 9.60526 16.7038 9.74249L16.8438 9.64269L16.9837 9.5429C16.8576 9.36607 16.6922 9.21279 16.4896 9.09699L16.4043 9.24621ZM16.8438 9.64269L16.7215 9.7635C16.7343 9.77649 16.7428 9.78811 16.7486 9.79971L16.9023 9.72277L17.056 9.64583C17.0303 9.59441 16.9977 9.55395 16.966 9.52189L16.8438 9.64269ZM16.9023 9.72277L16.7531 9.80805C16.7504 9.8033 16.7493 9.80034 16.7505 9.8032C16.7508 9.8038 16.7511 9.80454 16.7515 9.80563C16.7519 9.80653 16.7525 9.80813 16.7531 9.80952C16.7543 9.81245 16.7561 9.81683 16.7583 9.8217L16.915 9.75109L17.0717 9.68048C17.0718 9.68069 17.0717 9.68034 17.0709 9.67849C17.0706 9.67765 17.0688 9.67327 17.0676 9.67045C17.0648 9.66374 17.0594 9.65127 17.0516 9.6375L16.9023 9.72277ZM16.915 9.75109L16.7659 9.83655C16.8641 10.0079 16.917 10.2027 16.917 10.4074L17.0889 10.4073L17.2607 10.4073C17.2607 10.1427 17.1921 9.88893 17.0642 9.66564L16.915 9.75109ZM17.0889 10.4073H16.917V14.5362H17.0889H17.2607V10.4073H17.0889ZM17.0889 14.5362L16.917 14.5362C16.9169 14.9508 16.6811 15.349 16.3215 15.5468L16.4043 15.6974L16.4871 15.848C16.957 15.5895 17.2606 15.0757 17.2607 14.5363L17.0889 14.5362ZM16.4043 15.6974L16.3204 15.5473L12.6076 17.6225L12.6914 17.7726L12.7753 17.9226L16.4882 15.8474L16.4043 15.6974ZM12.6914 17.7726L12.603 17.6252C12.4682 17.7061 12.3092 17.7568 12.1512 17.7769L12.1729 17.9474L12.1945 18.1179C12.3933 18.0926 12.599 18.0285 12.7798 17.92L12.6914 17.7726ZM12.1729 17.9474L12.0777 17.8042C12.0524 17.8211 12.028 17.8282 12.0066 17.8282L12.0068 18.0001L12.007 18.172C12.1063 18.1719 12.1956 18.1386 12.268 18.0905L12.1729 17.9474ZM12.0068 18.0001V17.8282C11.9838 17.8282 11.9585 17.8207 11.9345 17.8045L11.8389 17.9474L11.7433 18.0902C11.8174 18.1399 11.9083 18.172 12.0068 18.172V18.0001ZM11.8389 17.9474L11.8607 17.7769C11.7035 17.7568 11.5453 17.7059 11.4106 17.6251L11.3223 17.7726L11.2339 17.92C11.4139 18.0279 11.6185 18.0925 11.8171 18.1179L11.8389 17.9474ZM11.3223 17.7726L11.4061 17.6225L7.69224 15.5473L7.6084 15.6974L7.52456 15.8474L11.2384 17.9226L11.3223 17.7726ZM7.6084 15.6974L7.69368 15.5482C7.31101 15.3294 7.09583 14.9506 7.09571 14.5362L6.92383 14.5362L6.75195 14.5363C6.75211 15.0757 7.03486 15.5676 7.52311 15.8466L7.6084 15.6974ZM6.92383 14.5362H7.09571V10.4073H6.92383H6.75195V14.5362H6.92383ZM6.92383 10.4073L7.09571 10.4074C7.09574 10.2187 7.14654 10.0324 7.23647 9.86448L7.08496 9.78332L6.93345 9.70216C6.81928 9.91528 6.75199 10.157 6.75195 10.4073L6.92383 10.4073ZM7.08496 9.78332L7.24987 9.83175C7.25278 9.82186 7.25611 9.81412 7.25958 9.80805L7.11035 9.72277L6.96112 9.6375C6.94233 9.67038 6.92925 9.70354 6.92005 9.73489L7.08496 9.78332ZM7.11035 9.72277L7.25957 9.80808C7.26427 9.79984 7.2717 9.79001 7.28354 9.778L7.16113 9.65734L7.03873 9.53668C7.01222 9.56358 6.98439 9.59679 6.96114 9.63747L7.11035 9.72277ZM7.16113 9.65734L7.30302 9.75435C7.40441 9.60606 7.53639 9.48201 7.69125 9.3968L7.6084 9.24621L7.52554 9.09562C7.31948 9.209 7.14837 9.37149 7.01925 9.56033L7.16113 9.65734ZM7.6084 9.24621L7.69224 9.39625L11.4061 7.32106L11.3223 7.17101L11.2384 7.02097L7.52456 9.09617L7.6084 9.24621ZM7.55566 10.3185L7.38618 10.2899C7.37879 10.3337 7.37405 10.3799 7.37402 10.4277L7.5459 10.4279L7.71778 10.428C7.71779 10.4026 7.72032 10.3757 7.72515 10.3471L7.55566 10.3185ZM7.5459 10.4279H7.37402V14.5568H7.5459H7.71778V10.4279H7.5459ZM7.5459 14.5568L7.37402 14.5568C7.37411 14.8692 7.55481 15.1755 7.83762 15.3297L7.91992 15.1788L8.00223 15.0279C7.82874 14.9333 7.71783 14.7421 7.71778 14.5567L7.5459 14.5568ZM7.91992 15.1788L7.8361 15.3289L11.549 17.4031L11.6328 17.253L11.7166 17.103L8.00375 15.0288L7.91992 15.1788ZM11.6328 17.253L11.5505 17.4039C11.5798 17.4199 11.6141 17.4335 11.6273 17.4392L11.6953 17.2814L11.7633 17.1235C11.7347 17.1112 11.7259 17.108 11.7151 17.1022L11.6328 17.253ZM11.6953 17.2814H11.8672V12.6573H11.6953H11.5234V17.2814H11.6953ZM11.6953 12.6573L11.7799 12.5077L7.64021 10.1688L7.55566 10.3185L7.47112 10.4681L11.6108 12.807L11.6953 12.6573ZM14.5459 11.3986L14.4548 11.2528C14.4579 11.2509 14.4602 11.2496 14.4592 11.2502C14.459 11.2503 14.459 11.2503 14.4585 11.2506C14.4581 11.2508 14.4575 11.2511 14.4569 11.2514C14.4557 11.2521 14.4538 11.2532 14.4516 11.2545L14.5391 11.4025L14.6266 11.5504C14.6255 11.551 14.6247 11.5515 14.6246 11.5515C14.6246 11.5515 14.6246 11.5515 14.6248 11.5514C14.6248 11.5514 14.6255 11.5511 14.6257 11.5509C14.6271 11.5501 14.6317 11.5476 14.637 11.5443L14.5459 11.3986ZM14.5391 11.4025L14.4545 11.2528L12.2329 12.5077L12.3174 12.6573L12.4019 12.807L14.6236 11.5521L14.5391 11.4025ZM12.3174 12.6573H12.1455V17.2814H12.3174H12.4893V12.6573H12.3174ZM12.3174 17.2814L12.3854 17.4392C12.3986 17.4335 12.4329 17.4199 12.4622 17.4039L12.3799 17.253L12.2976 17.1022C12.2868 17.108 12.278 17.1112 12.2494 17.1235L12.3174 17.2814ZM12.3799 17.253L12.4637 17.4031L16.1766 15.3289L16.0928 15.1788L16.0089 15.0288L12.2961 17.103L12.3799 17.253ZM16.0928 15.1788L16.1751 15.3297C16.4579 15.1755 16.6386 14.8692 16.6387 14.5568L16.4668 14.5568L16.2949 14.5567C16.2949 14.7421 16.184 14.9333 16.0105 15.0279L16.0928 15.1788ZM16.4668 14.5568H16.6387V10.4073H16.4668H16.2949V14.5568H16.4668ZM16.4668 10.4073L16.6387 10.4073C16.6387 10.3672 16.6352 10.3287 16.6302 10.2927L16.46 10.3165L16.2897 10.3403C16.2931 10.3646 16.2949 10.3868 16.2949 10.4074L16.4668 10.4073ZM16.46 10.3165L16.3754 10.1669L14.4613 11.2489L14.5459 11.3986L14.6305 11.5482L16.5445 10.4661L16.46 10.3165ZM7.91992 9.80578L7.83762 9.65489C7.8309 9.65855 7.82216 9.66368 7.82058 9.66459L7.90625 9.81359L7.99192 9.9626C7.99917 9.95843 7.99998 9.95789 8.00223 9.95667L7.91992 9.80578ZM7.90625 9.81359L7.82174 9.96326L11.9223 12.2787L12.0068 12.129L12.0913 11.9794L7.99076 9.66393L7.90625 9.81359ZM12.0068 12.129L12.0914 12.2786L13.8512 11.2835L13.7666 11.1339L13.682 10.9843L11.9222 11.9794L12.0068 12.129ZM13.7666 11.1339L13.8504 10.9839L9.73814 8.68601L9.6543 8.83605L9.57046 8.9861L13.6828 11.2839L13.7666 11.1339ZM9.6543 8.83605L9.57042 8.68603L7.83604 9.65576L7.91992 9.80578L8.0038 9.9558L9.73818 8.98607L9.6543 8.83605ZM12.0059 7.62805L12.0057 7.45617C11.8498 7.45629 11.6743 7.50624 11.5444 7.58418L11.6328 7.73156L11.7212 7.87894C11.7986 7.83255 11.9132 7.79999 12.006 7.79992L12.0059 7.62805ZM11.6328 7.73156L11.5491 7.58146L10.1995 8.33439L10.2832 8.48449L10.3669 8.63459L11.7166 7.88166L11.6328 7.73156ZM10.2832 8.48449L10.1993 8.63449L14.3067 10.9323L14.3906 10.7823L14.4745 10.6323L10.3671 8.33449L10.2832 8.48449ZM14.3906 10.7823L14.4752 10.932L16.2076 9.95348L16.123 9.80383L16.0385 9.65417L14.3061 10.6327L14.3906 10.7823ZM16.123 9.80383L16.213 9.65738C16.2129 9.6573 16.1901 9.6426 16.1751 9.63438L16.0928 9.78527L16.0105 9.93616C16.0161 9.93924 16.0132 9.93806 16.0331 9.95027L16.123 9.80383ZM16.0928 9.78527L16.1766 9.63522L12.4637 7.561L12.3799 7.71105L12.2961 7.8611L16.0089 9.93532L16.0928 9.78527ZM12.3799 7.71105L12.4683 7.56367C12.3249 7.47765 12.1418 7.45617 12.0059 7.45617V7.62805V7.79992C12.1189 7.79992 12.2274 7.81999 12.2915 7.85844L12.3799 7.71105Z" fill="white"/>
</g>
<defs>
<filter id="filter0_i_0_58539" x="0" y="-4" width="24" height="28" filterUnits="userSpaceOnUse" color-interpolation-filters="sRGB">
<feFlood flood-opacity="0" result="BackgroundImageFix"/>
<feBlend mode="normal" in="SourceGraphic" in2="BackgroundImageFix" result="shape"/>
<feColorMatrix in="SourceAlpha" type="matrix" values="0 0 0 0 0 0 0 0 0 0 0 0 0 0 0 0 0 0 127 0" result="hardAlpha"/>
<feOffset dy="-4"/>
<feGaussianBlur stdDeviation="5"/>
<feComposite in2="hardAlpha" operator="arithmetic" k2="-1" k3="1"/>
<feColorMatrix type="matrix" values="0 0 0 0 0.591919 0 0 0 0 0.57337 0 0 0 0 1 0 0 0 0.200175 0"/>
<feBlend mode="normal" in2="shape" result="effect1_innerShadow_0_58539"/>
</filter>
<filter id="filter1_f_0_58539" x="-19.463" y="-19.0245" width="50.6882" height="48.6194" filterUnits="userSpaceOnUse" color-interpolation-filters="sRGB">
<feFlood flood-opacity="0" result="BackgroundImageFix"/>
<feBlend mode="normal" in="SourceGraphic" in2="BackgroundImageFix" result="shape"/>
<feGaussianBlur stdDeviation="8.15485" result="effect1_foregroundBlur_0_58539"/>
</filter>
<linearGradient id="paint0_linear_0_58539" x1="9.20397" y1="13.1438" x2="11.4916" y2="23.4246" gradientUnits="userSpaceOnUse">
<stop stop-color="#7A58EB"/>
<stop offset="1" stop-color="#567CF7"/>
</linearGradient>
<linearGradient id="paint1_linear_0_58539" x1="4" y1="4.5" x2="20.5" y2="30.5" gradientUnits="userSpaceOnUse">
<stop stop-color="#004CFF"/>
<stop offset="0.448701" stop-color="#983DFF"/>
<stop offset="0.854963" stop-color="#EC7DFF"/>
</linearGradient>
<linearGradient id="paint2_linear_0_58539" x1="-3.57117" y1="3.05102" x2="2.53086" y2="27.051" gradientUnits="userSpaceOnUse">
<stop stop-color="#EBEEFF"/>
<stop offset="1" stop-color="#EBEEFF" stop-opacity="0.01"/>
</linearGradient>
</defs>
</svg>
