<svg width="24" height="24" viewBox="0 0 24 24" fill="none" xmlns="http://www.w3.org/2000/svg">
<g filter="url(#filter0_i_0_58572)">
<rect width="24" height="24" rx="12" fill="url(#paint0_linear_0_58572)" fill-opacity="0.8"/>
<rect width="24" height="24" rx="12" fill="url(#paint1_linear_0_58572)"/>
</g>
<rect x="0.5" y="0.5" width="23" height="23" rx="11.5" stroke="url(#paint2_linear_0_58572)"/>
<mask id="mask0_0_58572" style="mask-type:luminance" maskUnits="userSpaceOnUse" x="0" y="0" width="24" height="24">
<rect x="1" y="1" width="22" height="22" rx="11" fill="white" stroke="white" stroke-width="2"/>
</mask>
<g mask="url(#mask0_0_58572)">
<g filter="url(#filter1_f_0_58572)">
<path d="M-3.12586 6.58551C-3.5114 2.22668 0.208572 -1.88904 5.18293 -2.60721C10.1573 -3.32537 14.5023 -0.374031 14.8879 3.9848C15.2734 8.34363 11.5534 12.4594 6.57909 13.1775C1.60473 13.8957 -2.74033 10.9443 -3.12586 6.58551Z" fill="#A457EB"/>
</g>
<path fill-rule="evenodd" clip-rule="evenodd" d="M16.6197 10.206H14.2553L12.7726 7.24045C12.6924 7.08015 12.5722 7 12.4119 7H10.0074C9.88722 7 9.72692 7.08015 9.64677 7.20037C9.56663 7.3206 9.56663 7.48089 9.64677 7.60112L10.9692 10.246H9.4464L8.36439 8.40261C8.28424 8.28238 8.16402 8.20223 8.00372 8.20223H6.40074C6.28052 8.20223 6.1603 8.24231 6.08015 8.36253C6 8.48275 6 8.5629 6 8.68313L7.20223 13.4921C7.24231 13.6924 7.40261 13.8127 7.60298 13.8127H11.2097L9.64677 16.8182C9.56663 16.9385 9.6067 17.0988 9.64677 17.219C9.68685 17.3392 9.88722 17.4194 10.0074 17.4194H12.4119C12.5722 17.4194 12.6924 17.3392 12.7726 17.219L14.4958 13.8127H16.6197C17.6216 13.8127 18.4231 13.0112 18.4231 12.0093C18.4231 11.0074 17.6216 10.206 16.6197 10.206ZM10.6483 7.8014H12.1711L13.3733 10.2059H11.8505L10.6483 7.8014ZM16.6205 13.0112H14.2561C14.0958 13.0112 13.9756 13.0913 13.8955 13.2115L12.1723 16.6179H10.6494L12.2123 13.6123C12.2925 13.492 12.2524 13.3317 12.2123 13.2115C12.1723 13.0913 12.012 13.0112 11.8517 13.0112H7.92438L6.92252 9.00371H7.80416L8.88617 10.8071C8.92625 10.9273 9.04647 11.0074 9.20677 11.0074H16.6205C17.1816 11.0074 17.6224 11.4482 17.6224 12.0093C17.6224 12.5703 17.1816 13.0112 16.6205 13.0112Z" fill="white"/>
<path d="M14.2553 10.206L14.0817 10.2928L14.1354 10.4001H14.2553V10.206ZM12.7726 7.24045L12.599 7.32726V7.32726L12.7726 7.24045ZM9.64677 7.60112L9.82039 7.51431L9.81499 7.5035L9.80828 7.49344L9.64677 7.60112ZM10.9692 10.246V10.4401H11.2833L11.1428 10.1592L10.9692 10.246ZM9.4464 10.246L9.279 10.3443L9.33526 10.4401H9.4464V10.246ZM8.36439 8.40261L8.53207 8.30419L8.5259 8.29493L8.36439 8.40261ZM6 8.68313H5.80589V8.70702L5.81169 8.73021L6 8.68313ZM7.20223 13.4921L7.39279 13.4539L7.39055 13.445L7.20223 13.4921ZM11.2097 13.8127L11.3819 13.9022L11.5294 13.6185H11.2097V13.8127ZM9.64677 16.8182L9.80828 16.9259L9.81413 16.9171L9.81899 16.9078L9.64677 16.8182ZM12.7726 17.219L12.9341 17.3267L12.9405 17.317L12.9458 17.3066L12.7726 17.219ZM14.4958 13.8127V13.6185H14.3764L14.3226 13.725L14.4958 13.8127ZM12.1711 7.8014L12.3447 7.71459L12.2911 7.60729H12.1711V7.8014ZM13.3733 10.2059V10.4H13.6874L13.5469 10.1191L13.3733 10.2059ZM11.8505 10.2059L11.6769 10.2927L11.7305 10.4H11.8505V10.2059ZM10.6483 7.8014M13.8955 13.2115L13.734 13.1039L13.7275 13.1135L13.7223 13.1239L13.8955 13.2115ZM12.1723 16.6179V16.812H12.2916L12.3455 16.7055L12.1723 16.6179ZM10.6494 16.6179L10.4772 16.5283L10.3297 16.812H10.6494V16.6179ZM12.2123 13.6123L12.0508 13.5046L12.045 13.5134L12.0401 13.5227L12.2123 13.6123ZM7.92438 13.0112L7.73607 13.0582L7.77283 13.2053H7.92438V13.0112ZM6.92252 9.00371V8.8096H6.67391L6.73421 9.05079L6.92252 9.00371ZM7.80416 9.00371L7.97061 8.90384L7.91407 8.8096H7.80416V9.00371ZM8.88617 10.8071L9.07032 10.7457L9.06358 10.7255L9.05262 10.7072L8.88617 10.8071ZM16.6197 10.206V10.0118H14.2553V10.206V10.4001H16.6197V10.206ZM14.2553 10.206L14.429 10.1191L12.9462 7.15364L12.7726 7.24045L12.599 7.32726L14.0817 10.2928L14.2553 10.206ZM12.7726 7.24045L12.9462 7.15364C12.8946 7.05046 12.8242 6.96142 12.73 6.8986C12.6345 6.83498 12.526 6.80589 12.4119 6.80589V7V7.19411C12.4581 7.19411 12.4898 7.2051 12.5146 7.22162C12.5406 7.23895 12.5704 7.27013 12.599 7.32726L12.7726 7.24045ZM12.4119 7V6.80589H10.0074V7V7.19411H12.4119V7ZM10.0074 7V6.80589C9.90795 6.80589 9.80629 6.83776 9.72005 6.88419C9.63292 6.93111 9.54639 7.00101 9.48526 7.0927L9.64677 7.20037L9.80828 7.30805C9.82731 7.27951 9.861 7.24922 9.90411 7.22601C9.94811 7.20232 9.98671 7.19411 10.0074 7.19411V7ZM9.64677 7.20037L9.48526 7.0927C9.36165 7.27812 9.36165 7.52336 9.48526 7.70879L9.64677 7.60112L9.80828 7.49344C9.7716 7.43842 9.7716 7.36307 9.80828 7.30805L9.64677 7.20037ZM9.64677 7.60112L9.47316 7.68793L10.7956 10.3328L10.9692 10.246L11.1428 10.1592L9.82039 7.51431L9.64677 7.60112ZM10.9692 10.246V10.0519H9.4464V10.246V10.4401H10.9692V10.246ZM9.4464 10.246L9.61381 10.1478L8.5318 8.30435L8.36439 8.40261L8.19699 8.50086L9.279 10.3443L9.4464 10.246ZM8.36439 8.40261L8.5259 8.29493C8.41593 8.12997 8.23932 8.00812 8.00372 8.00812V8.20223V8.39634C8.08872 8.39634 8.15256 8.43479 8.20288 8.51028L8.36439 8.40261ZM8.00372 8.20223V8.00812H6.40074V8.20223V8.39634H8.00372V8.20223ZM6.40074 8.20223V8.00812C6.23577 8.00812 6.04469 8.06578 5.91864 8.25486L6.08015 8.36253L6.24166 8.4702C6.27591 8.41883 6.32527 8.39634 6.40074 8.39634V8.20223ZM6.08015 8.36253L5.91864 8.25486C5.86634 8.33331 5.83528 8.40675 5.81968 8.48476C5.80522 8.55705 5.80589 8.62695 5.80589 8.68313H6H6.19411C6.19411 8.61908 6.19478 8.58879 6.20036 8.5609C6.20479 8.53872 6.21381 8.51198 6.24166 8.4702L6.08015 8.36253ZM6 8.68313L5.81169 8.73021L7.01392 13.5391L7.20223 13.4921L7.39055 13.445L6.18831 8.63605L6 8.68313ZM7.20223 13.4921L7.01189 13.5301C7.07146 13.8279 7.3171 14.0068 7.60298 14.0068V13.8127V13.6185C7.48811 13.6185 7.41316 13.5569 7.39257 13.454L7.20223 13.4921ZM7.60298 13.8127V14.0068H11.2097V13.8127V13.6185H7.60298V13.8127ZM11.2097 13.8127L11.0375 13.7231L9.47456 16.7287L9.64677 16.8182L9.81899 16.9078L11.3819 13.9022L11.2097 13.8127ZM9.64677 16.8182L9.48526 16.7106C9.41334 16.8185 9.40121 16.9363 9.40807 17.0324C9.41486 17.1275 9.44125 17.2162 9.46262 17.2804L9.64677 17.219L9.83092 17.1576C9.81223 17.1015 9.79854 17.05 9.79531 17.0048C9.79215 16.9606 9.80006 16.9382 9.80828 16.9259L9.64677 16.8182ZM9.64677 17.219L9.46262 17.2804C9.50724 17.4142 9.62459 17.495 9.71024 17.5379C9.80205 17.5838 9.9118 17.6135 10.0074 17.6135V17.4194V17.2252C9.98286 17.2252 9.93232 17.2149 9.88386 17.1906C9.86113 17.1793 9.84495 17.1678 9.83521 17.1588C9.82507 17.1494 9.82777 17.1481 9.83092 17.1576L9.64677 17.219ZM10.0074 17.4194V17.6135H12.4119V17.4194V17.2252H10.0074V17.4194ZM12.4119 17.4194V17.6135C12.6475 17.6135 12.8241 17.4916 12.9341 17.3267L12.7726 17.219L12.6111 17.1113C12.5607 17.1868 12.4969 17.2252 12.4119 17.2252V17.4194ZM12.7726 17.219L12.9458 17.3066L14.669 13.9003L14.4958 13.8127L14.3226 13.725L12.5994 17.1314L12.7726 17.219ZM14.4958 13.8127V14.0068H16.6197V13.8127V13.6185H14.4958V13.8127ZM16.6197 13.8127V14.0068C17.7288 14.0068 18.6172 13.1184 18.6172 12.0093H18.4231H18.229C18.229 12.904 17.5144 13.6185 16.6197 13.6185V13.8127ZM18.4231 12.0093H18.6172C18.6172 10.9002 17.7288 10.0118 16.6197 10.0118V10.206V10.4001C17.5144 10.4001 18.229 11.1146 18.229 12.0093H18.4231ZM10.6483 7.8014V7.99551H12.1711V7.8014V7.60729H10.6483V7.8014ZM12.1711 7.8014L11.9975 7.88821L13.1997 10.2927L13.3733 10.2059L13.5469 10.1191L12.3447 7.71459L12.1711 7.8014ZM13.3733 10.2059V10.0118H11.8505V10.2059V10.4H13.3733V10.2059ZM11.8505 10.2059L12.0241 10.1191L10.8219 7.71459L10.6483 7.8014L10.4746 7.88821L11.6769 10.2927L11.8505 10.2059ZM10.6483 7.8014M16.6205 13.0112V12.817H14.2561V13.0112V13.2053H16.6205V13.0112ZM14.2561 13.0112V12.817C14.0206 12.817 13.8439 12.9389 13.734 13.1039L13.8955 13.2115L14.057 13.3192C14.1073 13.2437 14.1711 13.2053 14.2561 13.2053V13.0112ZM13.8955 13.2115L13.7223 13.1239L11.9991 16.5302L12.1723 16.6179L12.3455 16.7055L14.0687 13.2991L13.8955 13.2115ZM12.1723 16.6179V16.4237H10.6494V16.6179V16.812H12.1723V16.6179ZM10.6494 16.6179L10.8217 16.7074L12.3846 13.7018L12.2123 13.6123L12.0401 13.5227L10.4772 16.5283L10.6494 16.6179ZM12.2123 13.6123L12.3739 13.7199C12.4458 13.612 12.4579 13.4942 12.4511 13.3981C12.4443 13.3031 12.4179 13.2143 12.3965 13.1501L12.2123 13.2115L12.0282 13.2729C12.0469 13.329 12.0606 13.3805 12.0638 13.4257C12.067 13.4699 12.0591 13.4923 12.0508 13.5046L12.2123 13.6123ZM12.2123 13.2115L12.3965 13.1501C12.356 13.0285 12.262 12.9454 12.1691 12.8953C12.0744 12.8443 11.9624 12.817 11.8517 12.817V13.0112V13.2053C11.9013 13.2053 11.9496 13.2181 11.9851 13.2372C12.0224 13.2573 12.0287 13.2743 12.0282 13.2729L12.2123 13.2115ZM11.8517 13.0112V12.817H7.92438V13.0112V13.2053H11.8517V13.0112ZM7.92438 13.0112L8.1127 12.9641L7.11084 8.95663L6.92252 9.00371L6.73421 9.05079L7.73607 13.0582L7.92438 13.0112ZM6.92252 9.00371V9.19782H7.80416V9.00371V8.8096H6.92252V9.00371ZM7.80416 9.00371L7.63771 9.10358L8.71972 10.9069L8.88617 10.8071L9.05262 10.7072L7.97061 8.90384L7.80416 9.00371ZM8.88617 10.8071L8.70202 10.8684C8.77411 11.0847 8.98208 11.2015 9.20677 11.2015V11.0074V10.8133C9.11085 10.8133 9.07838 10.7699 9.07032 10.7457L8.88617 10.8071ZM9.20677 11.0074V11.2015H16.6205V11.0074V10.8133H9.20677V11.0074ZM16.6205 11.0074V11.2015C17.0744 11.2015 17.4283 11.5555 17.4283 12.0093H17.6224H17.8165C17.8165 11.341 17.2888 10.8133 16.6205 10.8133V11.0074ZM17.6224 12.0093H17.4283C17.4283 12.4631 17.0744 12.817 16.6205 12.817V13.0112V13.2053C17.2888 13.2053 17.8165 12.6775 17.8165 12.0093H17.6224Z" fill="white"/>
</g>
<defs>
<filter id="filter0_i_0_58572" x="0" y="-4" width="24" height="28" filterUnits="userSpaceOnUse" color-interpolation-filters="sRGB">
<feFlood flood-opacity="0" result="BackgroundImageFix"/>
<feBlend mode="normal" in="SourceGraphic" in2="BackgroundImageFix" result="shape"/>
<feColorMatrix in="SourceAlpha" type="matrix" values="0 0 0 0 0 0 0 0 0 0 0 0 0 0 0 0 0 0 127 0" result="hardAlpha"/>
<feOffset dy="-4"/>
<feGaussianBlur stdDeviation="5"/>
<feComposite in2="hardAlpha" operator="arithmetic" k2="-1" k3="1"/>
<feColorMatrix type="matrix" values="0 0 0 0 0.591919 0 0 0 0 0.57337 0 0 0 0 1 0 0 0 0.200175 0"/>
<feBlend mode="normal" in2="shape" result="effect1_innerShadow_0_58572"/>
</filter>
<filter id="filter1_f_0_58572" x="-19.463" y="-19.0245" width="50.6882" height="48.6194" filterUnits="userSpaceOnUse" color-interpolation-filters="sRGB">
<feFlood flood-opacity="0" result="BackgroundImageFix"/>
<feBlend mode="normal" in="SourceGraphic" in2="BackgroundImageFix" result="shape"/>
<feGaussianBlur stdDeviation="8.15485" result="effect1_foregroundBlur_0_58572"/>
</filter>
<linearGradient id="paint0_linear_0_58572" x1="9.20397" y1="13.1438" x2="11.4916" y2="23.4246" gradientUnits="userSpaceOnUse">
<stop stop-color="#7A58EB"/>
<stop offset="1" stop-color="#567CF7"/>
</linearGradient>
<linearGradient id="paint1_linear_0_58572" x1="4" y1="4.5" x2="20.5" y2="30.5" gradientUnits="userSpaceOnUse">
<stop stop-color="#004CFF"/>
<stop offset="0.448701" stop-color="#983DFF"/>
<stop offset="0.854963" stop-color="#EC7DFF"/>
</linearGradient>
<linearGradient id="paint2_linear_0_58572" x1="-3.57117" y1="3.05102" x2="2.53086" y2="27.051" gradientUnits="userSpaceOnUse">
<stop stop-color="#EBEEFF"/>
<stop offset="1" stop-color="#EBEEFF" stop-opacity="0.01"/>
</linearGradient>
</defs>
</svg>
