<svg width="24" height="24" viewBox="0 0 24 24" fill="none" xmlns="http://www.w3.org/2000/svg">
<g filter="url(#filter0_i_0_58581)">
<rect width="24" height="24" rx="12" fill="url(#paint0_linear_0_58581)" fill-opacity="0.8"/>
<rect width="24" height="24" rx="12" fill="url(#paint1_linear_0_58581)"/>
</g>
<rect x="0.5" y="0.5" width="23" height="23" rx="11.5" stroke="url(#paint2_linear_0_58581)"/>
<mask id="mask0_0_58581" style="mask-type:luminance" maskUnits="userSpaceOnUse" x="0" y="0" width="24" height="24">
<rect x="1" y="1" width="22" height="22" rx="11" fill="white" stroke="white" stroke-width="2"/>
</mask>
<g mask="url(#mask0_0_58581)">
<g filter="url(#filter1_f_0_58581)">
<path d="M-3.12586 6.58551C-3.5114 2.22668 0.208572 -1.88904 5.18293 -2.60721C10.1573 -3.32537 14.5023 -0.374031 14.8879 3.9848C15.2734 8.34363 11.5534 12.4594 6.57909 13.1775C1.60473 13.8957 -2.74033 10.9443 -3.12586 6.58551Z" fill="#A457EB"/>
</g>
<path fill-rule="evenodd" clip-rule="evenodd" d="M18.1107 10.6859L17.0336 9.60882C16.89 9.46522 16.7225 9.39342 16.531 9.39342H14.1376V7.69409C14.1376 7.31114 13.8265 7 13.4435 7H6.69409C6.31114 7 6 7.31114 6 7.69409V15.377C6 15.7599 6.31114 16.071 6.69409 16.071H7.36425C7.57965 16.6215 8.10621 16.9805 8.68063 16.9805C9.27898 16.9805 9.80553 16.6215 9.997 16.071H14.377C14.5924 16.6215 15.1189 16.9805 15.6933 16.9805C16.2917 16.9805 16.8182 16.6215 17.0097 16.071H17.6081C17.991 16.071 18.3022 15.7599 18.3022 15.377V11.1885C18.3022 10.997 18.2304 10.8295 18.1107 10.6859ZM7.3403 15.0897H6.95735V7.95735H13.2042V15.1137H10.0209C9.82945 14.5392 9.27897 14.1563 8.68061 14.1563C8.08226 14.1324 7.53177 14.5392 7.3403 15.0897ZM8.68031 16.0231C8.41703 16.0231 8.22556 15.8077 8.22556 15.5684C8.22556 15.3051 8.44097 15.1137 8.68031 15.1137C8.94359 15.1137 9.13506 15.3291 9.13506 15.5684C9.13506 15.8077 8.94359 16.0231 8.68031 16.0231ZM15.6934 16.0231C15.4301 16.0231 15.2386 15.8077 15.2386 15.5684C15.2386 15.3051 15.454 15.1137 15.6934 15.1137C15.9567 15.1137 16.1481 15.3291 16.1481 15.5684C16.1481 15.8077 15.9567 16.0231 15.6934 16.0231ZM17.0339 15.0898C16.8424 14.5154 16.2919 14.1324 15.6936 14.1324C15.0952 14.1324 14.5447 14.5154 14.3533 15.0898H14.1379V10.3508H16.4116L17.3211 11.2843V12.0502H14.7602V13.0075H17.345V15.1137L17.0339 15.0898Z" fill="white"/>
<path d="M18.1107 10.6859L18.1403 10.6611L18.1379 10.6587L18.1107 10.6859ZM17.0336 9.60882L17.0608 9.58164V9.58164L17.0336 9.60882ZM14.1376 9.39342H14.0992V9.43186H14.1376V9.39342ZM6.69409 16.071V16.1095V16.1095V16.071ZM7.36425 16.071L7.40005 16.057L7.39049 16.0326H7.36425V16.071ZM9.997 16.071V16.0326H9.96967L9.96069 16.0584L9.997 16.071ZM14.377 16.071L14.4128 16.057L14.4032 16.0326H14.377V16.071ZM17.0097 16.071V16.0326H16.9824L16.9734 16.0584L17.0097 16.071ZM6.95735 15.0897H6.91891V15.1282H6.95735V15.0897ZM6.95735 7.95735V7.91891H6.91891V7.95735H6.95735ZM13.2042 7.95735H13.2426V7.91891H13.2042V7.95735ZM13.2042 15.1137V15.1521H13.2426V15.1137H13.2042ZM10.0209 15.1137L9.98445 15.1258L9.99322 15.1521H10.0209V15.1137ZM8.68061 14.1563L8.67907 14.1947H8.68061V14.1563ZM7.3403 15.0897M9.13506 15.5684H9.09662V15.5684H9.13506ZM15.6934 16.0231V15.9847V15.9847V16.0231ZM16.1481 15.5684H16.1097V15.5684H16.1481ZM17.0339 15.0898M14.3533 15.0898V15.1282H14.381L14.3897 15.1019L14.3533 15.0898ZM14.1379 15.0898H14.0994V15.1282H14.1379V15.0898ZM14.1379 10.3508V10.3124H14.0994V10.3508H14.1379ZM16.4116 10.3508L16.4391 10.324L16.4278 10.3124H16.4116V10.3508ZM17.3211 11.2843H17.3596V11.2686L17.3486 11.2574L17.3211 11.2843ZM17.3211 12.0502V12.0886H17.3596V12.0502H17.3211ZM14.7602 12.0502V12.0117H14.7217V12.0502H14.7602ZM14.7602 13.0075H14.7217V13.046H14.7602V13.0075ZM17.345 13.0075H17.3835V12.9691H17.345V13.0075ZM17.345 15.1137L17.3421 15.1521L17.3835 15.1552V15.1137H17.345ZM17.0339 15.0898M18.1107 10.6859L18.1379 10.6587L17.0608 9.58164L17.0336 9.60882L17.0065 9.63601L18.0835 10.713L18.1107 10.6859ZM17.0336 9.60882L17.0608 9.58164C16.9105 9.43131 16.7334 9.35497 16.531 9.35497V9.39342V9.43186C16.7116 9.43186 16.8696 9.49913 17.0065 9.63601L17.0336 9.60882ZM16.531 9.39342V9.35497H14.1376V9.39342V9.43186H16.531V9.39342ZM14.1376 9.39342H14.1761V7.69409H14.1376H14.0992V9.39342H14.1376ZM14.1376 7.69409H14.1761C14.1761 7.28991 13.8477 6.96156 13.4435 6.96156V7V7.03844C13.8052 7.03844 14.0992 7.33238 14.0992 7.69409H14.1376ZM13.4435 7V6.96156H6.69409V7V7.03844H13.4435V7ZM6.69409 7V6.96156C6.28991 6.96156 5.96156 7.28991 5.96156 7.69409H6H6.03844C6.03844 7.33238 6.33238 7.03844 6.69409 7.03844V7ZM6 7.69409H5.96156V15.377H6H6.03844V7.69409H6ZM6 15.377H5.96156C5.96156 15.7811 6.28991 16.1095 6.69409 16.1095V16.071V16.0326C6.33238 16.0326 6.03844 15.7387 6.03844 15.377H6ZM6.69409 16.071V16.1095H7.36425V16.071V16.0326H6.69409V16.071ZM7.36425 16.071L7.32845 16.0851C7.54953 16.6501 8.09014 17.019 8.68063 17.019V16.9805V16.9421C8.12228 16.9421 7.60978 16.593 7.40005 16.057L7.36425 16.071ZM8.68063 16.9805V17.019C9.29438 17.019 9.83616 16.6505 10.0333 16.0837L9.997 16.071L9.96069 16.0584C9.77491 16.5926 9.26358 16.9421 8.68063 16.9421V16.9805ZM9.997 16.071V16.1095H14.377V16.071V16.0326H9.997V16.071ZM14.377 16.071L14.3412 16.0851C14.5622 16.6501 15.1028 17.019 15.6933 17.019V16.9805V16.9421C15.135 16.9421 14.6225 16.593 14.4128 16.057L14.377 16.071ZM15.6933 16.9805V17.019C16.3071 17.019 16.8489 16.6505 17.046 16.0837L17.0097 16.071L16.9734 16.0584C16.7876 16.5926 16.2763 16.9421 15.6933 16.9421V16.9805ZM17.0097 16.071V16.1095H17.6081V16.071V16.0326H17.0097V16.071ZM17.6081 16.071V16.1095C18.0122 16.1095 18.3406 15.7811 18.3406 15.377H18.3022H18.2637C18.2637 15.7387 17.9698 16.0326 17.6081 16.0326V16.071ZM18.3022 15.377H18.3406V11.1885H18.3022H18.2637V15.377H18.3022ZM18.3022 11.1885H18.3406C18.3406 10.9866 18.2647 10.8106 18.1402 10.6612L18.1107 10.6859L18.0812 10.7105C18.196 10.8483 18.2637 11.0074 18.2637 11.1885H18.3022ZM7.3403 15.0897V15.0513H6.95735V15.0897V15.1282H7.3403V15.0897ZM6.95735 15.0897H6.9958V7.95735H6.95735H6.91891V15.0897H6.95735ZM6.95735 7.95735V7.9958H13.2042V7.95735V7.91891H6.95735V7.95735ZM13.2042 7.95735H13.1657V15.1137H13.2042H13.2426V7.95735H13.2042ZM13.2042 15.1137V15.0752H10.0209V15.1137V15.1521H13.2042V15.1137ZM10.0209 15.1137L10.0574 15.1015C9.86053 14.5109 9.29501 14.1179 8.68061 14.1179V14.1563V14.1947C9.26292 14.1947 9.79837 14.5676 9.98445 15.1258L10.0209 15.1137ZM8.68061 14.1563L8.68215 14.1179C8.06571 14.0932 7.50063 14.5118 7.30399 15.0771L7.3403 15.0897L7.37661 15.1024C7.56292 14.5667 8.09881 14.1715 8.67907 14.1947L8.68061 14.1563ZM7.3403 15.0897M8.68031 16.0231V15.9847C8.43957 15.9847 8.26401 15.7878 8.26401 15.5684H8.22556H8.18712C8.18712 15.8276 8.3945 16.0616 8.68031 16.0616V16.0231ZM8.22556 15.5684H8.26401C8.26401 15.3277 8.46087 15.1521 8.68031 15.1521V15.1137V15.0752C8.42107 15.0752 8.18712 15.2826 8.18712 15.5684H8.22556ZM8.68031 15.1137V15.1521C8.92105 15.1521 9.09662 15.349 9.09662 15.5684H9.13506H9.1735C9.1735 15.3092 8.96612 15.0752 8.68031 15.0752V15.1137ZM9.13506 15.5684H9.09662C9.09662 15.7878 8.92105 15.9847 8.68031 15.9847V16.0231V16.0616C8.96612 16.0616 9.1735 15.8276 9.1735 15.5684H9.13506ZM8.68031 16.0231M15.6934 16.0231V15.9847C15.4526 15.9847 15.2771 15.7878 15.2771 15.5684H15.2386H15.2002C15.2002 15.8276 15.4076 16.0616 15.6934 16.0616V16.0231ZM15.2386 15.5684H15.2771C15.2771 15.3277 15.4739 15.1521 15.6934 15.1521V15.1137V15.0752C15.4341 15.0752 15.2002 15.2826 15.2002 15.5684H15.2386ZM15.6934 15.1137V15.1521C15.9341 15.1521 16.1097 15.349 16.1097 15.5684H16.1481H16.1866C16.1866 15.3092 15.9792 15.0752 15.6934 15.0752V15.1137ZM16.1481 15.5684H16.1097C16.1097 15.7878 15.9341 15.9847 15.6934 15.9847V16.0231V16.0616C15.9792 16.0616 16.1866 15.8276 16.1866 15.5684H16.1481ZM17.0339 15.0898L17.0704 15.0776C16.8735 14.487 16.308 14.094 15.6936 14.094V14.1324V14.1709C16.2759 14.1709 16.8113 14.5437 16.9974 15.1019L17.0339 15.0898ZM15.6936 14.1324V14.094C15.0792 14.094 14.5137 14.487 14.3168 15.0776L14.3533 15.0898L14.3897 15.1019C14.5758 14.5437 15.1113 14.1709 15.6936 14.1709V14.1324ZM14.3533 15.0898V15.0513H14.1379V15.0898V15.1282H14.3533V15.0898ZM14.1379 15.0898H14.1763V10.3508H14.1379H14.0994V15.0898H14.1379ZM14.1379 10.3508V10.3893H16.4116V10.3508V10.3124H14.1379V10.3508ZM16.4116 10.3508L16.3841 10.3777L17.2936 11.3111L17.3211 11.2843L17.3486 11.2574L16.4391 10.324L16.4116 10.3508ZM17.3211 11.2843H17.2827V12.0502H17.3211H17.3596V11.2843H17.3211ZM17.3211 12.0502V12.0117H14.7602V12.0502V12.0886H17.3211V12.0502ZM14.7602 12.0502H14.7217V13.0075H14.7602H14.7986V12.0502H14.7602ZM14.7602 13.0075V13.046H17.345V13.0075V12.9691H14.7602V13.0075ZM17.345 13.0075H17.3066V15.1137H17.345H17.3835V13.0075H17.345ZM17.345 15.1137L17.348 15.0754L17.0368 15.0515L17.0339 15.0898L17.031 15.1281L17.3421 15.1521L17.345 15.1137ZM17.0339 15.0898" fill="white"/>
</g>
<defs>
<filter id="filter0_i_0_58581" x="0" y="-4" width="24" height="28" filterUnits="userSpaceOnUse" color-interpolation-filters="sRGB">
<feFlood flood-opacity="0" result="BackgroundImageFix"/>
<feBlend mode="normal" in="SourceGraphic" in2="BackgroundImageFix" result="shape"/>
<feColorMatrix in="SourceAlpha" type="matrix" values="0 0 0 0 0 0 0 0 0 0 0 0 0 0 0 0 0 0 127 0" result="hardAlpha"/>
<feOffset dy="-4"/>
<feGaussianBlur stdDeviation="5"/>
<feComposite in2="hardAlpha" operator="arithmetic" k2="-1" k3="1"/>
<feColorMatrix type="matrix" values="0 0 0 0 0.591919 0 0 0 0 0.57337 0 0 0 0 1 0 0 0 0.200175 0"/>
<feBlend mode="normal" in2="shape" result="effect1_innerShadow_0_58581"/>
</filter>
<filter id="filter1_f_0_58581" x="-19.463" y="-19.0245" width="50.6882" height="48.6194" filterUnits="userSpaceOnUse" color-interpolation-filters="sRGB">
<feFlood flood-opacity="0" result="BackgroundImageFix"/>
<feBlend mode="normal" in="SourceGraphic" in2="BackgroundImageFix" result="shape"/>
<feGaussianBlur stdDeviation="8.15485" result="effect1_foregroundBlur_0_58581"/>
</filter>
<linearGradient id="paint0_linear_0_58581" x1="9.20397" y1="13.1438" x2="11.4916" y2="23.4246" gradientUnits="userSpaceOnUse">
<stop stop-color="#7A58EB"/>
<stop offset="1" stop-color="#567CF7"/>
</linearGradient>
<linearGradient id="paint1_linear_0_58581" x1="4" y1="4.5" x2="20.5" y2="30.5" gradientUnits="userSpaceOnUse">
<stop stop-color="#004CFF"/>
<stop offset="0.448701" stop-color="#983DFF"/>
<stop offset="0.854963" stop-color="#EC7DFF"/>
</linearGradient>
<linearGradient id="paint2_linear_0_58581" x1="-3.57117" y1="3.05102" x2="2.53086" y2="27.051" gradientUnits="userSpaceOnUse">
<stop stop-color="#EBEEFF"/>
<stop offset="1" stop-color="#EBEEFF" stop-opacity="0.01"/>
</linearGradient>
</defs>
</svg>
