<svg width="24" height="24" viewBox="0 0 24 24" fill="none" xmlns="http://www.w3.org/2000/svg">
<g filter="url(#filter0_i_0_58472)">
<rect width="24" height="24" rx="12" fill="url(#paint0_linear_0_58472)" fill-opacity="0.8"/>
<rect width="24" height="24" rx="12" fill="url(#paint1_linear_0_58472)"/>
</g>
<rect x="0.5" y="0.5" width="23" height="23" rx="11.5" stroke="url(#paint2_linear_0_58472)"/>
<mask id="mask0_0_58472" style="mask-type:luminance" maskUnits="userSpaceOnUse" x="0" y="0" width="24" height="24">
<rect x="1" y="1" width="22" height="22" rx="11" fill="white" stroke="white" stroke-width="2"/>
</mask>
<g mask="url(#mask0_0_58472)">
<g filter="url(#filter1_f_0_58472)">
<path d="M-3.12586 6.58551C-3.5114 2.22668 0.208572 -1.88904 5.18293 -2.60721C10.1573 -3.32537 14.5023 -0.374031 14.8879 3.9848C15.2734 8.34363 11.5534 12.4594 6.57909 13.1775C1.60473 13.8957 -2.74033 10.9443 -3.12586 6.58551Z" fill="#A457EB"/>
</g>
<g filter="url(#filter2_d_0_58472)">
<path fill-rule="evenodd" clip-rule="evenodd" d="M11.874 11.2875C13.4446 11.2875 14.7177 10.0143 14.7177 8.44381C14.7177 6.87334 13.4445 5.6001 11.874 5.6001C10.3035 5.6001 9.03027 6.87334 9.03027 8.44381C9.03027 10.0143 10.3034 11.2875 11.874 11.2875ZM10.5099 7.07954C11.1606 6.42875 12.1805 6.3283 12.9457 6.83961C13.711 7.35093 14.0085 8.3316 13.6563 9.18189C13.3041 10.0322 12.4003 10.5153 11.4976 10.3357C10.595 10.1562 9.94484 9.36402 9.94483 8.44367C9.94343 7.93175 10.1469 7.44054 10.5099 7.07954ZM15.9985 11.967C15.8214 11.967 15.6445 11.9817 15.4698 12.0107C15.4395 11.984 15.4059 11.9615 15.3697 11.9436C15.3532 11.9354 15.3365 11.9273 15.3196 11.9193C15.1767 11.8517 15.029 11.7948 14.8776 11.7492C14.7527 11.7117 14.6255 11.6821 14.4969 11.6605C14.3276 11.6322 14.1562 11.6179 13.9845 11.6179H13.3433C13.1761 11.6181 13.0165 11.6877 12.9026 11.81L11.849 12.943L10.8024 11.8113C10.6884 11.6882 10.5283 11.6181 10.3605 11.6179H9.71562C8.82649 11.6179 7.99038 11.9919 7.36133 12.6711C6.74129 13.3406 6.3999 14.225 6.3999 15.1616V15.9153C6.3999 17.018 7.24587 17.915 8.28619 17.915L14.1492 17.916C14.2029 17.9157 14.2561 17.9061 14.3064 17.8874C14.8138 18.2038 15.3999 18.3711 15.9978 18.3702C17.7663 18.3702 19.1999 16.9367 19.1999 15.1681C19.1999 13.3996 17.767 11.967 15.9985 11.967ZM7.31446 15.9153V15.1616C7.31446 13.712 8.39165 12.5322 9.71519 12.5322H10.2232L11.4061 13.8119C11.52 13.9346 11.6797 14.0046 11.8471 14.0051H11.8478C12.015 14.0048 12.1746 13.9353 12.2885 13.813L13.4789 12.5322H13.9836C14.0455 12.5322 14.1079 12.5349 14.1694 12.5402C13.4716 13.0257 12.9954 13.7686 12.8458 14.6055C12.6962 15.4423 12.8855 16.3042 13.3719 17.0014L8.28461 17.0005C7.75002 17.0014 7.31446 16.5141 7.31446 15.9153ZM17.7576 16.9277C16.8678 17.8173 15.4538 17.9026 14.4635 17.1264C14.4464 17.1103 14.4282 17.0955 14.4089 17.0821C14.3505 17.0334 14.294 16.9819 14.2396 16.9275C13.6311 16.3177 13.3811 15.4367 13.5786 14.5982C13.7761 13.7597 14.3929 13.0829 15.2096 12.8087C15.2679 12.8031 15.3246 12.7864 15.3766 12.7595C15.5798 12.7076 15.7888 12.6814 15.9985 12.6815C17.0047 12.6814 17.9119 13.2875 18.2969 14.2171C18.682 15.1467 18.4691 16.2168 17.7576 16.9282V16.9277Z" fill="white"/>
<path d="M10.5099 7.07954M9.94483 8.44367L9.99483 8.44367L9.99483 8.44353L9.94483 8.44367ZM10.5099 7.07954M15.9985 11.967V11.917H15.9985L15.9985 11.967ZM15.4698 12.0107L15.4367 12.0482L15.4545 12.064L15.478 12.0601L15.4698 12.0107ZM15.3697 11.9436L15.3919 11.8988L15.3918 11.8987L15.3697 11.9436ZM15.3196 11.9193L15.341 11.8741L15.341 11.8741L15.3196 11.9193ZM14.8776 11.7492L14.892 11.7014L14.892 11.7013L14.8776 11.7492ZM14.4969 11.6605L14.5052 11.6112L14.5052 11.6112L14.4969 11.6605ZM13.9845 11.6179L13.9845 11.5679H13.9845V11.6179ZM13.3433 11.6179V11.5679H13.3432L13.3433 11.6179ZM12.9026 11.81L12.866 11.7759L12.866 11.7759L12.9026 11.81ZM11.849 12.943L11.8123 12.977L11.8489 13.0166L11.8856 12.9771L11.849 12.943ZM10.8024 11.8113L10.8391 11.7773L10.8391 11.7773L10.8024 11.8113ZM10.3605 11.6179L10.3606 11.5679H10.3605V11.6179ZM7.36133 12.6711L7.32465 12.6371H7.32465L7.36133 12.6711ZM8.28619 17.915L8.28619 17.865H8.28619V17.915ZM14.1492 17.916L14.1492 17.966L14.1494 17.966L14.1492 17.916ZM14.3064 17.8874L14.3329 17.8449L14.312 17.8319L14.289 17.8405L14.3064 17.8874ZM15.9978 18.3702V18.3202H15.9977L15.9978 18.3702ZM7.31446 15.9153M10.2232 12.5322L10.2599 12.4982L10.2451 12.4822H10.2232V12.5322ZM11.4061 13.8119L11.3694 13.8458L11.3695 13.8458L11.4061 13.8119ZM11.8471 14.0051L11.847 14.0551H11.8471V14.0051ZM11.8478 14.0051V14.0551H11.8479L11.8478 14.0051ZM12.2885 13.813L12.3251 13.8471L12.3252 13.847L12.2885 13.813ZM13.4789 12.5322V12.4822H13.4571L13.4423 12.4981L13.4789 12.5322ZM14.1694 12.5402L14.1979 12.5812L14.3115 12.5022L14.1737 12.4904L14.1694 12.5402ZM13.3719 17.0014L13.3719 17.0514L13.4677 17.0514L13.4129 16.9728L13.3719 17.0014ZM8.28461 17.0005L8.28462 16.9505H8.28453L8.28461 17.0005ZM7.31446 15.9153M17.7576 16.9277H17.8076V16.807L17.7223 16.8923L17.7576 16.9277ZM14.4635 17.1264L14.4289 17.1629L14.4326 17.1658L14.4635 17.1264ZM14.4089 17.0821L14.3767 17.1207L14.3804 17.1233L14.4089 17.0821ZM14.2396 16.9275L14.2042 16.9628L14.2042 16.9629L14.2396 16.9275ZM15.2096 12.8087L15.2047 12.7576L15.1936 12.7613L15.2096 12.8087ZM15.3766 12.7595L15.3639 12.7098L15.3537 12.7151L15.3766 12.7595ZM15.9985 12.6815L15.9985 12.7315H15.9985L15.9985 12.6815ZM17.7576 16.9282H17.7076V17.0489L17.793 16.9636L17.7576 16.9282ZM11.874 11.2875V11.3375C13.4722 11.3375 14.7677 10.0419 14.7677 8.44381H14.7177H14.6677C14.6677 9.98667 13.417 11.2375 11.874 11.2375V11.2875ZM14.7177 8.44381H14.7677C14.7677 6.84572 13.4721 5.5501 11.874 5.5501V5.6001V5.6501C13.4168 5.6501 14.6677 6.90095 14.6677 8.44381H14.7177ZM11.874 5.6001V5.5501C10.2759 5.5501 8.98027 6.84572 8.98027 8.44381H9.03027H9.08027C9.08027 6.90095 10.3311 5.6501 11.874 5.6501V5.6001ZM9.03027 8.44381H8.98027C8.98027 10.0419 10.2757 11.3375 11.874 11.3375V11.2875V11.2375C10.331 11.2375 9.08027 9.98667 9.08027 8.44381H9.03027ZM10.5099 7.07954L10.5452 7.1149C11.1791 6.48098 12.1726 6.38313 12.918 6.88119L12.9457 6.83961L12.9735 6.79804C12.1884 6.27347 11.1421 6.37653 10.4745 7.04419L10.5099 7.07954ZM12.9457 6.83961L12.918 6.88119C13.6634 7.37925 13.9532 8.3345 13.6101 9.16276L13.6563 9.18189L13.7025 9.20103C14.0638 8.3287 13.7586 7.3226 12.9735 6.79804L12.9457 6.83961ZM13.6563 9.18189L13.6101 9.16276C13.267 9.99102 12.3867 10.4616 11.5074 10.2867L11.4976 10.3357L11.4879 10.3848C12.4139 10.569 13.3412 10.0734 13.7025 9.20103L13.6563 9.18189ZM11.4976 10.3357L11.5074 10.2867C10.6281 10.1118 9.99484 9.34016 9.99483 8.44367L9.94483 8.44367L9.89483 8.44367C9.89484 9.38787 10.5618 10.2006 11.4879 10.3848L11.4976 10.3357ZM9.94483 8.44367L9.99483 8.44353C9.99347 7.94497 10.1916 7.46658 10.5451 7.11499L10.5099 7.07954L10.4746 7.04409C10.1022 7.41451 9.89339 7.91853 9.89483 8.44381L9.94483 8.44367ZM10.5099 7.07954M15.9985 11.967L15.9985 11.917C15.8186 11.917 15.639 11.9319 15.4616 11.9614L15.4698 12.0107L15.478 12.0601C15.65 12.0314 15.8241 12.017 15.9985 12.017L15.9985 11.967ZM15.4698 12.0107L15.5029 11.9733C15.4693 11.9436 15.432 11.9186 15.3919 11.8988L15.3697 11.9436L15.3476 11.9884C15.3798 12.0043 15.4098 12.0244 15.4367 12.0482L15.4698 12.0107ZM15.3697 11.9436L15.3918 11.8987C15.3751 11.8905 15.3582 11.8823 15.341 11.8741L15.3196 11.9193L15.2982 11.9645C15.3147 11.9723 15.3312 11.9804 15.3477 11.9885L15.3697 11.9436ZM15.3196 11.9193L15.341 11.8741C15.1958 11.8054 15.0458 11.7477 14.892 11.7014L14.8776 11.7492L14.8632 11.7971C15.0122 11.842 15.1576 11.8979 15.2982 11.9645L15.3196 11.9193ZM14.8776 11.7492L14.892 11.7013C14.7651 11.6632 14.6359 11.6331 14.5052 11.6112L14.4969 11.6605L14.4886 11.7098C14.6152 11.731 14.7403 11.7602 14.8632 11.7971L14.8776 11.7492ZM14.4969 11.6605L14.5052 11.6112C14.3331 11.5824 14.1589 11.5679 13.9845 11.5679L13.9845 11.6179L13.9845 11.6679C14.1534 11.6679 14.322 11.6819 14.4887 11.7098L14.4969 11.6605ZM13.9845 11.6179V11.5679H13.3433V11.6179V11.6679H13.9845V11.6179ZM13.3433 11.6179L13.3432 11.5679C13.1622 11.5681 12.9894 11.6435 12.866 11.7759L12.9026 11.81L12.9392 11.8441C13.0437 11.7319 13.19 11.6681 13.3433 11.6679L13.3433 11.6179ZM12.9026 11.81L12.866 11.7759L11.8124 12.909L11.849 12.943L11.8856 12.9771L12.9392 11.844L12.9026 11.81ZM11.849 12.943L11.8857 12.9091L10.8391 11.7773L10.8024 11.8113L10.7657 11.8452L11.8123 12.977L11.849 12.943ZM10.8024 11.8113L10.8391 11.7773C10.7156 11.644 10.5422 11.5681 10.3606 11.5679L10.3605 11.6179L10.3605 11.6679C10.5143 11.6681 10.6611 11.7324 10.7657 11.8452L10.8024 11.8113ZM10.3605 11.6179V11.5679H9.71562V11.6179V11.6679H10.3605V11.6179ZM9.71562 11.6179V11.5679C8.81193 11.5679 7.96272 11.9482 7.32465 12.6371L7.36133 12.6711L7.39802 12.7051C8.01804 12.0356 8.84105 11.6679 9.71562 11.6679V11.6179ZM7.36133 12.6711L7.32465 12.6371C6.6958 13.3161 6.3499 14.2128 6.3499 15.1616H6.3999H6.4499C6.4499 14.2372 6.78678 13.365 7.39802 12.7051L7.36133 12.6711ZM6.3999 15.1616H6.3499V15.9153H6.3999H6.4499V15.1616H6.3999ZM6.3999 15.9153H6.3499C6.3499 17.0428 7.21555 17.965 8.28619 17.965V17.915V17.865C7.2762 17.865 6.4499 16.9931 6.4499 15.9153H6.3999ZM8.28619 17.915L8.28618 17.965L14.1492 17.966L14.1492 17.916L14.1492 17.866L8.28619 17.865L8.28619 17.915ZM14.1492 17.916L14.1494 17.966C14.209 17.9657 14.268 17.955 14.3238 17.9342L14.3064 17.8874L14.289 17.8405C14.2442 17.8572 14.1968 17.8658 14.149 17.866L14.1492 17.916ZM14.3064 17.8874L14.28 17.9298C14.7952 18.2512 15.3906 18.4212 15.9979 18.4202L15.9978 18.3702L15.9977 18.3202C15.4092 18.3211 14.8323 18.1564 14.3329 17.8449L14.3064 17.8874ZM15.9978 18.3702V18.4202C17.7939 18.4202 19.2499 16.9643 19.2499 15.1681H19.1999H19.1499C19.1499 16.909 17.7387 18.3202 15.9978 18.3202V18.3702ZM19.1999 15.1681H19.2499C19.2499 13.372 17.7947 11.917 15.9985 11.917V11.967V12.017C17.7394 12.017 19.1499 13.4272 19.1499 15.1681H19.1999ZM7.31446 15.9153H7.36446V15.1616H7.31446H7.26446V15.9153H7.31446ZM7.31446 15.1616H7.36446C7.36446 13.7352 8.42344 12.5822 9.71519 12.5822V12.5322V12.4822C8.35985 12.4822 7.26446 13.6887 7.26446 15.1616H7.31446ZM9.71519 12.5322V12.5822H10.2232V12.5322V12.4822H9.71519V12.5322ZM10.2232 12.5322L10.1865 12.5661L11.3694 13.8458L11.4061 13.8119L11.4428 13.7779L10.2599 12.4982L10.2232 12.5322ZM11.4061 13.8119L11.3695 13.8458C11.4927 13.9788 11.6657 14.0546 11.847 14.0551L11.8471 14.0051L11.8472 13.9551C11.6937 13.9547 11.5472 13.8905 11.4428 13.7779L11.4061 13.8119ZM11.8471 14.0051V14.0551H11.8478V14.0051V13.9551H11.8471V14.0051ZM11.8478 14.0051L11.8479 14.0551C12.0289 14.0548 12.2017 13.9795 12.3251 13.8471L12.2885 13.813L12.252 13.7789C12.1474 13.8911 12.0011 13.9549 11.8478 13.9551L11.8478 14.0051ZM12.2885 13.813L12.3252 13.847L13.5155 12.5662L13.4789 12.5322L13.4423 12.4981L12.2519 13.779L12.2885 13.813ZM13.4789 12.5322V12.5822H13.9836V12.5322V12.4822H13.4789V12.5322ZM13.9836 12.5322V12.5822C14.044 12.5822 14.1051 12.5848 14.1651 12.59L14.1694 12.5402L14.1737 12.4904C14.1108 12.485 14.0469 12.4822 13.9836 12.4822V12.5322ZM14.1694 12.5402L14.1408 12.4991C13.4321 12.9922 12.9485 13.7468 12.7966 14.5967L12.8458 14.6055L12.895 14.6143C13.0423 13.7905 13.511 13.0591 14.1979 12.5812L14.1694 12.5402ZM12.8458 14.6055L12.7966 14.5967C12.6446 15.4465 12.8369 16.3219 13.3309 17.03L13.3719 17.0014L13.4129 16.9728C12.9341 16.2865 12.7478 15.438 12.895 14.6143L12.8458 14.6055ZM13.3719 17.0014L13.3719 16.9514L8.28462 16.9505L8.28461 17.0005L8.2846 17.0505L13.3719 17.0514L13.3719 17.0014ZM8.28461 17.0005L8.28453 16.9505C7.78279 16.9513 7.36446 16.492 7.36446 15.9153H7.31446H7.26446C7.26446 16.5362 7.71726 17.0514 8.28469 17.0505L8.28461 17.0005ZM7.31446 15.9153M17.7576 16.9277L17.7223 16.8923C16.8503 17.7641 15.4648 17.8477 14.4943 17.0871L14.4635 17.1264L14.4326 17.1658C15.4429 17.9576 16.8853 17.8705 17.793 16.963L17.7576 16.9277ZM14.4635 17.1264L14.4979 17.0901C14.479 17.0722 14.4587 17.0558 14.4373 17.041L14.4089 17.0821L14.3804 17.1233C14.3976 17.1351 14.4139 17.1483 14.4291 17.1627L14.4635 17.1264ZM14.4089 17.0821L14.4409 17.0437C14.3837 16.996 14.3283 16.9455 14.2749 16.8921L14.2396 16.9275L14.2042 16.9629C14.2598 17.0183 14.3173 17.0709 14.3769 17.1205L14.4089 17.0821ZM14.2396 16.9275L14.2749 16.8922C13.6787 16.2946 13.4337 15.4313 13.6273 14.6097L13.5786 14.5982L13.5299 14.5868C13.3285 15.4421 13.5835 16.3408 14.2042 16.9628L14.2396 16.9275ZM13.5786 14.5982L13.6273 14.6097C13.8208 13.788 14.4252 13.1248 15.2255 12.8561L15.2096 12.8087L15.1936 12.7613C14.3606 13.041 13.7314 13.7314 13.5299 14.5868L13.5786 14.5982ZM15.2096 12.8087L15.2143 12.8585C15.279 12.8523 15.3419 12.8338 15.3996 12.804L15.3766 12.7595L15.3537 12.7151C15.3073 12.7391 15.2568 12.7539 15.2048 12.7589L15.2096 12.8087ZM15.3766 12.7595L15.389 12.808C15.5881 12.7571 15.7929 12.7314 15.9985 12.7315L15.9985 12.6815L15.9985 12.6315C15.7846 12.6314 15.5715 12.6581 15.3642 12.7111L15.3766 12.7595ZM15.9985 12.6815L15.9985 12.7315C16.9845 12.7314 17.8734 13.3253 18.2507 14.2363L18.2969 14.2171L18.3431 14.198C17.9503 13.2497 17.0249 12.6314 15.9985 12.6315L15.9985 12.6815ZM18.2969 14.2171L18.2507 14.2363C18.6281 15.1472 18.4195 16.1957 17.7223 16.8929L17.7576 16.9282L17.793 16.9636C18.5188 16.2378 18.7359 15.1463 18.3431 14.198L18.2969 14.2171ZM17.7576 16.9282H17.8076V16.9277H17.7576H17.7076V16.9282H17.7576Z" fill="white"/>
</g>
<g filter="url(#filter3_d_0_58472)">
<path d="M15.5273 13.6177C15.4289 13.8758 15.3148 14.1284 15.1855 14.3726V16.98H14.6543V15.189C14.6023 15.2558 14.5462 15.3188 14.4941 15.3745C14.4458 15.2407 14.301 14.9398 14.2119 14.8062C14.5314 14.4829 14.8402 13.9702 15.0186 13.4575L15.5273 13.6177ZM17.1621 15.937C17.396 16.1672 17.6444 16.4754 17.7744 16.687L17.3213 16.9731C17.2098 16.7539 16.9534 16.4158 16.7305 16.1743L17.1621 15.937ZM16.4375 16.103C16.248 16.43 15.9394 16.761 15.6719 16.9653C15.5752 16.8687 15.3708 16.7017 15.252 16.6274C15.5194 16.464 15.783 16.1999 15.9316 15.9438L16.4375 16.103ZM17.3066 14.1421H17.7598V14.6577H17.3066V15.3013H17.7861V15.8286H15.3604V15.3013H15.8203V14.6577H15.4492V14.1421H15.8203V13.4771H16.3477V14.1421H16.7793V13.4692H17.3066V14.1421ZM16.3477 15.3013H16.7793V14.6577H16.3477V15.3013Z" fill="white"/>
</g>
</g>
<defs>
<filter id="filter0_i_0_58472" x="0" y="-4" width="24" height="28" filterUnits="userSpaceOnUse" color-interpolation-filters="sRGB">
<feFlood flood-opacity="0" result="BackgroundImageFix"/>
<feBlend mode="normal" in="SourceGraphic" in2="BackgroundImageFix" result="shape"/>
<feColorMatrix in="SourceAlpha" type="matrix" values="0 0 0 0 0 0 0 0 0 0 0 0 0 0 0 0 0 0 127 0" result="hardAlpha"/>
<feOffset dy="-4"/>
<feGaussianBlur stdDeviation="5"/>
<feComposite in2="hardAlpha" operator="arithmetic" k2="-1" k3="1"/>
<feColorMatrix type="matrix" values="0 0 0 0 0.591919 0 0 0 0 0.57337 0 0 0 0 1 0 0 0 0.200175 0"/>
<feBlend mode="normal" in2="shape" result="effect1_innerShadow_0_58472"/>
</filter>
<filter id="filter1_f_0_58472" x="-19.463" y="-19.0245" width="50.6882" height="48.6194" filterUnits="userSpaceOnUse" color-interpolation-filters="sRGB">
<feFlood flood-opacity="0" result="BackgroundImageFix"/>
<feBlend mode="normal" in="SourceGraphic" in2="BackgroundImageFix" result="shape"/>
<feGaussianBlur stdDeviation="8.15485" result="effect1_foregroundBlur_0_58472"/>
</filter>
<filter id="filter2_d_0_58472" x="0.350098" y="1.55029" width="24.8999" height="24.8701" filterUnits="userSpaceOnUse" color-interpolation-filters="sRGB">
<feFlood flood-opacity="0" result="BackgroundImageFix"/>
<feColorMatrix in="SourceAlpha" type="matrix" values="0 0 0 0 0 0 0 0 0 0 0 0 0 0 0 0 0 0 127 0" result="hardAlpha"/>
<feOffset dy="2"/>
<feGaussianBlur stdDeviation="3"/>
<feColorMatrix type="matrix" values="0 0 0 0 0.240816 0 0 0 0 0.207237 0 0 0 0 0.788157 0 0 0 0.660894 0"/>
<feBlend mode="normal" in2="BackgroundImageFix" result="effect1_dropShadow_0_58472"/>
<feBlend mode="normal" in="SourceGraphic" in2="effect1_dropShadow_0_58472" result="shape"/>
</filter>
<filter id="filter3_d_0_58472" x="8.21191" y="9.45752" width="15.5742" height="15.5225" filterUnits="userSpaceOnUse" color-interpolation-filters="sRGB">
<feFlood flood-opacity="0" result="BackgroundImageFix"/>
<feColorMatrix in="SourceAlpha" type="matrix" values="0 0 0 0 0 0 0 0 0 0 0 0 0 0 0 0 0 0 127 0" result="hardAlpha"/>
<feOffset dy="2"/>
<feGaussianBlur stdDeviation="3"/>
<feColorMatrix type="matrix" values="0 0 0 0 0.240816 0 0 0 0 0.207237 0 0 0 0 0.788157 0 0 0 0.660894 0"/>
<feBlend mode="normal" in2="BackgroundImageFix" result="effect1_dropShadow_0_58472"/>
<feBlend mode="normal" in="SourceGraphic" in2="effect1_dropShadow_0_58472" result="shape"/>
</filter>
<linearGradient id="paint0_linear_0_58472" x1="9.20397" y1="13.1438" x2="11.4916" y2="23.4246" gradientUnits="userSpaceOnUse">
<stop stop-color="#7A58EB"/>
<stop offset="1" stop-color="#567CF7"/>
</linearGradient>
<linearGradient id="paint1_linear_0_58472" x1="4" y1="4.5" x2="20.5" y2="30.5" gradientUnits="userSpaceOnUse">
<stop stop-color="#004CFF"/>
<stop offset="0.448701" stop-color="#983DFF"/>
<stop offset="0.854963" stop-color="#EC7DFF"/>
</linearGradient>
<linearGradient id="paint2_linear_0_58472" x1="-3.57117" y1="3.05102" x2="2.53086" y2="27.051" gradientUnits="userSpaceOnUse">
<stop stop-color="#EBEEFF"/>
<stop offset="1" stop-color="#EBEEFF" stop-opacity="0.01"/>
</linearGradient>
</defs>
</svg>
