<svg width="24" height="24" viewBox="0 0 24 24" fill="none" xmlns="http://www.w3.org/2000/svg">
<g filter="url(#filter0_i_0_58527)">
<rect width="24" height="24" rx="12" fill="url(#paint0_linear_0_58527)" fill-opacity="0.8"/>
<rect width="24" height="24" rx="12" fill="url(#paint1_linear_0_58527)"/>
</g>
<rect x="0.5" y="0.5" width="23" height="23" rx="11.5" stroke="url(#paint2_linear_0_58527)"/>
<mask id="mask0_0_58527" style="mask-type:luminance" maskUnits="userSpaceOnUse" x="0" y="0" width="24" height="24">
<rect x="1" y="1" width="22" height="22" rx="11" fill="white" stroke="white" stroke-width="2"/>
</mask>
<g mask="url(#mask0_0_58527)">
<g filter="url(#filter1_f_0_58527)">
<path d="M-3.12586 6.58551C-3.5114 2.22668 0.208572 -1.88904 5.18293 -2.60721C10.1573 -3.32537 14.5023 -0.374031 14.8879 3.9848C15.2734 8.34363 11.5534 12.4594 6.57909 13.1775C1.60473 13.8957 -2.74033 10.9443 -3.12586 6.58551Z" fill="#A457EB"/>
</g>
<mask id="mask1_0_58527" style="mask-type:luminance" maskUnits="userSpaceOnUse" x="5" y="6" width="13" height="13">
<path fill-rule="evenodd" clip-rule="evenodd" d="M5 6H18V19H5V6Z" fill="white"/>
</mask>
<g mask="url(#mask1_0_58527)">
<path fill-rule="evenodd" clip-rule="evenodd" d="M16.2201 9.86106L16.0865 10.1675C15.9888 10.3918 15.6785 10.3918 15.5808 10.1675L15.4472 9.86106C15.2092 9.31471 14.7804 8.87972 14.2453 8.64175L13.8338 8.45874C13.6114 8.35979 13.6114 8.03602 13.8338 7.93706L14.2223 7.76428C14.7711 7.52019 15.2076 7.0691 15.4416 6.5042L15.5787 6.17308C15.6743 5.94231 15.993 5.94231 16.0886 6.17308L16.2257 6.5042C16.4597 7.0691 16.8962 7.52019 17.445 7.76428L17.8335 7.93706C18.056 8.03602 18.056 8.35979 17.8335 8.45874L17.422 8.64175C16.8869 8.87972 16.4582 9.31471 16.2201 9.86106ZM9.87533 7.08337C12.0786 7.08337 13.8977 8.72766 14.1727 10.856L15.3918 12.7729C15.472 12.8991 15.4558 13.0876 15.2699 13.1672L14.2087 13.6218V15.2084C14.2087 15.8067 13.7236 16.2917 13.1253 16.2917H12.0425L12.042 17.9167H7.16699L7.16713 15.9158C7.16717 15.2762 6.93056 14.6714 6.49289 14.1256C5.89791 13.3837 5.54199 12.4418 5.54199 11.4167C5.54199 9.02346 7.48209 7.08337 9.87533 7.08337ZM9.87506 8.16663C8.08013 8.16663 6.62506 9.62171 6.62506 11.4166C6.62506 12.1668 6.87866 12.8753 7.33778 13.4478C7.93029 14.1867 8.25026 15.028 8.2502 15.9159L8.25013 16.8333H10.9588L10.9593 15.2083H13.1251V12.9072L13.9645 12.5477L13.129 11.2339L13.098 10.9948C12.8902 9.38615 11.5132 8.16663 9.87506 8.16663ZM15.557 15.2045L16.4584 15.8054C17.0903 14.8596 17.4586 13.7228 17.4586 12.5C17.4586 12.13 17.4249 11.768 17.3604 11.4166L16.3079 11.6875C16.3522 11.9517 16.3753 12.2232 16.3753 12.5C16.3753 13.5005 16.0739 14.4306 15.557 15.2045Z" fill="white"/>
</g>
</g>
<defs>
<filter id="filter0_i_0_58527" x="0" y="-4" width="24" height="28" filterUnits="userSpaceOnUse" color-interpolation-filters="sRGB">
<feFlood flood-opacity="0" result="BackgroundImageFix"/>
<feBlend mode="normal" in="SourceGraphic" in2="BackgroundImageFix" result="shape"/>
<feColorMatrix in="SourceAlpha" type="matrix" values="0 0 0 0 0 0 0 0 0 0 0 0 0 0 0 0 0 0 127 0" result="hardAlpha"/>
<feOffset dy="-4"/>
<feGaussianBlur stdDeviation="5"/>
<feComposite in2="hardAlpha" operator="arithmetic" k2="-1" k3="1"/>
<feColorMatrix type="matrix" values="0 0 0 0 0.591919 0 0 0 0 0.57337 0 0 0 0 1 0 0 0 0.200175 0"/>
<feBlend mode="normal" in2="shape" result="effect1_innerShadow_0_58527"/>
</filter>
<filter id="filter1_f_0_58527" x="-19.463" y="-19.0245" width="50.6882" height="48.6194" filterUnits="userSpaceOnUse" color-interpolation-filters="sRGB">
<feFlood flood-opacity="0" result="BackgroundImageFix"/>
<feBlend mode="normal" in="SourceGraphic" in2="BackgroundImageFix" result="shape"/>
<feGaussianBlur stdDeviation="8.15485" result="effect1_foregroundBlur_0_58527"/>
</filter>
<linearGradient id="paint0_linear_0_58527" x1="9.20397" y1="13.1438" x2="11.4916" y2="23.4246" gradientUnits="userSpaceOnUse">
<stop stop-color="#7A58EB"/>
<stop offset="1" stop-color="#567CF7"/>
</linearGradient>
<linearGradient id="paint1_linear_0_58527" x1="4" y1="4.5" x2="20.5" y2="30.5" gradientUnits="userSpaceOnUse">
<stop stop-color="#004CFF"/>
<stop offset="0.448701" stop-color="#983DFF"/>
<stop offset="0.854963" stop-color="#EC7DFF"/>
</linearGradient>
<linearGradient id="paint2_linear_0_58527" x1="-3.57117" y1="3.05102" x2="2.53086" y2="27.051" gradientUnits="userSpaceOnUse">
<stop stop-color="#EBEEFF"/>
<stop offset="1" stop-color="#EBEEFF" stop-opacity="0.01"/>
</linearGradient>
</defs>
</svg>
