<?xml version="1.0" encoding="UTF-8"?>
<svg width="31px" height="31px" viewBox="0 0 31 31" version="1.1" xmlns="http://www.w3.org/2000/svg" xmlns:xlink="http://www.w3.org/1999/xlink">
    <title>编组 34</title>
    <defs>
        <linearGradient x1="59.7680919%" y1="50%" x2="69.3000436%" y2="92.8363974%" id="linearGradient-1">
            <stop stop-color="#6861D1" offset="0%"></stop>
            <stop stop-color="#8A9FE3" offset="100%"></stop>
        </linearGradient>
        <linearGradient x1="35.1201227%" y1="3.46944695e-15%" x2="60.5452641%" y2="100%" id="linearGradient-2">
            <stop stop-color="#BEC5FF" offset="0%"></stop>
            <stop stop-color="#29283F" stop-opacity="0" offset="100%"></stop>
        </linearGradient>
        <rect id="path-3" x="0" y="0" width="30" height="30" rx="10"></rect>
        <filter x="-23.3%" y="-23.3%" width="146.7%" height="146.7%" filterUnits="objectBoundingBox" id="filter-4">
            <feGaussianBlur stdDeviation="5" in="SourceAlpha" result="shadowBlurInner1"></feGaussianBlur>
            <feOffset dx="0" dy="-4" in="shadowBlurInner1" result="shadowOffsetInner1"></feOffset>
            <feComposite in="shadowOffsetInner1" in2="SourceAlpha" operator="arithmetic" k2="-1" k3="1" result="shadowInnerInner1"></feComposite>
            <feColorMatrix values="0 0 0 0 0.670215814   0 0 0 0 0.660201075   0 0 0 0 0.890540082  0 0 0 0.200174825 0" type="matrix" in="shadowInnerInner1"></feColorMatrix>
        </filter>
        <linearGradient x1="-38.507562%" y1="50%" x2="158.625265%" y2="118.767376%" id="linearGradient-5">
            <stop stop-color="#EA2BFF" offset="0%"></stop>
            <stop stop-color="#01FFDF" offset="100%"></stop>
        </linearGradient>
        <linearGradient x1="-38.507562%" y1="50%" x2="158.625265%" y2="135.249155%" id="linearGradient-6">
            <stop stop-color="#EA2BFF" offset="0%"></stop>
            <stop stop-color="#01FFDF" offset="100%"></stop>
        </linearGradient>
    </defs>
    <g id="Page-1" stroke="none" stroke-width="1" fill="none" fill-rule="evenodd">
        <g id="新建动作" transform="translate(-1146.000000, -827.000000)">
            <g id="编组-12" transform="translate(1040.000000, 0.000000)">
                <g id="编组-33" transform="translate(47.615051, 546.523010)">
                    <g id="编组-38" transform="translate(0.000000, 79.000000)">
                        <g id="编组-14" transform="translate(0.000000, 17.000000)">
                            <g id="编组-12" transform="translate(17.804348, 184.570740)">
                                <g id="编组-34" transform="translate(40.796226, 0.000000)">
                                    <g id="路径">
                                        <use fill-opacity="0.8" fill="url(#linearGradient-1)" fill-rule="evenodd" xlink:href="#path-3"></use>
                                        <use fill="black" fill-opacity="1" filter="url(#filter-4)" xlink:href="#path-3"></use>
                                        <rect stroke="url(#linearGradient-2)" stroke-width="1" stroke-linejoin="square" x="0.5" y="0.5" width="29" height="29" rx="10"></rect>
                                    </g>
                                    <g id="查找项目" transform="translate(7.000000, 7.000000)">
                                        <path d="M2.40178613,0 L13.2809568,0 C14.6757222,0 15.3731049,0.697382732 15.3731049,2.0921482 L15.3731049,13.3897485 C15.3731049,14.7845139 14.6757222,15.4818967 13.2809568,15.4818967 L2.40178613,15.4818967 C1.00702067,15.4818967 0.309637933,14.7845139 0.309637933,13.3897485 L0.309637933,2.0921482 C0.309637933,0.697382732 1.00702067,0 2.40178613,0 Z" id="路径" fill="#D4D8FF" fill-rule="nonzero"></path>
                                        <path d="M2.40178613,1.25528892 C1.93960151,1.25528892 1.56492685,1.62996358 1.56492685,2.0921482 L1.56492685,13.3897485 C1.56492685,13.8519331 1.93960151,14.2266077 2.40178613,14.2266077 L13.2809568,14.2266077 C13.7431414,14.2266077 14.117816,13.8519331 14.117816,13.3897485 L14.117816,2.0921482 C14.117816,1.62996358 13.7431414,1.25528892 13.2809568,1.25528892 L2.40178613,1.25528892 M2.40178613,0 L13.2809568,0 C14.4364183,0 15.3731049,0.936686653 15.3731049,2.0921482 L15.3731049,13.3897485 C15.3731049,14.54521 14.4364183,15.4818967 13.2809568,15.4818967 L2.40178613,15.4818967 C1.24632459,15.4818967 0.309637933,14.54521 0.309637933,13.3897485 L0.309637933,2.0921482 C0.309637933,0.936686653 1.24632459,0 2.40178613,0 Z" id="形状" fill="#FFFFFF" fill-rule="nonzero"></path>
                                        <path d="M15.5839935,15.809109 C15.3306985,15.8093117 15.086004,15.7172351 14.8956767,15.5501007 L5.66051616,7.46896906 C5.45169792,7.28626192 5.32402189,7.02807823 5.30558081,6.7512265 C5.28713972,6.47437477 5.3794445,6.20153816 5.56218519,5.99274929 C5.74489233,5.78393106 6.00307602,5.65625503 6.27992775,5.63781394 C6.55677948,5.61937285 6.82961609,5.71167763 7.03840496,5.89441833 L16.2735655,13.97555 C16.6014391,14.2625946 16.7170218,14.7228274 16.563676,15.1307254 C16.4103302,15.5386234 16.0201821,15.808731 15.5844119,15.8086902 L15.5839935,15.809109 Z" id="路径" fill="url(#linearGradient-5)"></path>
                                        <path d="M0,6.68190291 C0,10.1884976 2.84265665,13.0311543 6.34925135,13.0311543 C9.85584604,13.0311543 12.6985027,10.1884976 12.6985027,6.68190291 C12.6985027,3.17530822 9.85584604,0.332651563 6.34925135,0.332651563 C2.84265665,0.332651563 0,3.17530822 0,6.68190291 Z" id="路径" fill="#F8FAFF" fill-rule="nonzero"></path>
                                        <path d="M6.34925135,1.16949033 C4.11962345,1.16949033 2.10953888,2.5126009 1.25634906,4.57252995 C0.403159237,6.63245899 0.874896892,9.00350579 2.45157926,10.5799934 C3.84415812,11.9725723 5.87388604,12.5164362 7.77618414,12.006717 C9.67848224,11.4969978 11.1643462,10.0111338 11.6740654,8.1088357 C12.1837847,6.2065376 11.6399207,4.17680968 10.2473419,2.78423082 C9.2157969,1.74695705 7.81212724,1.16550995 6.34925135,1.16949033 M6.34925135,0.332651563 C9.85584604,0.332651563 12.6985027,3.17530822 12.6985027,6.68190291 C12.6985027,10.1884976 9.85584604,13.0311543 6.34925135,13.0311543 C2.84265665,13.0311543 0,10.1884976 0,6.68190291 C0,3.17530822 2.84265665,0.332651563 6.34925135,0.332651563 L6.34925135,0.332651563 Z" id="形状" fill="#A877F7" fill-rule="nonzero"></path>
                                        <path d="M6.34925135,3.5194117 C6.92698212,3.5194117 7.39532544,3.98775502 7.39532544,4.56548579 L7.39476013,5.6354117 L8.46566846,5.63582881 C9.04339923,5.63582881 9.51174256,6.10417214 9.51174256,6.68190291 C9.51174256,7.25963368 9.04339923,7.72797701 8.46566846,7.72797701 L7.39476013,7.7274117 L7.39532544,8.79832003 C7.39532544,9.3760508 6.92698212,9.84439412 6.34925135,9.84439412 C5.77152057,9.84439412 5.30317725,9.3760508 5.30317725,8.79832003 L5.30276013,7.7274117 L4.23283423,7.72797701 C3.65510346,7.72797701 3.18676013,7.25963368 3.18676013,6.68190291 C3.18676013,6.10417214 3.65510346,5.63582881 4.23283423,5.63582881 L5.30276013,5.6354117 L5.30317725,4.56548579 C5.30317725,3.98775502 5.77152057,3.5194117 6.34925135,3.5194117 Z" id="形状结合" fill="url(#linearGradient-6)"></path>
                                    </g>
                                </g>
                            </g>
                        </g>
                    </g>
                </g>
            </g>
        </g>
    </g>
</svg>