<svg width="16" height="16" viewBox="0 0 16 16" fill="none" xmlns="http://www.w3.org/2000/svg">
<path fill-rule="evenodd" clip-rule="evenodd" d="M12.6232 2.34268C12.9082 2.05776 13.3701 2.05762 13.6552 2.34235C13.9405 2.6273 13.9408 3.08962 13.6558 3.37488L9.0344 7.99994L13.655 12.6244C13.9403 12.91 13.9398 13.3729 13.6537 13.6578C13.3684 13.9419 12.907 13.9414 12.6222 13.6567L7.99994 9.0344L3.37782 13.656C3.09229 13.9415 2.62938 13.9415 2.34387 13.656C2.05835 13.3705 2.05834 12.9076 2.34384 12.6221L6.96548 7.99994L2.34384 3.37782C2.05834 3.09229 2.05835 2.62938 2.34387 2.34387C2.62938 2.05835 3.09229 2.05834 3.37782 2.34384L7.99994 6.96548L12.6232 2.34268Z" fill="#7D8999"/>
</svg>
