<svg width="14" height="14" viewBox="0 0 14 14" fill="none" xmlns="http://www.w3.org/2000/svg">
<g clip-path="url(#clip0_213_37504)">
<path fill-rule="evenodd" clip-rule="evenodd" d="M9.91658 0.583252C10.8831 0.583252 11.6666 1.36675 11.6666 2.33325C11.6666 3.29974 10.8831 4.08325 9.91658 4.08325C9.64637 4.08325 9.39141 4.02001 9.16292 3.91064L9.16235 3.91235L8.84961 4.22453C9.15514 4.68569 9.33325 5.23863 9.33325 5.83325C9.33325 6.44214 9.1465 7.00734 8.82739 7.47502L10.043 8.9943C10.3563 8.83804 10.7094 8.74992 11.0833 8.74992C12.3719 8.74992 13.4166 9.79459 13.4166 11.0833C13.4166 12.3719 12.3719 13.4166 11.0833 13.4166C9.79459 13.4166 8.74992 12.3719 8.74992 11.0833C8.74992 10.592 8.90198 10.1365 9.16121 9.7605L7.98543 8.29134C7.53233 8.58113 6.99433 8.74992 6.41658 8.74992C6.05408 8.74992 5.70741 8.68279 5.38721 8.56193L4.81071 9.13843C5.08668 9.52169 5.24992 9.99158 5.24992 10.4999C5.24992 11.7886 4.20525 12.8333 2.91659 12.8333C1.62792 12.8333 0.583252 11.7886 0.583252 10.4999C0.583252 9.21126 1.62792 8.16658 2.91659 8.16658C3.27218 8.16658 3.60903 8.24649 3.91064 8.38875L4.37948 7.91992C3.83703 7.39028 3.49992 6.65128 3.49992 5.83325C3.49992 5.39183 3.59783 4.97324 3.77336 4.59823L3.08577 3.91064C2.85752 4.01973 2.6031 4.08325 2.33325 4.08325C1.36675 4.08325 0.583252 3.29974 0.583252 2.33325C0.583252 1.36675 1.36675 0.583252 2.33325 0.583252C3.29974 0.583252 4.08325 1.36675 4.08325 2.33325C4.08325 2.6031 4.01973 2.85752 3.91064 3.08577L4.4786 3.65373C4.99384 3.19525 5.67263 2.91659 6.41658 2.91659C7.01092 2.91659 7.56371 3.09439 8.02474 3.39966L8.33862 3.08634C8.22946 2.85803 8.16658 2.6032 8.16658 2.33325C8.16658 1.36675 8.9501 0.583252 9.91658 0.583252ZM11.0833 9.91658C10.4389 9.91658 9.91658 10.4389 9.91658 11.0833C9.91658 11.7276 10.4389 12.2499 11.0833 12.2499C11.7276 12.2499 12.2499 11.7276 12.2499 11.0833C12.2499 10.4389 11.7276 9.91658 11.0833 9.91658ZM2.91659 9.33325C2.27225 9.33325 1.74992 9.85559 1.74992 10.4999C1.74992 11.1442 2.27225 11.6666 2.91659 11.6666C3.56091 11.6666 4.08325 11.1442 4.08325 10.4999C4.08325 9.85559 3.56091 9.33325 2.91659 9.33325ZM6.41658 4.08325C5.45008 4.08325 4.66658 4.86675 4.66658 5.83325C4.66658 6.79976 5.45008 7.58325 6.41658 7.58325C7.38309 7.58325 8.16658 6.79976 8.16658 5.83325C8.16658 4.86675 7.38309 4.08325 6.41658 4.08325ZM2.33325 1.74992C2.01109 1.74992 1.74992 2.01109 1.74992 2.33325C1.74992 2.65541 2.01109 2.91659 2.33325 2.91659C2.65541 2.91659 2.91659 2.65541 2.91659 2.33325C2.91659 2.01109 2.65541 1.74992 2.33325 1.74992ZM9.91658 1.74992C9.59443 1.74992 9.33325 2.01109 9.33325 2.33325C9.33325 2.65541 9.59443 2.91659 9.91658 2.91659C10.2387 2.91659 10.4999 2.65541 10.4999 2.33325C10.4999 2.01109 10.2387 1.74992 9.91658 1.74992Z" fill="#7D8999"/>
</g>
<defs>
<clipPath id="clip0_213_37504">
<rect width="14" height="14" fill="white"/>
</clipPath>
</defs>
</svg>
