<svg width="14" height="14" viewBox="0 0 14 14" fill="none" xmlns="http://www.w3.org/2000/svg">
<g clip-path="url(#clip0_397_2256)">
<path d="M7.59189 1.06626C7.64753 0.749079 7.95027 0.536836 8.26751 0.592306C8.58472 0.647949 8.79699 0.95066 8.74146 1.26792L6.6998 12.9346C6.64414 13.2518 6.34143 13.4641 6.02418 13.4086C5.70702 13.3529 5.49473 13.0502 5.55022 12.7329L7.59189 1.06626Z" fill="#2E90FA"/>
<path d="M4.24684 3.3865C4.47047 3.15483 4.83989 3.14827 5.07171 3.37168C5.30346 3.59538 5.31012 3.96475 5.08652 4.19655L1.99155 7.40204L5.07171 10.3717L5.11215 10.415C5.30335 10.6406 5.29617 10.979 5.08652 11.1966C4.86291 11.4283 4.49354 11.4349 4.26165 11.2114L0.761647 7.83783C0.650384 7.73047 0.586168 7.58284 0.583343 7.42824C0.580619 7.27359 0.639417 7.12369 0.746835 7.01239L4.24684 3.3865Z" fill="#2E90FA"/>
<path d="M8.92831 3.37168C9.14553 3.16221 9.48361 3.15492 9.70932 3.34548L9.75318 3.3865L13.2532 7.01239C13.3606 7.12369 13.4194 7.2736 13.4167 7.42824C13.4138 7.5829 13.3497 7.73046 13.2384 7.83783L9.73837 11.2114C9.50648 11.4349 9.13711 11.4283 8.9135 11.1966C8.69015 10.9647 8.69659 10.5952 8.92831 10.3717L12.0079 7.40204L8.9135 4.19655L8.8742 4.15155C8.69171 3.91918 8.71111 3.58133 8.92831 3.37168Z" fill="#2E90FA"/>
</g>
<defs>
<clipPath id="clip0_397_2256">
<rect width="14" height="14" fill="white"/>
</clipPath>
</defs>
</svg>
