<svg width="14" height="14" viewBox="0 0 14 14" fill="none" xmlns="http://www.w3.org/2000/svg">
<path fill-rule="evenodd" clip-rule="evenodd" d="M7.97526 0.616063C8.13977 0.558881 8.32274 0.577848 8.47314 0.670751C8.64508 0.777045 8.75 0.964782 8.75 1.16693V2.55633L11.4058 1.22845L11.4753 1.1994C11.6398 1.14221 11.8227 1.16118 11.9731 1.25408C12.1451 1.36038 12.25 1.54811 12.25 1.75026V9.91693C12.2499 10.1378 12.1252 10.3399 11.9276 10.4387L6.09424 13.3554C5.91349 13.4457 5.69878 13.4359 5.52686 13.3298C5.35492 13.2235 5.25005 13.0357 5.25 12.8336V11.4442L2.59424 12.7721C2.41349 12.8624 2.19878 12.8526 2.02686 12.7464C1.85492 12.6402 1.75005 12.4524 1.75 12.2503V4.08359L1.7557 4.00156C1.78235 3.81364 1.89961 3.64822 2.07243 3.56178L7.90576 0.645116L7.97526 0.616063ZM6.41667 5.02752V11.8897L11.0833 9.55633V2.69419L6.41667 5.02752ZM2.91667 4.44419V11.3063L5.25 10.1397V4.66693L5.2557 4.58489C5.28235 4.39697 5.39961 4.23155 5.57243 4.14512L7.58333 3.13966V2.11085L2.91667 4.44419Z" fill="#7D8999"/>
</svg>
