<svg width="14" height="14" viewBox="0 0 14 14" fill="none" xmlns="http://www.w3.org/2000/svg">
<path d="M8.99219 0.754482C9.20576 0.540956 9.54352 0.527748 9.77262 0.714606L9.81706 0.754482L11.0544 1.99179L11.0948 2.03622C11.2813 2.26531 11.2678 2.60321 11.0544 2.81666L9.81706 4.05453C9.58937 4.28206 9.21998 4.2819 8.99219 4.05453C8.76438 3.82673 8.76438 3.4569 8.99219 3.22909L9.30436 2.91692H2.62508C2.464 2.91692 2.33341 3.0475 2.33341 3.20858V11.3753C2.33352 11.5362 2.46406 11.6669 2.62508 11.6669H11.3751C11.5361 11.6669 11.6666 11.5363 11.6667 11.3753V5.25025C11.6667 4.92808 11.9279 4.66692 12.2501 4.66692C12.5722 4.66692 12.8334 4.92808 12.8334 5.25025V11.3753C12.8333 12.1806 12.1804 12.8336 11.3751 12.8336H2.62508C1.81974 12.8336 1.16686 12.1806 1.16675 11.3753V3.20858C1.16675 2.40317 1.81967 1.75025 2.62508 1.75025H9.16309L8.99219 1.57935L8.95231 1.53492C8.76544 1.3058 8.77862 0.96805 8.99219 0.754482Z" fill="#7D8999"/>
<path d="M4.66675 6.41692C4.98891 6.41692 5.25008 6.67808 5.25008 7.00025V9.91692C5.24997 10.239 4.98885 10.5003 4.66675 10.5003C4.34465 10.5003 4.08352 10.239 4.08342 9.91692V7.00025C4.08342 6.67808 4.34458 6.41692 4.66675 6.41692Z" fill="#7D8999"/>
<path d="M7.00008 4.37525C7.32225 4.37525 7.58342 4.63642 7.58342 4.95858V9.91692C7.58331 10.239 7.32218 10.5003 7.00008 10.5003C6.67798 10.5003 6.41686 10.239 6.41675 9.91692V4.95858C6.41675 4.63642 6.67792 4.37525 7.00008 4.37525Z" fill="#7D8999"/>
<path d="M9.33342 6.41692C9.65558 6.41692 9.91675 6.67808 9.91675 7.00025V9.91692C9.91664 10.239 9.65551 10.5003 9.33342 10.5003C9.01132 10.5003 8.75019 10.239 8.75008 9.91692V7.00025C8.75008 6.67808 9.01125 6.41692 9.33342 6.41692Z" fill="#7D8999"/>
</svg>
