<svg xmlns="http://www.w3.org/2000/svg" width="120" height="116" viewBox="0 0 120 116" fill="none">
    <path opacity="0.42" d="M119.441 104.87C119.441 90.0311 92.5756 77.9999 59.4414 77.9999C26.3072 77.9999 -0.558594 90.0311 -0.558594 104.87C-0.558594 119.71 119.441 119.71 119.441 104.87Z" fill="url(#paint0_linear_28255_11003)"/>
    <path d="M18.5132 44.9796L64.7377 34.8776L64.7377 78.3265L18.5132 90.8776L18.5132 44.9796Z" fill="url(#paint1_linear_28255_11003)"/>
    <path d="M100.554 46.2041L64.7373 34.8776V77.3521L100.554 91.1276L100.554 46.2041Z" fill="url(#paint2_linear_28255_11003)"/>
    <path d="M18.5128 44.9795L55.5536 57.5305L55.5536 107.714L18.5128 90.8775L18.5128 44.9795Z" fill="url(#paint3_linear_28255_11003)"/>
    <path fill-rule="evenodd" clip-rule="evenodd" d="M42.2578 65.8273C42.2578 65.0314 41.7574 64.3213 41.0078 64.0536L30.7747 60.3989C29.5481 59.9609 28.2578 60.8702 28.2578 62.1727C28.2578 62.9687 28.7581 63.6787 29.5078 63.9464L39.7408 67.6011C40.9674 68.0392 42.2578 67.1298 42.2578 65.8273Z" fill="#2E90FA"/>
    <path d="M18.5126 44.9795L7.79829 59.9795L18.5126 56.9183L18.5126 44.9795Z" fill="#E4E8EF"/>
    <path d="M100.625 46.2041L55.5539 57.5306L55.5539 107.714L100.625 91.1837L100.625 46.2041Z" fill="url(#paint4_linear_28255_11003)"/>
    <path d="M79.4315 84.623V90.1328L93.8202 85.082V79.877L79.4315 84.623Z" fill="url(#paint5_linear_28255_11003)" fill-opacity="0.8"/>
    <path d="M65.0428 80.7969V86L93.8202 77.123V71.918L65.0428 80.7969Z" fill="url(#paint6_linear_28255_11003)" fill-opacity="0.8"/>
    <path d="M100.625 46.2041L55.5536 57.5306L67.6863 77.7755L112.074 64L100.625 46.2041Z" fill="#F0F2F8"/>
    <path d="M86.2881 0L63.8197 20.9452L64.5813 29.704L86.2881 0Z" fill="#DCDFE6"/>
    <path d="M86.2889 0L66.1053 22.4684L78.2916 29.3232L86.2889 0Z" fill="#F8F9FA"/>
    <path d="M64.5814 29.7042L66.1047 22.4686L70.1628 24.694L64.5814 29.7042Z" fill="url(#paint7_linear_28255_11003)"/>
    <path d="M86.2878 0L63.8193 20.9452L55.4413 16.7561L86.2878 0Z" fill="#F6F7FA"/>
    <path d="M60.7728 28C60.7728 28 58.7878 42.3513 46.057 46.0955" stroke="url(#paint8_linear_28255_11003)" stroke-width="1.15554" stroke-linecap="round" stroke-linejoin="round"/>
    <path d="M61.7747 39.5286C61.7747 39.5286 57.9941 46.7306 51.9234 48.1771" stroke="url(#paint9_linear_28255_11003)" stroke-width="1.15554" stroke-linecap="round" stroke-linejoin="round"/>
    <defs>
        <linearGradient id="paint0_linear_28255_11003" x1="59.5579" y1="83.0543" x2="59.5586" y2="107.484" gradientUnits="userSpaceOnUse">
            <stop stop-color="#DEE2EA"/>
            <stop offset="1" stop-color="#DDE2EA" stop-opacity="0"/>
        </linearGradient>
        <linearGradient id="paint1_linear_28255_11003" x1="65.6048" y1="71.2061" x2="26.5274" y2="104.332" gradientUnits="userSpaceOnUse">
            <stop stop-color="#DBDFE6"/>
            <stop offset="1" stop-color="#E9EDF1"/>
        </linearGradient>
        <linearGradient id="paint2_linear_28255_11003" x1="87.6626" y1="86.563" x2="66.4996" y2="93.6415" gradientUnits="userSpaceOnUse">
            <stop stop-color="#F8F9FA"/>
            <stop offset="1" stop-color="#E1E6F0"/>
        </linearGradient>
        <linearGradient id="paint3_linear_28255_11003" x1="45.7578" y1="64.505" x2="30.3344" y2="113.726" gradientUnits="userSpaceOnUse">
            <stop stop-color="#F8F9FA"/>
            <stop offset="1" stop-color="#E1E6F0"/>
        </linearGradient>
        <linearGradient id="paint4_linear_28255_11003" x1="62.0741" y1="108" x2="76.0741" y2="54" gradientUnits="userSpaceOnUse">
            <stop stop-color="#E8EBF0"/>
            <stop offset="0.400404" stop-color="#E4E7ED"/>
            <stop offset="1" stop-color="#DBDFE6"/>
        </linearGradient>
        <linearGradient id="paint5_linear_28255_11003" x1="95.3842" y1="81.5611" x2="64.3622" y2="78.2" gradientUnits="userSpaceOnUse">
            <stop stop-color="#CFD4E2"/>
            <stop offset="1" stop-color="#D4DCED"/>
        </linearGradient>
        <linearGradient id="paint6_linear_28255_11003" x1="95.3842" y1="81.5611" x2="64.3622" y2="78.2" gradientUnits="userSpaceOnUse">
            <stop stop-color="#CFD4E2"/>
            <stop offset="1" stop-color="#D4DCED"/>
        </linearGradient>
        <linearGradient id="paint7_linear_28255_11003" x1="74.4828" y1="17.1371" x2="68.326" y2="31.4675" gradientUnits="userSpaceOnUse">
            <stop stop-color="#DBDFE6"/>
            <stop offset="1" stop-color="#E9EDF1"/>
        </linearGradient>
        <linearGradient id="paint8_linear_28255_11003" x1="61.4499" y1="24.7481" x2="50.3894" y2="47.1496" gradientUnits="userSpaceOnUse">
            <stop stop-color="#E6E7E9"/>
            <stop offset="1" stop-color="white" stop-opacity="0"/>
        </linearGradient>
        <linearGradient id="paint9_linear_28255_11003" x1="62.4454" y1="37.8009" x2="54.4328" y2="49.2662" gradientUnits="userSpaceOnUse">
            <stop stop-color="#E6E7E9"/>
            <stop offset="1" stop-color="white" stop-opacity="0"/>
        </linearGradient>
    </defs>
</svg>
