<svg xmlns="http://www.w3.org/2000/svg" width="14" height="14" viewBox="0 0 14 14" fill="none">
    <g clip-path="url(#clip0_132_26381)">
        <path d="M10.208 8.45801C10.5302 8.45801 10.792 8.71983 10.792 9.04199V10.5H12.25C12.5721 10.5 12.8328 10.761 12.833 11.083C12.833 11.4052 12.5722 11.667 12.25 11.667H10.792V13.125C10.792 13.4472 10.5302 13.708 10.208 13.708C9.88599 13.7078 9.625 13.4471 9.625 13.125V11.667H8.16699C7.84483 11.667 7.58301 11.4052 7.58301 11.083C7.58318 10.761 7.84493 10.5 8.16699 10.5H9.625V9.04199C9.625 8.71993 9.88599 8.45818 10.208 8.45801Z" fill="#7D8999"/>
        <path d="M10.208 8.45801C10.5302 8.45801 10.792 8.71983 10.792 9.04199V10.5H12.25C12.5721 10.5 12.8328 10.761 12.833 11.083C12.833 11.4052 12.5722 11.667 12.25 11.667H10.792V13.125C10.792 13.4472 10.5302 13.708 10.208 13.708C9.88599 13.7078 9.625 13.4471 9.625 13.125V11.667H8.16699C7.84483 11.667 7.58301 11.4052 7.58301 11.083C7.58318 10.761 7.84493 10.5 8.16699 10.5H9.625V9.04199C9.625 8.71993 9.88599 8.45818 10.208 8.45801Z" fill="#2E90FA"/>
        <path d="M7 0.583008C10.5438 0.583008 13.417 3.45617 13.417 7C13.417 7.69858 13.3031 8.37044 13.0967 9H11.8555C12.1097 8.38357 12.25 7.70818 12.25 7C12.25 4.1005 9.8995 1.75 7 1.75C4.1005 1.75 1.75 4.1005 1.75 7C1.75 7.71275 1.8922 8.39073 2.14844 9.00879C2.28086 9.32814 2.44357 9.63285 2.63379 9.91699C2.7288 10.0591 2.74276 10.2065 2.74707 10.2598C2.75307 10.3341 2.75123 10.4085 2.74609 10.4727C2.73567 10.6028 2.70972 10.7608 2.6748 10.9365C2.64608 11.0811 2.60795 11.2483 2.5625 11.4375C2.75182 11.392 2.91884 11.3539 3.06348 11.3252C3.23921 11.2903 3.39718 11.2643 3.52734 11.2539C3.5915 11.2488 3.66594 11.2469 3.74023 11.2529C3.79342 11.2572 3.94098 11.2714 4.08301 11.3662C4.36708 11.5563 4.672 11.7192 4.99121 11.8516C5.60927 12.1078 6.28726 12.25 7 12.25C7.22603 12.25 7.44848 12.2338 7.66699 12.2061V13.3818C7.44773 13.4045 7.22525 13.417 7 13.417C6.13119 13.417 5.3012 13.2437 4.54395 12.9297C4.20419 12.7888 3.88037 12.6173 3.57324 12.4229C3.50843 12.4306 3.41554 12.445 3.29102 12.4697C2.9766 12.5322 2.51599 12.6451 1.90332 12.8125C1.7014 12.8675 1.48589 12.8101 1.33789 12.6621C1.1898 12.514 1.1323 12.2977 1.1875 12.0957C1.35481 11.4833 1.46782 11.0233 1.53027 10.709C1.55504 10.5843 1.56844 10.4916 1.57617 10.4268C1.38187 10.1198 1.21111 9.79558 1.07031 9.45605C0.756343 8.6988 0.583008 7.86881 0.583008 7C0.583008 3.45617 3.45617 0.583008 7 0.583008ZM4.08301 6.125C4.48572 6.125 4.8125 6.45178 4.8125 6.85449C4.81232 7.25705 4.48561 7.58301 4.08301 7.58301C3.68056 7.58283 3.35467 7.25694 3.35449 6.85449C3.35449 6.45189 3.68045 6.12518 4.08301 6.125ZM7 6.125C7.40271 6.125 7.72949 6.45178 7.72949 6.85449C7.72932 7.25705 7.4026 7.58301 7 7.58301C6.5974 7.58301 6.27068 7.25705 6.27051 6.85449C6.27051 6.45178 6.59729 6.125 7 6.125ZM9.91699 6.125C10.3195 6.12518 10.6455 6.45189 10.6455 6.85449C10.6453 7.25694 10.3194 7.58283 9.91699 7.58301C9.51439 7.58301 9.18768 7.25705 9.1875 6.85449C9.1875 6.45178 9.51428 6.125 9.91699 6.125Z" fill="#2E90FA"/>
    </g>
    <defs>
        <clipPath id="clip0_132_26381">
            <rect width="14" height="14" fill="white"/>
        </clipPath>
    </defs>
</svg>
