<svg xmlns="http://www.w3.org/2000/svg" width="14" height="14" viewBox="0 0 14 14" fill="none">
    <g clip-path="url(#clip0_125_746)">
        <path fill-rule="evenodd" clip-rule="evenodd" d="M7.00039 4.66718C8.28895 4.66729 9.33372 5.71192 9.33372 7.00051C9.33364 8.28903 8.2889 9.33372 7.00039 9.33384C5.71178 9.33384 4.66714 8.2891 4.66706 7.00051C4.66706 5.71184 5.71172 4.66718 7.00039 4.66718ZM7.00039 5.83384C6.35606 5.83384 5.83372 6.35617 5.83372 7.00051C5.83381 7.64477 6.35611 8.16718 7.00039 8.16718C7.64457 8.16706 8.16697 7.6447 8.16706 7.00051C8.16706 6.35625 7.64462 5.83396 7.00039 5.83384Z" fill="#2E90FA"/>
        <path fill-rule="evenodd" clip-rule="evenodd" d="M5.46344 0.971782C6.4459 0.717219 7.46009 0.7118 8.41999 0.931905C8.67116 0.989514 8.85484 1.20569 8.87173 1.46283C8.88256 1.627 8.93049 1.79156 9.01927 1.94533C9.32696 2.47818 10.0085 2.66086 10.5414 2.35321L10.5545 2.34524L10.64 2.30365C10.8449 2.22303 11.0821 2.26378 11.2484 2.41644C11.7052 2.83601 12.1064 3.33118 12.4321 3.89528C12.6471 4.2676 12.8193 4.65363 12.9505 5.04714C13.0449 5.3305 12.9098 5.63926 12.6378 5.76263C12.6045 5.77772 12.5716 5.79467 12.5392 5.81333C12.0063 6.12099 11.8237 6.80258 12.1313 7.33547C12.2683 7.57275 12.4781 7.73969 12.7169 7.82595C12.9979 7.92735 13.1572 8.22527 13.0855 8.51524C12.8303 9.54615 12.3128 10.5122 11.5622 11.3054C11.344 11.536 10.9815 11.5501 10.7465 11.3368C10.3971 11.0191 9.86923 10.9481 9.43968 11.1961C9.01015 11.4441 8.80729 11.9366 8.90762 12.3981C8.97499 12.7083 8.78177 13.0153 8.47296 13.0891C7.41065 13.3425 6.31528 13.3078 5.29482 13.0133C5.00778 12.9304 4.83028 12.6432 4.88296 12.3491C4.92759 12.0992 4.88711 11.8343 4.75023 11.5971C4.4426 11.0643 3.7615 10.8812 3.22866 11.1887L3.08853 11.2792C2.85088 11.4176 2.5446 11.3719 2.35879 11.1625C2.08361 10.8521 1.83604 10.5094 1.62108 10.1371C1.29538 9.57294 1.06728 8.97771 0.932356 8.37225L0.919254 8.27826C0.906874 8.05841 1.02025 7.8466 1.21719 7.73651C1.22164 7.73402 1.2264 7.73111 1.23086 7.72854C1.76354 7.42085 1.94565 6.73977 1.63817 6.20697C1.54933 6.0531 1.4304 5.92932 1.29352 5.83783C1.07939 5.69461 0.984853 5.42727 1.06053 5.18101C1.34987 4.23966 1.86185 3.36387 2.57355 2.64032L2.61115 2.60557C2.80579 2.43971 3.08878 2.4192 3.30671 2.56057C3.64819 2.78192 4.0967 2.80634 4.47109 2.59019C4.84542 2.37402 5.04861 1.97345 5.02765 1.56708L5.02651 1.51524C5.03568 1.25962 5.21194 1.03695 5.46344 0.971782ZM7.78652 1.99945C7.25155 1.91799 6.70245 1.92098 6.16014 2.01483C6.04851 2.65731 5.66445 3.24853 5.05443 3.60077C4.44409 3.9531 3.73967 3.98973 3.12726 3.76483C2.7748 4.18763 2.49704 4.66209 2.30011 5.1662C2.43221 5.30083 2.55044 5.45337 2.64875 5.62364C3.20447 6.58649 2.97817 7.7854 2.16738 8.48676C2.27802 8.85095 2.43209 9.20904 2.63109 9.55373C2.72795 9.72148 2.83401 9.88076 2.94611 10.0328C3.98078 9.62182 5.18761 10.021 5.76081 11.0138C5.94043 11.325 6.037 11.6618 6.05988 11.9981C6.60295 12.1038 7.16384 12.1208 7.71987 12.0443C7.75883 11.2991 8.16121 10.5875 8.85635 10.1861C9.55152 9.78474 10.3688 9.79258 11.0336 10.1314C11.3778 9.68819 11.643 9.19374 11.8231 8.67076C11.5434 8.48277 11.3004 8.22992 11.1208 7.9188C10.5476 6.92598 10.8056 5.68124 11.679 4.99074C11.6034 4.81775 11.5183 4.64626 11.4215 4.47862C11.2225 4.13386 10.989 3.82177 10.7288 3.5438C9.7161 3.89491 8.5645 3.49135 8.00869 2.52867C7.91057 2.35871 7.83707 2.18081 7.78652 1.99945Z" fill="#2E90FA"/>
    </g>
    <defs>
        <clipPath id="clip0_125_746">
            <rect width="14" height="14" fill="white"/>
        </clipPath>
    </defs>
</svg>
